<svg width="25" height="25" viewBox="0 0 25 25" fill="none" xmlns="http://www.w3.org/2000/svg">
<path d="M20.1218 0.333229L24.667 4.87845C24.8802 5.09167 25 5.38086 25 5.68239C25 5.98392 24.8802 6.27311 24.667 6.48633C24.4538 6.69954 24.1646 6.81933 23.8631 6.81933C23.5615 6.81933 23.2723 6.69954 23.0591 6.48633L20.4541 3.87992V23.8633C20.4541 24.1647 20.3344 24.4537 20.1213 24.6668C19.9082 24.8799 19.6192 24.9996 19.3178 24.9996C19.0165 24.9996 18.7274 24.8799 18.5143 24.6668C18.3012 24.4537 18.1815 24.1647 18.1815 23.8633V3.87992L15.5765 6.48633C15.3633 6.69954 15.0741 6.81933 14.7726 6.81933C14.4711 6.81933 14.1819 6.69954 13.9687 6.48633C13.7555 6.27311 13.6357 5.98392 13.6357 5.68239C13.6357 5.38086 13.7555 5.09167 13.9687 4.87845L18.5139 0.333229C18.6194 0.227579 18.7448 0.143766 18.8827 0.0865822C19.0206 0.029398 19.1685 -3.24249e-05 19.3178 -3.24249e-05C19.4672 -3.24249e-05 19.615 0.029398 19.753 0.0865822C19.8909 0.143766 20.0162 0.227579 20.1218 0.333229ZM11.0313 20.122C11.2445 19.9088 11.3643 19.6196 11.3643 19.3181C11.3643 19.0165 11.2445 18.7273 11.0313 18.5141C10.8181 18.3009 10.5289 18.1811 10.2274 18.1811C9.92585 18.1811 9.63667 18.3009 9.42345 18.5141L6.81847 21.1205L6.81847 1.13717C6.81847 0.835798 6.69875 0.546774 6.48565 0.333675C6.27255 0.120577 5.98353 0.000860214 5.68216 0.000860214C5.3808 0.000860214 5.09177 0.120577 4.87867 0.333675C4.66557 0.546774 4.54586 0.835798 4.54586 1.13717L4.54586 21.1205L1.94087 18.5141C1.72766 18.3009 1.43847 18.1811 1.13694 18.1811C0.835403 18.1811 0.546219 18.3009 0.333001 18.5141C0.119784 18.7273 4.49322e-09 19.0165 0 19.3181C-4.49322e-09 19.6196 0.119784 19.9088 0.333001 20.122L4.87822 24.6672C4.98376 24.7729 5.10908 24.8567 5.24702 24.9139C5.38497 24.9711 5.53283 25.0005 5.68216 25.0005C5.83149 25.0005 5.97935 24.9711 6.1173 24.9139C6.25524 24.8567 6.38057 24.7729 6.4861 24.6672L11.0313 20.122Z" fill="white"/>
</svg>
