<svg width="36" height="37" viewBox="0 0 36 37" fill="none" xmlns="http://www.w3.org/2000/svg">
<path fill-rule="evenodd" clip-rule="evenodd" d="M10.5787 0.769621C12.4987 0.682621 13.1115 0.661621 18 0.661621C22.8885 0.661621 23.5012 0.682621 25.4212 0.769621C28.3477 0.903121 30.9165 1.62012 32.979 3.68262C35.0423 5.74587 35.7585 8.31537 35.892 11.2404C35.979 13.1604 36 13.7731 36 18.6616C36 23.5501 35.979 24.1629 35.892 26.0829C35.7585 29.0094 35.0415 31.5781 32.979 33.6406C30.9158 35.7039 28.3455 36.4201 25.4212 36.5536C23.5012 36.6406 22.8885 36.6616 18 36.6616C13.1115 36.6616 12.4987 36.6406 10.5787 36.5536C7.65225 36.4201 5.0835 35.7031 3.021 33.6406C0.95775 31.5774 0.2415 29.0079 0.108 26.0829C0.021 24.1629 0 23.5501 0 18.6616C0 13.7731 0.021 13.1604 0.108 11.2404C0.2415 8.31387 0.9585 5.74512 3.021 3.68262C5.08425 1.61937 7.65375 0.903121 10.5787 0.769621ZM25.2719 4.00979C23.3737 3.92279 22.8044 3.90479 17.9984 3.90479C13.1924 3.90479 12.6232 3.92354 10.7249 4.00979C8.67666 4.10353 6.77541 4.51378 5.31291 5.97628C3.85041 7.43878 3.44016 9.34003 3.34641 11.3883C3.25941 13.2865 3.24141 13.8558 3.24141 18.6618C3.24141 23.4678 3.26016 24.037 3.34641 25.9353C3.44016 27.9835 3.85041 29.8848 5.31291 31.3473C6.77541 32.8098 8.67666 33.22 10.7249 33.3138C12.6224 33.4008 13.1917 33.4188 17.9984 33.4188C22.8052 33.4188 23.3744 33.4 25.2719 33.3138C27.3202 33.22 29.2214 32.8098 30.6839 31.3473C32.1464 29.8848 32.5567 27.9835 32.6504 25.9353C32.7374 24.037 32.7554 23.4678 32.7554 18.6618C32.7554 13.8558 32.7367 13.2865 32.6504 11.3883C32.5567 9.34003 32.1464 7.43878 30.6839 5.97628C29.2214 4.51378 27.3202 4.10353 25.2719 4.00979Z" fill="white"/>
<path fill-rule="evenodd" clip-rule="evenodd" d="M9 18.6614C9 13.6911 13.029 9.66138 18 9.66138C22.971 9.66138 27 13.6903 27 18.6614C27 23.6324 22.971 27.6614 18 27.6614C13.029 27.6614 9 23.6317 9 18.6614ZM12.0008 18.6612C12.0008 21.8876 14.6167 24.5035 17.8431 24.5035C21.0695 24.5035 23.6854 21.8876 23.6854 18.6612C23.6854 15.4349 21.0695 12.819 17.8431 12.819C14.6167 12.819 12.0008 15.4349 12.0008 18.6612Z" fill="white"/>
<ellipse cx="26.9986" cy="9.66159" rx="2.45455" ry="2.45456" fill="white"/>
</svg>
