<svg width="12" height="12" viewBox="0 0 12 12" fill="none" xmlns="http://www.w3.org/2000/svg">
<path fill-rule="evenodd" clip-rule="evenodd" d="M3.52625 0.036C4.16625 0.007 4.3705 0 6 0C7.6295 0 7.83375 0.007 8.47375 0.036C9.44925 0.0805 10.3055 0.3195 10.993 1.007C11.6808 1.69475 11.9195 2.55125 11.964 3.52625C11.993 4.16625 12 4.3705 12 6C12 7.6295 11.993 7.83375 11.964 8.47375C11.9195 9.44925 11.6805 10.3055 10.993 10.993C10.3053 11.6808 9.4485 11.9195 8.47375 11.964C7.83375 11.993 7.6295 12 6 12C4.3705 12 4.16625 11.993 3.52625 11.964C2.55075 11.9195 1.6945 11.6805 1.007 10.993C0.31925 10.3053 0.0805 9.44875 0.036 8.47375C0.007 7.83375 0 7.6295 0 6C0 4.3705 0.007 4.16625 0.036 3.52625C0.0805 2.55075 0.3195 1.6945 1.007 1.007C1.69475 0.31925 2.55125 0.0805 3.52625 0.036ZM8.4245 1.11605C7.79175 1.08705 7.602 1.08105 6 1.08105C4.398 1.08105 4.20825 1.0873 3.5755 1.11605C2.89275 1.1473 2.259 1.28405 1.7715 1.77155C1.284 2.25905 1.14725 2.8928 1.116 3.57555C1.087 4.2083 1.081 4.39805 1.081 6.00005C1.081 7.60205 1.08725 7.7918 1.116 8.42455C1.14725 9.1073 1.284 9.74105 1.7715 10.2285C2.259 10.716 2.89275 10.8528 3.5755 10.884C4.208 10.913 4.39775 10.919 6 10.919C7.60225 10.919 7.792 10.9128 8.4245 10.884C9.10725 10.8528 9.741 10.716 10.2285 10.2285C10.716 9.74105 10.8527 9.1073 10.884 8.42455C10.913 7.7918 10.919 7.60205 10.919 6.00005C10.919 4.39805 10.9127 4.2083 10.884 3.57555C10.8527 2.8928 10.716 2.25905 10.2285 1.77155C9.741 1.28405 9.10725 1.1473 8.4245 1.11605Z" fill="#7D818D"/>
<path fill-rule="evenodd" clip-rule="evenodd" d="M3 5.99988C3 4.34311 4.34299 2.99988 6 2.99988C7.65701 2.99988 9 4.34287 9 5.99988C9 7.65689 7.65701 8.99988 6 8.99988C4.34299 8.99988 3 7.65665 3 5.99988ZM4.00001 5.99986C4.00001 7.07532 4.87197 7.94728 5.94743 7.94728C7.02289 7.94728 7.89485 7.07532 7.89485 5.99986C7.89485 4.9244 7.02289 4.05244 5.94743 4.05244C4.87197 4.05244 4.00001 4.9244 4.00001 5.99986Z" fill="#7D818D"/>
<ellipse cx="9.00001" cy="3.00007" rx="0.818182" ry="0.818186" fill="#7D818D"/>
</svg>
