<svg width="12" height="12" viewBox="0 0 12 12" fill="none" xmlns="http://www.w3.org/2000/svg">
<path fill-rule="evenodd" clip-rule="evenodd" d="M8.03192 3.21618L8.03171 3.54785H8.03123V8.00535C8.03123 9.06803 7.61043 10.0788 6.85511 10.8302C6.09972 11.5816 5.08362 12 4.01562 12C2.94761 12 1.93144 11.5816 1.17619 10.8302C0.420803 10.0789 0 9.0681 0 8.00535C0 6.9426 0.420803 5.93216 1.17619 5.18079C1.93151 4.42937 2.94741 4.01077 4.01562 4.01077H4.76077V6.11073H4.01562C3.50846 6.11073 3.02738 6.30896 2.6687 6.66576C2.31009 7.02249 2.11102 7.50091 2.11102 8.00535C2.11102 8.50978 2.31009 8.98841 2.6687 9.34521C3.02738 9.70173 3.50852 9.90018 4.01562 9.90018C4.52271 9.90018 5.00385 9.70173 5.36253 9.34521C5.72093 8.98841 5.92021 8.51006 5.92021 8.00972V0H8.02244L8.12775 0.193867C8.45506 0.797319 8.89652 1.36943 9.44405 1.79151C9.86739 2.11799 10.3465 2.34832 10.8758 2.44064L11.25 2.50593L10.8484 4.53043L10.4888 4.46651C10.0606 4.39037 9.64003 4.26111 9.24634 4.07653C8.79444 3.86443 8.37529 3.57831 8.03192 3.21618Z" fill="#7D818D"/>
</svg>
