<svg width="34" height="37" viewBox="0 0 34 37" fill="none" xmlns="http://www.w3.org/2000/svg">
<path fill-rule="evenodd" clip-rule="evenodd" d="M24.2208 10.3102L24.2201 11.3052H24.2187V24.6777C24.2187 27.8657 22.9563 30.8981 20.6903 33.1524C18.4242 35.4064 15.3759 36.6616 12.1718 36.6616C8.96784 36.6616 5.91932 35.4064 3.65357 33.1524C1.38741 30.8983 0.125 27.8659 0.125 24.6777C0.125 21.4894 1.38741 18.4581 3.65357 16.204C5.91952 13.9497 8.96722 12.6939 12.1718 12.6939H14.4073V18.9938H12.1718C10.6504 18.9938 9.20714 19.5885 8.13111 20.6589C7.05528 21.7291 6.45805 23.1644 6.45805 24.6777C6.45805 26.191 7.05528 27.6268 8.13111 28.6972C9.20714 29.7668 10.6506 30.3621 12.1718 30.3621C13.6931 30.3621 15.1366 29.7668 16.2126 28.6972C17.2878 27.6268 17.8856 26.1918 17.8856 24.6908V0.661621H24.1923L24.5082 1.24322C25.4902 3.05358 26.8146 4.7699 28.4571 6.03615C29.7272 7.01559 31.1644 7.70658 32.7524 7.98355L33.875 8.1794L32.6703 14.2529L31.5915 14.0612C30.3067 13.8327 29.0451 13.4449 27.864 12.8912C26.5083 12.2549 25.2509 11.3965 24.2208 10.3102Z" fill="white"/>
</svg>
