<svg width="12" height="10" viewBox="0 0 12 10" fill="none" xmlns="http://www.w3.org/2000/svg">
<path fill-rule="evenodd" clip-rule="evenodd" d="M11.6667 1.15979C11.2417 1.36598 10.7931 1.49485 10.3208 1.57217C10.7931 1.26289 11.1708 0.773196 11.3361 0.180412C10.8875 0.463918 10.3917 0.670103 9.84862 0.798969C9.42362 0.309278 8.80973 0 8.14862 0C6.87362 0 5.83473 1.13402 5.83473 2.52577C5.83473 2.73196 5.85834 2.91237 5.90557 3.09278C3.99307 2.98969 2.26945 1.98454 1.11251 0.438144C0.923621 0.824742 0.805566 1.23711 0.805566 1.70103C0.805566 2.57732 1.20695 3.35052 1.84445 3.81443C1.46668 3.78866 1.11251 3.68557 0.781955 3.50515V3.53093C0.781955 4.76804 1.58473 5.79897 2.64723 6.03093C2.45834 6.08247 2.24584 6.10825 2.03334 6.10825C1.89168 6.10825 1.7264 6.08247 1.58473 6.0567C1.89168 7.06186 2.74168 7.80928 3.75695 7.80928C2.95418 8.47938 1.96251 8.89175 0.876399 8.89175C0.68751 8.89175 0.498621 8.89175 0.333344 8.86598C1.37223 9.58763 2.5764 10 3.89862 10C8.17223 10 10.5097 6.13402 10.5097 2.78351C10.5097 2.68041 10.5097 2.55155 10.5097 2.44845C10.9583 2.1134 11.3597 1.67526 11.6667 1.15979Z" fill="#7D818D"/>
</svg>
