<svg width="34" height="31" viewBox="0 0 34 31" fill="none" xmlns="http://www.w3.org/2000/svg">
<path fill-rule="evenodd" clip-rule="evenodd" d="M34 4.141C32.725 4.75956 31.3792 5.14616 29.9625 5.37812C31.3792 4.45028 32.5125 2.98121 33.0083 1.20286C31.6625 2.05337 30.175 2.67193 28.5458 3.05853C27.2708 1.58946 25.4292 0.661621 23.4458 0.661621C19.6208 0.661621 16.5042 4.06368 16.5042 8.23894C16.5042 8.8575 16.575 9.39874 16.7167 9.93997C10.9792 9.63069 5.80833 6.61523 2.3375 1.97605C1.77083 3.13585 1.41667 4.37296 1.41667 5.76471C1.41667 8.39358 2.62083 10.7132 4.53333 12.1049C3.4 12.0276 2.3375 11.7183 1.34583 11.1771V11.2544C1.34583 14.9657 3.75417 18.0585 6.94167 18.7544C6.375 18.909 5.7375 18.9864 5.1 18.9864C4.675 18.9864 4.17917 18.909 3.75417 18.8317C4.675 21.8472 7.225 24.0895 10.2708 24.0895C7.8625 26.0998 4.8875 27.3369 1.62917 27.3369C1.0625 27.3369 0.495833 27.3369 0 27.2596C3.11667 29.4245 6.72917 30.6616 10.6958 30.6616C23.5167 30.6616 30.5292 19.0637 30.5292 9.01214C30.5292 8.70286 30.5292 8.31626 30.5292 8.00698C31.875 7.00183 33.0792 5.6874 34 4.141Z" fill="white"/>
</svg>
