<svg width="12" height="9" viewBox="0 0 12 9" fill="none" xmlns="http://www.w3.org/2000/svg">
<path fill-rule="evenodd" clip-rule="evenodd" d="M10.6883 0.252409C11.2047 0.391295 11.6112 0.80059 11.7492 1.3202C12 2.26213 12 4.22727 12 4.22727C12 4.22727 12 6.19247 11.7492 7.1344C11.6112 7.65402 11.2047 8.06324 10.6883 8.2022C9.75252 8.45454 6 8.45454 6 8.45454C6 8.45454 2.24748 8.45454 1.31161 8.2022C0.795341 8.06324 0.388705 7.65402 0.250705 7.1344C0 6.19247 0 4.22727 0 4.22727C0 4.22727 0 2.26213 0.250705 1.3202C0.388705 0.80059 0.795341 0.391295 1.31161 0.252409C2.24748 0 6 0 6 0C6 0 9.75252 0 10.6883 0.252409ZM7.90845 4.22704L4.77208 6.01122V2.44279L7.90845 4.22704Z" fill="#7D818D"/>
</svg>
