<svg width="40" height="29" viewBox="0 0 40 29" fill="none" xmlns="http://www.w3.org/2000/svg">
<path fill-rule="evenodd" clip-rule="evenodd" d="M35.6277 1.41216C37.3489 1.87512 38.7041 3.23943 39.1641 4.97148C40 8.11125 40 14.6617 40 14.6617C40 14.6617 40 21.2124 39.1641 24.3521C38.7041 26.0842 37.3489 27.4483 35.6277 27.9115C32.5084 28.7526 20 28.7526 20 28.7526C20 28.7526 7.49159 28.7526 4.37205 27.9115C2.65114 27.4483 1.29568 26.0842 0.835682 24.3521C0 21.2124 0 14.6617 0 14.6617C0 14.6617 0 8.11125 0.835682 4.97148C1.29568 3.23943 2.65114 1.87512 4.37205 1.41216C7.49159 0.570801 20 0.570801 20 0.570801C20 0.570801 32.5084 0.570801 35.6277 1.41216ZM26.3615 14.6609L15.9069 20.6082V8.71343L26.3615 14.6609Z" fill="white"/>
</svg>
