<svg width="26.000000" height="16.281250" viewBox="0 0 26 16.2812" fill="none" xmlns="http://www.w3.org/2000/svg" xmlns:xlink="http://www.w3.org/1999/xlink">
	<desc>
			Created with Pixso.
	</desc>
	<defs>
		<linearGradient x1="11.565591" y1="-5.387750" x2="11.565591" y2="21.023941" id="paint_linear_612_139267_0" gradientUnits="userSpaceOnUse">
			<stop stop-color="#151617" stop-opacity="0.000000"/>
			<stop offset="1.000000" stop-color="#F6601F"/>
		</linearGradient>
	</defs>
	<path id="spotify" d="M21.02 15.76C20.69 16.28 19.99 16.42 19.45 16.11C15.15 13.64 9.76 13.08 3.39 14.44C2.78 14.57 2.17 14.22 2.04 13.64C1.91 13.07 2.28 12.49 2.89 12.37C9.85 10.86 15.83 11.5 20.63 14.28C21.17 14.59 21.35 15.25 21.02 15.76ZM23.25 11.07C22.83 11.71 21.96 11.89 21.28 11.52C16.37 8.66 8.89 7.83 3.08 9.5C2.32 9.71 1.53 9.32 1.32 8.62C1.1 7.9 1.51 7.16 2.28 6.95C8.91 5.05 17.16 5.96 22.81 9.23C23.44 9.6 23.66 10.43 23.25 11.07ZM23.44 6.17C17.55 2.87 7.84 2.56 2.21 4.17C1.32 4.44 0.36 3.96 0.07 3.1C-0.21 2.25 0.31 1.35 1.21 1.08C7.67 -0.77 18.4 -0.4 25.17 3.39C25.97 3.84 26.24 4.83 25.75 5.59C25.3 6.37 24.25 6.64 23.44 6.17Z" fill="url(#paint_linear_612_139267_0)" fill-opacity="0" fill-rule="nonzero"/>
	<path id="spotify" d="M21.02 15.76C20.69 16.28 19.99 16.42 19.45 16.11C15.15 13.64 9.76 13.08 3.39 14.44C2.78 14.57 2.17 14.22 2.04 13.64C1.91 13.07 2.28 12.49 2.89 12.37C9.85 10.86 15.83 11.5 20.63 14.28C21.17 14.59 21.35 15.25 21.02 15.76ZM23.25 11.07C22.83 11.71 21.96 11.89 21.28 11.52C16.37 8.66 8.89 7.83 3.08 9.5C2.32 9.71 1.53 9.32 1.32 8.62C1.1 7.9 1.51 7.16 2.28 6.95C8.91 5.05 17.16 5.96 22.81 9.23C23.44 9.6 23.66 10.43 23.25 11.07ZM23.44 6.17C17.55 2.87 7.84 2.56 2.21 4.17C1.32 4.44 0.36 3.96 0.07 3.1C-0.21 2.25 0.31 1.35 1.21 1.08C7.67 -0.77 18.4 -0.4 25.17 3.39C25.97 3.84 26.24 4.83 25.75 5.59C25.3 6.37 24.25 6.64 23.44 6.17Z" fill="#F6601F" fill-opacity="1.000000" fill-rule="nonzero"/>
</svg>
