<svg width="19.527176" height="24.867188" viewBox="0 0 19.5272 24.8672" fill="none" xmlns="http://www.w3.org/2000/svg" xmlns:xlink="http://www.w3.org/1999/xlink">
	<desc>
			Created with Pixso.
	</desc>
	<defs>
		<linearGradient x1="7.681036" y1="-5.399512" x2="7.681036" y2="29.524675" id="paint_linear_612_139268_0" gradientUnits="userSpaceOnUse">
			<stop stop-color="#151617" stop-opacity="0.000000"/>
			<stop offset="1.000000" stop-color="#F6601F"/>
		</linearGradient>
	</defs>
	<path id="Subtract" d="M18.4936 0.015625L6.7535 2.35156C6.1463 2.47266 5.70894 3.00391 5.70894 3.62109L5.70894 17.6367C5.70894 18.0273 5.44488 18.3711 5.06564 18.4727L1.98866 19.2852C0.816315 19.5977 0 20.6602 0 21.8711C0 23.7734 1.7527 25.1953 3.61439 24.8008L4.32562 24.6484C5.9642 24.3008 7.13618 22.8555 7.13618 21.1797L7.13618 8.70703C7.13618 8.40234 7.35193 8.13672 7.65291 8.07422L17.4361 6.03906C17.812 5.96094 18.1648 6.25 18.1648 6.63281L18.1648 14.9844C18.1648 15.3945 17.8867 15.7578 17.4877 15.8633L14.5481 16.6367C13.2897 16.9688 12.4126 18.1055 12.4126 19.4062C12.4126 21.2539 14.1145 22.6328 15.9213 22.2461L16.9585 22.0273C18.4563 21.707 19.5272 20.3828 19.5272 18.8516L19.5272 0.867188C19.5272 0.320312 19.0285 -0.0898438 18.4936 0.015625Z" clip-rule="evenodd" fill="url(#paint_linear_612_139268_0)" fill-opacity="0.000000" fill-rule="evenodd"/>
	<path id="Subtract" d="M18.4936 0.015625L6.7535 2.35156C6.1463 2.47266 5.70894 3.00391 5.70894 3.62109L5.70894 17.6367C5.70894 18.0273 5.44488 18.3711 5.06564 18.4727L1.98866 19.2852C0.816315 19.5977 0 20.6602 0 21.8711C0 23.7734 1.7527 25.1953 3.61439 24.8008L4.32562 24.6484C5.9642 24.3008 7.13618 22.8555 7.13618 21.1797L7.13618 8.70703C7.13618 8.40234 7.35193 8.13672 7.65291 8.07422L17.4361 6.03906C17.812 5.96094 18.1648 6.25 18.1648 6.63281L18.1648 14.9844C18.1648 15.3945 17.8867 15.7578 17.4877 15.8633L14.5481 16.6367C13.2897 16.9688 12.4126 18.1055 12.4126 19.4062C12.4126 21.2539 14.1145 22.6328 15.9213 22.2461L16.9585 22.0273C18.4563 21.707 19.5272 20.3828 19.5272 18.8516L19.5272 0.867188C19.5272 0.320312 19.0285 -0.0898438 18.4936 0.015625Z" clip-rule="evenodd" fill="#F6601F" fill-opacity="1.000000" fill-rule="evenodd"/>
</svg>
