<svg width="760.747986" height="415.484375" viewBox="0 0 760.748 415.484" fill="none" xmlns="http://www.w3.org/2000/svg" xmlns:xlink="http://www.w3.org/1999/xlink">
	<desc>
			Created with Pixso.
	</desc>
	<defs>
		<linearGradient x1="714.447876" y1="52.869934" x2="118.694061" y2="245.352600" id="paint_linear_604_120410_0" gradientUnits="userSpaceOnUse">
			<stop offset="0.376000" stop-color="#FE3C06"/>
			<stop offset="1.000000" stop-color="#FFA128"/>
		</linearGradient>
		<linearGradient x1="711.281189" y1="58.374084" x2="115.171371" y2="250.868042" id="paint_linear_604_120411_0" gradientUnits="userSpaceOnUse">
			<stop offset="0.376000" stop-color="#FE3C06"/>
			<stop offset="1.000000" stop-color="#FFA128"/>
		</linearGradient>
		<linearGradient x1="708.109192" y1="63.855896" x2="111.776672" y2="256.421631" id="paint_linear_604_120412_0" gradientUnits="userSpaceOnUse">
			<stop offset="0.376000" stop-color="#FE3C06"/>
			<stop offset="1.000000" stop-color="#FFA128"/>
		</linearGradient>
		<linearGradient x1="704.940674" y1="69.305115" x2="108.343109" y2="261.956604" id="paint_linear_604_120413_0" gradientUnits="userSpaceOnUse">
			<stop offset="0.376000" stop-color="#FE3C06"/>
			<stop offset="1.000000" stop-color="#FFA128"/>
		</linearGradient>
		<linearGradient x1="701.771729" y1="74.748291" x2="104.844543" y2="267.506836" id="paint_linear_604_120414_0" gradientUnits="userSpaceOnUse">
			<stop offset="0.376000" stop-color="#FE3C06"/>
			<stop offset="1.000000" stop-color="#FFA128"/>
		</linearGradient>
		<linearGradient x1="698.633789" y1="80.139343" x2="101.429214" y2="272.988464" id="paint_linear_604_120415_0" gradientUnits="userSpaceOnUse">
			<stop offset="0.376000" stop-color="#FE3C06"/>
			<stop offset="1.000000" stop-color="#FFA128"/>
		</linearGradient>
		<linearGradient x1="695.394836" y1="85.545959" x2="97.965408" y2="278.469055" id="paint_linear_604_120416_0" gradientUnits="userSpaceOnUse">
			<stop offset="0.376000" stop-color="#FE3C06"/>
			<stop offset="1.000000" stop-color="#FFA128"/>
		</linearGradient>
		<linearGradient x1="692.208740" y1="90.929138" x2="94.501434" y2="283.943298" id="paint_linear_604_120417_0" gradientUnits="userSpaceOnUse">
			<stop offset="0.376000" stop-color="#FE3C06"/>
			<stop offset="1.000000" stop-color="#FFA128"/>
		</linearGradient>
		<linearGradient x1="689.007507" y1="96.263855" x2="91.021042" y2="289.370239" id="paint_linear_604_120418_0" gradientUnits="userSpaceOnUse">
			<stop offset="0.376000" stop-color="#FE3C06"/>
			<stop offset="1.000000" stop-color="#FFA128"/>
		</linearGradient>
		<linearGradient x1="685.792969" y1="101.584106" x2="87.537918" y2="294.779480" id="paint_linear_604_120419_0" gradientUnits="userSpaceOnUse">
			<stop offset="0.376000" stop-color="#FE3C06"/>
			<stop offset="1.000000" stop-color="#FFA128"/>
		</linearGradient>
		<linearGradient x1="682.576660" y1="106.864685" x2="84.051788" y2="300.150024" id="paint_linear_604_120420_0" gradientUnits="userSpaceOnUse">
			<stop offset="0.376000" stop-color="#FE3C06"/>
			<stop offset="1.000000" stop-color="#FFA128"/>
		</linearGradient>
		<linearGradient x1="679.354004" y1="112.111633" x2="80.516571" y2="305.501221" id="paint_linear_604_120421_0" gradientUnits="userSpaceOnUse">
			<stop offset="0.376000" stop-color="#FE3C06"/>
			<stop offset="1.000000" stop-color="#FFA128"/>
		</linearGradient>
		<linearGradient x1="676.117615" y1="117.321167" x2="77.019211" y2="310.798889" id="paint_linear_604_120422_0" gradientUnits="userSpaceOnUse">
			<stop offset="0.376000" stop-color="#FE3C06"/>
			<stop offset="1.000000" stop-color="#FFA128"/>
		</linearGradient>
		<linearGradient x1="672.893860" y1="122.480347" x2="73.491165" y2="316.060730" id="paint_linear_604_120423_0" gradientUnits="userSpaceOnUse">
			<stop offset="0.376000" stop-color="#FE3C06"/>
			<stop offset="1.000000" stop-color="#FFA128"/>
		</linearGradient>
		<linearGradient x1="669.599854" y1="127.604431" x2="69.944641" y2="321.271545" id="paint_linear_604_120424_0" gradientUnits="userSpaceOnUse">
			<stop offset="0.376000" stop-color="#FE3C06"/>
			<stop offset="1.000000" stop-color="#FFA128"/>
		</linearGradient>
		<linearGradient x1="666.323669" y1="132.668762" x2="66.372025" y2="326.437500" id="paint_linear_604_120425_0" gradientUnits="userSpaceOnUse">
			<stop offset="0.376000" stop-color="#FE3C06"/>
			<stop offset="1.000000" stop-color="#FFA128"/>
		</linearGradient>
		<linearGradient x1="663.028564" y1="137.658691" x2="62.789810" y2="331.526978" id="paint_linear_604_120426_0" gradientUnits="userSpaceOnUse">
			<stop offset="0.376000" stop-color="#FE3C06"/>
			<stop offset="1.000000" stop-color="#FFA128"/>
		</linearGradient>
		<linearGradient x1="659.288086" y1="141.096375" x2="58.735245" y2="335.094482" id="paint_linear_604_120427_0" gradientUnits="userSpaceOnUse">
			<stop offset="0.376000" stop-color="#FE3C06"/>
			<stop offset="1.000000" stop-color="#FFA128"/>
		</linearGradient>
		<linearGradient x1="655.518738" y1="144.385132" x2="54.638611" y2="338.518127" id="paint_linear_604_120428_0" gradientUnits="userSpaceOnUse">
			<stop offset="0.376000" stop-color="#FE3C06"/>
			<stop offset="1.000000" stop-color="#FFA128"/>
		</linearGradient>
		<linearGradient x1="651.723511" y1="147.576477" x2="50.514069" y2="341.845154" id="paint_linear_604_120429_0" gradientUnits="userSpaceOnUse">
			<stop offset="0.376000" stop-color="#FE3C06"/>
			<stop offset="1.000000" stop-color="#FFA128"/>
		</linearGradient>
		<linearGradient x1="647.903625" y1="150.721375" x2="46.396042" y2="345.115112" id="paint_linear_604_120430_0" gradientUnits="userSpaceOnUse">
			<stop offset="0.376000" stop-color="#FE3C06"/>
			<stop offset="1.000000" stop-color="#FFA128"/>
		</linearGradient>
		<linearGradient x1="644.090637" y1="153.819336" x2="42.220764" y2="348.358276" id="paint_linear_604_120431_0" gradientUnits="userSpaceOnUse">
			<stop offset="0.376000" stop-color="#FE3C06"/>
			<stop offset="1.000000" stop-color="#FFA128"/>
		</linearGradient>
	</defs>
	<path id="Vector" d="M126.66 272.86C124.9 234.24 204.79 183.54 269.89 163.01C344.92 139.35 382.18 161.46 436.41 133.55C485.9 108.1 480.14 76.66 516.98 59.5C550.83 43.75 611.75 44.19 729.75 105.73" stroke="url(#paint_linear_604_120410_0)" stroke-opacity="1.000000" stroke-width="2.500000"/>
	<path id="Vector" d="M726.58 111.25C610.09 50.65 548.93 49.48 514.34 64.58C488.71 75.8 482.81 93.87 465.49 112.1C456.9 121.39 445.48 129.84 432.25 136.72C388.93 159.27 356.75 150.71 305.89 159.01C292.92 161.1 279.85 164.16 266.96 168.13C201.42 188.17 121.61 235.51 121.65 273.26" stroke="url(#paint_linear_604_120411_0)" stroke-opacity="1.000000" stroke-width="2.500000"/>
	<path id="Vector" d="M723.41 116.75C608.42 57.11 547.06 55.24 511.81 69.67C485.9 80.27 479.19 97.84 461.66 115.5C452.76 124.64 441.33 132.99 428.23 139.89C385.6 162.36 353.93 155.52 302.99 164.22C290.05 166.41 277.03 169.46 264.15 173.3C198.2 192.96 118.45 236.84 116.78 273.71" stroke="url(#paint_linear_604_120412_0)" stroke-opacity="1.000000" stroke-width="2.500000"/>
	<path id="Vector" d="M720.25 122.23C606.78 63.57 545.18 61.01 509.23 74.76C483.02 84.78 475.55 101.81 457.77 118.91C448.59 127.91 437.15 136.14 424.19 143.07C382.22 165.47 351.15 160.3 300.09 169.43C287.16 171.71 274.17 174.73 261.29 178.46C194.93 197.68 115.26 238.15 111.87 274.16" stroke="url(#paint_linear_604_120413_0)" stroke-opacity="1.000000" stroke-width="2.500000"/>
	<path id="Vector" d="M717.1 127.74C605.12 70.02 543.34 66.77 506.64 79.85C480.17 89.28 471.87 105.79 453.86 122.31C444.38 131.17 432.92 139.3 420.08 146.26C378.76 168.59 348.26 165.12 297.06 174.67C284.17 177.05 271.24 180.05 258.4 183.66C191.61 202.44 112.02 239.52 106.91 274.65" stroke="url(#paint_linear_604_120414_0)" stroke-opacity="1.000000" stroke-width="2.500000"/>
	<path id="Vector" d="M713.99 133.22C603.47 76.47 541.28 71.95 504.06 84.94C477.48 94.21 468.19 109.74 449.98 125.72C440.2 134.43 428.72 142.45 416 149.45C375.34 171.71 345.43 169.93 294.16 179.89C281.3 182.35 268.41 185.33 255.58 188.81C188.36 207.14 108.86 240.84 102.04 275.1" stroke="url(#paint_linear_604_120415_0)" stroke-opacity="1.000000" stroke-width="2.500000"/>
	<path id="Vector" d="M710.78 138.74C601.81 82.94 539.65 78.35 501.47 90C474.52 98.31 464.49 113.73 446.08 129.14C436.03 137.69 424.52 145.61 411.93 152.64C371.91 174.84 342.56 174.75 291.22 185.11C278.38 187.67 265.54 190.63 252.73 194C185.08 211.89 105.66 242.17 97.13 275.58" stroke="url(#paint_linear_604_120416_0)" stroke-opacity="1.000000" stroke-width="2.500000"/>
	<path id="Vector" d="M707.63 144.24C600.18 89.38 537.81 84.1 498.89 95.13C471.7 102.82 460.76 117.66 442.18 132.54C431.86 140.93 420.32 148.75 407.84 155.81C368.49 177.94 339.7 179.55 288.27 190.32C276.3 192.83 263.56 195.64 249.87 199.15C181.77 216.59 102.46 243.51 92.21 276.04" stroke="url(#paint_linear_604_120417_0)" stroke-opacity="1.000000" stroke-width="2.500000"/>
	<path id="Vector" d="M704.47 149.73C598.5 95.85 535.99 89.91 496.31 100.21C468.87 107.33 457.02 121.61 438.26 135.95C427.66 144.17 416.09 151.9 403.73 159C365.03 181.06 336.82 184.35 285.29 195.55C273.29 198.15 260.59 200.96 246.97 204.34C178.53 221.3 99.26 244.85 87.29 276.5" stroke="url(#paint_linear_604_120418_0)" stroke-opacity="1.000000" stroke-width="2.500000"/>
	<path id="Vector" d="M701.31 155.23C596.84 102.3 534.17 95.72 493.73 105.31C466.06 111.87 453.23 125.59 434.4 139.35C423.54 147.4 411.93 155.04 399.7 162.18C361.64 184.17 334 189.17 282.37 200.74C270.39 203.42 257.68 206.24 244.14 209.48C175.18 225.98 96.05 246.15 82.37 276.93" stroke="url(#paint_linear_604_120419_0)" stroke-opacity="1.000000" stroke-width="2.500000"/>
	<path id="Vector" d="M698.15 160.72C595.19 108.75 532.34 101.53 491.17 110.39C463.27 116.4 449.5 129.52 430.52 142.76C419.41 150.62 407.76 158.17 395.64 165.35C358.24 187.28 331.17 193.96 279.45 205.98C267.45 208.77 254.77 211.57 241.31 214.68C171.91 230.7 92.89 247.51 77.47 277.43" stroke="url(#paint_linear_604_120420_0)" stroke-opacity="1.000000" stroke-width="2.500000"/>
	<path id="Vector" d="M695 166.21C593.54 115.21 530.5 107.35 488.56 115.48C460.42 120.94 445.7 133.46 426.61 146.17C415.64 153.48 404.39 160.9 391.54 168.54C354.79 190.39 328.3 198.78 276.49 211.21C264.47 214.08 251.81 216.87 238.42 219.86C168.57 235.41 89.64 248.85 72.53 277.9" stroke="url(#paint_linear_604_120421_0)" stroke-opacity="1.000000" stroke-width="2.500000"/>
	<path id="Vector" d="M691.85 171.71C591.88 121.68 528.74 113.16 485.98 120.57C457.6 125.48 441.9 137.39 422.71 149.57C411.39 156.77 400.08 164.11 387.46 171.72C351.37 193.52 325.45 203.58 273.54 216.43C261.52 219.39 248.86 222.18 235.58 225.02C165.3 240.07 86.46 250.18 67.63 278.36" stroke="url(#paint_linear_604_120422_0)" stroke-opacity="1.000000" stroke-width="2.500000"/>
	<path id="Vector" d="M688.71 177.19C590.23 128.1 526.86 119 483.41 125.66C454.79 130.03 438.09 141.31 418.82 152.98C407.14 160.05 395.78 167.31 383.42 174.89C347.97 196.61 322.65 208.37 270.59 221.65C258.55 224.71 245.93 227.47 232.72 230.19C162 244.74 83.25 251.51 62.72 278.82" stroke="url(#paint_linear_604_120423_0)" stroke-opacity="1.000000" stroke-width="2.500000"/>
	<path id="Vector" d="M685.53 182.69C588.57 134.55 525.05 124.84 480.82 130.74C451.95 134.59 434.27 145.21 414.93 156.38C402.89 163.32 391.46 170.51 379.3 178.08C344.52 199.72 319.74 213.18 267.64 226.86C255.06 230.09 242.44 232.92 229.85 235.34C158.7 249.41 80.02 252.86 57.79 279.28" stroke="url(#paint_linear_604_120424_0)" stroke-opacity="1.000000" stroke-width="2.500000"/>
	<path id="Vector" d="M682.38 188.18C586.91 141.01 523.16 130.69 478.27 135.82C449.16 139.13 430.47 149.11 411.02 159.79C398.61 166.6 387.14 173.72 375.22 181.26C341.08 202.84 316.89 218 264.71 232.08C252.17 235.39 239.57 238.21 227.01 240.53C155.4 254.05 76.84 254.18 52.86 279.72" stroke="url(#paint_linear_604_120425_0)" stroke-opacity="1.000000" stroke-width="2.500000"/>
	<path id="Vector" d="M679.22 193.67C585.26 147.45 521.28 136.57 475.65 140.9C446.32 143.69 426.61 153 407.12 163.17C394.36 169.85 382.85 176.91 371.14 184.43C337.67 205.94 314.04 222.78 261.74 237.29C249.23 240.69 236.66 243.5 224.13 245.69C152.11 258.71 73.63 255.51 47.94 280.2" stroke="url(#paint_linear_604_120426_0)" stroke-opacity="1.000000" stroke-width="2.500000"/>
	<path id="Vector" d="M676.06 199.13C583.61 153.89 519.48 142.37 473.07 145.94C443.46 148.22 422.77 156.84 403.23 166.54C390.04 173.08 378.53 180.07 367.05 187.57C334.22 209.01 311.17 227.56 258.77 242.5C246.3 245.97 233.74 248.77 221.25 250.85C148.79 263.33 70.39 256.82 42.99 280.64" stroke="url(#paint_linear_604_120427_0)" stroke-opacity="1.000000" stroke-width="2.500000"/>
	<path id="Vector" d="M672.92 204.59C582 160.25 517.61 148.2 470.48 151C440.61 152.76 418.95 160.67 399.33 169.93C385.81 176.33 374.2 183.28 362.96 190.75C330.79 212.13 308.31 232.37 255.81 247.7C243.37 251.26 230.82 254.04 218.37 256.01C145.48 267.96 67.11 258.18 38.04 281.1" stroke="url(#paint_linear_604_120428_0)" stroke-opacity="1.000000" stroke-width="2.500000"/>
	<path id="Vector" d="M669.77 210.04C580.3 166.67 515.74 154.03 467.89 156.02C437.74 157.26 415.1 164.45 395.4 173.25C381.51 179.46 369.88 186.39 358.86 193.86C327.35 215.17 305.43 237.11 252.83 252.87C240.43 256.51 227.9 259.28 215.48 261.13C142.15 272.53 63.91 259.42 33.08 281.51" stroke="url(#paint_linear_604_120429_0)" stroke-opacity="1.000000" stroke-width="2.500000"/>
	<path id="Vector" d="M666.61 215.49C578.64 173.07 513.88 159.89 465.34 161.03C434.93 161.77 411.32 168.23 391.55 176.59C377.27 182.61 365.6 189.53 354.82 196.96C323.94 218.21 302.59 241.86 249.9 258.03C237.53 261.75 225.01 264.5 212.63 266.25C138.9 277.02 60.71 260.7 28.14 281.93" stroke="url(#paint_linear_604_120430_0)" stroke-opacity="1.000000" stroke-width="2.500000"/>
	<path id="Vector" d="M663.48 220.94C523.14 153.63 439.33 159.3 387.59 179.96C331.11 202.5 318.14 240.84 246.89 263.25C163.3 289.52 63.24 258.57 23.16 282.37" stroke="url(#paint_linear_604_120431_0)" stroke-opacity="1.000000" stroke-width="2.500000"/>
</svg>
