<svg width="25.199997" height="25.199219" viewBox="0 0 25.2 25.1992" fill="none" xmlns="http://www.w3.org/2000/svg" xmlns:xlink="http://www.w3.org/1999/xlink">
	<desc>
			Created with Pixso.
	</desc>
	<defs/>
	<path id="Vector" d="M12.6 24.59C5.97 24.59 0.59 19.22 0.59 12.59C0.59 5.97 5.97 0.59 12.6 0.59C19.22 0.59 24.6 5.97 24.6 12.59C24.6 19.22 19.22 24.59 12.6 24.59ZM12.6 4.59L12.6 20.59M15.82 7.91L15.27 7.47C13.79 6.3 11.4 6.3 9.92 7.47C8.45 8.65 8.45 10.54 9.92 11.72C10.66 12.3 11.63 12.59 12.59 12.59C13.62 12.59 14.64 12.89 15.42 13.47C16.99 14.65 16.99 16.54 15.42 17.72C13.86 18.89 11.33 18.89 9.77 17.72L8.6 16.84" stroke="#FFFFFF" stroke-opacity="0.500000" stroke-width="1.200000" stroke-linejoin="round"/>
</svg>
