<svg width="17" height="20" viewBox="0 0 17 20" fill="none" xmlns="http://www.w3.org/2000/svg">
<path fill-rule="evenodd" clip-rule="evenodd" d="M10.6314 0.0234492C8.68061 0.246471 6.98156 1.51268 6.06518 3.4264C5.25715 5.11384 5.2036 7.17919 5.92215 8.94294C6.10597 9.39417 6.39277 9.90778 6.69169 10.3211C6.87974 10.5811 7.4024 11.1454 7.65062 11.3565C9.41886 12.8598 11.8057 13.1215 13.7938 12.0301C15.4523 11.1197 16.609 9.40617 16.9217 7.39678C17.0879 6.32853 16.9871 5.15541 16.6422 4.14278C16.2084 2.86902 15.4283 1.79562 14.3855 1.03753C13.6586 0.509059 12.8149 0.165866 11.9436 0.0441761C11.5914 -0.00500331 10.9666 -0.0148786 10.6314 0.0234492ZM11.6368 1.27151C12.5307 1.36319 13.4114 1.75263 14.1106 2.36553C14.3104 2.54061 14.6479 2.91102 14.8193 3.14315C15.3603 3.87598 15.7045 4.7578 15.8253 5.72002C15.864 6.02872 15.8581 6.73729 15.8141 7.05476C15.6543 8.20783 15.1867 9.2085 14.4347 10.0066C13.2644 11.2487 11.6173 11.725 10.0389 11.2776C9.55723 11.1411 9.06811 10.9001 8.64748 10.5921C8.3384 10.3657 8.13588 10.1788 7.85515 9.86064C7.29023 9.22041 6.89967 8.44492 6.69887 7.56479C6.59966 7.12998 6.57174 6.86386 6.57128 6.34941C6.57083 5.8353 6.59723 5.58311 6.69974 5.1224C7.10032 3.32207 8.40851 1.87391 10.0514 1.41215C10.2852 1.34643 10.6062 1.28501 10.8254 1.26403C11.0061 1.24675 11.4337 1.25068 11.6368 1.27151ZM11.0827 2.11451C10.9679 2.14739 10.8762 2.20892 10.7884 2.31186C10.6723 2.44798 10.6374 2.57692 10.6374 2.87V3.09393H10.5574C10.3458 3.09393 9.99864 3.21742 9.75385 3.37974C9.60499 3.47847 9.36837 3.72141 9.26222 3.88456C9.14527 4.0643 9.02453 4.34577 8.97298 4.5589C8.91828 4.78502 8.91291 5.22418 8.96215 5.44575C9.10356 6.08205 9.52664 6.621 10.0564 6.83968C10.3397 6.95662 10.383 6.96196 11.1618 6.97624C11.8847 6.98948 11.8953 6.99032 11.9915 7.04224C12.1221 7.11271 12.2334 7.23911 12.296 7.38795C12.4278 7.70143 12.3069 8.09847 12.029 8.2643C11.8749 8.35626 11.7255 8.37267 11.1183 8.36431C10.5723 8.3568 10.5673 8.3563 10.4569 8.29966C10.2124 8.17417 10.0976 7.98891 10.0647 7.66699C10.0225 7.25269 9.79383 7.0219 9.45227 7.04879C9.23524 7.0659 9.06968 7.18915 8.97478 7.40429C8.93516 7.49412 8.92813 7.54237 8.92924 7.71671C8.93536 8.6652 9.63347 9.49936 10.5019 9.59581L10.6335 9.61044L10.6411 9.87353C10.6479 10.1064 10.6548 10.1493 10.7012 10.2471C10.8064 10.4689 10.977 10.5803 11.2124 10.5811C11.3894 10.5816 11.5265 10.5192 11.6289 10.3913C11.7422 10.2498 11.773 10.143 11.7816 9.86276L11.7893 9.61062L11.9102 9.59675C12.1041 9.57452 12.2769 9.52024 12.4706 9.42078C13.1066 9.09412 13.4919 8.43077 13.4919 7.66245C13.4919 7.10904 13.3107 6.64867 12.9405 6.26127C12.7139 6.0241 12.5102 5.8939 12.2067 5.7924C12.0348 5.73486 12.0235 5.73399 11.2905 5.72164L10.5483 5.70916L10.4382 5.6525C10.2078 5.534 10.0753 5.30542 10.0747 5.02551C10.0743 4.81686 10.1293 4.67475 10.2642 4.53645C10.4537 4.34197 10.4543 4.34186 11.2113 4.34186C11.849 4.34186 11.8778 4.34364 11.9668 4.38876C12.0952 4.45385 12.2305 4.59701 12.2886 4.72944C12.3202 4.8013 12.344 4.90719 12.3556 5.02682C12.383 5.31002 12.4669 5.46307 12.6589 5.57968C12.7519 5.63615 12.7843 5.64401 12.9232 5.64364C13.0559 5.64327 13.0979 5.63383 13.1823 5.58535C13.3008 5.51724 13.398 5.40282 13.4541 5.26536C13.4856 5.18803 13.494 5.12415 13.4925 4.97126C13.4869 4.39616 13.2229 3.83655 12.7831 3.46768C12.5645 3.28433 12.1966 3.12568 11.9335 3.10131L11.7898 3.08798L11.7813 2.82509C11.7738 2.5953 11.7662 2.54855 11.7213 2.45369C11.625 2.25004 11.4557 2.12388 11.2561 2.10709C11.1934 2.10181 11.1153 2.10515 11.0827 2.11451ZM2.81025 10.0693C2.73289 10.0974 2.60926 10.1611 1.22701 10.8852C0.273505 11.3847 0.2249 11.4128 0.145223 11.5095C0.106533 11.5565 0.0580256 11.6428 0.0374237 11.7013C0.00140495 11.8038 0 11.9144 0 14.6617C0 17.4091 0.00140495 17.5197 0.0374237 17.6221C0.0788848 17.74 0.178372 17.8722 0.274039 17.9365C0.34764 17.9861 0.428959 18.0097 2.33528 18.5359C3.80712 18.9421 5.18539 19.3234 6.7734 19.7635C7.24422 19.894 7.66279 20.0004 7.70356 20C7.74432 19.9996 7.8222 19.982 7.87662 19.9609C7.93105 19.9398 8.7949 19.3967 9.7963 18.7539C10.7977 18.1111 11.8753 17.4194 12.191 17.2168C12.5066 17.0142 13.041 16.672 13.3784 16.4564C13.9546 16.0881 14.0021 16.0529 14.1601 15.8785C14.3525 15.6659 14.4356 15.523 14.5236 15.2534C14.5826 15.0724 14.5856 15.0476 14.5856 14.7377C14.5856 14.4278 14.5826 14.403 14.5236 14.222C14.4355 13.9521 14.3524 13.8097 14.1599 13.5985C13.9652 13.385 13.8323 13.2925 13.5907 13.2025C13.3842 13.1255 13.0698 13.0985 12.8735 13.1408C12.807 13.1552 11.8692 13.504 10.7895 13.916C8.71725 14.7068 8.37435 14.8373 8.05321 14.9574L7.85377 15.032L6.50176 14.5327C5.75815 14.258 5.14569 14.0289 5.14076 14.0235C5.13584 14.0181 5.29889 13.8787 5.50311 13.7137C6.14272 13.1971 6.22647 13.1043 6.40098 12.7193C6.54771 12.3956 6.57033 12.2829 6.56879 11.8837C6.56758 11.5763 6.56271 11.5315 6.51223 11.3628C6.41244 11.0296 6.28444 10.8033 6.06255 10.5679C5.8455 10.3375 5.65706 10.2182 5.34118 10.111L5.16532 10.0513L4.02737 10.0459C3.12528 10.0417 2.87301 10.0465 2.81025 10.0693ZM5.12839 11.3566C5.24401 11.4244 5.33238 11.5284 5.38842 11.6627C5.42879 11.7594 5.43548 11.804 5.42941 11.9362C5.41755 12.1938 5.37752 12.2467 4.89809 12.6382C4.33052 13.1016 4.31148 13.1187 4.22565 13.2402C4.05747 13.4782 3.97872 13.7321 3.98003 14.0323C3.98147 14.3687 4.0999 14.6723 4.32108 14.9065C4.49369 15.0892 4.61503 15.154 5.16532 15.3573C5.41567 15.4498 6.09696 15.7031 6.6793 15.9202C7.56791 16.2516 7.75717 16.3153 7.85683 16.3167C7.96178 16.3182 8.0962 16.2724 9.01458 15.9218C9.58603 15.7037 10.5523 15.3351 11.1618 15.1028C11.7714 14.8704 12.4468 14.6126 12.6627 14.5299C12.8933 14.4416 13.0876 14.3796 13.1337 14.3796C13.3912 14.3796 13.55 14.7332 13.3945 14.9605C13.3748 14.9894 12.3612 15.6527 11.1421 16.4344C9.92296 17.2162 8.62983 18.0458 8.26844 18.278L7.61135 18.7002L6.08158 18.2768C5.24021 18.0439 3.93287 17.682 3.17638 17.4725C2.41988 17.2629 1.65176 17.0505 1.46945 17.0003L1.13795 16.909V14.6167V12.3244L2.11264 11.8118L3.08732 11.2993L4.06695 11.3039C5.03593 11.3085 5.04747 11.3091 5.12839 11.3566Z" fill="#F6601F"/>
</svg>
