<svg width="27.200012" height="23.064453" viewBox="0 0 27.2 23.0645" fill="none" xmlns="http://www.w3.org/2000/svg" xmlns:xlink="http://www.w3.org/1999/xlink">
	<desc>
			Created with Pixso.
	</desc>
	<defs/>
	<path id="Vector" d="M26.6 15.09C26.6 15.92 25.92 16.59 25.1 16.59L24.6 16.59L2.6 16.59L2.1 16.59C1.27 16.59 0.6 15.92 0.6 15.09L0.6 14.59L0.6 2.59L0.6 2.09C0.6 1.27 1.27 0.59 2.1 0.59L24.6 0.59L25.1 0.59C25.92 0.59 26.6 1.27 26.6 2.09L26.6 15.09ZM13.6 12.59C11.39 12.59 9.6 10.8 9.6 8.59C9.6 6.39 11.39 4.59 13.6 4.59C15.8 4.59 17.6 6.39 17.6 8.59C17.6 10.8 15.8 12.59 13.6 12.59ZM21.61 8.59L21.61 8.6L21.6 8.6L21.6 8.59L21.61 8.59ZM5.61 8.59L5.61 8.6L5.6 8.6L5.6 8.59L5.61 8.59ZM0.6 19.59C7.88 19.59 14.95 20.57 21.66 22.4C22.63 22.66 23.6 21.94 23.6 20.93L23.6 19.59M24.6 16.59L24.6 15.59C24.6 15.04 25.04 14.59 25.6 14.59L26.6 14.59M0.6 14.59L1.6 14.59C2.15 14.59 2.6 15.04 2.6 15.59L2.6 16.59M2.6 0.59L2.6 1.59C2.6 2.15 2.15 2.59 1.6 2.59L0.6 2.59M26.6 2.59L25.6 2.59C25.04 2.59 24.6 2.15 24.6 1.59L24.6 0.59" stroke="#FFFFFF" stroke-opacity="0.400000" stroke-width="1.200000" stroke-linejoin="round"/>
</svg>
