<svg width="22.533325" height="26.412109" viewBox="0 0 22.5333 26.4121" fill="none" xmlns="http://www.w3.org/2000/svg" xmlns:xlink="http://www.w3.org/1999/xlink">
	<desc>
			Created with Pixso.
	</desc>
	<defs/>
	<path id="Vector" d="M11.26 11.26C5.37 11.26 0.59 8.87 0.59 5.93C0.59 2.98 5.37 0.59 11.26 0.59C17.15 0.59 21.93 2.98 21.93 5.93C21.93 8.87 17.15 11.26 11.26 11.26ZM21.93 5.93L21.93 20.47C21.93 23.42 17.15 25.81 11.26 25.81C5.37 25.81 0.59 23.42 0.59 20.47L0.59 5.93M21.93 5.93L21.93 10.78L21.93 15.63C21.93 18.57 17.15 20.96 11.26 20.96C5.37 20.96 0.59 18.57 0.59 15.63L0.59 10.78L0.59 5.93M21.93 10.78C21.93 13.72 17.15 16.11 11.26 16.11C5.37 16.11 0.59 13.72 0.59 10.78" stroke="#FFFFFF" stroke-opacity="0.400000" stroke-width="1.200000" stroke-linejoin="round"/>
</svg>
