<svg width="19.867615" height="24.507812" viewBox="0 0 19.8676 24.5078" fill="none" xmlns="http://www.w3.org/2000/svg" xmlns:xlink="http://www.w3.org/1999/xlink">
	<desc>
			Created with Pixso.
	</desc>
	<defs/>
	<path id="Vector" d="M6.82 16.36C6.82 17.55 6.03 18.6 4.88 18.93L2.14 19.71C1.23 19.97 0.6 20.81 0.6 21.76C0.6 23.18 1.95 24.21 3.32 23.82L4.88 23.37C6.03 23.04 6.82 22 6.82 20.81L6.82 16.36L6.82 4.15L19.26 0.6L19.26 12.81L19.26 17.25C19.26 18.44 18.47 19.49 17.33 19.82L15.76 20.26C14.4 20.65 13.04 19.63 13.04 18.21C13.04 17.25 13.67 16.41 14.59 16.15L17.33 15.37C18.47 15.04 19.26 14 19.26 12.81M6.82 8.6L19.26 5.04" stroke="#FFFFFF" stroke-opacity="0.500000" stroke-width="1.200000" stroke-linejoin="round" stroke-linecap="round"/>
</svg>
