<svg width="52.000000" height="52.000000" viewBox="0 0 52 52" fill="none" xmlns="http://www.w3.org/2000/svg" xmlns:xlink="http://www.w3.org/1999/xlink">
	<desc>
			Created with Pixso.
	</desc>
	<defs/>
	<path id="Union" d="M12 0C13.1046 0 14 0.895447 14 2L14 6L38 6L38 2C38 0.895447 38.8954 0 40 0C41.1046 0 42 0.895447 42 2L42 6L44 6C48.4183 6 52 9.58173 52 14L52 44C52 48.4183 48.4183 52 44 52L8 52C3.58173 52 0 48.4183 0 44L0 14C0 9.58173 3.58173 6 8 6L10 6L10 2C10 0.895447 10.8954 0 12 0ZM48 24C48 21.7908 46.2091 20 44 20L8 20C5.79086 20 4 21.7908 4 24L4 44C4 46.2091 5.79086 48 8 48L44 48C46.2091 48 48 46.2091 48 44L48 24ZM28 28C28 29.1046 27.1046 30 26 30C24.8954 30 24 29.1046 24 28C24 26.8954 24.8954 26 26 26C27.1046 26 28 26.8954 28 28ZM34 28C34 29.1046 33.1046 30 32 30C30.8954 30 30 29.1046 30 28C30 26.8954 30.8954 26 32 26C33.1046 26 34 26.8954 34 28ZM38 30C36.8954 30 36 29.1046 36 28C36 26.8954 36.8954 26 38 26C39.1046 26 40 26.8954 40 28C40 29.1046 39.1046 30 38 30ZM14 36C12.8954 36 12 35.1046 12 34C12 32.8954 12.8954 32 14 32C15.1046 32 16 32.8954 16 34C16 35.1046 15.1046 36 14 36ZM20 36C18.8954 36 18 35.1046 18 34C18 32.8954 18.8954 32 20 32C21.1046 32 22 32.8954 22 34C22 35.1046 21.1046 36 20 36ZM26 36C24.8954 36 24 35.1046 24 34C24 32.8954 24.8954 32 26 32C27.1046 32 28 32.8954 28 34C28 35.1046 27.1046 36 26 36ZM32 36C30.8954 36 30 35.1046 30 34C30 32.8954 30.8954 32 32 32C33.1046 32 34 32.8954 34 34C34 35.1046 33.1046 36 32 36ZM38 36C36.8954 36 36 35.1046 36 34C36 32.8954 36.8954 32 38 32C39.1046 32 40 32.8954 40 34C40 35.1046 39.1046 36 38 36ZM16 40C16 41.1046 15.1046 42 14 42C12.8954 42 12 41.1046 12 40C12 38.8954 12.8954 38 14 38C15.1046 38 16 38.8954 16 40ZM22 40C22 41.1046 21.1046 42 20 42C18.8954 42 18 41.1046 18 40C18 38.8954 18.8954 38 20 38C21.1046 38 22 38.8954 22 40ZM28 40C28 41.1046 27.1046 42 26 42C24.8954 42 24 41.1046 24 40C24 38.8954 24.8954 38 26 38C27.1046 38 28 38.8954 28 40ZM34 40C34 41.1046 33.1046 42 32 42C30.8954 42 30 41.1046 30 40C30 38.8954 30.8954 38 32 38C33.1046 38 34 38.8954 34 40Z" fill="#FFFFFF" fill-opacity="1.000000" fill-rule="evenodd"/>
</svg>
