<svg width="13" height="16" viewBox="0 0 13 16" fill="none" xmlns="http://www.w3.org/2000/svg">
<path d="M3.99996 0.666687H11.3333C12.0666 0.666687 12.6666 1.26669 12.6666 2.00002V10.6667C12.6666 11.0334 12.3666 11.3334 12 11.3334C11.6333 11.3334 11.3333 11.0334 11.3333 10.6667V2.66669C11.3333 2.30002 11.0333 2.00002 10.6666 2.00002H3.99996C3.63329 2.00002 3.33329 1.70002 3.33329 1.33335C3.33329 0.966687 3.63329 0.666687 3.99996 0.666687ZM1.33329 3.33335H8.66663C9.39996 3.33335 9.99996 3.93335 9.99996 4.66669V14C9.99996 14.7334 9.39996 15.3334 8.66663 15.3334H1.33329C0.599959 15.3334 -4.1008e-05 14.7334 -4.1008e-05 14V4.66669C-4.1008e-05 3.93335 0.599959 3.33335 1.33329 3.33335ZM1.99996 14H7.99996C8.36663 14 8.66663 13.7 8.66663 13.3334V5.33335C8.66663 4.96669 8.36663 4.66669 7.99996 4.66669H1.99996C1.63329 4.66669 1.33329 4.96669 1.33329 5.33335V13.3334C1.33329 13.7 1.63329 14 1.99996 14Z" fill="white"/>
</svg>
