<svg width="180.952148" height="83.548218" viewBox="0 0 180.952 83.5482" fill="none" xmlns="http://www.w3.org/2000/svg" xmlns:xlink="http://www.w3.org/1999/xlink">
	<defs>
		<linearGradient id="paint_linear_19_14638_0" x1="180.450134" y1="80.217773" x2="0.450081" y2="0.217865" gradientUnits="userSpaceOnUse">
			<stop stop-color="#FFFFFF"/>
			<stop offset="1.000000" stop-color="#FFFFFF" stop-opacity="0.000000"/>
		</linearGradient>
	</defs>
	<path id="Vector 25" d="M180.45 80.7178Q91.9794 80.7178 37.171 40.6213Q20.028 28.0802 8.31155 13.0248Q2.44238 5.48309 0 0.435547L0.900146 0Q3.29645 4.95239 9.10071 12.4107Q20.7312 27.3556 37.7614 39.8142Q92.3055 79.7178 180.45 79.7178L180.45 80.7178ZM179.743 80.2178L177.268 77.7429C177.07 77.5449 177.07 77.2338 177.268 77.0358C177.466 76.8378 177.777 76.8378 177.975 77.0358L180.804 79.8642C181.002 80.0622 181.002 80.3734 180.804 80.5714L177.975 83.3998C177.777 83.5977 177.466 83.5977 177.268 83.3998C177.07 83.2018 177.07 82.8906 177.268 82.6926L179.743 80.2178Z" fill="url(#paint_linear_19_14638_0)" fill-opacity="1.000000" fill-rule="evenodd"/>
</svg>
