<svg width="18.000000" height="12.656250" viewBox="0 0 18 12.6562" fill="none" xmlns="http://www.w3.org/2000/svg" xmlns:xlink="http://www.w3.org/1999/xlink">
	<desc>
			Created with Pixso.
	</desc>
	<defs/>
	<path id="Vector" d="M16.418 0L1.58203 0C0.707947 0 0 0.712402 0 1.58203L0 11.0742C0 11.949 0.713135 12.6562 1.58203 12.6562L16.418 12.6562C17.2848 12.6562 18 11.9521 18 11.0742L18 1.58203C18 0.713867 17.2949 0 16.418 0ZM16.1964 1.05469C15.8732 1.37622 10.3107 6.90942 10.1187 7.10034C9.81985 7.39917 9.42258 7.56372 9 7.56372C8.57742 7.56372 8.18015 7.39917 7.88034 7.09937C7.75119 6.97095 2.25009 1.49878 1.80359 1.05469L16.1964 1.05469ZM1.05469 10.8596L1.05469 1.79736L5.61227 6.33105L1.05469 10.8596ZM1.80426 11.6016L6.36005 7.07471L7.13556 7.84619C7.63358 8.34424 8.29572 8.61841 9 8.61841C9.70428 8.61841 10.3664 8.34424 10.8635 7.84717L11.64 7.07471L16.1957 11.6016L1.80426 11.6016ZM16.9453 10.8596L12.3877 6.33105L16.9453 1.79736L16.9453 10.8596Z" fill="#FFFFFF" fill-opacity="1.000000" fill-rule="nonzero"/>
</svg>
