<svg width="16" height="16" viewBox="0 0 16 16" fill="none" xmlns="http://www.w3.org/2000/svg">
<path d="M15.4266 0.44085C15.2742 0.308634 15.0718 0.249154 14.872 0.277596L5.12654 1.6698C4.78358 1.7188 4.52887 2.01252 4.52887 2.35895V5.14338V10.5204C4.11656 10.2802 3.63791 10.1419 3.12728 10.1419C1.58681 10.1419 0.333496 11.3952 0.333496 12.9356C0.333496 14.4761 1.58678 15.7294 3.12725 15.7294C4.66773 15.7294 5.92104 14.4761 5.92104 12.9356V5.74712L14.2743 4.5538V9.12816C13.862 8.88795 13.3834 8.74963 12.8727 8.74963C11.3323 8.74963 10.079 10.0029 10.079 11.5434C10.079 13.0839 11.3323 14.3372 12.8727 14.3372C14.4132 14.3372 15.6665 13.0839 15.6665 11.5434V3.75115V0.966721C15.6666 0.764911 15.579 0.573065 15.4266 0.44085Z" fill="white"/>
</svg>
