<svg width="52.000000" height="52.000000" viewBox="0 0 52 52" fill="none" xmlns="http://www.w3.org/2000/svg" xmlns:xlink="http://www.w3.org/1999/xlink">
	<desc>
			Created with Pixso.
	</desc>
	<defs/>
	<path id="Subtract" d="M22 0C17.5817 0 14 3.58173 14 8L14 8.54663C11.5134 8.77423 9.04694 9.0719 6.60255 9.43762C2.72508 10.0178 0 13.391 0 17.2151L0 25.3036C0 28.5333 1.95638 31.5766 5.16338 32.6428C11.7158 34.8213 18.7223 36 26.0001 36C33.2778 36 40.2842 34.8214 46.8366 32.6429C50.0436 31.5767 52 28.5334 52 25.3037L52 17.2151C52 13.391 49.2749 10.0178 45.3974 9.43762C42.953 9.0719 40.4866 8.77423 38 8.54663L38 8C38 3.58173 34.4183 0 30 0L22 0ZM34 8.24219L34 8C34 5.79083 32.2091 4 30 4L22 4C19.7909 4 18 5.79083 18 8L18 8.24219C20.6463 8.08148 23.3137 8 26 8C28.6863 8 31.3537 8.08148 34 8.24219ZM28 28C28 29.1046 27.1046 30 26 30C24.8954 30 24 29.1046 24 28C24 26.8954 24.8954 26 26 26C27.1046 26 28 26.8954 28 28ZM2 35.6105L2 43.0665C2 46.9384 4.79263 50.34 8.72836 50.8625C14.3799 51.6129 20.1452 52 26 52C31.8547 52 37.6201 51.6129 43.2716 50.8625C47.2074 50.34 50 46.9384 50 43.0665L50 35.6105C49.4052 35.9368 48.7707 36.2151 48.0985 36.4386C41.1444 38.7506 33.7121 40 26.0001 40C18.288 40 10.8557 38.7506 3.90143 36.4385C3.22926 36.2151 2.59477 35.9366 2 35.6105Z" fill="#FFFFFF" fill-opacity="1.000000" fill-rule="evenodd"/>
</svg>
