<svg width="52.000000" height="53.753967" viewBox="0 0 52 53.754" fill="none" xmlns="http://www.w3.org/2000/svg" xmlns:xlink="http://www.w3.org/1999/xlink">
	<desc>
			Created with Pixso.
	</desc>
	<defs/>
	<path id="Subtract" d="M27.3752 0.547852C26.6039 -0.182617 25.3961 -0.182617 24.6248 0.547852C19.2467 5.64111 11.99 8.76199 4 8.76199C3.87288 8.76199 3.74595 8.7612 3.61922 8.75964C2.74625 8.74881 1.96712 9.30545 1.69444 10.1348C0.59433 13.4809 0 17.0541 0 20.7621C0 36.6075 10.8375 49.9166 25.5015 53.6909C25.8285 53.775 26.1715 53.775 26.4985 53.6909C41.1625 49.9166 52 36.6075 52 20.7621C52 17.0541 51.4057 13.4809 50.3056 10.1348C50.0329 9.30545 49.2538 8.74881 48.3808 8.75964C48.2541 8.7612 48.1271 8.76199 48 8.76199C40.01 8.76199 32.7533 5.64111 27.3752 0.547852ZM35.6275 21.9242C36.2695 21.0254 36.0613 19.7763 35.1625 19.1342C34.2636 18.4922 33.0146 18.7004 32.3725 19.5992L23.7448 31.6781L19.4142 27.3475C18.6332 26.5665 17.3668 26.5665 16.5858 27.3475C15.8047 28.1285 15.8047 29.3949 16.5858 30.1759L22.5858 36.1759C23.0015 36.5916 23.5791 36.8034 24.165 36.7549C24.7509 36.7064 25.2858 36.4026 25.6275 35.9242L35.6275 21.9242Z" fill="#FFFFFF" fill-opacity="1.000000" fill-rule="evenodd"/>
</svg>
