<svg width="48.000000" height="56.000000" viewBox="0 0 48 56" fill="none" xmlns="http://www.w3.org/2000/svg" xmlns:xlink="http://www.w3.org/1999/xlink">
	<desc>
			Created with Pixso.
	</desc>
	<defs/>
	<path id="Vector" d="M24 26C37.2548 26 48 20.1797 48 13C48 5.82031 37.2548 0 24 0C10.7452 0 0 5.82031 0 13C0 20.1797 10.7452 26 24 26ZM42.8757 25.7096C37.8414 28.4365 31.1605 30 24 30C16.8395 30 10.1586 28.4365 5.1243 25.7096C3.28433 24.7129 1.53394 23.4782 0.0674438 22.018C0.0227509 22.3421 0 22.6696 0 23C0 30.1797 10.7452 36 24 36C37.2548 36 48 30.1797 48 23C48 22.6696 47.9772 22.3422 47.9325 22.018C46.4661 23.4782 44.7157 24.7129 42.8757 25.7096ZM24 40C31.1605 40 37.8414 38.4365 42.8757 35.7095C44.7157 34.7129 46.4661 33.4782 47.9325 32.0179C47.9772 32.3421 48 32.6696 48 33C48 40.1797 37.2548 46 24 46C10.7452 46 0 40.1797 0 33C0 32.6696 0.0227509 32.3421 0.0674438 32.0179C1.53394 33.4782 3.28433 34.7129 5.1243 35.7095C10.1586 38.4365 16.8395 40 24 40ZM42.8757 45.7095C37.8414 48.4365 31.1605 50 24 50C16.8395 50 10.1586 48.4365 5.1243 45.7095C3.28433 44.7129 1.53394 43.4782 0.0674438 42.0179C0.0227509 42.3421 0 42.6696 0 43C0 50.1797 10.7452 56 24 56C37.2548 56 48 50.1797 48 43C48 42.6696 47.9772 42.3421 47.9325 42.0179C46.4661 43.4782 44.7157 44.7129 42.8757 45.7095Z" fill="#FFFFFF" fill-opacity="1.000000" fill-rule="evenodd"/>
</svg>
