<svg width="20" height="20" viewBox="0 0 20 20" fill="none" xmlns="http://www.w3.org/2000/svg">
<path d="M17.0835 5.41663H2.91683C2.45659 5.41663 2.0835 5.78972 2.0835 6.24996V15.4166C2.0835 15.8769 2.45659 16.25 2.91683 16.25H17.0835C17.5437 16.25 17.9168 15.8769 17.9168 15.4166V6.24996C17.9168 5.78972 17.5437 5.41663 17.0835 5.41663Z" stroke="white" stroke-linecap="round" stroke-linejoin="round"/>
<path d="M17.9165 8.33337H10.4165V12.9167H17.9165V8.33337Z" stroke="white" stroke-linecap="round" stroke-linejoin="round"/>
<path d="M17.9165 7.5V13.75" stroke="white" stroke-linecap="round" stroke-linejoin="round"/>
<path d="M13.3335 5.41663C13.3335 3.33329 11.8752 2.91663 11.2502 2.91663C9.86129 2.91663 6.7085 2.91663 5.2085 2.91663C3.7085 2.91663 3.3335 4.11066 3.3335 4.70767V5.41663" stroke="white" stroke-linecap="round" stroke-linejoin="round"/>
<path d="M13.9585 11.25C14.3037 11.25 14.5835 10.9702 14.5835 10.625C14.5835 10.2798 14.3037 10 13.9585 10C13.6133 10 13.3335 10.2798 13.3335 10.625C13.3335 10.9702 13.6133 11.25 13.9585 11.25Z" fill="white"/>
</svg>
