<?xml version="1.0" encoding="UTF-8"?>
<svg xmlns="http://www.w3.org/2000/svg" width="150" height="98" viewBox="0 0 301 194" fill="none">
  <g clip-path="url(#clip0_295_409)">
    <path d="M239.349 58.0187V2.41748H2.41766V58.0187V113.016H88.8494V169.221H276.219V113.016V58.0187H239.349Z" fill="white"></path>
    <path d="M275.614 56.2056H241.767V0H0V114.829H87.0361V171.034H278.032V56.2056H275.614ZM2.41767 2.41745H239.349V56.2056H2.41767V2.41745ZM89.4538 168.617V114.829H219.404V168.617H89.4538ZM275.614 168.617H221.821V114.829H275.614V168.617ZM275.614 112.411H2.41767V58.623H275.614V112.411Z" fill="black"></path>
    <path d="M236.067 153.635C239.579 157.593 245.575 157.92 249.455 154.366C252.369 151.695 253.263 147.597 252.036 144.043L255.076 141.263L253.638 139.644L256.358 137.154L257.796 138.773L260.969 135.866L259.531 134.247L260.661 133.207L262.1 134.827L263.683 133.377L262.245 131.757L263.828 130.306L260.546 126.608L247.4 138.64C243.997 136.858 239.73 137.287 236.726 140.037C232.846 143.59 232.55 149.676 236.061 153.629L236.067 153.635ZM239.192 142.811C241.568 140.635 245.242 140.834 247.394 143.258C249.546 145.681 249.365 149.41 246.989 151.592C244.614 153.768 240.939 153.568 238.787 151.145C236.636 148.721 236.817 144.992 239.192 142.811Z" fill="black"></path>
    <path d="M27.8455 15.943H23.7234V42.6739H27.8455V15.943Z" fill="black"></path>
    <path d="M49.2359 39.9301H48.6254L41.3664 15.943H33.4243V42.6799H37.5102V18.6566H38.1206L45.3797 42.6799H53.3217V15.943H49.2359V39.9301Z" fill="black"></path>
    <path d="M68.8311 15.4113C65.5733 15.4113 62.9864 16.3359 61.0764 18.1792C59.1665 20.0225 58.2115 22.6938 58.2115 26.181V32.4422C58.2115 35.9293 59.1665 38.5946 61.0764 40.4439C62.9864 42.2872 65.5673 43.2119 68.8311 43.2119C72.095 43.2119 74.5126 42.3235 76.2594 40.5406C78.0062 38.7577 78.8765 36.3282 78.8765 33.246V32.7141H74.7907V33.3608C74.7907 35.1437 74.3011 36.6123 73.3219 37.7726C72.3428 38.933 70.8438 39.5132 68.8372 39.5132C66.8305 39.5132 65.2106 38.8907 64.0623 37.6397C62.9139 36.3947 62.3457 34.6843 62.3457 32.5207V26.1024C62.3457 23.9146 62.9199 22.1982 64.0623 20.9653C65.2106 19.7324 66.8003 19.116 68.8372 19.116C70.874 19.116 72.3428 19.6901 73.3219 20.8324C74.3011 21.9807 74.7907 23.4553 74.7907 25.2623V25.6068H78.8765V25.3772C78.8765 22.2949 78.0062 19.8654 76.2594 18.0825C74.5126 16.2997 72.0406 15.4113 68.8311 15.4113Z" fill="black"></path>
    <path d="M99.0581 16.8072C97.8009 16.233 96.3382 15.949 94.6881 15.949H83.458V42.6799H87.5802V32.1398H95.7156C96.5074 32.1398 97.0756 32.3453 97.4322 32.7502C97.7888 33.1551 97.9641 33.7051 97.9641 34.3941V42.6799H102.128V33.8199C102.128 32.7019 101.838 31.8437 101.252 31.2454C100.666 30.647 99.8922 30.3207 98.9251 30.2723V29.6619C100.073 29.257 101.047 28.5499 101.844 27.5406C102.648 26.5374 103.047 25.1897 103.047 23.5095V23.0865C103.047 21.6118 102.697 20.3366 101.996 19.2669C101.294 18.1972 100.315 17.3753 99.052 16.8011L99.0581 16.8072ZM98.8888 24.1985C98.8888 25.4979 98.4839 26.5193 97.6679 27.2747C96.8519 28.0241 95.7096 28.3988 94.2288 28.3988H87.5862V19.69H94.2288C95.7338 19.69 96.8822 20.0647 97.686 20.8141C98.4899 21.5635 98.8888 22.5909 98.8888 23.8903V24.1985Z" fill="black"></path>
    <path d="M116.26 28.0483H115.692L109.273 15.943H104.613L113.897 32.9799V42.6799H118.055V32.9799L127.339 15.943H122.679L116.26 28.0483Z" fill="black"></path>
    <path d="M145.538 16.922C144.25 16.2753 142.794 15.949 141.168 15.949H130.548V42.6799H134.67V32.4057H141.162C142.763 32.4057 144.202 32.0854 145.477 31.4508C146.753 30.8163 147.762 29.8976 148.511 28.701C149.261 27.5044 149.636 26.0781 149.636 24.4221V23.9265C149.636 22.2706 149.273 20.8503 148.548 19.6658C147.822 18.4812 146.813 17.5687 145.532 16.916L145.538 16.922ZM145.52 24.3859C145.52 25.7094 145.084 26.755 144.22 27.5165C143.356 28.2779 142.195 28.6647 140.745 28.6647H134.67V19.69H140.745C142.195 19.69 143.356 20.0707 144.22 20.8383C145.084 21.5998 145.52 22.6574 145.52 24.0051V24.3859Z" fill="black"></path>
    <path d="M151.667 19.69H159.875V42.6799H164.003V19.69H172.211V15.943H151.667V19.69Z" fill="black"></path>
    <path d="M180.08 31.1064H191.727V27.3654H180.08V19.69H192.797V15.943H175.958V42.6799H192.991V38.9329H180.08V31.1064Z" fill="black"></path>
    <path d="M215.197 18.6566C213.299 16.8495 210.567 15.943 207.007 15.943H196.315V19.6115H199.905V39.0115H196.315V42.6799H207.007C210.573 42.6799 213.299 41.7794 215.197 39.9905C217.095 38.1956 218.044 35.4759 218.044 31.8377V26.8336C218.044 23.1953 217.095 20.4697 215.197 18.6626V18.6566ZM213.879 31.9465C213.879 34.2612 213.317 36.0078 212.199 37.1802C211.081 38.3527 209.358 38.9389 207.043 38.9389H204.064V19.7323H207.043C209.358 19.7323 211.081 20.3065 212.199 21.4487C213.317 22.597 213.879 24.3376 213.879 26.6825V31.9525V31.9465Z" fill="black"></path>
    <path d="M34.2222 71.6168C30.9643 71.6168 28.3774 72.5414 26.4675 74.3847C24.5575 76.228 23.6025 78.8993 23.6025 82.3865V88.6477C23.6025 92.1348 24.5575 94.8001 26.4675 96.6494C28.3774 98.4988 30.9583 99.4174 34.2222 99.4174C37.486 99.4174 39.9037 98.5229 41.6505 96.7461C43.3912 94.9632 44.2676 92.5337 44.2676 89.4515V88.9196H40.1817V89.5663C40.1817 91.3492 39.6921 92.8178 38.713 93.9781C37.7338 95.1385 36.2349 95.7126 34.2282 95.7126C32.2215 95.7126 30.6017 95.0902 29.4533 93.8391C28.311 92.5941 27.7368 90.8898 27.7368 88.7202V82.3079C27.7368 80.1201 28.311 78.4098 29.4533 77.1708C30.5957 75.9379 32.1913 75.3215 34.2282 75.3215C36.2651 75.3215 37.7338 75.8956 38.713 77.0379C39.6921 78.1862 40.1817 79.6608 40.1817 81.4679V81.8123H44.2676V81.5827C44.2676 78.5004 43.3972 76.0709 41.6505 74.288C39.9037 72.5052 37.4316 71.6107 34.2222 71.6107V71.6168Z" fill="black"></path>
    <path d="M58.8944 71.6168C55.6064 71.6168 53.0013 72.5415 51.0611 74.3848C49.121 76.2281 48.1599 78.8994 48.1599 82.3865V88.6477C48.1599 92.1349 49.127 94.8001 51.0611 96.6495C52.9953 98.4988 55.6064 99.4174 58.8944 99.4174C62.1824 99.4174 64.7935 98.4928 66.7397 96.6495C68.686 94.8062 69.6591 92.1349 69.6591 88.6477V82.3865C69.6591 78.8994 68.686 76.2281 66.7397 74.3848C64.7935 72.5415 62.1764 71.6168 58.8944 71.6168ZM65.5007 88.8049C65.5007 90.9443 64.9265 92.6305 63.7841 93.8634C62.6418 95.1023 61.0099 95.7127 58.8944 95.7127C56.7789 95.7127 55.2135 95.0963 54.0409 93.8634C52.8684 92.6305 52.2821 90.9443 52.2821 88.8049V82.2355C52.2821 80.096 52.8684 78.4159 54.0409 77.1769C55.2135 75.944 56.8273 75.3276 58.8944 75.3276C60.9615 75.3276 62.6357 75.944 63.7841 77.1769C64.9325 78.4159 65.5007 80.096 65.5007 82.2355V88.8049Z" fill="black"></path>
    <path d="M90.3605 96.1296H89.7501L82.497 72.1486H74.549V98.8855H78.6409V74.8621H79.2513L86.5043 98.8855H94.4464V72.1486H90.3605V96.1296Z" fill="black"></path>
    <path d="M100.025 98.8855H104.147V87.3482H115.528V83.6072H104.147V75.8956H116.52V72.1486H100.025V98.8855Z" fill="black"></path>
    <path d="M124.655 87.312H136.302V83.571H124.655V75.8956H137.372V72.1486H120.533V98.8855H137.565V95.1385H124.655V87.312Z" fill="black"></path>
    <path d="M157.481 73.0129C156.218 72.4387 154.761 72.1547 153.111 72.1547H141.881V98.8856H146.003V88.3455H154.139C154.93 88.3455 155.498 88.5449 155.855 88.9559C156.212 89.3608 156.387 89.9108 156.387 90.5998V98.8856H160.551V90.0256C160.551 88.9076 160.255 88.0433 159.669 87.451C159.083 86.8527 158.309 86.5264 157.342 86.478V85.8676C158.49 85.4627 159.463 84.7556 160.261 83.7463C161.065 82.737 161.464 81.3953 161.464 79.7152V79.2982C161.464 77.8236 161.114 76.5484 160.412 75.4787C159.711 74.4089 158.732 73.587 157.469 73.0189L157.481 73.0129ZM157.312 80.4042C157.312 81.6975 156.901 82.7249 156.091 83.4804C155.275 84.2298 154.133 84.6045 152.652 84.6045H146.009V75.9017H152.652C154.157 75.9017 155.305 76.2764 156.109 77.0258C156.913 77.7752 157.312 78.8026 157.312 80.102V80.4102V80.4042Z" fill="black"></path>
    <path d="M170.137 87.312H181.785V83.571H170.137V75.8956H182.854V72.1486H166.015V98.8855H183.048V95.1385H170.137V87.312Z" fill="black"></path>
    <path d="M203.175 96.1296H202.565L195.305 72.1486H187.363V98.8855H191.449V74.8621H192.06L199.319 98.8855H207.261V72.1486H203.175V96.1296Z" fill="black"></path>
    <path d="M222.764 71.6168C219.506 71.6168 216.92 72.5414 215.01 74.3847C213.1 76.228 212.145 78.8993 212.145 82.3865V88.6477C212.145 92.1348 213.1 94.8001 215.01 96.6494C216.92 98.4988 219.5 99.4174 222.764 99.4174C226.028 99.4174 228.446 98.5229 230.193 96.7461C231.933 94.9632 232.81 92.5337 232.81 89.4515V88.9196H228.724V89.5663C228.724 91.3492 228.234 92.8178 227.255 93.9781C226.276 95.1385 224.777 95.7126 222.77 95.7126C220.764 95.7126 219.144 95.0902 217.995 93.8391C216.853 92.5941 216.279 90.8898 216.279 88.7202V82.3079C216.279 80.1201 216.853 78.4098 217.995 77.1708C219.138 75.9379 220.733 75.3215 222.77 75.3215C224.807 75.3215 226.276 75.8956 227.255 77.0379C228.234 78.1862 228.724 79.6608 228.724 81.4679V81.8123H232.81V81.5827C232.81 78.5004 231.939 76.0709 230.193 74.288C228.446 72.5052 225.974 71.6107 222.764 71.6107V71.6168Z" fill="black"></path>
    <path d="M254.236 75.8956V72.1486H237.391V98.8855H254.424V95.1385H241.519V87.312H253.166V83.571H241.519V75.8956H254.236Z" fill="black"></path>
    <path d="M191.517 155.318V149.838H177.952V145.164L188.222 128.497H195.541V146.275H200.062V149.838H195.541V155.318H191.517ZM181.861 146.275H191.517V131.025H190.904L181.861 145.739V146.275Z" fill="black"></path>
    <path d="M156.676 155.318V152.291C156.676 150.426 156.996 148.893 157.634 147.693C158.273 146.492 159.18 145.521 160.355 144.781C161.556 144.014 162.999 143.376 164.685 142.865L167.023 142.137C168.07 141.805 168.964 141.396 169.705 140.911C170.471 140.425 171.059 139.825 171.468 139.11C171.876 138.369 172.081 137.513 172.081 136.543V136.39C172.081 134.882 171.57 133.707 170.548 132.864C169.526 131.996 168.185 131.562 166.524 131.562C164.813 131.562 163.421 132.022 162.348 132.941C161.3 133.861 160.777 135.215 160.777 137.003V137.616H156.791V137.041C156.791 135.1 157.213 133.465 158.056 132.136C158.899 130.783 160.061 129.748 161.543 129.033C163.025 128.318 164.685 127.96 166.524 127.96C168.364 127.96 169.999 128.305 171.429 128.995C172.885 129.684 174.022 130.655 174.84 131.907C175.683 133.158 176.104 134.627 176.104 136.313V136.658C176.104 138.395 175.759 139.838 175.07 140.987C174.38 142.137 173.422 143.082 172.196 143.823C170.995 144.564 169.603 145.189 168.019 145.7L165.758 146.39C164.557 146.748 163.587 147.143 162.846 147.578C162.131 147.986 161.594 148.485 161.236 149.072C160.904 149.66 160.738 150.413 160.738 151.333V151.716H175.874V155.318H156.676Z" fill="black"></path>
    <path d="M142.478 155.854C139.361 155.854 136.871 154.973 135.006 153.21C133.166 151.422 132.247 148.74 132.247 145.164V138.65C132.247 135.151 133.166 132.494 135.006 130.68C136.871 128.867 139.361 127.96 142.478 127.96C145.62 127.96 148.111 128.867 149.95 130.68C151.815 132.494 152.747 135.151 152.747 138.65V145.164C152.747 148.74 151.815 151.422 149.95 153.21C148.111 154.973 145.62 155.854 142.478 155.854ZM142.478 152.252C144.598 152.252 146.169 151.652 147.191 150.451C148.213 149.225 148.724 147.514 148.724 145.317V138.42C148.724 136.224 148.175 134.538 147.076 133.363C145.978 132.162 144.445 131.562 142.478 131.562C140.485 131.562 138.953 132.175 137.88 133.401C136.807 134.601 136.27 136.275 136.27 138.42V145.317C136.27 147.565 136.781 149.289 137.803 150.49C138.85 151.665 140.409 152.252 142.478 152.252Z" fill="black"></path>
    <path d="M109.077 155.318V152.291C109.077 150.426 109.396 148.893 110.035 147.693C110.673 146.492 111.58 145.521 112.755 144.781C113.956 144.014 115.399 143.376 117.085 142.865L119.423 142.137C120.47 141.805 121.364 141.396 122.105 140.911C122.872 140.425 123.459 139.825 123.868 139.11C124.277 138.369 124.481 137.513 124.481 136.543V136.39C124.481 134.882 123.97 133.707 122.948 132.864C121.926 131.996 120.585 131.562 118.925 131.562C117.213 131.562 115.821 132.022 114.748 132.941C113.701 133.861 113.177 135.215 113.177 137.003V137.616H109.192V137.041C109.192 135.1 109.613 133.465 110.456 132.136C111.299 130.783 112.462 129.748 113.943 129.033C115.425 128.318 117.085 127.96 118.925 127.96C120.764 127.96 122.399 128.305 123.83 128.995C125.286 129.684 126.423 130.655 127.24 131.907C128.083 133.158 128.505 134.627 128.505 136.313V136.658C128.505 138.395 128.16 139.838 127.47 140.987C126.78 142.137 125.822 143.082 124.596 143.823C123.395 144.564 122.003 145.189 120.419 145.7L118.158 146.39C116.958 146.748 115.987 147.143 115.246 147.578C114.531 147.986 113.994 148.485 113.637 149.072C113.305 149.66 113.139 150.413 113.139 151.333V151.716H128.275V155.318H109.077Z" fill="black"></path>
    <path d="M278.032 56.2056V79.1713V171.034H110.004H87.0362L110.004 194H301V171.034V79.1713L278.032 56.2056Z" fill="#FF4133"></path>
    <path d="M264.735 22.9657L241.767 0V22.9657V56.2056H264.735V22.9657Z" fill="#FF4133"></path>
  </g>
  <defs>
    <clipPath id="clip0_295_409">
      <rect width="301" height="194" fill="white" />
    </clipPath>
  </defs>
</svg>
