<svg width="93" height="94" viewBox="0 0 93 94" fill="none" xmlns="http://www.w3.org/2000/svg">
<path d="M46.5557 93.7363C72.1679 93.7363 92.9307 72.9735 92.9307 47.3613C92.9307 21.7491 72.1679 0.986328 46.5557 0.986328C20.9435 0.986328 0.180664 21.7491 0.180664 47.3613C0.180664 72.9735 20.9435 93.7363 46.5557 93.7363Z" fill="url(#paint0_linear_60_12789)"/>
<path d="M46.5562 26.2103C58.2205 26.2103 67.7072 35.697 67.7072 47.3613C67.7072 59.0256 58.2205 68.5124 46.5562 68.5124C34.8918 68.5124 25.4051 59.0256 25.4051 47.3613C25.4051 35.697 34.8918 26.2103 46.5562 26.2103ZM46.5562 24.1738C33.7476 24.1738 23.3687 34.5528 23.3687 47.3613C23.3687 60.1699 33.7476 70.5488 46.5562 70.5488C59.3647 70.5488 69.7437 60.1699 69.7437 47.3613C69.7437 34.5528 59.3647 24.1738 46.5562 24.1738Z" fill="white" fill-opacity="0.5"/>
<path d="M39.8027 61.5244L59.6777 47.6983L39.8027 35.0244V61.5244Z" fill="white" fill-opacity="0.5"/>
<defs>
<linearGradient id="paint0_linear_60_12789" x1="41.4387" y1="-29.7079" x2="41.4388" y2="120.761" gradientUnits="userSpaceOnUse">
<stop offset="0.00804812" stop-color="#F6601F"/>
<stop offset="0.932292" stop-color="#151617" stop-opacity="0"/>
</linearGradient>
</defs>
</svg>
