<svg width="94" height="94" viewBox="0 0 94 94" fill="none" xmlns="http://www.w3.org/2000/svg">
<path d="M47.3613 93.7363C72.9735 93.7363 93.7363 72.9735 93.7363 47.3613C93.7363 21.7491 72.9735 0.986328 47.3613 0.986328C21.7491 0.986328 0.986328 21.7491 0.986328 47.3613C0.986328 72.9735 21.7491 93.7363 47.3613 93.7363Z" fill="url(#paint0_linear_60_12782)"/>
<path fill-rule="evenodd" clip-rule="evenodd" d="M65.9103 15.0879L38.0597 20.6232C36.6193 20.9094 35.5817 22.1735 35.5817 23.6421L35.5817 56.8831C35.5817 57.8138 34.9553 58.628 34.0556 58.8665L26.7562 60.802C23.9751 61.5394 22.0386 64.0563 22.0386 66.9335C22.0386 71.4482 26.1964 74.8166 30.6129 73.8798L32.3001 73.5219C36.1873 72.6974 38.9675 69.2655 38.9675 65.2919V35.7056C38.9675 34.9764 39.4793 34.3472 40.1933 34.1988L63.4017 29.3751C64.2935 29.1898 65.1304 29.8706 65.1304 30.7815V50.5937C65.1304 51.5724 64.4707 52.4282 63.5241 52.6773L56.5506 54.5124C53.5653 55.298 51.4846 57.9971 51.4846 61.0841C51.4846 65.4663 55.5219 68.7349 59.8082 67.823L62.2687 67.2995C65.8218 66.5435 68.3623 63.4056 68.3623 59.773L68.3623 17.1005C68.3623 15.8066 67.1793 14.8357 65.9103 15.0879Z" fill="white" fill-opacity="0.5"/>
<defs>
<linearGradient id="paint0_linear_60_12782" x1="42.2444" y1="-29.7079" x2="42.2445" y2="120.761" gradientUnits="userSpaceOnUse">
<stop offset="0.00804812" stop-color="#F6601F"/>
<stop offset="0.932292" stop-color="#151617" stop-opacity="0"/>
</linearGradient>
</defs>
</svg>
