<svg width="93" height="94" viewBox="0 0 93 94" fill="none" xmlns="http://www.w3.org/2000/svg">
<path d="M46.5557 93.7363C72.1679 93.7363 92.9307 72.9735 92.9307 47.3613C92.9307 21.7491 72.1679 0.986328 46.5557 0.986328C20.9435 0.986328 0.180664 21.7491 0.180664 47.3613C0.180664 72.9735 20.9435 93.7363 46.5557 93.7363Z" fill="url(#paint0_linear_60_12793)"/>
<path d="M29.7038 35.3035L63.9999 26.7295M46.8518 33.7446C41.2241 33.7446 35.7051 34.2106 30.3315 35.106C28.143 35.4707 26.5859 37.3959 26.5859 39.6145V58.6873C26.5859 61.2702 28.6798 63.364 31.2627 63.364H62.441C65.0239 63.364 67.1177 61.2702 67.1177 58.6873V39.6145C67.1177 37.3959 65.5606 35.4707 63.3722 35.106C57.9986 34.2106 52.4796 33.7446 46.8518 33.7446ZM43.3534 47.137L43.3424 47.148L43.3314 47.137L43.3424 47.1259L43.3534 47.137ZM43.3428 51.5568L43.3317 51.5458L43.3428 51.5348L43.3538 51.5458L43.3428 51.5568ZM38.9446 51.5462L38.9336 51.5572L38.9226 51.5462L38.9336 51.5351L38.9446 51.5462ZM38.9339 47.1476L38.9229 47.1366L38.9339 47.1256L38.945 47.1366L38.9339 47.1476ZM41.146 41.5392V41.5548H41.1304V41.5392H41.146ZM47.8992 45.4471L47.8857 45.4549L47.8779 45.4414L47.8914 45.4336L47.8992 45.4471ZM45.0326 56.1023L45.0248 56.0888L45.0383 56.081L45.0461 56.0945L45.0326 56.1023ZM45.0463 42.5885L45.0385 42.602L45.025 42.5942L45.0328 42.5807L45.0463 42.5885ZM47.8916 53.2493L47.8781 53.2415L47.8859 53.228L47.8994 53.2358L47.8916 53.2493ZM48.9405 49.349H48.9249V49.3334H48.9405V49.349ZM41.146 57.1283V57.1439H41.1304V57.1283H41.146ZM34.3988 53.2417L34.3853 53.2495L34.3775 53.236L34.391 53.2282L34.3988 53.2417ZM37.238 42.6018L37.2302 42.5883L37.2437 42.5805L37.2515 42.594L37.238 42.6018ZM37.2517 56.0889L37.2439 56.1024L37.2304 56.0946L37.2382 56.0811L37.2517 56.0889ZM34.3912 45.4547L34.3777 45.447L34.3855 45.4334L34.399 45.4412L34.3912 45.4547ZM33.3514 49.349H33.3358V49.3334H33.3514V49.349ZM57.7642 46.2159C56.9033 46.2159 56.2053 45.518 56.2053 44.657C56.2053 43.7961 56.9033 43.0981 57.7642 43.0981C58.6252 43.0981 59.3232 43.7961 59.3232 44.657C59.3232 45.518 58.6252 46.2159 57.7642 46.2159ZM57.7642 55.5694C56.9033 55.5694 56.2053 54.8715 56.2053 54.0105C56.2053 53.1495 56.9033 52.4516 57.7642 52.4516C58.6252 52.4516 59.3232 53.1495 59.3232 54.0105C59.3232 54.8715 58.6252 55.5694 57.7642 55.5694Z" stroke="white" stroke-opacity="0.5" stroke-width="2.5" stroke-linecap="round" stroke-linejoin="round"/>
<defs>
<linearGradient id="paint0_linear_60_12793" x1="41.4387" y1="-29.7079" x2="41.4388" y2="120.761" gradientUnits="userSpaceOnUse">
<stop offset="0.00804812" stop-color="#F6601F"/>
<stop offset="0.932292" stop-color="#151617" stop-opacity="0"/>
</linearGradient>
</defs>
</svg>
