<svg width="1200.104980" height="299.000000" viewBox="0 0 1200.1 299" fill="none" xmlns="http://www.w3.org/2000/svg" xmlns:xlink="http://www.w3.org/1999/xlink">
	<defs>
		<filter id="filter_19_14693_dd" x="116.206360" y="101.000000" width="42.000000" height="42.000000" filterUnits="userSpaceOnUse" color-interpolation-filters="sRGB">
			<feFlood flood-opacity="0" result="BackgroundImageFix"/>
			<feColorMatrix in="SourceAlpha" type="matrix" values="0 0 0 0 0 0 0 0 0 0 0 0 0 0 0 0 0 0 127 0" result="hardAlpha"/>
			<feOffset dx="0" dy="0"/>
			<feGaussianBlur stdDeviation="5"/>
			<feComposite in2="hardAlpha" operator="out" k2="-1" k3="1"/>
			<feColorMatrix type="matrix" values="0 0 0 0 0.99608 0 0 0 0 0.23529 0 0 0 0 0.023529 0 0 0 0.5 0"/>
			<feBlend mode="normal" in2="BackgroundImageFix" result="effect_dropShadow_1"/>
			<feBlend mode="normal" in="SourceGraphic" in2="effect_dropShadow_1" result="shape"/>
		</filter>
		<filter id="filter_19_14696_dd" x="423.206360" y="130.000000" width="42.000000" height="42.000000" filterUnits="userSpaceOnUse" color-interpolation-filters="sRGB">
			<feFlood flood-opacity="0" result="BackgroundImageFix"/>
			<feColorMatrix in="SourceAlpha" type="matrix" values="0 0 0 0 0 0 0 0 0 0 0 0 0 0 0 0 0 0 127 0" result="hardAlpha"/>
			<feOffset dx="0" dy="0"/>
			<feGaussianBlur stdDeviation="5"/>
			<feComposite in2="hardAlpha" operator="out" k2="-1" k3="1"/>
			<feColorMatrix type="matrix" values="0 0 0 0 0.99608 0 0 0 0 0.23529 0 0 0 0 0.023529 0 0 0 0.5 0"/>
			<feBlend mode="normal" in2="BackgroundImageFix" result="effect_dropShadow_1"/>
			<feBlend mode="normal" in="SourceGraphic" in2="effect_dropShadow_1" result="shape"/>
		</filter>
		<filter id="filter_19_14699_dd" x="730.206360" y="130.000000" width="42.000000" height="42.000000" filterUnits="userSpaceOnUse" color-interpolation-filters="sRGB">
			<feFlood flood-opacity="0" result="BackgroundImageFix"/>
			<feColorMatrix in="SourceAlpha" type="matrix" values="0 0 0 0 0 0 0 0 0 0 0 0 0 0 0 0 0 0 127 0" result="hardAlpha"/>
			<feOffset dx="0" dy="0"/>
			<feGaussianBlur stdDeviation="5"/>
			<feComposite in2="hardAlpha" operator="out" k2="-1" k3="1"/>
			<feColorMatrix type="matrix" values="0 0 0 0 0.99608 0 0 0 0 0.23529 0 0 0 0 0.023529 0 0 0 0.5 0"/>
			<feBlend mode="normal" in2="BackgroundImageFix" result="effect_dropShadow_1"/>
			<feBlend mode="normal" in="SourceGraphic" in2="effect_dropShadow_1" result="shape"/>
		</filter>
		<filter id="filter_19_14702_dd" x="1036.206421" y="124.000000" width="42.000000" height="42.000000" filterUnits="userSpaceOnUse" color-interpolation-filters="sRGB">
			<feFlood flood-opacity="0" result="BackgroundImageFix"/>
			<feColorMatrix in="SourceAlpha" type="matrix" values="0 0 0 0 0 0 0 0 0 0 0 0 0 0 0 0 0 0 127 0" result="hardAlpha"/>
			<feOffset dx="0" dy="0"/>
			<feGaussianBlur stdDeviation="5"/>
			<feComposite in2="hardAlpha" operator="out" k2="-1" k3="1"/>
			<feColorMatrix type="matrix" values="0 0 0 0 0.99608 0 0 0 0 0.23529 0 0 0 0 0.023529 0 0 0 0.5 0"/>
			<feBlend mode="normal" in2="BackgroundImageFix" result="effect_dropShadow_1"/>
			<feBlend mode="normal" in="SourceGraphic" in2="effect_dropShadow_1" result="shape"/>
		</filter>
		<linearGradient id="paint_linear_19_14678_0" x1="599.581177" y1="112.000000" x2="599.581177" y2="215.000000" gradientUnits="userSpaceOnUse">
			<stop stop-color="#FE3C06"/>
			<stop offset="1.000000" stop-color="#FE3C06" stop-opacity="0.000000"/>
		</linearGradient>
		<linearGradient id="paint_linear_19_14679_0" x1="-9.585938" y1="139.999023" x2="1199.704956" y2="139.999023" gradientUnits="userSpaceOnUse">
			<stop stop-color="#FE3C06" stop-opacity="0.000000"/>
			<stop offset="0.121059" stop-color="#FE3C06"/>
			<stop offset="0.885864" stop-color="#FE3C06"/>
			<stop offset="1.000000" stop-color="#FE3C06" stop-opacity="0.000000"/>
		</linearGradient>
	</defs>
	<path id="Vector" d="M137.081 122.056C169.099 116.693 205.601 116.888 239.859 122.056C274.118 127.224 308.377 140.145 342.638 145.973C376.896 151.801 411.155 150.537 445.414 150.756C479.675 150.975 513.933 152.677 548.192 145.973C582.451 139.269 616.712 124.158 650.97 126.84C685.229 129.521 719.488 149.996 753.749 150.756C788.007 151.517 822.266 132.564 856.525 122.056C890.786 111.549 925.044 109.488 959.303 114.881C993.562 120.275 1022.82 131.151 1057.08 144C1057.08 144 1093.56 163 1198.06 167L1198.06 237C1163.81 237 993.562 237 959.303 237C925.044 237 890.786 237 856.525 237C822.266 237 788.007 237 753.749 237C719.488 237 685.229 237 650.97 237C616.712 237 582.451 237 548.192 237C513.933 237 479.675 237 445.414 237C411.155 237 376.896 237 342.638 237C308.377 237 274.118 237 239.859 237C205.601 237 34.3051 237 0.0462646 237L0.0813599 166.5C74.0638 154.5 105.064 127.419 137.081 122.056Z" fill="url(#paint_linear_19_14678_0)" fill-opacity="0.200000" fill-rule="nonzero"/>
	<path id="Vector" d="M0.0813599 166.5C78.9263 153.5 103.157 127.557 138.186 122.028C173.214 116.5 206.634 116.875 240.857 122.028C275.081 127.182 309.304 140.068 343.529 145.879C377.753 151.691 411.976 150.431 446.199 150.649C480.424 150.868 514.648 152.565 548.871 145.879C583.094 139.194 617.319 124.125 651.543 126.799C685.766 129.473 719.99 149.891 754.215 150.649C788.438 151.408 822.661 132.507 856.885 122.028C891.11 111.55 925.333 109.495 959.556 114.873C993.78 120.252 1028 133.066 1062.23 145.879C1093.11 157.5 1136.8 164 1200.08 167" stroke="url(#paint_linear_19_14679_0)" stroke-opacity="1.000000" stroke-width="1.000000"/>
	<path id="MVP launch preparation" d="M59.213 262.818L59.213 273L60.3648 273L60.3648 265.265L60.4639 265.265L63.6461 273L64.7603 273L67.9425 265.265L68.0416 265.265L68.0416 273L69.1934 273L69.1934 262.818L67.7237 262.818L64.2647 271.271L64.1451 271.271L60.6827 262.818L59.213 262.818ZM72.0788 262.818L70.7868 262.818L74.5261 273L75.7976 273L79.5368 262.818L78.2448 262.818L75.2199 271.39L75.1003 271.39L72.0788 262.818ZM81.1277 273L82.3582 273L82.3582 269.281L84.5867 269.281C86.9588 269.281 88.0286 267.839 88.0286 266.041C88.0286 264.24 86.9588 262.818 84.5662 262.818L81.1277 262.818L81.1277 273ZM82.3582 268.188L82.3582 263.912L84.5286 263.912C86.1829 263.912 86.8152 264.817 86.8152 266.041C86.8152 267.261 86.1829 268.188 84.5457 268.188L82.3582 268.188ZM94.9662 262.818L93.7938 262.818L93.7938 273L94.9662 273L94.9662 262.818ZM99.3638 273.178C100.693 273.178 101.391 272.463 101.63 271.964L101.688 271.964L101.688 273L102.864 273L102.864 267.969C102.864 265.542 101.015 265.265 100.037 265.265C98.8853 265.265 97.5728 265.662 96.9747 267.053L98.0889 267.453C98.3487 266.896 98.9605 266.297 100.078 266.297C101.158 266.297 101.688 266.872 101.688 267.849L101.688 267.89C101.688 268.458 101.114 268.406 99.7193 268.584C98.3043 268.769 96.7559 269.083 96.7559 270.833C96.7559 272.323 97.9112 273.178 99.3638 273.178ZM99.5416 272.125C98.6085 272.125 97.9317 271.708 97.9317 270.891C97.9317 269.996 98.7452 269.719 99.6612 269.599C100.157 269.541 101.49 269.401 101.688 269.162L101.688 270.235C101.688 271.192 100.933 272.125 99.5416 272.125ZM109.822 269.879C109.822 271.308 108.728 271.964 107.853 271.964C106.879 271.964 106.182 271.25 106.182 270.136L106.182 265.364L105.01 265.364L105.01 270.214C105.01 272.166 106.045 273.099 107.477 273.099C108.629 273.099 109.385 272.484 109.744 271.708L109.822 271.708L109.822 273L110.995 273L110.995 265.364L109.822 265.364L109.822 269.879ZM114.316 268.406C114.316 267.073 115.143 266.318 116.267 266.318C117.354 266.318 118.017 267.029 118.017 268.229L118.017 273L119.19 273L119.19 268.146C119.19 266.198 118.151 265.265 116.606 265.265C115.45 265.265 114.736 265.781 114.377 266.557L114.278 266.557L114.278 265.364L113.143 265.364L113.143 273L114.316 273L114.316 268.406ZM124.44 273.161C126.128 273.161 127.243 272.125 127.441 270.771L126.269 270.771C126.05 271.609 125.353 272.104 124.44 272.104C123.049 272.104 122.153 270.953 122.153 269.182C122.153 267.453 123.066 266.318 124.44 266.318C125.472 266.318 126.091 266.954 126.269 267.651L127.441 267.651C127.243 266.219 126.029 265.265 124.419 265.265C122.352 265.265 120.978 266.896 120.978 269.223C120.978 271.51 122.29 273.161 124.44 273.161ZM130.324 268.406C130.324 267.073 131.175 266.318 132.334 266.318C133.438 266.318 134.104 267.015 134.104 268.229L134.104 273L135.277 273L135.277 268.146C135.277 266.185 134.234 265.265 132.672 265.265C131.469 265.265 130.782 265.768 130.427 266.557L130.324 266.557L130.324 262.818L129.152 262.818L129.152 273L130.324 273L130.324 268.406ZM141.362 275.864L142.534 275.864L142.534 271.828L142.637 271.828C142.893 272.245 143.392 273.161 144.862 273.161C146.773 273.161 148.106 271.629 148.106 269.203C148.106 266.796 146.773 265.265 144.841 265.265C143.351 265.265 142.893 266.178 142.637 266.578L142.497 266.578L142.497 265.364L141.362 265.364L141.362 275.864ZM142.517 269.182C142.517 267.473 143.273 266.318 144.705 266.318C146.195 266.318 146.93 267.572 146.93 269.182C146.93 270.812 146.174 272.104 144.705 272.104C143.293 272.104 142.517 270.912 142.517 269.182ZM149.893 273L151.066 273L151.066 268.167C151.066 267.135 151.882 266.379 152.997 266.379C153.308 266.379 153.632 266.438 153.711 266.458L153.711 265.265C153.578 265.255 153.27 265.245 153.096 265.245C152.18 265.245 151.387 265.761 151.107 266.516L151.028 266.516L151.028 265.364L149.893 265.364L149.893 273ZM158.067 273.161C159.619 273.161 160.751 272.385 161.109 271.229L159.975 270.912C159.677 271.708 158.987 272.104 158.067 272.104C156.69 272.104 155.74 271.216 155.685 269.579L161.229 269.579L161.229 269.083C161.229 266.239 159.537 265.265 157.948 265.265C155.88 265.265 154.506 266.896 154.506 269.24C154.506 271.588 155.859 273.161 158.067 273.161ZM155.685 268.567C155.764 267.377 156.605 266.318 157.948 266.318C159.219 266.318 160.036 267.271 160.036 268.567L155.685 268.567ZM163.018 275.864L164.191 275.864L164.191 271.828L164.293 271.828C164.549 272.245 165.048 273.161 166.518 273.161C168.429 273.161 169.762 271.629 169.762 269.203C169.762 266.796 168.429 265.265 166.498 265.265C165.007 265.265 164.549 266.178 164.293 266.578L164.153 266.578L164.153 265.364L163.018 265.364L163.018 275.864ZM164.173 269.182C164.173 267.473 164.929 266.318 166.361 266.318C167.851 266.318 168.586 267.572 168.586 269.182C168.586 270.812 167.831 272.104 166.361 272.104C164.949 272.104 164.173 270.912 164.173 269.182ZM173.798 273.178C175.128 273.178 175.825 272.463 176.065 271.964L176.123 271.964L176.123 273L177.298 273L177.298 267.969C177.298 265.542 175.449 265.265 174.472 265.265C173.32 265.265 172.007 265.662 171.409 267.053L172.524 267.453C172.783 266.896 173.395 266.297 174.513 266.297C175.593 266.297 176.123 266.872 176.123 267.849L176.123 267.89C176.123 268.458 175.548 268.406 174.154 268.584C172.739 268.769 171.191 269.083 171.191 270.833C171.191 272.323 172.346 273.178 173.798 273.178ZM173.976 272.125C173.043 272.125 172.366 271.708 172.366 270.891C172.366 269.996 173.18 269.719 174.096 269.599C174.591 269.541 175.924 269.401 176.123 269.162L176.123 270.235C176.123 271.192 175.367 272.125 173.976 272.125ZM179.444 273L180.617 273L180.617 268.167C180.617 267.135 181.434 266.379 182.548 266.379C182.859 266.379 183.184 266.438 183.262 266.458L183.262 265.265C183.129 265.255 182.821 265.245 182.647 265.245C181.731 265.245 180.938 265.761 180.658 266.516L180.579 266.516L180.579 265.364L179.444 265.364L179.444 273ZM186.904 273.178C188.233 273.178 188.93 272.463 189.17 271.964L189.228 271.964L189.228 273L190.404 273L190.404 267.969C190.404 265.542 188.555 265.265 187.577 265.265C186.425 265.265 185.113 265.662 184.514 267.053L185.629 267.453C185.888 266.896 186.5 266.297 187.618 266.297C188.698 266.297 189.228 266.872 189.228 267.849L189.228 267.89C189.228 268.458 188.654 268.406 187.259 268.584C185.844 268.769 184.296 269.083 184.296 270.833C184.296 272.323 185.451 273.178 186.904 273.178ZM187.081 272.125C186.148 272.125 185.471 271.708 185.471 270.891C185.471 269.996 186.285 269.719 187.201 269.599C187.697 269.541 189.03 269.401 189.228 269.162L189.228 270.235C189.228 271.192 188.472 272.125 187.081 272.125ZM195.872 265.364L194.241 265.364L194.241 263.536L193.066 263.536L193.066 265.364L191.914 265.364L191.914 266.359L193.066 266.359L193.066 271.13C193.066 272.463 194.142 273.099 195.137 273.099C195.574 273.099 195.851 273.021 196.012 272.959L195.773 271.906C195.674 271.927 195.513 271.964 195.253 271.964C194.737 271.964 194.241 271.807 194.241 270.812L194.241 266.359L195.872 266.359L195.872 265.364ZM197.64 273L198.813 273L198.813 265.364L197.64 265.364L197.64 273ZM198.239 264.089C198.697 264.089 199.073 263.734 199.073 263.296C199.073 262.859 198.697 262.5 198.239 262.5C197.781 262.5 197.401 262.859 197.401 263.296C197.401 263.734 197.781 264.089 198.239 264.089ZM204.065 273.161C206.133 273.161 207.524 271.588 207.524 269.223C207.524 266.834 206.133 265.265 204.065 265.265C201.997 265.265 200.603 266.834 200.603 269.223C200.603 271.588 201.997 273.161 204.065 273.161ZM204.065 272.104C202.493 272.104 201.778 270.754 201.778 269.223C201.778 267.692 202.493 266.318 204.065 266.318C205.634 266.318 206.352 267.692 206.352 269.223C206.352 270.754 205.634 272.104 204.065 272.104ZM210.486 268.406C210.486 267.073 211.313 266.318 212.438 266.318C213.525 266.318 214.188 267.029 214.188 268.229L214.188 273L215.36 273L215.36 268.146C215.36 266.198 214.321 265.265 212.776 265.265C211.621 265.265 210.906 265.781 210.548 266.557L210.448 266.557L210.448 265.364L209.314 265.364L209.314 273L210.486 273L210.486 268.406Z" fill="#FFFFFF" fill-opacity="1.000000" fill-rule="evenodd"/>
	<path id="Q1" d="M138.626 10.1836C138.626 6.5 136.466 4.20312 133.489 4.20312C130.513 4.20312 128.353 6.5 128.353 10.1836C128.353 13.8633 130.513 16.1602 133.489 16.1602C134.251 16.1602 134.958 16.0117 135.587 15.7266L136.603 17.0898L138.15 17.0898L136.634 15.0742C137.872 14.0586 138.626 12.3633 138.626 10.1836ZM133.036 12.3633L134.763 14.625C134.364 14.7656 133.939 14.8398 133.489 14.8398C131.376 14.8398 129.716 13.2031 129.716 10.1836C129.716 7.16016 131.376 5.52344 133.489 5.52344C135.603 5.52344 137.263 7.16016 137.263 10.1836C137.263 11.9375 136.708 13.2227 135.821 13.9961L134.583 12.3633L133.036 12.3633ZM144.878 4.36328L143.468 4.36328L140.558 6.29688L140.558 7.72656L143.398 5.83984L143.468 5.83984L143.468 16L144.878 16L144.878 4.36328Z" fill="#FFFFFF" fill-opacity="1.000000" fill-rule="evenodd"/>
	<path id="Q2" d="M444.501 10.1836C444.501 6.5 442.341 4.20312 439.364 4.20312C436.388 4.20312 434.228 6.5 434.228 10.1836C434.228 13.8633 436.388 16.1602 439.364 16.1602C440.126 16.1602 440.833 16.0117 441.462 15.7266L442.478 17.0898L444.025 17.0898L442.509 15.0742C443.747 14.0586 444.501 12.3633 444.501 10.1836ZM438.911 12.3633L440.638 14.625C440.239 14.7656 439.814 14.8398 439.364 14.8398C437.251 14.8398 435.591 13.2031 435.591 10.1836C435.591 7.16016 437.251 5.52344 439.364 5.52344C441.478 5.52344 443.138 7.16016 443.138 10.1836C443.138 11.9375 442.583 13.2227 441.696 13.9961L440.458 12.3633L438.911 12.3633ZM446.659 16L454.003 16L454.003 14.75L448.593 14.75L448.593 14.6602L451.206 11.8633C453.206 9.72266 453.796 8.72266 453.796 7.43359C453.796 5.63672 452.343 4.20312 450.296 4.20312C448.257 4.20312 446.706 5.58984 446.706 7.63672L448.046 7.63672C448.046 6.3125 448.906 5.43359 450.253 5.43359C451.515 5.43359 452.48 6.20312 452.48 7.43359C452.48 8.50391 451.847 9.30078 450.503 10.7734L446.659 14.9766L446.659 16Z" fill="#FFFFFF" fill-opacity="1.000000" fill-rule="evenodd"/>
	<path id="Q3" d="M751.751 10.1836C751.751 6.5 749.591 4.20312 746.614 4.20312C743.638 4.20312 741.478 6.5 741.478 10.1836C741.478 13.8633 743.638 16.1602 746.614 16.1602C747.376 16.1602 748.083 16.0117 748.712 15.7266L749.728 17.0898L751.275 17.0898L749.759 15.0742C750.997 14.0586 751.751 12.3633 751.751 10.1836ZM746.161 12.3633L747.888 14.625C747.489 14.7656 747.064 14.8398 746.614 14.8398C744.501 14.8398 742.841 13.2031 742.841 10.1836C742.841 7.16016 744.501 5.52344 746.614 5.52344C748.728 5.52344 750.388 7.16016 750.388 10.1836C750.388 11.9375 749.833 13.2227 748.946 13.9961L747.708 12.3633L746.161 12.3633ZM757.843 16.1602C760.097 16.1602 761.773 14.7461 761.773 12.8398C761.773 11.3633 760.898 10.2891 759.433 10.0469L759.433 9.95312C760.609 9.59766 761.343 8.62891 761.343 7.31641C761.343 5.67188 760.042 4.20312 757.89 4.20312C755.878 4.20312 754.206 5.44141 754.14 7.27344L755.503 7.27344C755.554 6.11328 756.656 5.43359 757.867 5.43359C759.148 5.43359 759.98 6.21094 759.98 7.38672C759.98 8.61328 759.019 9.41016 757.64 9.41016L756.706 9.41016L756.706 10.6602L757.64 10.6602C759.406 10.6602 760.39 11.5586 760.39 12.8398C760.39 14.0742 759.316 14.9102 757.82 14.9102C756.472 14.9102 755.406 14.2148 755.32 13.0898L753.89 13.0898C753.972 14.9219 755.585 16.1602 757.843 16.1602Z" fill="#FFFFFF" fill-opacity="1.000000" fill-rule="evenodd"/>
	<path id="Q4" d="M1058.71 10.1836C1058.71 6.5 1056.55 4.20312 1053.57 4.20312C1050.59 4.20312 1048.43 6.5 1048.43 10.1836C1048.43 13.8633 1050.59 16.1602 1053.57 16.1602C1054.33 16.1602 1055.04 16.0117 1055.67 15.7266L1056.68 17.0898L1058.23 17.0898L1056.71 15.0742C1057.95 14.0586 1058.71 12.3633 1058.71 10.1836ZM1053.12 12.3633L1054.84 14.625C1054.44 14.7656 1054.02 14.8398 1053.57 14.8398C1051.46 14.8398 1049.8 13.2031 1049.8 10.1836C1049.8 7.16016 1051.46 5.52344 1053.57 5.52344C1055.68 5.52344 1057.34 7.16016 1057.34 10.1836C1057.34 11.9375 1056.79 13.2227 1055.9 13.9961L1054.66 12.3633L1053.12 12.3633ZM1060.59 13.6133L1066.07 13.6133L1066.07 16L1067.41 16L1067.41 13.6133L1069 13.6133L1069 12.3633L1067.41 12.3633L1067.41 4.36328L1065.71 4.36328L1060.59 12.4531L1060.59 13.6133ZM1066.07 12.3633L1062.11 12.3633L1062.11 12.2734L1065.98 6.16016L1066.07 6.16016L1066.07 12.3633Z" fill="#FFFFFF" fill-opacity="1.000000" fill-rule="evenodd"/>
	<path id="Partnership with industry-leading aggregators" d="M388.97 273L390.2 273L390.2 269.281L392.429 269.281C394.801 269.281 395.87 267.839 395.87 266.041C395.87 264.24 394.801 262.818 392.408 262.818L388.97 262.818L388.97 273ZM390.2 268.188L390.2 263.912L392.37 263.912C394.025 263.912 394.657 264.817 394.657 266.041C394.657 267.261 394.025 268.188 392.388 268.188L390.2 268.188ZM399.947 273.178C401.277 273.178 401.974 272.463 402.213 271.964L402.271 271.964L402.271 273L403.447 273L403.447 267.969C403.447 265.542 401.598 265.265 400.621 265.265C399.469 265.265 398.156 265.662 397.558 267.053L398.672 267.453C398.932 266.896 399.544 266.297 400.662 266.297C401.742 266.297 402.271 266.872 402.271 267.849L402.271 267.89C402.271 268.458 401.697 268.406 400.303 268.584C398.888 268.769 397.339 269.083 397.339 270.833C397.339 272.323 398.495 273.178 399.947 273.178ZM400.125 272.125C399.192 272.125 398.515 271.708 398.515 270.891C398.515 269.996 399.329 269.719 400.245 269.599C400.74 269.541 402.073 269.401 402.271 269.162L402.271 270.235C402.271 271.192 401.516 272.125 400.125 272.125ZM405.593 273L406.765 273L406.765 268.167C406.765 267.135 407.582 266.379 408.697 266.379C409.008 266.379 409.332 266.438 409.411 266.458L409.411 265.265C409.278 265.255 408.97 265.245 408.796 265.245C407.88 265.245 407.087 265.761 406.806 266.516L406.728 266.516L406.728 265.364L405.593 265.364L405.593 273ZM414.603 265.364L412.972 265.364L412.972 263.536L411.797 263.536L411.797 265.364L410.645 265.364L410.645 266.359L411.797 266.359L411.797 271.13C411.797 272.463 412.873 273.099 413.868 273.099C414.305 273.099 414.582 273.021 414.743 272.959L414.504 271.906C414.405 271.927 414.244 271.964 413.984 271.964C413.468 271.964 412.972 271.807 412.972 270.812L412.972 266.359L414.603 266.359L414.603 265.364ZM417.544 268.406C417.544 267.073 418.371 266.318 419.495 266.318C420.582 266.318 421.245 267.029 421.245 268.229L421.245 273L422.418 273L422.418 268.146C422.418 266.198 421.379 265.265 419.834 265.265C418.679 265.265 417.964 265.781 417.605 266.557L417.506 266.557L417.506 265.364L416.371 265.364L416.371 273L417.544 273L417.544 268.406ZM427.767 273.161C429.319 273.161 430.45 272.385 430.809 271.229L429.674 270.912C429.377 271.708 428.687 272.104 427.767 272.104C426.39 272.104 425.44 271.216 425.385 269.579L430.929 269.579L430.929 269.083C430.929 266.239 429.237 265.265 427.648 265.265C425.58 265.265 424.206 266.896 424.206 269.24C424.206 271.588 425.559 273.161 427.767 273.161ZM425.385 268.567C425.464 267.377 426.304 266.318 427.648 266.318C428.919 266.318 429.736 267.271 429.736 268.567L425.385 268.567ZM432.718 273L433.89 273L433.89 268.167C433.89 267.135 434.707 266.379 435.822 266.379C436.133 266.379 436.457 266.438 436.536 266.458L436.536 265.265C436.403 265.255 436.095 265.245 435.921 265.245C435.005 265.245 434.212 265.761 433.931 266.516L433.853 266.516L433.853 265.364L432.718 265.364L432.718 273ZM443.339 267.073C442.97 265.99 442.146 265.265 440.632 265.265C439.022 265.265 437.829 266.178 437.829 267.473C437.829 268.526 438.455 269.23 439.859 269.558L441.131 269.859C441.9 270.037 442.266 270.406 442.266 270.932C442.266 271.588 441.568 272.125 440.475 272.125C439.514 272.125 438.913 271.711 438.704 270.891L437.59 271.171C437.863 272.467 438.933 273.161 440.495 273.161C442.269 273.161 443.476 272.19 443.476 270.871C443.476 269.808 442.813 269.138 441.449 268.803L440.314 268.526C439.412 268.3 439.002 268 439.002 267.412C439.002 266.755 439.699 266.277 440.632 266.277C441.657 266.277 442.081 266.844 442.283 267.371L443.339 267.073ZM446.419 268.406C446.419 267.073 447.27 266.318 448.429 266.318C449.533 266.318 450.199 267.015 450.199 268.229L450.199 273L451.371 273L451.371 268.146C451.371 266.185 450.329 265.265 448.767 265.265C447.564 265.265 446.877 265.768 446.521 266.557L446.419 266.557L446.419 262.818L445.246 262.818L445.246 273L446.419 273L446.419 268.406ZM453.519 273L454.692 273L454.692 265.364L453.519 265.364L453.519 273ZM454.117 264.089C454.575 264.089 454.951 263.734 454.951 263.296C454.951 262.859 454.575 262.5 454.117 262.5C453.659 262.5 453.28 262.859 453.28 263.296C453.28 263.734 453.659 264.089 454.117 264.089ZM456.84 275.864L458.013 275.864L458.013 271.828L458.115 271.828C458.371 272.245 458.87 273.161 460.34 273.161C462.251 273.161 463.584 271.629 463.584 269.203C463.584 266.796 462.251 265.265 460.32 265.265C458.829 265.265 458.371 266.178 458.115 266.578L457.975 266.578L457.975 265.364L456.84 265.364L456.84 275.864ZM457.995 269.182C457.995 267.473 458.751 266.318 460.183 266.318C461.673 266.318 462.408 267.572 462.408 269.182C462.408 270.812 461.653 272.104 460.183 272.104C458.771 272.104 457.995 270.912 457.995 269.182ZM471.038 273L472.194 273L473.865 267.135L473.981 267.135L475.653 273L476.808 273L479.132 265.364L477.902 265.364L476.251 271.192L476.169 271.192L474.559 265.364L473.308 265.364L471.678 271.209L471.596 271.209L469.945 265.364L468.714 265.364L471.038 273ZM480.684 273L481.856 273L481.856 265.364L480.684 265.364L480.684 273ZM481.282 264.089C481.74 264.089 482.116 263.734 482.116 263.296C482.116 262.859 481.74 262.5 481.282 262.5C480.824 262.5 480.445 262.859 480.445 263.296C480.445 263.734 480.824 264.089 481.282 264.089ZM487.327 265.364L485.697 265.364L485.697 263.536L484.521 263.536L484.521 265.364L483.369 265.364L483.369 266.359L484.521 266.359L484.521 271.13C484.521 272.463 485.598 273.099 486.592 273.099C487.03 273.099 487.307 273.021 487.467 272.959L487.228 271.906C487.129 271.927 486.968 271.964 486.709 271.964C486.192 271.964 485.697 271.807 485.697 270.812L485.697 266.359L487.327 266.359L487.327 265.364ZM490.427 268.406C490.427 267.073 491.278 266.318 492.437 266.318C493.541 266.318 494.208 267.015 494.208 268.229L494.208 273L495.38 273L495.38 268.146C495.38 266.185 494.337 265.265 492.775 265.265C491.572 265.265 490.885 265.768 490.53 266.557L490.427 266.557L490.427 262.818L489.255 262.818L489.255 273L490.427 273L490.427 268.406ZM348.698 294L349.871 294L349.871 286.364L348.698 286.364L348.698 294ZM349.296 285.089C349.754 285.089 350.13 284.734 350.13 284.296C350.13 283.859 349.754 283.5 349.296 283.5C348.838 283.5 348.459 283.859 348.459 284.296C348.459 284.734 348.838 285.089 349.296 285.089ZM353.192 289.406C353.192 288.073 354.019 287.318 355.143 287.318C356.23 287.318 356.893 288.029 356.893 289.229L356.893 294L358.066 294L358.066 289.146C358.066 287.198 357.027 286.265 355.482 286.265C354.326 286.265 353.612 286.781 353.253 287.557L353.154 287.557L353.154 286.364L352.019 286.364L352.019 294L353.192 294L353.192 289.406ZM363.097 294.161C364.567 294.161 365.066 293.245 365.322 292.828L365.462 292.828L365.462 294L366.597 294L366.597 283.818L365.425 283.818L365.425 287.578L365.322 287.578C365.066 287.178 364.608 286.265 363.118 286.265C361.186 286.265 359.853 287.796 359.853 290.203C359.853 292.629 361.186 294.161 363.097 294.161ZM363.254 293.104C361.785 293.104 361.029 291.812 361.029 290.182C361.029 288.572 361.764 287.318 363.254 287.318C364.686 287.318 365.442 288.473 365.442 290.182C365.442 291.912 364.666 293.104 363.254 293.104ZM373.715 290.879C373.715 292.308 372.621 292.964 371.746 292.964C370.772 292.964 370.075 292.25 370.075 291.136L370.075 286.364L368.903 286.364L368.903 291.214C368.903 293.166 369.938 294.099 371.37 294.099C372.522 294.099 373.278 293.484 373.637 292.708L373.715 292.708L373.715 294L374.888 294L374.888 286.364L373.715 286.364L373.715 290.879ZM382.447 288.073C382.078 286.99 381.254 286.265 379.74 286.265C378.13 286.265 376.937 287.178 376.937 288.473C376.937 289.526 377.563 290.23 378.967 290.558L380.239 290.859C381.008 291.037 381.374 291.406 381.374 291.932C381.374 292.588 380.676 293.125 379.583 293.125C378.622 293.125 378.021 292.711 377.812 291.891L376.698 292.171C376.971 293.467 378.041 294.161 379.603 294.161C381.377 294.161 382.584 293.19 382.584 291.871C382.584 290.808 381.921 290.138 380.557 289.803L379.422 289.526C378.52 289.3 378.109 289 378.109 288.412C378.109 287.755 378.807 287.277 379.74 287.277C380.765 287.277 381.189 287.844 381.391 288.371L382.447 288.073ZM387.677 286.364L386.046 286.364L386.046 284.536L384.871 284.536L384.871 286.364L383.719 286.364L383.719 287.359L384.871 287.359L384.871 292.13C384.871 293.463 385.947 294.099 386.942 294.099C387.379 294.099 387.656 294.021 387.817 293.959L387.578 292.906C387.478 292.927 387.318 292.964 387.058 292.964C386.542 292.964 386.046 292.807 386.046 291.812L386.046 287.359L387.677 287.359L387.677 286.364ZM389.445 294L390.618 294L390.618 289.167C390.618 288.135 391.435 287.379 392.549 287.379C392.86 287.379 393.185 287.438 393.263 287.458L393.263 286.265C393.13 286.255 392.822 286.245 392.648 286.245C391.732 286.245 390.939 286.761 390.659 287.516L390.58 287.516L390.58 286.364L389.445 286.364L389.445 294ZM395.65 296.864C396.709 296.864 397.454 296.3 397.899 295.114L401.139 286.364L399.867 286.364L397.758 292.448L397.68 292.448L395.571 286.364L394.299 286.364L397.123 294.041L396.904 294.636C396.477 295.801 395.95 295.911 395.092 295.692L394.795 296.724C394.915 296.786 395.253 296.864 395.65 296.864ZM407.065 289.088L402.611 289.088L402.611 290.182L407.065 290.182L407.065 289.088ZM410.305 283.818L409.133 283.818L409.133 294L410.305 294L410.305 283.818ZM415.656 294.161C417.208 294.161 418.34 293.385 418.698 292.229L417.564 291.912C417.266 292.708 416.576 293.104 415.656 293.104C414.279 293.104 413.329 292.216 413.274 290.579L418.818 290.579L418.818 290.083C418.818 287.239 417.126 286.265 415.537 286.265C413.469 286.265 412.095 287.896 412.095 290.24C412.095 292.588 413.448 294.161 415.656 294.161ZM413.274 289.567C413.353 288.377 414.194 287.318 415.537 287.318C416.808 287.318 417.625 288.271 417.625 289.567L413.274 289.567ZM422.856 294.178C424.186 294.178 424.883 293.463 425.122 292.964L425.181 292.964L425.181 294L426.356 294L426.356 288.969C426.356 286.542 424.507 286.265 423.53 286.265C422.378 286.265 421.065 286.662 420.467 288.053L421.581 288.453C421.841 287.896 422.453 287.297 423.571 287.297C424.651 287.297 425.181 287.872 425.181 288.849L425.181 288.89C425.181 289.458 424.606 289.406 423.212 289.584C421.797 289.769 420.248 290.083 420.248 291.833C420.248 293.323 421.404 294.178 422.856 294.178ZM423.034 293.125C422.101 293.125 421.424 292.708 421.424 291.891C421.424 290.996 422.238 290.719 423.154 290.599C423.649 290.541 424.982 290.401 425.181 290.162L425.181 291.235C425.181 292.192 424.425 293.125 423.034 293.125ZM431.387 294.161C432.857 294.161 433.356 293.245 433.612 292.828L433.752 292.828L433.752 294L434.887 294L434.887 283.818L433.715 283.818L433.715 287.578L433.612 287.578C433.356 287.178 432.898 286.265 431.407 286.265C429.476 286.265 428.143 287.796 428.143 290.203C428.143 292.629 429.476 294.161 431.387 294.161ZM431.544 293.104C430.074 293.104 429.319 291.812 429.319 290.182C429.319 288.572 430.054 287.318 431.544 287.318C432.976 287.318 433.732 288.473 433.732 290.182C433.732 291.912 432.956 293.104 431.544 293.104ZM437.192 294L438.365 294L438.365 286.364L437.192 286.364L437.192 294ZM437.791 285.089C438.249 285.089 438.625 284.734 438.625 284.296C438.625 283.859 438.249 283.5 437.791 283.5C437.333 283.5 436.953 283.859 436.953 284.296C436.953 284.734 437.333 285.089 437.791 285.089ZM441.686 289.406C441.686 288.073 442.513 287.318 443.638 287.318C444.724 287.318 445.388 288.029 445.388 289.229L445.388 294L446.56 294L446.56 289.146C446.56 287.198 445.521 286.265 443.976 286.265C442.821 286.265 442.106 286.781 441.747 287.557L441.648 287.557L441.648 286.364L440.513 286.364L440.513 294L441.686 294L441.686 289.406ZM451.79 297.021C453.618 297.021 455.091 296.188 455.091 294.219L455.091 286.364L453.957 286.364L453.957 287.578L453.837 287.578C453.581 287.178 453.102 286.265 451.612 286.265C449.681 286.265 448.348 287.796 448.348 290.141C448.348 292.527 449.742 293.88 451.591 293.88C453.082 293.88 453.56 293.005 453.817 292.588L453.919 292.588L453.919 294.14C453.919 295.412 453.024 295.989 451.79 295.989C450.402 295.989 449.917 295.258 449.602 294.834L448.669 295.49C449.144 296.293 450.084 297.021 451.79 297.021ZM451.749 292.828C450.279 292.828 449.524 291.713 449.524 290.121C449.524 288.572 450.258 287.318 451.749 287.318C453.181 287.318 453.936 288.473 453.936 290.121C453.936 291.812 453.16 292.828 451.749 292.828ZM463.424 294.178C464.754 294.178 465.451 293.463 465.691 292.964L465.749 292.964L465.749 294L466.924 294L466.924 288.969C466.924 286.542 465.075 286.265 464.098 286.265C462.946 286.265 461.633 286.662 461.035 288.053L462.15 288.453C462.409 287.896 463.021 287.297 464.139 287.297C465.219 287.297 465.749 287.872 465.749 288.849L465.749 288.89C465.749 289.458 465.174 289.406 463.78 289.584C462.365 289.769 460.817 290.083 460.817 291.833C460.817 293.323 461.972 294.178 463.424 294.178ZM463.602 293.125C462.669 293.125 461.992 292.708 461.992 291.891C461.992 290.996 462.806 290.719 463.722 290.599C464.217 290.541 465.55 290.401 465.749 290.162L465.749 291.235C465.749 292.192 464.993 293.125 463.602 293.125ZM472.153 297.021C473.982 297.021 475.455 296.188 475.455 294.219L475.455 286.364L474.32 286.364L474.32 287.578L474.201 287.578C473.944 287.178 473.466 286.265 471.976 286.265C470.044 286.265 468.711 287.796 468.711 290.141C468.711 292.527 470.106 293.88 471.955 293.88C473.445 293.88 473.924 293.005 474.18 292.588L474.283 292.588L474.283 294.14C474.283 295.412 473.387 295.989 472.153 295.989C470.766 295.989 470.28 295.258 469.966 294.834L469.033 295.49C469.508 296.293 470.448 297.021 472.153 297.021ZM472.112 292.828C470.643 292.828 469.887 291.713 469.887 290.121C469.887 288.572 470.622 287.318 472.112 287.318C473.544 287.318 474.3 288.473 474.3 290.121C474.3 291.812 473.524 292.828 472.112 292.828ZM480.685 297.021C482.513 297.021 483.986 296.188 483.986 294.219L483.986 286.364L482.852 286.364L482.852 287.578L482.732 287.578C482.476 287.178 481.997 286.265 480.507 286.265C478.576 286.265 477.243 287.796 477.243 290.141C477.243 292.527 478.637 293.88 480.486 293.88C481.977 293.88 482.455 293.005 482.711 292.588L482.814 292.588L482.814 294.14C482.814 295.412 481.918 295.989 480.685 295.989C479.297 295.989 478.812 295.258 478.497 294.834L477.564 295.49C478.039 296.293 478.979 297.021 480.685 297.021ZM480.644 292.828C479.174 292.828 478.418 291.713 478.418 290.121C478.418 288.572 479.153 287.318 480.644 287.318C482.076 287.318 482.831 288.473 482.831 290.121C482.831 291.812 482.055 292.828 480.644 292.828ZM486.133 294L487.305 294L487.305 289.167C487.305 288.135 488.122 287.379 489.236 287.379C489.547 287.379 489.872 287.438 489.951 287.458L489.951 286.265C489.817 286.255 489.51 286.245 489.335 286.245C488.419 286.245 487.626 286.761 487.346 287.516L487.268 287.516L487.268 286.364L486.133 286.364L486.133 294ZM494.307 294.161C495.859 294.161 496.99 293.385 497.349 292.229L496.214 291.912C495.917 292.708 495.226 293.104 494.307 293.104C492.93 293.104 491.979 292.216 491.925 290.579L497.469 290.579L497.469 290.083C497.469 287.239 495.777 286.265 494.187 286.265C492.12 286.265 490.746 287.896 490.746 290.24C490.746 292.588 492.099 294.161 494.307 294.161ZM491.925 289.567C492.003 288.377 492.844 287.318 494.187 287.318C495.459 287.318 496.276 288.271 496.276 289.567L491.925 289.567ZM502.341 297.021C504.169 297.021 505.643 296.188 505.643 294.219L505.643 286.364L504.508 286.364L504.508 287.578L504.388 287.578C504.132 287.178 503.653 286.265 502.163 286.265C500.232 286.265 498.899 287.796 498.899 290.141C498.899 292.527 500.293 293.88 502.143 293.88C503.633 293.88 504.111 293.005 504.368 292.588L504.47 292.588L504.47 294.14C504.47 295.412 503.575 295.989 502.341 295.989C500.953 295.989 500.468 295.258 500.153 294.834L499.22 295.49C499.695 296.293 500.635 297.021 502.341 297.021ZM502.3 292.828C500.83 292.828 500.075 291.713 500.075 290.121C500.075 288.572 500.81 287.318 502.3 287.318C503.732 287.318 504.487 288.473 504.487 290.121C504.487 291.812 503.711 292.828 502.3 292.828ZM510.038 294.178C511.368 294.178 512.065 293.463 512.304 292.964L512.362 292.964L512.362 294L513.538 294L513.538 288.969C513.538 286.542 511.689 286.265 510.711 286.265C509.56 286.265 508.247 286.662 507.649 288.053L508.763 288.453C509.023 287.896 509.635 287.297 510.752 287.297C511.833 287.297 512.362 287.872 512.362 288.849L512.362 288.89C512.362 289.458 511.788 289.406 510.394 289.584C508.979 289.769 507.43 290.083 507.43 291.833C507.43 293.323 508.585 294.178 510.038 294.178ZM510.216 293.125C509.283 293.125 508.606 292.708 508.606 291.891C508.606 290.996 509.419 290.719 510.335 290.599C510.831 290.541 512.164 290.401 512.362 290.162L512.362 291.235C512.362 292.192 511.607 293.125 510.216 293.125ZM519.006 286.364L517.376 286.364L517.376 284.536L516.2 284.536L516.2 286.364L515.048 286.364L515.048 287.359L516.2 287.359L516.2 292.13C516.2 293.463 517.277 294.099 518.271 294.099C518.709 294.099 518.986 294.021 519.146 293.959L518.907 292.906C518.808 292.927 518.647 292.964 518.388 292.964C517.871 292.964 517.376 292.807 517.376 291.812L517.376 287.359L519.006 287.359L519.006 286.364ZM523.799 294.161C525.867 294.161 527.258 292.588 527.258 290.223C527.258 287.834 525.867 286.265 523.799 286.265C521.731 286.265 520.336 287.834 520.336 290.223C520.336 292.588 521.731 294.161 523.799 294.161ZM523.799 293.104C522.227 293.104 521.512 291.754 521.512 290.223C521.512 288.692 522.227 287.318 523.799 287.318C525.368 287.318 526.085 288.692 526.085 290.223C526.085 291.754 525.368 293.104 523.799 293.104ZM529.048 294L530.22 294L530.22 289.167C530.22 288.135 531.037 287.379 532.151 287.379C532.462 287.379 532.787 287.438 532.865 287.458L532.865 286.265C532.732 286.255 532.425 286.245 532.25 286.245C531.334 286.245 530.541 286.761 530.261 287.516L530.182 287.516L530.182 286.364L529.048 286.364L529.048 294ZM539.668 288.073C539.299 286.99 538.476 286.265 536.961 286.265C535.352 286.265 534.159 287.178 534.159 288.473C534.159 289.526 534.784 290.23 536.189 290.558L537.46 290.859C538.229 291.037 538.595 291.406 538.595 291.932C538.595 292.588 537.898 293.125 536.804 293.125C535.844 293.125 535.242 292.711 535.034 291.891L533.919 292.171C534.193 293.467 535.263 294.161 536.825 294.161C538.599 294.161 539.805 293.19 539.805 291.871C539.805 290.808 539.142 290.138 537.778 289.803L536.644 289.526C535.741 289.3 535.331 289 535.331 288.412C535.331 287.755 536.028 287.277 536.961 287.277C537.987 287.277 538.411 287.844 538.612 288.371L539.668 288.073Z" fill="#FFFFFF" fill-opacity="1.000000" fill-rule="evenodd"/>
	<path id="Tokenization of tracks and IPO launches" d="M662.633 263.912L665.836 263.912L665.836 273L667.066 273L667.066 263.912L670.269 263.912L670.269 262.818L662.633 262.818L662.633 263.912ZM674.008 273.161C676.076 273.161 677.467 271.588 677.467 269.223C677.467 266.834 676.076 265.265 674.008 265.265C671.94 265.265 670.546 266.834 670.546 269.223C670.546 271.588 671.94 273.161 674.008 273.161ZM674.008 272.104C672.436 272.104 671.721 270.754 671.721 269.223C671.721 267.692 672.436 266.318 674.008 266.318C675.577 266.318 676.295 267.692 676.295 269.223C676.295 270.754 675.577 272.104 674.008 272.104ZM679.257 273L680.429 273L680.429 270.143L681.25 269.38L684.11 273L685.601 273L682.135 268.625L685.361 265.364L683.912 265.364L680.569 268.765L680.429 268.765L680.429 262.818L679.257 262.818L679.257 273ZM689.758 273.161C691.31 273.161 692.441 272.385 692.8 271.229L691.665 270.912C691.368 271.708 690.677 272.104 689.758 272.104C688.38 272.104 687.43 271.216 687.375 269.579L692.919 269.579L692.919 269.083C692.919 266.239 691.228 265.265 689.638 265.265C687.57 265.265 686.196 266.896 686.196 269.24C686.196 271.588 687.55 273.161 689.758 273.161ZM687.375 268.567C687.454 267.377 688.295 266.318 689.638 266.318C690.91 266.318 691.727 267.271 691.727 268.567L687.375 268.567ZM695.881 268.406C695.881 267.073 696.708 266.318 697.833 266.318C698.92 266.318 699.583 267.029 699.583 268.229L699.583 273L700.755 273L700.755 268.146C700.755 266.198 699.716 265.265 698.171 265.265C697.016 265.265 696.301 265.781 695.943 266.557L695.843 266.557L695.843 265.364L694.709 265.364L694.709 273L695.881 273L695.881 268.406ZM702.902 273L704.074 273L704.074 265.364L702.902 265.364L702.902 273ZM703.5 264.089C703.958 264.089 704.334 263.734 704.334 263.296C704.334 262.859 703.958 262.5 703.5 262.5C703.042 262.5 702.663 262.859 702.663 263.296C702.663 263.734 703.042 264.089 703.5 264.089ZM706.004 273L711.989 273L711.989 271.906L707.634 271.906L707.634 271.828L711.852 266.297L711.852 265.364L706.144 265.364L706.144 266.458L710.341 266.458L710.341 266.537L706.004 272.104L706.004 273ZM716.049 273.178C717.378 273.178 718.075 272.463 718.315 271.964L718.373 271.964L718.373 273L719.549 273L719.549 267.969C719.549 265.542 717.699 265.265 716.722 265.265C715.57 265.265 714.258 265.662 713.659 267.053L714.774 267.453C715.033 266.896 715.645 266.297 716.763 266.297C717.843 266.297 718.373 266.872 718.373 267.849L718.373 267.89C718.373 268.458 717.799 268.406 716.404 268.584C714.989 268.769 713.441 269.083 713.441 270.833C713.441 272.323 714.596 273.178 716.049 273.178ZM716.226 272.125C715.293 272.125 714.616 271.708 714.616 270.891C714.616 269.996 715.43 269.719 716.346 269.599C716.841 269.541 718.174 269.401 718.373 269.162L718.373 270.235C718.373 271.192 717.617 272.125 716.226 272.125ZM725.017 265.364L723.386 265.364L723.386 263.536L722.211 263.536L722.211 265.364L721.059 265.364L721.059 266.359L722.211 266.359L722.211 271.13C722.211 272.463 723.287 273.099 724.282 273.099C724.719 273.099 724.996 273.021 725.157 272.959L724.918 271.906C724.818 271.927 724.658 271.964 724.398 271.964C723.882 271.964 723.386 271.807 723.386 270.812L723.386 266.359L725.017 266.359L725.017 265.364ZM726.785 273L727.958 273L727.958 265.364L726.785 265.364L726.785 273ZM727.383 264.089C727.841 264.089 728.217 263.734 728.217 263.296C728.217 262.859 727.841 262.5 727.383 262.5C726.925 262.5 726.546 262.859 726.546 263.296C726.546 263.734 726.925 264.089 727.383 264.089ZM733.21 273.161C735.278 273.161 736.669 271.588 736.669 269.223C736.669 266.834 735.278 265.265 733.21 265.265C731.142 265.265 729.747 266.834 729.747 269.223C729.747 271.588 731.142 273.161 733.21 273.161ZM733.21 272.104C731.638 272.104 730.923 270.754 730.923 269.223C730.923 267.692 731.638 266.318 733.21 266.318C734.779 266.318 735.496 267.692 735.496 269.223C735.496 270.754 734.779 272.104 733.21 272.104ZM739.631 268.406C739.631 267.073 740.458 266.318 741.583 266.318C742.67 266.318 743.333 267.029 743.333 268.229L743.333 273L744.505 273L744.505 268.146C744.505 266.198 743.466 265.265 741.921 265.265C740.766 265.265 740.051 265.781 739.693 266.557L739.593 266.557L739.593 265.364L738.459 265.364L738.459 273L739.631 273L739.631 268.406ZM753.693 273.161C755.761 273.161 757.152 271.588 757.152 269.223C757.152 266.834 755.761 265.265 753.693 265.265C751.625 265.265 750.23 266.834 750.23 269.223C750.23 271.588 751.625 273.161 753.693 273.161ZM753.693 272.104C752.121 272.104 751.406 270.754 751.406 269.223C751.406 267.692 752.121 266.318 753.693 266.318C755.262 266.318 755.979 267.692 755.979 269.223C755.979 270.754 755.262 272.104 753.693 272.104ZM762.342 265.364L760.633 265.364L760.633 264.588C760.633 263.833 760.951 263.433 761.727 263.433C762.066 263.433 762.264 263.515 762.383 263.553L762.722 262.541C762.541 262.459 762.185 262.339 761.608 262.339C760.514 262.339 759.458 262.996 759.458 264.308L759.458 265.364L758.227 265.364L758.227 266.359L759.458 266.359L759.458 273L760.633 273L760.633 266.359L762.342 266.359L762.342 265.364ZM771.252 265.364L769.622 265.364L769.622 263.536L768.446 263.536L768.446 265.364L767.294 265.364L767.294 266.359L768.446 266.359L768.446 271.13C768.446 272.463 769.523 273.099 770.518 273.099C770.955 273.099 771.232 273.021 771.393 272.959L771.153 271.906C771.054 271.927 770.894 271.964 770.634 271.964C770.118 271.964 769.622 271.807 769.622 270.812L769.622 266.359L771.252 266.359L771.252 265.364ZM773.021 273L774.193 273L774.193 268.167C774.193 267.135 775.01 266.379 776.125 266.379C776.436 266.379 776.76 266.438 776.839 266.458L776.839 265.265C776.706 265.255 776.398 265.245 776.224 265.245C775.308 265.245 774.515 265.761 774.234 266.516L774.156 266.516L774.156 265.364L773.021 265.364L773.021 273ZM780.48 273.178C781.81 273.178 782.507 272.463 782.746 271.964L782.805 271.964L782.805 273L783.98 273L783.98 267.969C783.98 265.542 782.131 265.265 781.154 265.265C780.002 265.265 778.689 265.662 778.091 267.053L779.205 267.453C779.465 266.896 780.077 266.297 781.195 266.297C782.275 266.297 782.805 266.872 782.805 267.849L782.805 267.89C782.805 268.458 782.23 268.406 780.836 268.584C779.421 268.769 777.872 269.083 777.872 270.833C777.872 272.323 779.028 273.178 780.48 273.178ZM780.658 272.125C779.725 272.125 779.048 271.708 779.048 270.891C779.048 269.996 779.862 269.719 780.778 269.599C781.273 269.541 782.606 269.401 782.805 269.162L782.805 270.235C782.805 271.192 782.049 272.125 780.658 272.125ZM789.23 273.161C790.918 273.161 792.032 272.125 792.231 270.771L791.058 270.771C790.84 271.609 790.142 272.104 789.23 272.104C787.839 272.104 786.943 270.953 786.943 269.182C786.943 267.453 787.856 266.318 789.23 266.318C790.262 266.318 790.881 266.954 791.058 267.651L792.231 267.651C792.032 266.219 790.819 265.265 789.209 265.265C787.141 265.265 785.767 266.896 785.767 269.223C785.767 271.51 787.08 273.161 789.23 273.161ZM793.942 273L795.114 273L795.114 270.143L795.934 269.38L798.795 273L800.285 273L796.819 268.625L800.046 265.364L798.597 265.364L795.254 268.765L795.114 268.765L795.114 262.818L793.942 262.818L793.942 273ZM806.969 267.073C806.599 265.99 805.776 265.265 804.262 265.265C802.652 265.265 801.459 266.178 801.459 267.473C801.459 268.526 802.084 269.23 803.489 269.558L804.761 269.859C805.53 270.037 805.895 270.406 805.895 270.932C805.895 271.588 805.198 272.125 804.104 272.125C803.144 272.125 802.542 271.711 802.334 270.891L801.22 271.171C801.493 272.467 802.563 273.161 804.125 273.161C805.899 273.161 807.105 272.19 807.105 270.871C807.105 269.808 806.442 269.138 805.078 268.803L803.944 268.526C803.041 268.3 802.631 268 802.631 267.412C802.631 266.755 803.328 266.277 804.262 266.277C805.287 266.277 805.711 266.844 805.912 267.371L806.969 267.073ZM815.063 273.178C816.392 273.178 817.09 272.463 817.329 271.964L817.387 271.964L817.387 273L818.563 273L818.563 267.969C818.563 265.542 816.714 265.265 815.736 265.265C814.584 265.265 813.272 265.662 812.674 267.053L813.788 267.453C814.048 266.896 814.659 266.297 815.777 266.297C816.857 266.297 817.387 266.872 817.387 267.849L817.387 267.89C817.387 268.458 816.813 268.406 815.418 268.584C814.003 268.769 812.455 269.083 812.455 270.833C812.455 272.323 813.61 273.178 815.063 273.178ZM815.24 272.125C814.307 272.125 813.631 271.708 813.631 270.891C813.631 269.996 814.444 269.719 815.36 269.599C815.856 269.541 817.189 269.401 817.387 269.162L817.387 270.235C817.387 271.192 816.632 272.125 815.24 272.125ZM821.881 268.406C821.881 267.073 822.708 266.318 823.833 266.318C824.92 266.318 825.583 267.029 825.583 268.229L825.583 273L826.755 273L826.755 268.146C826.755 266.198 825.716 265.265 824.171 265.265C823.016 265.265 822.301 265.781 821.943 266.557L821.843 266.557L821.843 265.364L820.709 265.364L820.709 273L821.881 273L821.881 268.406ZM831.786 273.161C833.256 273.161 833.755 272.245 834.012 271.828L834.152 271.828L834.152 273L835.286 273L835.286 262.818L834.114 262.818L834.114 266.578L834.012 266.578C833.755 266.178 833.297 265.265 831.807 265.265C829.876 265.265 828.543 266.796 828.543 269.203C828.543 271.629 829.876 273.161 831.786 273.161ZM831.944 272.104C830.474 272.104 829.719 270.812 829.719 269.182C829.719 267.572 830.453 266.318 831.944 266.318C833.376 266.318 834.131 267.473 834.131 269.182C834.131 270.912 833.355 272.104 831.944 272.104ZM710.527 283.818L709.297 283.818L709.297 294L710.527 294L710.527 283.818ZM712.996 294L714.226 294L714.226 290.281L716.455 290.281C718.827 290.281 719.897 288.839 719.897 287.041C719.897 285.24 718.827 283.818 716.434 283.818L712.996 283.818L712.996 294ZM714.226 289.188L714.226 284.912L716.397 284.912C718.051 284.912 718.683 285.817 718.683 287.041C718.683 288.261 718.051 289.188 716.414 289.188L714.226 289.188ZM730.474 288.911C730.474 285.688 728.584 283.678 725.98 283.678C723.375 283.678 721.485 285.688 721.485 288.911C721.485 292.13 723.375 294.14 725.98 294.14C728.584 294.14 730.474 292.13 730.474 288.911ZM729.281 288.911C729.281 291.553 727.829 292.985 725.98 292.985C724.13 292.985 722.678 291.553 722.678 288.911C722.678 286.265 724.13 284.833 725.98 284.833C727.829 284.833 729.281 286.265 729.281 288.911ZM737.493 283.818L736.321 283.818L736.321 294L737.493 294L737.493 283.818ZM741.891 294.178C743.22 294.178 743.918 293.463 744.157 292.964L744.215 292.964L744.215 294L745.391 294L745.391 288.969C745.391 286.542 743.542 286.265 742.564 286.265C741.412 286.265 740.1 286.662 739.502 288.053L740.616 288.453C740.876 287.896 741.488 287.297 742.605 287.297C743.685 287.297 744.215 287.872 744.215 288.849L744.215 288.89C744.215 289.458 743.641 289.406 742.246 289.584C740.831 289.769 739.283 290.083 739.283 291.833C739.283 293.323 740.438 294.178 741.891 294.178ZM742.069 293.125C741.135 293.125 740.459 292.708 740.459 291.891C740.459 290.996 741.272 290.719 742.188 290.599C742.684 290.541 744.017 290.401 744.215 290.162L744.215 291.235C744.215 292.192 743.46 293.125 742.069 293.125ZM752.349 290.879C752.349 292.308 751.255 292.964 750.38 292.964C749.406 292.964 748.709 292.25 748.709 291.136L748.709 286.364L747.537 286.364L747.537 291.214C747.537 293.166 748.572 294.099 750.004 294.099C751.156 294.099 751.912 293.484 752.271 292.708L752.349 292.708L752.349 294L753.522 294L753.522 286.364L752.349 286.364L752.349 290.879ZM756.843 289.406C756.843 288.073 757.67 287.318 758.794 287.318C759.881 287.318 760.544 288.029 760.544 289.229L760.544 294L761.717 294L761.717 289.146C761.717 287.198 760.678 286.265 759.133 286.265C757.977 286.265 757.263 286.781 756.904 287.557L756.805 287.557L756.805 286.364L755.67 286.364L755.67 294L756.843 294L756.843 289.406ZM766.967 294.161C768.655 294.161 769.77 293.125 769.968 291.771L768.796 291.771C768.577 292.609 767.88 293.104 766.967 293.104C765.576 293.104 764.68 291.953 764.68 290.182C764.68 288.453 765.593 287.318 766.967 287.318C767.999 287.318 768.618 287.954 768.796 288.651L769.968 288.651C769.77 287.219 768.556 286.265 766.946 286.265C764.879 286.265 763.505 287.896 763.505 290.223C763.505 292.51 764.817 294.161 766.967 294.161ZM772.851 289.406C772.851 288.073 773.702 287.318 774.861 287.318C775.965 287.318 776.631 288.015 776.631 289.229L776.631 294L777.804 294L777.804 289.146C777.804 287.185 776.761 286.265 775.199 286.265C773.996 286.265 773.309 286.768 772.954 287.557L772.851 287.557L772.851 283.818L771.679 283.818L771.679 294L772.851 294L772.851 289.406ZM783.154 294.161C784.706 294.161 785.837 293.385 786.196 292.229L785.061 291.912C784.764 292.708 784.074 293.104 783.154 293.104C781.777 293.104 780.826 292.216 780.772 290.579L786.316 290.579L786.316 290.083C786.316 287.239 784.624 286.265 783.034 286.265C780.967 286.265 779.593 287.896 779.593 290.24C779.593 292.588 780.946 294.161 783.154 294.161ZM780.772 289.567C780.85 288.377 781.691 287.318 783.034 287.318C784.306 287.318 785.123 288.271 785.123 289.567L780.772 289.567ZM793.516 288.073C793.146 286.99 792.323 286.265 790.808 286.265C789.199 286.265 788.006 287.178 788.006 288.473C788.006 289.526 788.631 290.23 790.036 290.558L791.307 290.859C792.077 291.037 792.442 291.406 792.442 291.932C792.442 292.588 791.745 293.125 790.651 293.125C789.691 293.125 789.089 292.711 788.881 291.891L787.766 292.171C788.04 293.467 789.11 294.161 790.672 294.161C792.446 294.161 793.652 293.19 793.652 291.871C793.652 290.808 792.989 290.138 791.625 289.803L790.491 289.526C789.588 289.3 789.178 289 789.178 288.412C789.178 287.755 789.875 287.277 790.808 287.277C791.834 287.277 792.258 287.844 792.459 288.371L793.516 288.073Z" fill="#FFFFFF" fill-opacity="1.000000" fill-rule="evenodd"/>
	<path id="Continuous platform enhancement and expansion" d="M998.266 266C997.887 263.912 996.219 262.678 994.168 262.678C991.564 262.678 989.673 264.688 989.673 267.911C989.673 271.13 991.564 273.14 994.168 273.14C996.219 273.14 997.887 271.906 998.266 269.818L997.032 269.818C996.735 271.229 995.522 271.985 994.168 271.985C992.319 271.985 990.866 270.553 990.866 267.911C990.866 265.265 992.319 263.833 994.168 263.833C995.522 263.833 996.735 264.588 997.032 266L998.266 266ZM1003.2 273.161C1005.27 273.161 1006.66 271.588 1006.66 269.223C1006.66 266.834 1005.27 265.265 1003.2 265.265C1001.13 265.265 999.736 266.834 999.736 269.223C999.736 271.588 1001.13 273.161 1003.2 273.161ZM1003.2 272.104C1001.63 272.104 1000.91 270.754 1000.91 269.223C1000.91 267.692 1001.63 266.318 1003.2 266.318C1004.77 266.318 1005.48 267.692 1005.48 269.223C1005.48 270.754 1004.77 272.104 1003.2 272.104ZM1009.62 268.406C1009.62 267.073 1010.45 266.318 1011.57 266.318C1012.66 266.318 1013.32 267.029 1013.32 268.229L1013.32 273L1014.49 273L1014.49 268.146C1014.49 266.198 1013.45 265.265 1011.91 265.265C1010.75 265.265 1010.04 265.781 1009.68 266.557L1009.58 266.557L1009.58 265.364L1008.45 265.364L1008.45 273L1009.62 273L1009.62 268.406ZM1019.96 265.364L1018.33 265.364L1018.33 263.536L1017.16 263.536L1017.16 265.364L1016 265.364L1016 266.359L1017.16 266.359L1017.16 271.13C1017.16 272.463 1018.23 273.099 1019.23 273.099C1019.66 273.099 1019.94 273.021 1020.1 272.959L1019.86 271.906C1019.76 271.927 1019.6 271.964 1019.34 271.964C1018.83 271.964 1018.33 271.807 1018.33 270.812L1018.33 266.359L1019.96 266.359L1019.96 265.364ZM1021.73 273L1022.9 273L1022.9 265.364L1021.73 265.364L1021.73 273ZM1022.33 264.089C1022.79 264.089 1023.16 263.734 1023.16 263.296C1023.16 262.859 1022.79 262.5 1022.33 262.5C1021.87 262.5 1021.49 262.859 1021.49 263.296C1021.49 263.734 1021.87 264.089 1022.33 264.089ZM1026.22 268.406C1026.22 267.073 1027.05 266.318 1028.18 266.318C1029.26 266.318 1029.93 267.029 1029.93 268.229L1029.93 273L1031.1 273L1031.1 268.146C1031.1 266.198 1030.06 265.265 1028.51 265.265C1027.36 265.265 1026.64 265.781 1026.29 266.557L1026.19 266.557L1026.19 265.364L1025.05 265.364L1025.05 273L1026.22 273L1026.22 268.406ZM1038.06 269.879C1038.06 271.308 1036.96 271.964 1036.09 271.964C1035.11 271.964 1034.42 271.25 1034.42 270.136L1034.42 265.364L1033.24 265.364L1033.24 270.214C1033.24 272.166 1034.28 273.099 1035.71 273.099C1036.86 273.099 1037.62 272.484 1037.98 271.708L1038.06 271.708L1038.06 273L1039.23 273L1039.23 265.364L1038.06 265.364L1038.06 269.879ZM1044.48 273.161C1046.55 273.161 1047.94 271.588 1047.94 269.223C1047.94 266.834 1046.55 265.265 1044.48 265.265C1042.41 265.265 1041.02 266.834 1041.02 269.223C1041.02 271.588 1042.41 273.161 1044.48 273.161ZM1044.48 272.104C1042.91 272.104 1042.2 270.754 1042.2 269.223C1042.2 267.692 1042.91 266.318 1044.48 266.318C1046.05 266.318 1046.77 267.692 1046.77 269.223C1046.77 270.754 1046.05 272.104 1044.48 272.104ZM1054.54 269.879C1054.54 271.308 1053.45 271.964 1052.57 271.964C1051.6 271.964 1050.9 271.25 1050.9 270.136L1050.9 265.364L1049.73 265.364L1049.73 270.214C1049.73 272.166 1050.77 273.099 1052.2 273.099C1053.35 273.099 1054.11 272.484 1054.46 271.708L1054.54 271.708L1054.54 273L1055.72 273L1055.72 265.364L1054.54 265.364L1054.54 269.879ZM1063.28 267.073C1062.91 265.99 1062.08 265.265 1060.57 265.265C1058.96 265.265 1057.77 266.178 1057.77 267.473C1057.77 268.526 1058.39 269.23 1059.8 269.558L1061.07 269.859C1061.84 270.037 1062.2 270.406 1062.2 270.932C1062.2 271.588 1061.5 272.125 1060.41 272.125C1059.45 272.125 1058.85 271.711 1058.64 270.891L1057.53 271.171C1057.8 272.467 1058.87 273.161 1060.43 273.161C1062.21 273.161 1063.41 272.19 1063.41 270.871C1063.41 269.808 1062.75 269.138 1061.38 268.803L1060.25 268.526C1059.35 268.3 1058.94 268 1058.94 267.412C1058.94 266.755 1059.63 266.277 1060.57 266.277C1061.59 266.277 1062.02 266.844 1062.22 267.371L1063.28 267.073ZM1069.12 275.864L1070.29 275.864L1070.29 271.828L1070.39 271.828C1070.65 272.245 1071.15 273.161 1072.62 273.161C1074.53 273.161 1075.86 271.629 1075.86 269.203C1075.86 266.796 1074.53 265.265 1072.6 265.265C1071.11 265.265 1070.65 266.178 1070.39 266.578L1070.25 266.578L1070.25 265.364L1069.12 265.364L1069.12 275.864ZM1070.28 269.182C1070.28 267.473 1071.03 266.318 1072.46 266.318C1073.95 266.318 1074.69 267.572 1074.69 269.182C1074.69 270.812 1073.93 272.104 1072.46 272.104C1071.05 272.104 1070.28 270.912 1070.28 269.182ZM1078.82 262.818L1077.65 262.818L1077.65 273L1078.82 273L1078.82 262.818ZM1083.22 273.178C1084.55 273.178 1085.25 272.463 1085.49 271.964L1085.55 271.964L1085.55 273L1086.72 273L1086.72 267.969C1086.72 265.542 1084.87 265.265 1083.89 265.265C1082.74 265.265 1081.43 265.662 1080.83 267.053L1081.95 267.453C1082.21 266.896 1082.82 266.297 1083.94 266.297C1085.02 266.297 1085.55 266.872 1085.55 267.849L1085.55 267.89C1085.55 268.458 1084.97 268.406 1083.58 268.584C1082.16 268.769 1080.61 269.083 1080.61 270.833C1080.61 272.323 1081.77 273.178 1083.22 273.178ZM1083.4 272.125C1082.47 272.125 1081.79 271.708 1081.79 270.891C1081.79 269.996 1082.6 269.719 1083.52 269.599C1084.01 269.541 1085.35 269.401 1085.55 269.162L1085.55 270.235C1085.55 271.192 1084.79 272.125 1083.4 272.125ZM1092.19 265.364L1090.56 265.364L1090.56 263.536L1089.38 263.536L1089.38 265.364L1088.23 265.364L1088.23 266.359L1089.38 266.359L1089.38 271.13C1089.38 272.463 1090.46 273.099 1091.45 273.099C1091.89 273.099 1092.17 273.021 1092.33 272.959L1092.09 271.906C1091.99 271.927 1091.83 271.964 1091.57 271.964C1091.05 271.964 1090.56 271.807 1090.56 270.812L1090.56 266.359L1092.19 266.359L1092.19 265.364ZM1097.36 265.364L1095.65 265.364L1095.65 264.588C1095.65 263.833 1095.97 263.433 1096.74 263.433C1097.08 263.433 1097.28 263.515 1097.4 263.553L1097.74 262.541C1097.56 262.459 1097.2 262.339 1096.62 262.339C1095.53 262.339 1094.47 262.996 1094.47 264.308L1094.47 265.364L1093.24 265.364L1093.24 266.359L1094.47 266.359L1094.47 273L1095.65 273L1095.65 266.359L1097.36 266.359L1097.36 265.364ZM1101.79 273.161C1103.86 273.161 1105.25 271.588 1105.25 269.223C1105.25 266.834 1103.86 265.265 1101.79 265.265C1099.73 265.265 1098.33 266.834 1098.33 269.223C1098.33 271.588 1099.73 273.161 1101.79 273.161ZM1101.79 272.104C1100.22 272.104 1099.51 270.754 1099.51 269.223C1099.51 267.692 1100.22 266.318 1101.79 266.318C1103.36 266.318 1104.08 267.692 1104.08 269.223C1104.08 270.754 1103.36 272.104 1101.79 272.104ZM1107.04 273L1108.22 273L1108.22 268.167C1108.22 267.135 1109.03 266.379 1110.15 266.379C1110.46 266.379 1110.78 266.438 1110.86 266.458L1110.86 265.265C1110.73 265.255 1110.42 265.245 1110.25 265.245C1109.33 265.245 1108.54 265.761 1108.26 266.516L1108.18 266.516L1108.18 265.364L1107.04 265.364L1107.04 273ZM1112.25 273L1113.43 273L1113.43 268.229C1113.43 267.107 1114.24 266.318 1115.16 266.318C1116.05 266.318 1116.67 266.899 1116.67 267.771L1116.67 273L1117.86 273L1117.86 268.027C1117.86 267.042 1118.48 266.318 1119.55 266.318C1120.39 266.318 1121.1 266.762 1121.1 267.89L1121.1 273L1122.28 273L1122.28 267.89C1122.28 266.096 1121.31 265.265 1119.95 265.265C1118.86 265.265 1118.06 265.768 1117.66 266.557L1117.58 266.557C1117.21 265.74 1116.54 265.265 1115.53 265.265C1114.54 265.265 1113.81 265.74 1113.49 266.557L1113.39 266.557L1113.39 265.364L1112.25 265.364L1112.25 273ZM967.213 294.161C968.765 294.161 969.896 293.385 970.255 292.229L969.121 291.912C968.823 292.708 968.133 293.104 967.213 293.104C965.836 293.104 964.886 292.216 964.831 290.579L970.375 290.579L970.375 290.083C970.375 287.239 968.683 286.265 967.094 286.265C965.026 286.265 963.652 287.896 963.652 290.24C963.652 292.588 965.005 294.161 967.213 294.161ZM964.831 289.567C964.91 288.377 965.75 287.318 967.094 287.318C968.365 287.318 969.182 288.271 969.182 289.567L964.831 289.567ZM973.336 289.406C973.336 288.073 974.164 287.318 975.288 287.318C976.375 287.318 977.038 288.029 977.038 289.229L977.038 294L978.21 294L978.21 289.146C978.21 287.198 977.171 286.265 975.626 286.265C974.471 286.265 973.757 286.781 973.398 287.557L973.299 287.557L973.299 286.364L972.164 286.364L972.164 294L973.336 294L973.336 289.406ZM981.53 289.406C981.53 288.073 982.381 287.318 983.539 287.318C984.643 287.318 985.31 288.015 985.31 289.229L985.31 294L986.482 294L986.482 289.146C986.482 287.185 985.44 286.265 983.878 286.265C982.675 286.265 981.988 286.768 981.632 287.557L981.53 287.557L981.53 283.818L980.357 283.818L980.357 294L981.53 294L981.53 289.406ZM990.879 294.178C992.209 294.178 992.906 293.463 993.145 292.964L993.203 292.964L993.203 294L994.379 294L994.379 288.969C994.379 286.542 992.53 286.265 991.552 286.265C990.401 286.265 989.088 286.662 988.49 288.053L989.604 288.453C989.864 287.896 990.476 287.297 991.593 287.297C992.673 287.297 993.203 287.872 993.203 288.849L993.203 288.89C993.203 289.458 992.629 289.406 991.234 289.584C989.819 289.769 988.271 290.083 988.271 291.833C988.271 293.323 989.426 294.178 990.879 294.178ZM991.057 293.125C990.124 293.125 989.447 292.708 989.447 291.891C989.447 290.996 990.26 290.719 991.176 290.599C991.672 290.541 993.005 290.401 993.203 290.162L993.203 291.235C993.203 292.192 992.448 293.125 991.057 293.125ZM997.697 289.406C997.697 288.073 998.524 287.318 999.649 287.318C1000.74 287.318 1001.4 288.029 1001.4 289.229L1001.4 294L1002.57 294L1002.57 289.146C1002.57 287.198 1001.53 286.265 999.987 286.265C998.832 286.265 998.118 286.781 997.759 287.557L997.66 287.557L997.66 286.364L996.525 286.364L996.525 294L997.697 294L997.697 289.406ZM1007.82 294.161C1009.51 294.161 1010.62 293.125 1010.82 291.771L1009.65 291.771C1009.43 292.609 1008.73 293.104 1007.82 293.104C1006.43 293.104 1005.53 291.953 1005.53 290.182C1005.53 288.453 1006.45 287.318 1007.82 287.318C1008.85 287.318 1009.47 287.954 1009.65 288.651L1010.82 288.651C1010.62 287.219 1009.41 286.265 1007.8 286.265C1005.73 286.265 1004.36 287.896 1004.36 290.223C1004.36 292.51 1005.67 294.161 1007.82 294.161ZM1015.74 294.161C1017.29 294.161 1018.42 293.385 1018.78 292.229L1017.64 291.912C1017.35 292.708 1016.66 293.104 1015.74 293.104C1014.36 293.104 1013.41 292.216 1013.35 290.579L1018.9 290.579L1018.9 290.083C1018.9 287.239 1017.21 286.265 1015.62 286.265C1013.55 286.265 1012.17 287.896 1012.17 290.24C1012.17 292.588 1013.53 294.161 1015.74 294.161ZM1013.35 289.567C1013.43 288.377 1014.27 287.318 1015.62 287.318C1016.89 287.318 1017.7 288.271 1017.7 289.567L1013.35 289.567ZM1020.69 294L1021.86 294L1021.86 289.229C1021.86 288.107 1022.68 287.318 1023.59 287.318C1024.48 287.318 1025.1 287.899 1025.1 288.771L1025.1 294L1026.3 294L1026.3 289.027C1026.3 288.042 1026.91 287.318 1027.98 287.318C1028.82 287.318 1029.54 287.762 1029.54 288.89L1029.54 294L1030.71 294L1030.71 288.89C1030.71 287.096 1029.74 286.265 1028.38 286.265C1027.29 286.265 1026.49 286.768 1026.1 287.557L1026.02 287.557C1025.64 286.74 1024.97 286.265 1023.97 286.265C1022.97 286.265 1022.24 286.74 1021.92 287.557L1021.82 287.557L1021.82 286.364L1020.69 286.364L1020.69 294ZM1036.06 294.161C1037.61 294.161 1038.74 293.385 1039.1 292.229L1037.97 291.912C1037.67 292.708 1036.98 293.104 1036.06 293.104C1034.68 293.104 1033.73 292.216 1033.68 290.579L1039.22 290.579L1039.22 290.083C1039.22 287.239 1037.53 286.265 1035.94 286.265C1033.87 286.265 1032.5 287.896 1032.5 290.24C1032.5 292.588 1033.85 294.161 1036.06 294.161ZM1033.68 289.567C1033.76 288.377 1034.6 287.318 1035.94 287.318C1037.21 287.318 1038.03 288.271 1038.03 289.567L1033.68 289.567ZM1042.18 289.406C1042.18 288.073 1043.01 287.318 1044.13 287.318C1045.22 287.318 1045.88 288.029 1045.88 289.229L1045.88 294L1047.06 294L1047.06 289.146C1047.06 287.198 1046.02 286.265 1044.47 286.265C1043.32 286.265 1042.6 286.781 1042.24 287.557L1042.15 287.557L1042.15 286.364L1041.01 286.364L1041.01 294L1042.18 294L1042.18 289.406ZM1052.53 286.364L1050.9 286.364L1050.9 284.536L1049.72 284.536L1049.72 286.364L1048.57 286.364L1048.57 287.359L1049.72 287.359L1049.72 292.13C1049.72 293.463 1050.8 294.099 1051.79 294.099C1052.23 294.099 1052.51 294.021 1052.67 293.959L1052.43 292.906C1052.33 292.927 1052.17 292.964 1051.91 292.964C1051.39 292.964 1050.9 292.807 1050.9 291.812L1050.9 287.359L1052.53 287.359L1052.53 286.364ZM1060.48 294.178C1061.81 294.178 1062.51 293.463 1062.75 292.964L1062.81 292.964L1062.81 294L1063.98 294L1063.98 288.969C1063.98 286.542 1062.13 286.265 1061.15 286.265C1060 286.265 1058.69 286.662 1058.09 288.053L1059.21 288.453C1059.47 287.896 1060.08 287.297 1061.2 287.297C1062.28 287.297 1062.81 287.872 1062.81 288.849L1062.81 288.89C1062.81 289.458 1062.23 289.406 1060.84 289.584C1059.42 289.769 1057.87 290.083 1057.87 291.833C1057.87 293.323 1059.03 294.178 1060.48 294.178ZM1060.66 293.125C1059.73 293.125 1059.05 292.708 1059.05 291.891C1059.05 290.996 1059.86 290.719 1060.78 290.599C1061.27 290.541 1062.61 290.401 1062.81 290.162L1062.81 291.235C1062.81 292.192 1062.05 293.125 1060.66 293.125ZM1067.3 289.406C1067.3 288.073 1068.13 287.318 1069.25 287.318C1070.34 287.318 1071 288.029 1071 289.229L1071 294L1072.17 294L1072.17 289.146C1072.17 287.198 1071.13 286.265 1069.59 286.265C1068.43 286.265 1067.72 286.781 1067.36 287.557L1067.26 287.557L1067.26 286.364L1066.13 286.364L1066.13 294L1067.3 294L1067.3 289.406ZM1077.21 294.161C1078.67 294.161 1079.17 293.245 1079.43 292.828L1079.57 292.828L1079.57 294L1080.71 294L1080.71 283.818L1079.53 283.818L1079.53 287.578L1079.43 287.578C1079.17 287.178 1078.72 286.265 1077.23 286.265C1075.29 286.265 1073.96 287.796 1073.96 290.203C1073.96 292.629 1075.29 294.161 1077.21 294.161ZM1077.36 293.104C1075.89 293.104 1075.14 291.812 1075.14 290.182C1075.14 288.572 1075.87 287.318 1077.36 287.318C1078.79 287.318 1079.55 288.473 1079.55 290.182C1079.55 291.912 1078.77 293.104 1077.36 293.104ZM1090.15 294.161C1091.7 294.161 1092.83 293.385 1093.19 292.229L1092.06 291.912C1091.76 292.708 1091.07 293.104 1090.15 293.104C1088.77 293.104 1087.82 292.216 1087.77 290.579L1093.31 290.579L1093.31 290.083C1093.31 287.239 1091.62 286.265 1090.03 286.265C1087.96 286.265 1086.59 287.896 1086.59 290.24C1086.59 292.588 1087.94 294.161 1090.15 294.161ZM1087.77 289.567C1087.85 288.377 1088.69 287.318 1090.03 287.318C1091.3 287.318 1092.12 288.271 1092.12 289.567L1087.77 289.567ZM1095.78 286.364L1094.43 286.364L1096.85 290.182L1094.43 294L1095.78 294L1097.61 291.037L1099.44 294L1100.79 294L1098.32 290.182L1100.79 286.364L1099.44 286.364L1097.61 289.485L1095.78 286.364ZM1102.46 296.864L1103.63 296.864L1103.63 292.828L1103.73 292.828C1103.99 293.245 1104.49 294.161 1105.96 294.161C1107.87 294.161 1109.2 292.629 1109.2 290.203C1109.2 287.796 1107.87 286.265 1105.94 286.265C1104.45 286.265 1103.99 287.178 1103.73 287.578L1103.59 287.578L1103.59 286.364L1102.46 286.364L1102.46 296.864ZM1103.61 290.182C1103.61 288.473 1104.37 287.318 1105.8 287.318C1107.29 287.318 1108.03 288.572 1108.03 290.182C1108.03 291.812 1107.27 293.104 1105.8 293.104C1104.39 293.104 1103.61 291.912 1103.61 290.182ZM1113.24 294.178C1114.57 294.178 1115.27 293.463 1115.51 292.964L1115.56 292.964L1115.56 294L1116.74 294L1116.74 288.969C1116.74 286.542 1114.89 286.265 1113.91 286.265C1112.76 286.265 1111.45 286.662 1110.85 288.053L1111.96 288.453C1112.22 287.896 1112.84 287.297 1113.95 287.297C1115.03 287.297 1115.56 287.872 1115.56 288.849L1115.56 288.89C1115.56 289.458 1114.99 289.406 1113.6 289.584C1112.18 289.769 1110.63 290.083 1110.63 291.833C1110.63 293.323 1111.79 294.178 1113.24 294.178ZM1113.42 293.125C1112.48 293.125 1111.81 292.708 1111.81 291.891C1111.81 290.996 1112.62 290.719 1113.54 290.599C1114.03 290.541 1115.37 290.401 1115.56 290.162L1115.56 291.235C1115.56 292.192 1114.81 293.125 1113.42 293.125ZM1120.06 289.406C1120.06 288.073 1120.89 287.318 1122.01 287.318C1123.1 287.318 1123.76 288.029 1123.76 289.229L1123.76 294L1124.93 294L1124.93 289.146C1124.93 287.198 1123.89 286.265 1122.35 286.265C1121.19 286.265 1120.48 286.781 1120.12 287.557L1120.02 287.557L1120.02 286.364L1118.89 286.364L1118.89 294L1120.06 294L1120.06 289.406ZM1132.49 288.073C1132.12 286.99 1131.3 286.265 1129.78 286.265C1128.17 286.265 1126.98 287.178 1126.98 288.473C1126.98 289.526 1127.61 290.23 1129.01 290.558L1130.28 290.859C1131.05 291.037 1131.42 291.406 1131.42 291.932C1131.42 292.588 1130.72 293.125 1129.63 293.125C1128.66 293.125 1128.06 292.711 1127.85 291.891L1126.74 292.171C1127.01 293.467 1128.08 294.161 1129.65 294.161C1131.42 294.161 1132.63 293.19 1132.63 291.871C1132.63 290.808 1131.96 290.138 1130.6 289.803L1129.46 289.526C1128.56 289.3 1128.15 289 1128.15 288.412C1128.15 287.755 1128.85 287.277 1129.78 287.277C1130.81 287.277 1131.23 287.844 1131.43 288.371L1132.49 288.073ZM1134.4 294L1135.57 294L1135.57 286.364L1134.4 286.364L1134.4 294ZM1135 285.089C1135.45 285.089 1135.83 284.734 1135.83 284.296C1135.83 283.859 1135.45 283.5 1135 283.5C1134.54 283.5 1134.16 283.859 1134.16 284.296C1134.16 284.734 1134.54 285.089 1135 285.089ZM1140.82 294.161C1142.89 294.161 1144.28 292.588 1144.28 290.223C1144.28 287.834 1142.89 286.265 1140.82 286.265C1138.75 286.265 1137.36 287.834 1137.36 290.223C1137.36 292.588 1138.75 294.161 1140.82 294.161ZM1140.82 293.104C1139.25 293.104 1138.53 291.754 1138.53 290.223C1138.53 288.692 1139.25 287.318 1140.82 287.318C1142.39 287.318 1143.11 288.692 1143.11 290.223C1143.11 291.754 1142.39 293.104 1140.82 293.104ZM1147.24 289.406C1147.24 288.073 1148.07 287.318 1149.19 287.318C1150.28 287.318 1150.94 288.029 1150.94 289.229L1150.94 294L1152.12 294L1152.12 289.146C1152.12 287.198 1151.08 286.265 1149.53 286.265C1148.38 286.265 1147.66 286.781 1147.3 287.557L1147.21 287.557L1147.21 286.364L1146.07 286.364L1146.07 294L1147.24 294L1147.24 289.406Z" fill="#FFFFFF" fill-opacity="1.000000" fill-rule="evenodd"/>
	<path id="Vector 620" d="M137.206 39L137.206 237" stroke="#FE3C06" stroke-opacity="1.000000" stroke-width="1.000000"/>
	<path id="Vector 621" d="M444.206 39L444.206 237" stroke="#FE3C06" stroke-opacity="1.000000" stroke-width="1.000000"/>
	<path id="Vector 622" d="M751.206 39L751.206 237" stroke="#FE3C06" stroke-opacity="1.000000" stroke-width="1.000000"/>
	<path id="Vector 623" d="M1057.21 39L1057.21 237" stroke="#FE3C06" stroke-opacity="1.000000" stroke-width="1.000000"/>
	<g filter="url(#filter_19_14693_dd)">
		<circle id="Ellipse 760" cx="137.206360" cy="122.000000" r="6.000000" fill="#FE3C06" fill-opacity="1.000000"/>
	</g>
	<circle id="Ellipse 761" cx="137.206360" cy="122.000000" r="3.000000" fill="#FFFFFF" fill-opacity="1.000000"/>
	<g filter="url(#filter_19_14696_dd)">
		<circle id="Ellipse 760" cx="444.206360" cy="151.000000" r="6.000000" fill="#FE3C06" fill-opacity="1.000000"/>
	</g>
	<circle id="Ellipse 761" cx="444.206360" cy="151.000000" r="3.000000" fill="#FFFFFF" fill-opacity="1.000000"/>
	<g filter="url(#filter_19_14699_dd)">
		<circle id="Ellipse 760" cx="751.206360" cy="151.000000" r="6.000000" fill="#FE3C06" fill-opacity="1.000000"/>
	</g>
	<circle id="Ellipse 761" cx="751.206360" cy="151.000000" r="3.000000" fill="#FFFFFF" fill-opacity="1.000000"/>
	<g filter="url(#filter_19_14702_dd)">
		<circle id="Ellipse 760" cx="1057.206421" cy="145.000000" r="6.000000" fill="#FE3C06" fill-opacity="1.000000"/>
	</g>
	<circle id="Ellipse 761" cx="1057.206421" cy="145.000000" r="3.000000" fill="#FFFFFF" fill-opacity="1.000000"/>
</svg>
