<svg width="14" height="16" viewBox="0 0 14 16" fill="none" xmlns="http://www.w3.org/2000/svg">
<path fill-rule="evenodd" clip-rule="evenodd" d="M3.62488 3.5C3.62488 1.63604 5.13592 0.125 6.99988 0.125C8.86384 0.125 10.3749 1.63604 10.3749 3.5C10.3749 5.36396 8.86384 6.875 6.99988 6.875C5.13592 6.875 3.62488 5.36396 3.62488 3.5Z" fill="white"/>
<path fill-rule="evenodd" clip-rule="evenodd" d="M0.813316 14.079C0.871322 10.7117 3.61887 8 6.99988 8C10.381 8 13.1286 10.7118 13.1865 14.0792C13.1903 14.3026 13.0616 14.507 12.8586 14.6002C11.0744 15.4188 9.08977 15.875 7.00012 15.875C4.91028 15.875 2.92546 15.4188 1.14112 14.5999C0.938121 14.5068 0.809469 14.3023 0.813316 14.079Z" fill="white"/>
</svg>
