<svg width="50.000000" height="50.000000" viewBox="0 0 50 50" fill="none" xmlns="http://www.w3.org/2000/svg" xmlns:xlink="http://www.w3.org/1999/xlink">
	<desc>
			Created with Pixso.
	</desc>
	<defs/>
	<rect id="Rectangle" rx="3.000000" width="40.000000" height="50.000000" fill="#F6601F" fill-opacity="1.000000"/>
	<rect id="Rectangle" rx="3.000000" width="40.000000" height="50.000000" stroke="#FFFFFF" stroke-opacity="0" stroke-width="0.000000"/>
	<g opacity="0.500000" style="mix-blend-mode:normal">
		<rect id="Rectangle" x="6.000000" y="16.000000" rx="1.500000" width="28.000000" height="3.000000" fill="#FFFFFF" fill-opacity="1.000000"/>
		<rect id="Rectangle" x="6.000000" y="16.000000" rx="1.500000" width="28.000000" height="3.000000" stroke="#979797" stroke-opacity="0" stroke-width="0.000000"/>
	</g>
	<g opacity="0.500000" style="mix-blend-mode:normal">
		<rect id="Rectangle" x="6.000000" y="7.000000" rx="1.500000" width="21.000000" height="3.000000" fill="#FFFFFF" fill-opacity="1.000000"/>
		<rect id="Rectangle" x="6.000000" y="7.000000" rx="1.500000" width="21.000000" height="3.000000" stroke="#979797" stroke-opacity="0" stroke-width="0.000000"/>
	</g>
	<g opacity="0.500000" style="mix-blend-mode:normal">
		<rect id="Rectangle" x="6.000000" y="22.000000" rx="1.500000" width="28.000000" height="3.000000" fill="#FFFFFF" fill-opacity="1.000000"/>
		<rect id="Rectangle" x="6.000000" y="22.000000" rx="1.500000" width="28.000000" height="3.000000" stroke="#979797" stroke-opacity="0" stroke-width="0.000000"/>
	</g>
	<g opacity="0.500000" style="mix-blend-mode:normal">
		<rect id="Rectangle" x="6.000000" y="28.000000" rx="1.500000" width="24.000000" height="3.000000" fill="#FFFFFF" fill-opacity="1.000000"/>
		<rect id="Rectangle" x="6.000000" y="28.000000" rx="1.500000" width="24.000000" height="3.000000" stroke="#979797" stroke-opacity="0" stroke-width="0.000000"/>
	</g>
	<path id="Shape" d="M43.9452 10.5312L48.1194 14.707L49.136 13.6875C50.288 12.5352 50.288 10.6641 49.136 9.51172C47.9839 8.35938 46.112 8.35938 44.96 9.51172L43.9452 10.5312ZM36.1236 26.7109L31.9706 22.5586L42.534 11.9492L46.7057 16.1211L36.1236 26.7109ZM34.7099 28.125L34.4758 28.3594C34.3864 28.4492 34.2753 28.5117 34.1535 28.543L29.8335 29.6953C29.2939 29.8398 28.803 29.3398 28.9552 28.8047L30.1792 24.4844C30.2127 24.3672 30.2759 24.2578 30.3629 24.1719L30.5593 23.9727L34.7099 28.125Z" clip-rule="evenodd" fill="#FFFFFF" fill-opacity="1.000000" fill-rule="evenodd"/>
</svg>
