<svg width="63.446838" height="49.492188" viewBox="0 0 63.4468 49.4922" fill="none" xmlns="http://www.w3.org/2000/svg" xmlns:xlink="http://www.w3.org/1999/xlink">
	<desc>
			Created with Pixso.
	</desc>
	<defs>
		<linearGradient x1="42.195156" y1="27.837503" x2="62.654423" y2="17.740492" id="paint_linear_661_84976_0" gradientUnits="userSpaceOnUse">
			<stop stop-color="#FFFFFF" stop-opacity="0.501961"/>
			<stop offset="1.000000" stop-color="#000000"/>
		</linearGradient>
		<linearGradient x1="24.679285" y1="13.372963" x2="17.267920" y2="18.818800" id="paint_linear_661_84984_0" gradientUnits="userSpaceOnUse">
			<stop stop-color="#000000"/>
			<stop offset="1.000000" stop-color="#000000" stop-opacity="0.000000"/>
		</linearGradient>
	</defs>
	<path id="Rectangle 6" d="M8.87 5.32C8.87 3.5 10.36 2.01 12.19 2.01L60.13 2.01C61.96 2.01 63.44 3.5 63.44 5.32L63.44 21.8C63.44 23.63 61.96 25.11 60.13 25.11L12.19 25.11C10.36 25.11 8.87 23.63 8.87 21.8L8.87 5.32Z" fill="#F6601F" fill-opacity="1.000000" fill-rule="evenodd"/>
	<path id="Rectangle 6" d="M60.13 2.01C61.96 2.01 63.44 3.5 63.44 5.32L63.44 21.8C63.44 23.63 61.96 25.11 60.13 25.11L12.19 25.11C10.36 25.11 8.87 23.63 8.87 21.8L8.87 5.32C8.87 3.5 10.36 2.01 12.19 2.01L60.13 2.01Z" stroke="#FFFFFF" stroke-opacity="0" stroke-width="0.000000"/>
	<g opacity="0.200000" style="mix-blend-mode:normal">
		<path id="Rectangle 6" d="M8.87 17.43C8.87 15.6 10.36 14.12 12.19 14.12L60.13 14.12C61.96 14.12 63.44 15.6 63.44 17.43L63.44 22.35C63.44 24.18 61.96 25.67 60.13 25.67L12.19 25.67C10.36 25.67 8.87 24.18 8.87 22.35L8.87 17.43Z" fill="#017AFF" fill-opacity="0" fill-rule="evenodd"/>
		<path id="Rectangle 6" d="M8.87 17.43C8.87 15.6 10.36 14.12 12.19 14.12L60.13 14.12C61.96 14.12 63.44 15.6 63.44 17.43L63.44 22.35C63.44 24.18 61.96 25.67 60.13 25.67L12.19 25.67C10.36 25.67 8.87 24.18 8.87 22.35L8.87 17.43Z" fill="url(#paint_linear_661_84976_0)" fill-opacity="1.000000" fill-rule="evenodd"/>
		<path id="Rectangle 6" d="M60.13 14.12C61.96 14.12 63.44 15.6 63.44 17.43L63.44 22.35C63.44 24.18 61.96 25.67 60.13 25.67L12.19 25.67C10.36 25.67 8.87 24.18 8.87 22.35L8.87 17.43C8.87 15.6 10.36 14.12 12.19 14.12L60.13 14.12Z" stroke="#FFFFFF" stroke-opacity="0" stroke-width="0.000000"/>
	</g>
	<g opacity="0.500000" style="mix-blend-mode:normal">
		<path id="Rectangle 6" d="M36.05 12.66C36.05 10.83 37.54 9.35 39.37 9.35L51.46 9.35C53.29 9.35 54.77 10.83 54.77 12.66L54.77 15.08C54.77 16.91 53.29 18.39 51.46 18.39L39.37 18.39C37.54 18.39 36.05 16.91 36.05 15.08L36.05 12.66Z" fill="#FFFFFF" fill-opacity="1.000000" fill-rule="evenodd"/>
		<path id="Rectangle 6" d="M51.46 9.35C53.29 9.35 54.77 10.83 54.77 12.66L54.77 15.08C54.77 16.91 53.29 18.39 51.46 18.39L39.37 18.39C37.54 18.39 36.05 16.91 36.05 15.08L36.05 12.66C36.05 10.83 37.54 9.35 39.37 9.35L51.46 9.35Z" stroke="#FFFFFF" stroke-opacity="0" stroke-width="0.000000"/>
	</g>
	<mask id="mask_661_84978" fill="white">
		<path id="Rectangle 7" d="M53.9714 33.6484L26.5213 6.02344L26.4845 6.05859C22.7684 3.03125 17.2953 3.26172 13.8304 6.74609C10.3655 10.2344 10.1364 15.7422 13.1476 19.4805L13.111 19.5195L13.7759 20.1875C13.7887 20.1992 13.8016 20.2148 13.8145 20.2266C13.8275 20.2383 13.8405 20.2539 13.8534 20.2656L40.5611 47.1445C41.8512 48.4414 43.9429 48.4414 45.233 47.1445L53.9713 38.3477C55.2615 37.0508 55.2615 34.9453 53.9714 33.6484Z" clip-rule="evenodd" fill="" fill-opacity="1.000000" fill-rule="evenodd"/>
	</mask>
	<path id="Rectangle 7" d="M53.9714 33.6484L26.5213 6.02344L26.4845 6.05859C22.7684 3.03125 17.2953 3.26172 13.8304 6.74609C10.3655 10.2344 10.1364 15.7422 13.1476 19.4805L13.111 19.5195L13.7759 20.1875C13.7887 20.1992 13.8016 20.2148 13.8145 20.2266C13.8275 20.2383 13.8405 20.2539 13.8534 20.2656L40.5611 47.1445C41.8512 48.4414 43.9429 48.4414 45.233 47.1445L53.9713 38.3477C55.2615 37.0508 55.2615 34.9453 53.9714 33.6484Z" clip-rule="evenodd" fill="#FFFFFF" fill-opacity="1.000000" fill-rule="evenodd" mask="url(#mask_661_84978)"/>
	<path id="Rectangle 7" d="" fill="#FFFFFF" fill-opacity="0.000000" fill-rule="nonzero"/>
	<path id="Path 2" d="M10.79 3L62.89 42.19C62.89 42.19 55 49.1 52.95 49.1C50.9 49.1 0 11.7 0 11.7L10.79 3Z" fill="#D8D8D8" fill-opacity="0" fill-rule="evenodd"/>
	<path id="Path 2" d="M62.89 42.19C62.89 42.19 55 49.1 52.95 49.1C50.9 49.1 0 11.7 0 11.7L10.79 3L62.89 42.19Z" stroke="#979797" stroke-opacity="0" stroke-width="0.000000"/>
	<mask id="mask661_84983" mask-type="alpha" maskUnits="userSpaceOnUse" x="0.000000" y="3.000000" width="62.895813" height="46.105469">
		<path id="Path 2" d="M10.79 3L62.89 42.19C62.89 42.19 55 49.1 52.95 49.1C50.9 49.1 0 11.7 0 11.7L10.79 3Z" fill="#000000" fill-opacity="1.000000" fill-rule="evenodd"/>
		<path id="Path 2" d="M62.89 42.19C62.89 42.19 55 49.1 52.95 49.1C50.9 49.1 0 11.7 0 11.7L10.79 3L62.89 42.19Z" stroke="#979797" stroke-opacity="0" stroke-width="0.000000"/>
	</mask>
	<g mask="url(#mask661_84983)">
		<g opacity="0.030000" style="mix-blend-mode:normal">
			<mask id="mask_661_84984" fill="white">
				<path id="Rectangle 7" d="M28.7823 5.55469C24.675 3.10938 18.6252 3.29688 14.7952 6.10938C10.9653 8.92188 10.7123 13.3711 14.0413 16.3867L14 16.418L44.2508 38.6445C45.7257 39.7305 48.117 39.7305 49.5919 38.6445L59.0726 31.6797C60.5475 30.5938 60.5475 28.8398 59.0726 27.7539L29.7145 6.18359C29.6765 6.15234 29.6382 6.125 29.5995 6.09766C29.5609 6.06641 29.522 6.03906 29.4828 6.01172L28.8218 5.52734L28.7823 5.55469Z" clip-rule="evenodd" fill="" fill-opacity="1.000000" fill-rule="evenodd"/>
			</mask>
			<path id="Rectangle 7" d="M28.7823 5.55469C24.675 3.10938 18.6252 3.29688 14.7952 6.10938C10.9653 8.92188 10.7123 13.3711 14.0413 16.3867L14 16.418L44.2508 38.6445C45.7257 39.7305 48.117 39.7305 49.5919 38.6445L59.0726 31.6797C60.5475 30.5938 60.5475 28.8398 59.0726 27.7539L29.7145 6.18359C29.6765 6.15234 29.6382 6.125 29.5995 6.09766C29.5609 6.06641 29.522 6.03906 29.4828 6.01172L28.8218 5.52734L28.7823 5.55469Z" clip-rule="evenodd" fill="url(#paint_linear_661_84984_0)" fill-opacity="1.000000" fill-rule="evenodd" mask="url(#mask_661_84984)"/>
			<path id="Rectangle 7" d="" fill="#FFFFFF" fill-opacity="0.000000" fill-rule="nonzero"/>
		</g>
	</g>
	<path id="Oval 3" d="M20.62 19.4C23.64 19.4 26.1 16.92 26.1 13.87C26.1 10.82 23.64 8.35 20.62 8.35C17.59 8.35 15.14 10.82 15.14 13.87C15.14 16.92 17.59 19.4 20.62 19.4Z" fill="#F6601F" fill-opacity="1.000000" fill-rule="evenodd"/>
	<path id="Oval 3" d="M26.1 13.87C26.1 10.82 23.64 8.35 20.62 8.35C17.59 8.35 15.14 10.82 15.14 13.87C15.14 16.92 17.59 19.4 20.62 19.4C23.64 19.4 26.1 16.92 26.1 13.87Z" stroke="#FFFFFF" stroke-opacity="0" stroke-width="0.000000"/>
</svg>
