<svg width="55.000000" height="50.000000" viewBox="0 0 55 50" fill="none" xmlns="http://www.w3.org/2000/svg" xmlns:xlink="http://www.w3.org/1999/xlink">
	<desc>
			Created with Pixso.
	</desc>
	<defs/>
	<path id="Path" d="M51.41 4.76L19.18 4.76C18.84 4.64 18.16 3.55 17.79 2.96C16.87 1.5 15.92 0 14.34 0L3.58 0C1.6 0 0 1.6 0 3.57L0 10.71L1.19 10.71L53.8 10.71L55 10.71L55 8.33C55 6.36 53.39 4.76 51.41 4.76Z" fill="#F6601F" fill-opacity="1.000000" fill-rule="evenodd"/>
	<path id="Path" d="M51.41 4.76L19.18 4.76C18.84 4.64 18.16 3.55 17.79 2.96C16.87 1.5 15.92 0 14.34 0L3.58 0C1.6 0 0 1.6 0 3.57L0 10.71L1.19 10.71L53.8 10.71L55 10.71L55 8.33C55 6.36 53.39 4.76 51.41 4.76Z" fill="#000000" fill-opacity="0.200000" fill-rule="evenodd"/>
	<path id="Shape" d="M53.8 13.09L1.19 13.09C0.53 13.09 0 13.62 0 14.28L0 46.42C0 48.39 1.6 50 3.58 50L51.41 50C53.39 50 55 48.39 55 46.42L55 14.28C55 13.62 54.46 13.09 53.8 13.09Z" fill="#F6601F" fill-opacity="1.000000" fill-rule="nonzero"/>
	<path id="Path" d="M20.88 29.16C21.35 29.63 22.1 29.63 22.57 29.16L26.51 25.25L26.51 40.23C26.51 40.88 27.04 41.42 27.7 41.42C28.36 41.42 28.9 40.88 28.9 40.23L28.9 25.25L32.84 29.16C33.3 29.63 34.06 29.63 34.53 29.16C34.99 28.7 34.99 27.94 34.53 27.48L28.55 21.53C28.31 21.3 28.01 21.18 27.7 21.18C27.4 21.18 27.09 21.3 26.86 21.53L20.88 27.48C20.41 27.94 20.41 28.7 20.88 29.16Z" fill="#FFFFFF" fill-opacity="1.000000" fill-rule="nonzero"/>
</svg>
