<svg width="370.866699" height="470.175781" viewBox="0 0 370.867 470.176" fill="none" xmlns="http://www.w3.org/2000/svg" xmlns:xlink="http://www.w3.org/1999/xlink">
	<desc>
			Created with Pixso.
	</desc>
	<defs/>
	<path id="Be a part of the future of music &amp; discover new opportunities with us!" d="M302.98 49.61Q304.83 50.17 306.84 50.17Q309.23 50.17 311.34 49.42Q312.59 48.97 313.75 48.26Q315.05 47.45 316.14 46.42Q317.65 45 318.74 43.13Q319.39 42.02 319.81 40.82Q320.58 38.61 320.58 36.12L320.51 13.94Q320.51 11.3 319.65 8.99Q319.24 7.92 318.65 6.92Q317.58 5.1 316.11 3.7Q315.02 2.67 313.71 1.87Q312.88 1.36 311.98 0.98Q309.62 0 306.84 0Q304.93 0 303.17 0.5Q301.52 0.98 300.01 1.89Q298.34 2.9 297.04 4.25Q295.89 5.45 295.02 6.93Q294.52 7.75 294.16 8.62Q293.14 11.07 293.14 13.94L293.07 36.12Q293.07 38.44 293.76 40.53Q294.22 41.89 294.97 43.15Q296.06 44.99 297.55 46.4Q298.65 47.45 299.97 48.26Q301.42 49.14 302.98 49.61ZM23.73 49.49L36.28 49.49Q39 49.49 41.39 48.59Q42.57 48.15 43.66 47.49Q45.24 46.53 46.52 45.27Q47.92 43.89 48.96 42.14Q49.59 41.06 50.01 39.9Q50.91 37.48 50.91 34.72Q50.91 32.97 50.5 31.31Q50.23 30.19 49.78 29.12Q49.1 27.51 48.1 26.14Q47.44 25.24 46.63 24.43Q48.51 22.83 49.88 20.23Q50.42 19.2 50.75 18.12Q51.25 16.45 51.25 14.62Q51.25 12.6 50.7 10.73Q50.25 9.2 49.44 7.77Q48.6 6.32 47.49 5.13Q46.18 3.73 44.48 2.7Q43.44 2.07 42.32 1.65Q39.99 0.78 37.34 0.78L23.87 0.78Q23.73 0.78 23.66 0.85Q23.6 0.92 23.6 1.05L23.46 49.15Q23.46 49.35 23.56 49.44Q23.63 49.49 23.73 49.49ZM56.2 49.49L78.83 49.49Q78.97 49.49 79.04 49.42Q79.1 49.35 79.1 49.21L79.1 41.22Q79.1 41.01 79 40.93Q78.94 40.87 78.83 40.87L64.41 40.87L64.41 28.64L78.83 28.64Q78.97 28.64 79.04 28.57Q79.1 28.5 79.1 28.36L79.04 20.43Q79.04 20.3 78.97 20.23Q78.9 20.16 78.76 20.16L64.41 20.16L64.41 9.22L78.76 9.22Q78.9 9.22 78.97 9.16Q79.04 9.09 79.04 8.95L79.04 1.12Q79.04 0.91 78.93 0.83Q78.87 0.78 78.76 0.78L56.27 0.78Q56.14 0.78 56.07 0.85Q56 0.92 56 1.05L55.93 49.15Q55.93 49.35 56.03 49.44Q56.1 49.49 56.2 49.49ZM109.83 1.05L101.15 49.15Q101.15 49.35 101.25 49.44Q101.32 49.49 101.42 49.49L109.22 49.49Q109.35 49.49 109.43 49.42Q109.54 49.34 109.56 49.15L110.31 44.02L119.85 44.02L120.6 49.15Q120.62 49.32 120.71 49.4Q120.8 49.49 120.97 49.49L128.73 49.49Q128.87 49.49 128.94 49.42Q129.03 49.33 129.01 49.15L120.67 1.05Q120.63 0.91 120.54 0.84Q120.46 0.78 120.33 0.78L110.17 0.78Q110.04 0.78 109.96 0.84Q109.87 0.91 109.83 1.05ZM151.91 49.49L159.77 49.49Q159.94 49.49 160.02 49.4Q160.11 49.32 160.11 49.15L160.11 31.51L165.44 31.51Q167.2 31.51 168.84 31.06Q170.63 30.56 172.28 29.53Q172.59 29.33 172.89 29.12Q175.62 27.18 177.41 23.92Q179.35 20.26 179.35 15.34Q179.35 9.52 176.56 5.81Q176.12 5.22 175.61 4.69Q174.73 3.78 173.71 3.08Q170.36 0.78 165.44 0.78L151.98 0.78Q151.84 0.78 151.77 0.85Q151.7 0.92 151.7 1.05L151.57 49.15Q151.57 49.32 151.65 49.4Q151.74 49.49 151.91 49.49ZM190.43 1.05L181.75 49.15Q181.75 49.35 181.85 49.44Q181.91 49.49 182.02 49.49L189.81 49.49Q189.95 49.49 190.03 49.42Q190.14 49.34 190.15 49.15L190.91 44.02L200.44 44.02L201.19 49.15Q201.21 49.32 201.31 49.4Q201.4 49.49 201.57 49.49L209.33 49.49Q209.47 49.49 209.54 49.42Q209.62 49.33 209.6 49.15L201.26 1.05Q201.23 0.91 201.14 0.84Q201.05 0.78 200.92 0.78L190.77 0.78Q190.64 0.78 190.55 0.84Q190.46 0.91 190.43 1.05ZM214.25 49.49L222.18 49.49Q222.29 49.49 222.35 49.44Q222.45 49.35 222.45 49.15L222.52 28.57L227.14 28.57Q228.49 28.57 229.63 29.07Q230.66 29.53 231.51 30.41Q232.44 31.38 232.88 32.53Q233.29 33.58 233.29 34.79L233.29 49.28Q233.29 49.36 233.32 49.4Q233.39 49.49 233.56 49.49L241.49 49.49Q241.66 49.49 241.75 49.4Q241.83 49.32 241.83 49.15L241.77 34.79Q241.77 31.93 240.8 29.45Q239.85 27 237.97 24.91Q238.83 24.23 239.87 22.79Q240.91 21.36 241.7 19.27Q242.48 17.19 242.48 14.62Q242.48 11.66 241.4 9.16Q241.05 8.35 240.59 7.58Q239.71 6.14 238.55 4.97Q237.22 3.62 235.51 2.63Q234.29 1.92 232.98 1.48Q230.88 0.78 228.54 0.78L214.39 0.78Q214.25 0.78 214.18 0.85Q214.11 0.92 214.11 1.05L213.98 49.15Q213.98 49.35 214.08 49.44Q214.14 49.49 214.25 49.49ZM254.75 49.49L262.65 49.49Q262.76 49.49 262.82 49.44Q262.92 49.35 262.92 49.15L262.85 9.22L272.05 9.22Q272.16 9.22 272.22 9.17Q272.32 9.09 272.32 8.88L272.32 1.05Q272.32 0.96 272.28 0.9Q272.19 0.78 271.95 0.78L245.35 0.78Q245.22 0.78 245.15 0.85Q245.08 0.92 245.08 1.05L245.01 8.88Q245.01 9.05 245.1 9.14Q245.18 9.22 245.35 9.22L254.45 9.22L254.45 49.15Q254.45 49.33 254.54 49.42Q254.62 49.49 254.75 49.49ZM326.19 49.49L334.05 49.49Q334.22 49.49 334.31 49.4Q334.39 49.32 334.39 49.15L334.39 28.64L348.75 28.64Q348.96 28.64 349.04 28.54Q349.09 28.47 349.09 28.36L349.02 20.43Q349.02 20.23 348.92 20.14Q348.85 20.09 348.75 20.09L334.39 20.09L334.39 9.22L348.75 9.22Q348.88 9.22 348.95 9.16Q349.02 9.09 349.02 8.95L349.02 1.05Q349.02 0.95 348.97 0.88Q348.89 0.78 348.68 0.78L326.26 0.78Q326.12 0.78 326.05 0.85Q325.98 0.92 325.98 1.05L325.85 49.15Q325.85 49.32 325.93 49.4Q326.02 49.49 326.19 49.49ZM308.27 41.51Q307.59 41.73 306.84 41.73Q305.93 41.73 305.13 41.43Q304.04 41.03 303.15 40.07Q302.42 39.28 302.04 38.35Q301.61 37.32 301.61 36.12L301.61 13.94Q301.61 12.39 302.26 11.19Q302.61 10.53 303.15 9.98Q303.98 9.13 304.97 8.74Q305.84 8.4 306.84 8.4Q308.09 8.4 309.1 8.9Q309.91 9.29 310.57 10.01Q311.12 10.61 311.47 11.32Q312.04 12.49 312.04 13.94L312.11 36.12Q312.11 36.87 311.92 37.56Q311.56 38.87 310.54 40Q309.52 41.12 308.27 41.51ZM32 9.09L37.34 9.09Q38.31 9.09 39.16 9.4Q40.26 9.81 41.16 10.74Q42.08 11.69 42.47 12.81Q42.77 13.66 42.77 14.62Q42.77 15.13 42.68 15.61Q42.4 17.07 41.27 18.37Q40.64 19.08 39.86 19.5Q38.75 20.09 37.34 20.09L32 20.09L32 9.09ZM160.11 9.16L165.44 9.09Q167.12 9.09 168.32 9.84Q168.97 10.24 169.48 10.85Q169.69 11.1 169.87 11.37Q170.95 13 170.95 15.34Q170.95 18.76 169.3 20.9Q168.1 22.47 166.57 22.88Q166.03 23.03 165.44 23.03L160.11 23.03L160.11 9.16ZM222.52 9.16L228.54 9.16Q229.58 9.16 230.48 9.5Q231.55 9.9 232.43 10.78Q233.36 11.69 233.76 12.8Q234.08 13.66 234.08 14.62Q234.08 15.77 233.66 16.74Q233.24 17.74 232.38 18.55Q231.29 19.59 230.01 19.96Q229.3 20.16 228.54 20.16L222.52 20.16L222.52 9.16ZM111.71 36.53L114.86 16.88L115.16 14.28L115.57 16.88L118.45 36.53L111.71 36.53ZM192.31 36.53L195.45 16.88L195.76 14.28L196.17 16.88L199.04 36.53L192.31 36.53ZM32 28.57L36.28 28.57Q37.49 28.57 38.53 28.98Q39.67 29.44 40.62 30.38Q41.56 31.33 42.01 32.47Q42.43 33.51 42.43 34.72Q42.43 35.89 42.04 36.91Q41.59 38.1 40.62 39.1Q39.64 40.09 38.46 40.55Q37.45 40.94 36.28 40.94L31.94 40.94L32 28.57ZM323.75 133.61Q325.59 134.17 327.61 134.17Q329.99 134.17 332.1 133.42Q333.35 132.97 334.51 132.26Q335.82 131.46 336.9 130.42Q338.41 129 339.5 127.13Q340.15 126.02 340.57 124.82Q341.35 122.61 341.35 120.12L341.28 97.94Q341.28 95.3 340.41 92.99Q340.01 91.92 339.42 90.92Q338.35 89.1 336.87 87.7Q335.78 86.67 334.48 85.87Q333.64 85.36 332.74 84.98Q330.38 84 327.61 84Q325.7 84 323.93 84.5Q322.29 84.98 320.77 85.89Q319.11 86.9 317.81 88.25Q316.65 89.45 315.78 90.93Q315.29 91.75 314.92 92.62Q313.9 95.07 313.9 97.94L313.83 120.12Q313.83 122.44 314.53 124.53Q314.98 125.89 315.73 127.15Q316.82 128.99 318.32 130.4Q319.42 131.45 320.74 132.26Q322.18 133.14 323.75 133.61ZM9.74 133.49L17.63 133.49Q17.74 133.49 17.8 133.44Q17.91 133.35 17.91 133.14L17.84 93.22L27.03 93.22Q27.14 93.22 27.2 93.17Q27.3 93.09 27.3 92.88L27.3 85.05Q27.3 84.96 27.26 84.9Q27.17 84.78 26.93 84.78L0.34 84.78Q0.2 84.78 0.13 84.85Q0.06 84.92 0.06 85.05L0 92.88Q0 93.05 0.08 93.14Q0.17 93.22 0.34 93.22L9.43 93.22L9.43 133.14Q9.43 133.33 9.52 133.42Q9.6 133.49 9.74 133.49ZM30.96 133.49L38.89 133.49Q39 133.49 39.06 133.44Q39.16 133.35 39.16 133.14L39.16 112.57L49.66 112.57L49.66 133.14Q49.66 133.32 49.74 133.4Q49.83 133.49 50 133.49L57.86 133.49Q58.03 133.49 58.12 133.4Q58.2 133.32 58.2 133.14L58.07 85.05Q58.07 84.95 58.01 84.88Q57.93 84.78 57.72 84.78L49.93 84.78Q49.79 84.78 49.73 84.85Q49.66 84.92 49.66 85.05L49.66 104.09L39.16 104.09L39.23 85.05Q39.23 84.95 39.18 84.88Q39.1 84.78 38.89 84.78L31.1 84.78Q30.89 84.78 30.81 84.88Q30.76 84.95 30.76 85.05L30.69 133.14Q30.69 133.35 30.79 133.44Q30.86 133.49 30.96 133.49ZM64.18 133.49L86.81 133.49Q86.95 133.49 87.02 133.42Q87.08 133.35 87.08 133.21L87.08 125.22Q87.08 125.01 86.98 124.93Q86.92 124.87 86.81 124.87L72.39 124.87L72.39 112.64L86.81 112.64Q86.95 112.64 87.02 112.57Q87.08 112.5 87.08 112.36L87.02 104.43Q87.02 104.3 86.95 104.23Q86.88 104.16 86.74 104.16L72.39 104.16L72.39 93.22L86.74 93.22Q86.88 93.22 86.95 93.16Q87.02 93.09 87.02 92.95L87.02 85.12Q87.02 84.91 86.91 84.83Q86.85 84.78 86.74 84.78L64.25 84.78Q64.12 84.78 64.05 84.85Q63.98 84.92 63.98 85.05L63.91 133.14Q63.91 133.35 64.01 133.44Q64.08 133.49 64.18 133.49ZM111.83 133.49L119.69 133.49Q119.86 133.49 119.95 133.4Q120.03 133.32 120.03 133.14L120.03 112.64L134.39 112.64Q134.6 112.64 134.68 112.54Q134.73 112.47 134.73 112.36L134.66 104.43Q134.66 104.23 134.56 104.15Q134.5 104.09 134.39 104.09L120.03 104.09L120.03 93.22L134.39 93.22Q134.53 93.22 134.6 93.16Q134.66 93.09 134.66 92.95L134.66 85.05Q134.66 84.95 134.61 84.88Q134.53 84.78 134.32 84.78L111.9 84.78Q111.76 84.78 111.69 84.85Q111.63 84.92 111.63 85.05L111.49 133.14Q111.49 133.32 111.58 133.4Q111.66 133.49 111.83 133.49ZM150.22 133.67Q151.96 134.17 153.84 134.17Q156.53 134.17 158.86 133.25Q159.87 132.85 160.81 132.27Q162.09 131.5 163.15 130.5Q164.69 129.06 165.8 127.16Q166.49 125.96 166.92 124.66Q167.65 122.48 167.65 120.06L167.51 85.05Q167.51 84.92 167.44 84.85Q167.37 84.78 167.24 84.78L159.38 84.78Q159.24 84.78 159.17 84.85Q159.1 84.92 159.1 85.05L159.1 120.06Q159.1 121.47 158.56 122.63Q158.2 123.41 157.6 124.07Q156.86 124.88 155.95 125.29Q154.99 125.73 153.84 125.73Q152.89 125.73 152.06 125.41Q151.02 125 150.18 124.07Q149.58 123.41 149.22 122.63Q148.68 121.47 148.68 120.06L148.68 85.05Q148.68 84.92 148.61 84.85Q148.54 84.78 148.4 84.78L140.54 84.78Q140.41 84.78 140.34 84.85Q140.27 84.92 140.27 85.05L140.13 120.06Q140.13 122.35 140.8 124.42Q141.25 125.82 142 127.11Q143.02 128.9 144.44 130.28Q145.59 131.4 147 132.26Q148.54 133.2 150.22 133.67ZM180.19 133.49L188.09 133.49Q188.19 133.49 188.26 133.44Q188.36 133.35 188.36 133.14L188.29 93.22L197.49 93.22Q197.59 93.22 197.66 93.17Q197.76 93.09 197.76 92.88L197.76 85.05Q197.76 84.96 197.71 84.9Q197.63 84.78 197.38 84.78L170.79 84.78Q170.65 84.78 170.59 84.85Q170.52 84.92 170.52 85.05L170.45 92.88Q170.45 93.05 170.54 93.14Q170.62 93.22 170.79 93.22L179.88 93.22L179.88 133.14Q179.88 133.33 179.98 133.42Q180.05 133.49 180.19 133.49ZM210.41 133.67Q212.15 134.17 214.03 134.17Q216.72 134.17 219.05 133.25Q220.06 132.85 221 132.27Q222.28 131.5 223.35 130.5Q224.88 129.06 225.99 127.16Q226.68 125.96 227.11 124.66Q227.84 122.48 227.84 120.06L227.7 85.05Q227.7 84.92 227.63 84.85Q227.56 84.78 227.43 84.78L219.57 84.78Q219.43 84.78 219.36 84.85Q219.29 84.92 219.29 85.05L219.29 120.06Q219.29 121.47 218.75 122.63Q218.39 123.41 217.79 124.07Q217.05 124.88 216.14 125.29Q215.18 125.73 214.03 125.73Q213.08 125.73 212.26 125.41Q211.21 125 210.37 124.07Q209.77 123.41 209.41 122.63Q208.87 121.47 208.87 120.06L208.87 85.05Q208.87 84.92 208.8 84.85Q208.73 84.78 208.59 84.78L200.73 84.78Q200.6 84.78 200.53 84.85Q200.46 84.92 200.46 85.05L200.32 120.06Q200.32 122.35 200.99 124.42Q201.44 125.82 202.19 127.11Q203.21 128.9 204.63 130.28Q205.78 131.4 207.19 132.26Q208.74 133.2 210.41 133.67ZM233.61 133.49L241.54 133.49Q241.65 133.49 241.72 133.44Q241.82 133.35 241.82 133.14L241.89 112.57L246.5 112.57Q247.86 112.57 248.99 113.07Q250.03 113.53 250.87 114.42Q251.8 115.38 252.25 116.53Q252.65 117.58 252.65 118.79L252.65 133.28Q252.65 133.36 252.69 133.4Q252.75 133.49 252.93 133.49L260.85 133.49Q261.03 133.49 261.11 133.4Q261.2 133.32 261.2 133.14L261.13 118.79Q261.13 115.93 260.17 113.45Q259.22 111 257.33 108.91Q258.19 108.23 259.23 106.79Q260.27 105.36 261.06 103.27Q261.85 101.19 261.85 98.62Q261.85 95.66 260.76 93.16Q260.41 92.35 259.95 91.58Q259.07 90.14 257.92 88.97Q256.58 87.62 254.87 86.63Q253.65 85.92 252.35 85.48Q250.24 84.78 247.9 84.78L233.75 84.78Q233.61 84.78 233.55 84.85Q233.48 84.92 233.48 85.05L233.34 133.14Q233.34 133.35 233.44 133.44Q233.51 133.49 233.61 133.49ZM267.35 133.49L289.98 133.49Q290.11 133.49 290.18 133.42Q290.25 133.35 290.25 133.21L290.25 125.22Q290.25 125.01 290.15 124.93Q290.08 124.87 289.98 124.87L275.55 124.87L275.55 112.64L289.98 112.64Q290.11 112.64 290.18 112.57Q290.25 112.5 290.25 112.36L290.18 104.43Q290.18 104.3 290.11 104.23Q290.04 104.16 289.91 104.16L275.55 104.16L275.55 93.22L289.91 93.22Q290.04 93.22 290.11 93.16Q290.18 93.09 290.18 92.95L290.18 85.12Q290.18 84.91 290.08 84.83Q290.01 84.78 289.91 84.78L267.42 84.78Q267.28 84.78 267.21 84.85Q267.14 84.92 267.14 85.05L267.07 133.14Q267.07 133.35 267.18 133.44Q267.24 133.49 267.35 133.49ZM346.95 133.49L354.81 133.49Q354.99 133.49 355.07 133.4Q355.16 133.32 355.16 133.14L355.16 112.64L369.51 112.64Q369.72 112.64 369.8 112.54Q369.85 112.47 369.85 112.36L369.79 104.43Q369.79 104.23 369.68 104.15Q369.62 104.09 369.51 104.09L355.16 104.09L355.16 93.22L369.51 93.22Q369.65 93.22 369.72 93.16Q369.79 93.09 369.79 92.95L369.79 85.05Q369.79 84.95 369.73 84.88Q369.65 84.78 369.44 84.78L347.02 84.78Q346.89 84.78 346.82 84.85Q346.75 84.92 346.75 85.05L346.61 133.14Q346.61 133.32 346.7 133.4Q346.78 133.49 346.95 133.49ZM329.04 125.51Q328.36 125.73 327.61 125.73Q326.7 125.73 325.89 125.43Q324.8 125.03 323.92 124.07Q323.18 123.28 322.8 122.35Q322.38 121.32 322.38 120.12L322.38 97.94Q322.38 96.39 323.02 95.19Q323.37 94.53 323.92 93.98Q324.74 93.13 325.74 92.74Q326.61 92.4 327.61 92.4Q328.86 92.4 329.87 92.9Q330.68 93.29 331.33 94.01Q331.89 94.61 332.23 95.32Q332.8 96.49 332.8 97.94L332.87 120.12Q332.87 120.87 332.68 121.56Q332.33 122.87 331.3 124Q330.28 125.12 329.04 125.51ZM241.89 93.16L247.9 93.16Q248.94 93.16 249.85 93.5Q250.91 93.9 251.8 94.78Q252.72 95.69 253.13 96.8Q253.44 97.66 253.44 98.62Q253.44 99.77 253.03 100.75Q252.6 101.74 251.75 102.56Q250.66 103.59 249.37 103.96Q248.67 104.16 247.9 104.16L241.89 104.16L241.89 93.16ZM213.09 217.48Q215.14 218.17 217.43 218.17Q220.13 218.17 222.44 217.23Q223.44 216.82 224.37 216.24Q225.57 215.48 226.6 214.53Q228.18 213.05 229.32 211.1Q229.89 210.1 230.28 209.04Q231.17 206.64 231.17 203.92L231.17 200.67Q231.17 200.53 231.1 200.47Q231.03 200.4 230.9 200.4L222.97 200.4Q222.83 200.4 222.76 200.47Q222.69 200.53 222.69 200.67L222.69 203.92Q222.69 204.78 222.47 205.58Q222.11 206.84 221.19 207.93Q220.36 208.92 219.3 209.37Q218.44 209.73 217.43 209.73Q216.44 209.73 215.6 209.39Q214.59 208.99 213.77 208.11Q213.42 207.73 213.15 207.29Q212.27 205.88 212.27 203.92L212.27 182.08Q212.27 180.74 212.74 179.59Q213.06 178.81 213.6 178.11Q214.03 177.56 214.58 177.19Q215.74 176.4 217.43 176.4Q218.56 176.4 219.51 176.83Q220.44 177.25 221.19 178.08Q221.85 178.81 222.22 179.67Q222.69 180.77 222.69 182.08L222.69 185.29Q222.69 185.43 222.76 185.5Q222.83 185.56 222.97 185.56L230.83 185.56Q230.96 185.56 231.03 185.5Q231.1 185.43 231.1 185.29L231.1 182.08Q231.1 179.15 230.09 176.64Q229.74 175.77 229.27 174.95Q228.2 173.08 226.71 171.66Q225.64 170.66 224.37 169.88Q223.7 169.46 222.99 169.14Q220.47 168 217.43 168Q215 168 212.85 168.78Q211.61 169.22 210.47 169.93Q208.8 170.96 207.51 172.36Q206.39 173.56 205.57 175.04Q205.19 175.71 204.89 176.41Q203.79 179.01 203.79 182.08L203.72 203.92Q203.72 206.89 204.75 209.45Q205.1 210.31 205.55 211.11Q206.59 212.94 208.03 214.34Q209.14 215.42 210.49 216.26Q211.74 217.02 213.09 217.48ZM167.39 217.61Q169.24 218.17 171.25 218.17Q173.79 218.17 176.03 217.34Q177.13 216.94 178.16 216.33Q179.45 215.56 180.53 214.56Q182.05 213.16 183.15 211.3Q183.51 210.68 183.8 210.02Q184.99 207.34 184.99 204.12Q184.99 200.31 183.26 197.6Q183.12 197.37 182.96 197.15Q180.93 194.31 177.44 192.37Q177.23 192.26 176.24 191.73Q175.25 191.2 174.04 190.54Q172.83 189.87 171.83 189.32Q170.84 188.78 170.57 188.64Q167.97 187.24 167 185.7Q166.02 184.16 166.02 181.87Q166.02 180.73 166.42 179.75Q166.8 178.79 167.56 177.98Q168.44 177.04 169.51 176.64Q170.32 176.34 171.25 176.34Q172.22 176.34 173.06 176.65Q174.07 177.04 174.91 177.87Q175.36 178.33 175.68 178.86Q176.45 180.14 176.45 181.87L176.52 187.61Q176.52 187.75 176.58 187.82Q176.65 187.89 176.79 187.89L184.65 187.89Q184.79 187.89 184.86 187.82Q184.92 187.75 184.92 187.61L184.92 181.87Q184.92 179.09 183.96 176.7Q183.58 175.77 183.06 174.9Q182.15 173.38 180.94 172.15Q179.68 170.87 178.09 169.91Q176.86 169.18 175.54 168.74Q173.51 168.06 171.25 168.06Q169.33 168.06 167.56 168.58Q165.99 169.03 164.54 169.89Q163.21 170.68 162.1 171.7Q160.62 173.06 159.53 174.83Q158.94 175.8 158.53 176.83Q157.62 179.17 157.62 181.87Q157.62 185.48 158.96 188.48Q159.2 189 159.48 189.51Q159.56 189.66 159.65 189.82Q161.51 193.01 165.17 195.17Q166.23 195.75 167.36 196.38Q168.48 197.01 169.68 197.66Q170.88 198.31 171.75 198.81Q172.62 199.3 173.17 199.65Q176.04 201.29 176.45 203.4Q176.52 203.76 176.52 204.12Q176.52 205.11 176.21 205.99Q175.83 207.1 174.98 208.04Q174.11 209 173.02 209.41Q172.2 209.73 171.25 209.73Q170.34 209.73 169.54 209.43Q168.45 209.03 167.56 208.07Q166.83 207.28 166.45 206.35Q166.02 205.32 166.02 204.12L166.02 200.91Q166.02 200.66 165.91 200.58Q165.84 200.53 165.75 200.53L157.89 200.53Q157.73 200.53 157.65 200.61Q157.55 200.7 157.55 200.91L157.55 204.12Q157.55 206.52 158.28 208.67Q158.71 209.95 159.41 211.15Q160.44 212.92 161.86 214.29Q163 215.4 164.38 216.26Q165.83 217.14 167.39 217.61ZM89.87 217.49L97.8 217.49Q97.91 217.49 97.97 217.44Q98.07 217.35 98.07 217.15L98.14 181.43L105.42 192.09L112.77 181.43L112.84 217.15Q112.84 217.35 112.94 217.44Q113.01 217.49 113.11 217.49L121.04 217.49Q121.15 217.49 121.21 217.44Q121.32 217.35 121.32 217.15L121.18 169.06Q121.18 168.93 121.12 168.87Q121.04 168.78 120.87 168.78L112.29 168.78Q112.18 168.78 112.08 168.82Q111.91 168.88 111.78 169.06L105.42 178.28L99.03 169.06Q98.87 168.85 98.68 168.8Q98.62 168.78 98.55 168.78L90.01 168.78Q89.87 168.78 89.8 168.85Q89.73 168.92 89.73 169.06L89.6 217.15Q89.6 217.35 89.7 217.44Q89.76 217.49 89.87 217.49ZM136.43 217.67Q138.17 218.17 140.05 218.17Q142.74 218.17 145.07 217.25Q146.08 216.85 147.02 216.27Q148.29 215.5 149.36 214.5Q150.9 213.06 152.01 211.16Q152.7 209.96 153.13 208.66Q153.86 206.48 153.86 204.06L153.72 169.06Q153.72 168.92 153.65 168.85Q153.58 168.78 153.45 168.78L145.58 168.78Q145.45 168.78 145.38 168.85Q145.31 168.92 145.31 169.06L145.31 204.06Q145.31 205.47 144.77 206.63Q144.41 207.41 143.81 208.07Q143.07 208.88 142.16 209.29Q141.2 209.73 140.05 209.73Q139.1 209.73 138.27 209.41Q137.23 209 136.39 208.07Q135.79 207.41 135.43 206.63Q134.89 205.47 134.89 204.06L134.89 169.06Q134.89 168.92 134.82 168.85Q134.75 168.78 134.61 168.78L126.75 168.78Q126.61 168.78 126.55 168.85Q126.48 168.92 126.48 169.06L126.34 204.06Q126.34 206.35 127.01 208.42Q127.46 209.82 128.2 211.11Q129.23 212.9 130.65 214.28Q131.8 215.4 133.21 216.26Q134.75 217.2 136.43 217.67ZM190.19 217.49L198.12 217.49Q198.22 217.49 198.29 217.44Q198.39 217.35 198.39 217.15L198.32 169.06Q198.32 168.92 198.25 168.85Q198.19 168.78 198.05 168.78L190.19 168.78Q190.05 168.78 189.98 168.85Q189.91 168.92 189.91 169.06L189.85 217.15Q189.85 217.32 189.93 217.4Q190.02 217.49 190.19 217.49ZM266.34 217.56L278.78 217.49Q278.92 217.49 278.99 217.42Q279.06 217.35 279.06 217.21L279.12 195.31L285.31 195.31Q285.45 195.31 285.51 195.24Q285.58 195.17 285.58 195.03L285.58 187.24Q285.58 187.08 285.51 187Q285.41 186.9 285.21 186.9L266.17 186.9Q264.48 186.9 263.44 186.07Q263.16 185.85 262.92 185.56Q261.83 184.23 261.83 181.87Q261.83 180.74 262.25 179.8Q262.57 179.09 263.13 178.49Q263.96 177.59 264.98 177.27Q265.54 177.09 266.17 177.09L275.71 177.09Q275.91 177.09 276.01 176.98Q276.12 176.88 276.12 176.68L276.12 169.26Q276.12 169.02 276 168.9Q275.88 168.78 275.64 168.78L266.17 168.78Q263.8 168.78 261.72 169.56Q260.68 169.94 259.71 170.52Q258.4 171.31 257.33 172.35Q256.03 173.61 255.1 175.24Q254.54 176.22 254.17 177.26Q253.39 179.42 253.39 181.87Q253.39 184.74 254.22 187.08Q255.06 189.43 256.53 191.03Q255.58 191.95 254.82 193Q254.13 193.95 253.59 195.01Q252.78 196.62 252.55 198.3Q252.46 198.97 252.46 199.65L252.46 204.26Q252.46 207.34 254.22 210.41Q254.75 211.33 255.4 212.16Q256.92 214.09 259.09 215.51Q259.83 215.98 260.62 216.35Q263.2 217.56 266.34 217.56ZM270.89 209.08L266.34 209.15Q264.64 209.15 263.41 208.38L263.4 208.38Q262.4 207.75 261.76 206.86Q261.61 206.66 261.49 206.45Q260.8 205.29 260.8 204.26L260.8 199.65Q260.8 199.41 260.84 199.18Q261.11 197.44 263.44 196.02Q263.82 195.79 264.23 195.64Q265.1 195.31 266.1 195.31L270.95 195.31L270.89 209.08ZM96.47 301.48Q98.52 302.17 100.81 302.17Q103.51 302.17 105.82 301.23Q106.82 300.82 107.75 300.24Q108.95 299.48 109.97 298.53Q111.56 297.05 112.7 295.1Q113.27 294.1 113.66 293.04Q114.55 290.64 114.55 287.92L114.55 284.67Q114.55 284.53 114.48 284.47Q114.41 284.4 114.28 284.4L106.35 284.4Q106.21 284.4 106.14 284.47Q106.07 284.53 106.07 284.67L106.07 287.92Q106.07 288.78 105.85 289.58Q105.49 290.84 104.57 291.93Q103.74 292.92 102.68 293.37Q101.82 293.73 100.81 293.73Q99.82 293.73 98.97 293.39Q97.97 292.99 97.15 292.1Q96.8 291.73 96.53 291.29Q95.65 289.88 95.65 287.92L95.65 266.08Q95.65 264.74 96.12 263.59Q96.44 262.81 96.98 262.11Q97.41 261.56 97.96 261.19Q99.11 260.4 100.81 260.4Q101.94 260.4 102.89 260.83Q103.82 261.25 104.57 262.08Q105.23 262.81 105.6 263.67Q106.07 264.77 106.07 266.08L106.07 269.29Q106.07 269.43 106.14 269.5Q106.21 269.56 106.35 269.56L114.21 269.56Q114.34 269.56 114.41 269.5Q114.48 269.43 114.48 269.29L114.48 266.08Q114.48 263.15 113.47 260.64Q113.12 259.77 112.65 258.95Q111.58 257.08 110.08 255.66Q109.02 254.66 107.75 253.88Q107.08 253.46 106.37 253.14Q103.85 252 100.81 252Q98.37 252 96.22 252.78Q94.99 253.22 93.85 253.93Q92.17 254.96 90.89 256.36Q89.77 257.56 88.95 259.04Q88.57 259.71 88.27 260.41Q87.17 263.01 87.17 266.08L87.1 287.92Q87.1 290.89 88.13 293.45Q88.47 294.31 88.93 295.11Q89.96 296.94 91.41 298.34Q92.52 299.42 93.87 300.26Q95.12 301.02 96.47 301.48ZM128.7 301.61Q130.55 302.17 132.56 302.17Q134.94 302.17 137.06 301.42Q138.31 300.97 139.47 300.26Q140.77 299.46 141.86 298.43Q143.36 297 144.46 295.13Q145.1 294.01 145.52 292.82Q146.3 290.61 146.3 288.12L146.23 265.94Q146.23 263.3 145.36 260.99Q144.96 259.92 144.37 258.92Q143.3 257.1 141.83 255.7Q140.74 254.67 139.43 253.88Q138.59 253.36 137.7 252.98Q135.34 252 132.56 252Q130.65 252 128.88 252.5Q127.24 252.98 125.73 253.89Q124.06 254.9 122.76 256.25Q121.6 257.45 120.74 258.93Q120.24 259.75 119.88 260.62Q118.86 263.07 118.86 265.94L118.79 288.12Q118.79 290.44 119.48 292.53Q119.94 293.89 120.68 295.15Q121.78 296.99 123.27 298.4Q124.37 299.45 125.69 300.26Q127.13 301.14 128.7 301.61ZM65.47 301.61Q67.31 302.17 69.33 302.17Q71.87 302.17 74.1 301.34Q75.2 300.94 76.23 300.32Q77.52 299.56 78.6 298.56Q80.12 297.16 81.22 295.3Q81.58 294.68 81.88 294.02Q83.07 291.34 83.07 288.12Q83.07 284.31 81.34 281.6Q81.19 281.37 81.04 281.15Q79 278.31 75.51 276.37Q75.31 276.26 74.32 275.73Q73.33 275.2 72.11 274.54Q70.9 273.87 69.91 273.32Q68.92 272.78 68.64 272.64Q66.05 271.24 65.07 269.7Q64.1 268.16 64.1 265.87Q64.1 264.73 64.49 263.75Q64.88 262.79 65.64 261.98Q66.51 261.04 67.58 260.64Q68.4 260.34 69.33 260.34Q70.29 260.34 71.14 260.65Q72.15 261.04 72.99 261.87Q73.44 262.32 73.76 262.86Q74.52 264.14 74.52 265.87L74.59 271.61Q74.59 271.75 74.66 271.82Q74.73 271.89 74.87 271.89L82.73 271.89Q82.86 271.89 82.93 271.82Q83 271.75 83 271.61L83 265.87Q83 263.09 82.04 260.7Q81.66 259.77 81.14 258.9Q80.23 257.38 79.01 256.15Q77.75 254.87 76.16 253.91Q74.94 253.18 73.62 252.74Q71.58 252.06 69.33 252.06Q67.41 252.06 65.64 252.58Q64.07 253.03 62.61 253.89Q61.28 254.68 60.17 255.7Q58.7 257.06 57.6 258.83Q57.02 259.8 56.61 260.83Q55.69 263.17 55.69 265.87Q55.69 269.48 57.04 272.48Q57.28 273 57.55 273.51Q57.64 273.66 57.73 273.82Q59.59 277.01 63.24 279.17Q64.3 279.75 65.43 280.38Q66.56 281.01 67.76 281.66Q68.95 282.31 69.82 282.81Q70.7 283.3 71.24 283.65Q74.11 285.29 74.52 287.4Q74.59 287.76 74.59 288.12Q74.59 289.11 74.29 289.99Q73.91 291.1 73.05 292.04Q72.18 293 71.1 293.41Q70.27 293.73 69.33 293.73Q68.42 293.73 67.61 293.43Q66.52 293.03 65.64 292.07Q64.9 291.28 64.52 290.35Q64.1 289.32 64.1 288.12L64.1 284.91Q64.1 284.66 63.98 284.58Q63.92 284.53 63.83 284.53L55.96 284.53Q55.81 284.53 55.72 284.61Q55.62 284.7 55.62 284.91L55.62 288.12Q55.62 290.52 56.35 292.67Q56.79 293.95 57.49 295.15Q58.52 296.92 59.93 298.29Q61.07 299.4 62.46 300.26Q63.9 301.14 65.47 301.61ZM10.06 301.49L22.6 301.42Q25.86 301.37 28.58 300.14Q29.32 299.81 30.02 299.39Q31.53 298.49 32.76 297.3Q34.21 295.9 35.29 294.1Q35.97 292.92 36.42 291.65Q37.23 289.33 37.23 286.72L37.23 266.62Q37.23 264.17 36.46 261.98Q36.03 260.73 35.34 259.57Q34.34 257.89 32.99 256.57Q31.77 255.38 30.26 254.49Q29.31 253.92 28.29 253.53Q25.94 252.64 23.22 252.71L10.13 252.78Q9.99 252.78 9.92 252.85Q9.86 252.92 9.86 253.06L9.72 301.15Q9.72 301.32 9.8 301.4Q9.89 301.49 10.06 301.49ZM43.08 301.49L51.01 301.49Q51.11 301.49 51.18 301.44Q51.28 301.35 51.28 301.15L51.21 253.06Q51.21 252.92 51.14 252.85Q51.08 252.78 50.94 252.78L43.08 252.78Q42.94 252.78 42.87 252.85Q42.81 252.92 42.81 253.06L42.74 301.15Q42.74 301.32 42.82 301.4Q42.91 301.49 43.08 301.49ZM159.43 301.49L167.9 301.49Q168.04 301.49 168.12 301.42Q168.23 301.34 168.25 301.15L177.75 253.06Q177.79 252.94 177.75 252.88Q177.7 252.78 177.47 252.78L169.65 252.78Q169.52 252.78 169.43 252.84Q169.34 252.91 169.3 253.06L163.7 285.12L157.96 253.06Q157.92 252.91 157.83 252.84Q157.75 252.78 157.62 252.78L149.69 252.78Q149.49 252.78 149.43 252.87Q149.38 252.94 149.41 253.06L159.08 301.15Q159.1 301.34 159.21 301.42Q159.29 301.49 159.43 301.49ZM182.12 301.49L204.75 301.49Q204.89 301.49 204.95 301.42Q205.02 301.35 205.02 301.21L205.02 293.22Q205.02 293.01 204.92 292.93Q204.86 292.87 204.75 292.87L190.33 292.87L190.33 280.64L204.75 280.64Q204.89 280.64 204.95 280.57Q205.02 280.5 205.02 280.36L204.95 272.43Q204.95 272.3 204.89 272.23Q204.82 272.16 204.68 272.16L190.33 272.16L190.33 261.22L204.68 261.22Q204.82 261.22 204.89 261.16Q204.95 261.09 204.95 260.95L204.95 253.12Q204.95 252.92 204.85 252.83Q204.79 252.78 204.68 252.78L182.19 252.78Q182.05 252.78 181.99 252.85Q181.92 252.92 181.92 253.06L181.85 301.15Q181.85 301.35 181.95 301.44Q182.02 301.49 182.12 301.49ZM211.52 301.49L219.45 301.49Q219.55 301.49 219.62 301.44Q219.72 301.35 219.72 301.15L219.79 280.57L224.4 280.57Q225.76 280.57 226.89 281.07Q227.93 281.53 228.78 282.42Q229.71 283.38 230.15 284.53Q230.55 285.58 230.55 286.79L230.55 301.28Q230.55 301.36 230.59 301.4Q230.65 301.49 230.83 301.49L238.76 301.49Q238.93 301.49 239.01 301.4Q239.1 301.32 239.1 301.15L239.03 286.79Q239.03 283.93 238.07 281.45Q237.12 279 235.24 276.91Q236.09 276.23 237.13 274.79Q238.18 273.36 238.96 271.27Q239.75 269.19 239.75 266.62Q239.75 263.66 238.67 261.16Q238.32 260.35 237.85 259.58Q236.97 258.14 235.82 256.97Q234.48 255.62 232.78 254.63Q231.56 253.92 230.25 253.48Q228.14 252.78 225.8 252.78L211.65 252.78Q211.52 252.78 211.45 252.85Q211.38 252.92 211.38 253.06L211.24 301.15Q211.24 301.35 211.34 301.44Q211.41 301.49 211.52 301.49ZM263.78 301.49L270.78 301.49Q271.16 301.49 271.32 301.3Q271.43 301.17 271.43 300.94L270.92 275.72L283.05 301.49L289.21 301.49Q289.35 301.49 289.43 301.42Q289.55 301.32 289.55 301.08L289.48 253.33Q289.48 252.98 289.31 252.85Q289.22 252.78 289.07 252.78L282.13 252.78Q281.79 252.78 281.64 252.95Q281.52 253.09 281.52 253.33L281.86 280.36L270.03 252.78L263.71 252.78Q263.44 252.78 263.3 252.92Q263.16 253.06 263.16 253.33L263.23 301.01Q263.23 301.22 263.33 301.33Q263.47 301.49 263.78 301.49ZM295.91 301.49L318.53 301.49Q318.67 301.49 318.74 301.42Q318.81 301.35 318.81 301.21L318.81 293.22Q318.81 293.01 318.7 292.93Q318.64 292.87 318.53 292.87L304.11 292.87L304.11 280.64L318.53 280.64Q318.67 280.64 318.74 280.57Q318.81 280.5 318.81 280.36L318.74 272.43Q318.74 272.3 318.67 272.23Q318.6 272.16 318.46 272.16L304.11 272.16L304.11 261.22L318.46 261.22Q318.6 261.22 318.67 261.16Q318.74 261.09 318.74 260.95L318.74 253.12Q318.74 252.92 318.64 252.83Q318.57 252.78 318.46 252.78L295.97 252.78Q295.84 252.78 295.77 252.85Q295.7 252.92 295.7 253.06L295.63 301.15Q295.63 301.35 295.73 301.44Q295.8 301.49 295.91 301.49ZM331.49 301.49L339.96 301.49Q340.1 301.49 340.18 301.42Q340.29 301.34 340.31 301.15L343.86 276.02L347.45 301.15Q347.57 301.45 347.74 301.48Q347.77 301.49 347.79 301.49L356.27 301.49L356.4 301.39Q356.58 301.28 356.61 301.15L364.95 253.06Q364.98 252.94 364.93 252.87Q364.87 252.78 364.68 252.78L356.88 252.78Q356.75 252.78 356.67 252.84Q356.58 252.91 356.54 253.06L352 284.67L347.45 253.06Q347.41 252.91 347.32 252.84Q347.24 252.78 347.11 252.78L340.78 252.78Q340.57 252.78 340.46 252.89Q340.4 252.95 340.37 253.06L335.76 284.67L331.28 253.06Q331.25 252.91 331.16 252.84Q331.07 252.78 330.94 252.78L323.08 252.78Q322.95 252.78 322.89 252.85Q322.84 252.92 322.87 253.06L331.15 301.15Q331.16 301.34 331.27 301.42Q331.35 301.49 331.49 301.49ZM133.99 293.51Q133.31 293.73 132.56 293.73Q131.65 293.73 130.85 293.43Q129.76 293.03 128.87 292.07Q128.14 291.28 127.75 290.35Q127.33 289.32 127.33 288.12L127.33 265.94Q127.33 264.4 127.97 263.19Q128.33 262.53 128.87 261.98Q129.69 261.13 130.69 260.74Q131.56 260.4 132.56 260.4Q133.81 260.4 134.82 260.9Q135.63 261.29 136.29 262.01Q136.84 262.61 137.19 263.32Q137.76 264.49 137.76 265.94L137.83 288.12Q137.83 288.87 137.64 289.56Q137.28 290.87 136.25 292Q135.24 293.12 133.99 293.51ZM18.33 261.16L23.22 261.09Q24.23 261.06 25.12 261.37Q26.21 261.76 27.12 262.68Q28.07 263.64 28.47 264.8Q28.76 265.63 28.76 266.56L28.76 286.72Q28.76 287.97 28.32 289.05Q27.88 290.15 26.98 291.06Q26.16 291.9 25.17 292.35Q24 292.87 22.6 292.87L18.26 292.87L18.33 261.16ZM219.79 261.16L225.8 261.16Q226.84 261.16 227.75 261.5Q228.81 261.9 229.7 262.78Q230.63 263.7 231.03 264.8Q231.34 265.66 231.34 266.62Q231.34 267.77 230.93 268.75Q230.51 269.74 229.65 270.56Q228.56 271.59 227.28 271.96Q226.57 272.16 225.8 272.16L219.79 272.16L219.79 261.16ZM12.15 385.61Q13.99 386.17 16.01 386.17Q18.39 386.17 20.5 385.42Q21.75 384.97 22.91 384.26Q24.22 383.46 25.3 382.43Q26.81 381 27.9 379.13Q28.55 378.02 28.97 376.82Q29.75 374.61 29.75 372.12L29.68 349.94Q29.68 347.3 28.81 344.99Q28.41 343.92 27.82 342.92Q26.75 341.1 25.27 339.7Q24.18 338.67 22.88 337.88Q22.04 337.36 21.14 336.98Q18.78 336 16.01 336Q14.1 336 12.33 336.5Q10.69 336.98 9.17 337.89Q7.51 338.9 6.21 340.25Q5.05 341.45 4.18 342.93Q3.69 343.75 3.33 344.62Q2.3 347.07 2.3 349.94L2.23 372.12Q2.23 374.44 2.93 376.53Q3.38 377.89 4.13 379.15Q5.22 380.99 6.72 382.4Q7.82 383.45 9.14 384.26Q10.58 385.14 12.15 385.61ZM109.18 385.61Q111.03 386.17 113.04 386.17Q115.43 386.17 117.54 385.42Q118.79 384.97 119.95 384.26Q121.25 383.46 122.34 382.43Q123.85 381 124.94 379.13Q125.59 378.02 126.01 376.82Q126.79 374.61 126.79 372.12L126.72 349.94Q126.72 347.3 125.85 344.99Q125.44 343.92 124.85 342.92Q123.78 341.1 122.31 339.7Q121.22 338.67 119.91 337.88Q119.08 337.36 118.18 336.98Q115.82 336 113.04 336Q111.13 336 109.37 336.5Q107.72 336.98 106.21 337.89Q104.54 338.9 103.24 340.25Q102.09 341.45 101.22 342.93Q100.73 343.75 100.36 344.62Q99.34 347.07 99.34 349.94L99.27 372.12Q99.27 374.44 99.97 376.53Q100.42 377.89 101.17 379.15Q102.26 380.99 103.76 382.4Q104.86 383.45 106.17 384.26Q107.62 385.14 109.18 385.61ZM353.26 385.61Q355.11 386.17 357.12 386.17Q359.66 386.17 361.9 385.34Q363 384.94 364.03 384.33Q365.32 383.56 366.4 382.56Q367.92 381.16 369.02 379.3Q369.38 378.68 369.67 378.02Q370.86 375.34 370.86 372.12Q370.86 368.31 369.13 365.6Q368.99 365.37 368.83 365.15Q366.79 362.31 363.31 360.37Q363.1 360.26 362.11 359.73Q361.12 359.2 359.91 358.54Q358.69 357.87 357.7 357.32Q356.71 356.78 356.44 356.64Q353.84 355.24 352.87 353.7Q351.89 352.16 351.89 349.87Q351.89 348.73 352.29 347.75Q352.67 346.79 353.43 345.98Q354.3 345.04 355.38 344.64Q356.19 344.34 357.12 344.34Q358.09 344.34 358.93 344.65Q359.94 345.04 360.78 345.87Q361.23 346.33 361.55 346.86Q362.32 348.14 362.32 349.87L362.39 355.61Q362.39 355.75 362.45 355.82Q362.52 355.89 362.66 355.89L370.52 355.89Q370.66 355.89 370.73 355.82Q370.79 355.75 370.79 355.61L370.79 349.87Q370.79 347.09 369.83 344.7Q369.45 343.77 368.93 342.9Q368.02 341.38 366.81 340.15Q365.55 338.87 363.96 337.91Q362.73 337.18 361.41 336.74Q359.38 336.06 357.12 336.06Q355.2 336.06 353.43 336.58Q351.86 337.03 350.41 337.89Q349.08 338.68 347.96 339.7Q346.49 341.06 345.4 342.83Q344.81 343.8 344.4 344.83Q343.48 347.17 343.48 349.87Q343.48 353.48 344.83 356.48Q345.07 357 345.35 357.51Q345.43 357.66 345.52 357.82Q347.38 361.01 351.04 363.17Q352.1 363.75 353.23 364.38Q354.35 365.01 355.55 365.66Q356.75 366.31 357.62 366.81Q358.49 367.3 359.04 367.65Q361.91 369.29 362.32 371.4Q362.39 371.76 362.39 372.12Q362.39 373.11 362.08 373.99Q361.7 375.1 360.85 376.04Q359.97 377 358.89 377.41Q358.07 377.73 357.12 377.73Q356.21 377.73 355.41 377.43Q354.32 377.03 353.43 376.07Q352.7 375.28 352.31 374.35Q351.89 373.32 351.89 372.12L351.89 368.91Q351.89 368.66 351.78 368.58Q351.71 368.53 351.62 368.53L343.76 368.53Q343.6 368.53 343.52 368.61Q343.42 368.7 343.42 368.91L343.42 372.12Q343.42 374.52 344.14 376.67Q344.58 377.95 345.28 379.15Q346.31 380.92 347.73 382.29Q348.86 383.4 350.25 384.26Q351.7 385.14 353.26 385.61ZM35.35 385.49L43.22 385.49Q43.39 385.49 43.47 385.4Q43.56 385.32 43.56 385.15L43.56 367.51L48.89 367.51Q50.65 367.51 52.29 367.06Q54.08 366.56 55.73 365.53Q56.04 365.33 56.34 365.12Q59.07 363.18 60.85 359.92Q62.8 356.26 62.8 351.34Q62.8 345.52 60 341.81Q59.56 341.22 59.06 340.7Q58.18 339.78 57.16 339.08Q53.81 336.78 48.89 336.78L35.42 336.78Q35.29 336.78 35.22 336.85Q35.15 336.92 35.15 337.06L35.01 385.15Q35.01 385.32 35.1 385.4Q35.18 385.49 35.35 385.49ZM67.89 385.49L75.75 385.49Q75.93 385.49 76.01 385.4Q76.1 385.32 76.1 385.15L76.1 367.51L81.43 367.51Q83.19 367.51 84.83 367.06Q86.62 366.56 88.26 365.53Q88.58 365.33 88.88 365.12Q91.61 363.18 93.39 359.92Q95.34 356.26 95.34 351.34Q95.34 345.52 92.54 341.81Q92.1 341.22 91.6 340.7Q90.72 339.78 89.7 339.08Q86.35 336.78 81.43 336.78L67.96 336.78Q67.82 336.78 67.76 336.85Q67.69 336.92 67.69 337.06L67.55 385.15Q67.55 385.32 67.64 385.4Q67.72 385.49 67.89 385.49ZM132.32 385.49L140.25 385.49Q140.36 385.49 140.42 385.44Q140.53 385.35 140.53 385.15L140.59 364.57L145.21 364.57Q146.56 364.57 147.7 365.07Q148.73 365.53 149.58 366.42Q150.51 367.38 150.96 368.53Q151.36 369.58 151.36 370.79L151.36 385.28Q151.36 385.36 151.39 385.4Q151.46 385.49 151.63 385.49L159.56 385.49Q159.73 385.49 159.82 385.4Q159.91 385.32 159.91 385.15L159.84 370.79Q159.84 367.93 158.87 365.45Q157.92 363 156.04 360.91Q156.9 360.23 157.94 358.79Q158.98 357.36 159.77 355.27Q160.55 353.19 160.55 350.62Q160.55 347.66 159.47 345.16Q159.12 344.35 158.66 343.58Q157.78 342.14 156.62 340.97Q155.29 339.62 153.58 338.63Q152.36 337.92 151.05 337.48Q148.95 336.78 146.61 336.78L132.46 336.78Q132.32 336.78 132.25 336.85Q132.19 336.92 132.19 337.06L132.05 385.15Q132.05 385.35 132.15 385.44Q132.22 385.49 132.32 385.49ZM172.83 385.49L180.72 385.49Q180.83 385.49 180.89 385.44Q180.99 385.35 180.99 385.15L180.93 345.22L190.12 345.22Q190.23 345.22 190.29 345.17Q190.39 345.09 190.39 344.88L190.39 337.06Q190.39 336.96 190.35 336.9Q190.26 336.78 190.02 336.78L163.42 336.78Q163.29 336.78 163.22 336.85Q163.15 336.92 163.15 337.06L163.08 344.88Q163.08 345.05 163.17 345.14Q163.25 345.22 163.42 345.22L172.52 345.22L172.52 385.15Q172.52 385.33 172.61 385.42Q172.69 385.49 172.83 385.49ZM203.04 385.67Q204.78 386.17 206.66 386.17Q209.36 386.17 211.68 385.25Q212.69 384.85 213.64 384.27Q214.91 383.5 215.98 382.5Q217.52 381.06 218.63 379.16Q219.31 377.96 219.74 376.66Q220.47 374.48 220.47 372.06L220.33 337.06Q220.33 336.92 220.27 336.85Q220.2 336.78 220.06 336.78L212.2 336.78Q212.06 336.78 212 336.85Q211.93 336.92 211.93 337.06L211.93 372.06Q211.93 373.47 211.38 374.63Q211.02 375.41 210.42 376.07Q209.69 376.88 208.78 377.29Q207.82 377.73 206.66 377.73Q205.71 377.73 204.89 377.41Q203.85 377 203.01 376.07Q202.4 375.41 202.04 374.63Q201.5 373.47 201.5 372.06L201.5 337.06Q201.5 336.92 201.43 336.85Q201.37 336.78 201.23 336.78L193.37 336.78Q193.23 336.78 193.16 336.85Q193.09 336.92 193.09 337.06L192.96 372.06Q192.96 374.35 193.62 376.42Q194.07 377.82 194.82 379.11Q195.85 380.9 197.27 382.28Q198.42 383.4 199.83 384.26Q201.37 385.2 203.04 385.67ZM226.59 385.49L233.6 385.49Q233.98 385.49 234.13 385.3Q234.25 385.17 234.25 384.94L233.73 359.72L245.87 385.49L252.02 385.49Q252.16 385.49 252.24 385.42Q252.36 385.32 252.36 385.08L252.29 337.33Q252.29 336.98 252.12 336.85Q252.03 336.78 251.88 336.78L244.94 336.78Q244.6 336.78 244.45 336.95Q244.33 337.09 244.33 337.33L244.67 364.36L232.84 336.78L226.52 336.78Q226.25 336.78 226.11 336.92Q225.97 337.06 225.97 337.33L226.04 385.01Q226.04 385.22 226.15 385.33Q226.28 385.49 226.59 385.49ZM258.79 385.49L266.72 385.49Q266.82 385.49 266.89 385.44Q266.99 385.35 266.99 385.15L266.92 337.06Q266.92 336.92 266.85 336.85Q266.79 336.78 266.65 336.78L258.79 336.78Q258.65 336.78 258.58 336.85Q258.51 336.92 258.51 337.06L258.45 385.15Q258.45 385.32 258.53 385.4Q258.62 385.49 258.79 385.49ZM280.18 385.49L288.08 385.49Q288.19 385.49 288.25 385.44Q288.35 385.35 288.35 385.15L288.28 345.22L297.48 345.22Q297.59 345.22 297.65 345.17Q297.75 345.09 297.75 344.88L297.75 337.06Q297.75 336.96 297.71 336.9Q297.62 336.78 297.38 336.78L270.78 336.78Q270.65 336.78 270.58 336.85Q270.51 336.92 270.51 337.06L270.44 344.88Q270.44 345.05 270.53 345.14Q270.61 345.22 270.78 345.22L279.88 345.22L279.88 385.15Q279.88 385.33 279.97 385.42Q280.04 385.49 280.18 385.49ZM301.48 385.49L309.41 385.49Q309.51 385.49 309.58 385.44Q309.68 385.35 309.68 385.15L309.61 337.06Q309.61 336.92 309.54 336.85Q309.48 336.78 309.34 336.78L301.48 336.78Q301.34 336.78 301.27 336.85Q301.2 336.92 301.2 337.06L301.14 385.15Q301.14 385.32 301.22 385.4Q301.31 385.49 301.48 385.49ZM316.11 385.49L338.73 385.49Q338.87 385.49 338.94 385.42Q339.01 385.35 339.01 385.21L339.01 377.22Q339.01 377.01 338.91 376.93Q338.84 376.87 338.73 376.87L324.31 376.87L324.31 364.64L338.73 364.64Q338.87 364.64 338.94 364.57Q339.01 364.5 339.01 364.36L338.94 356.43Q338.94 356.3 338.87 356.23Q338.8 356.16 338.66 356.16L324.31 356.16L324.31 345.22L338.66 345.22Q338.8 345.22 338.87 345.16Q338.94 345.09 338.94 344.95L338.94 337.12Q338.94 336.92 338.84 336.83Q338.77 336.78 338.66 336.78L316.17 336.78Q316.04 336.78 315.97 336.85Q315.9 336.92 315.9 337.06L315.83 385.15Q315.83 385.35 315.93 385.44Q316 385.49 316.11 385.49ZM17.44 377.51Q16.76 377.73 16.01 377.73Q15.1 377.73 14.29 377.43Q13.2 377.03 12.32 376.07Q11.58 375.28 11.2 374.35Q10.78 373.32 10.78 372.12L10.78 349.94Q10.78 348.4 11.42 347.19Q11.77 346.53 12.32 345.98Q13.14 345.13 14.14 344.74Q15.01 344.4 16.01 344.4Q17.26 344.4 18.27 344.9Q19.08 345.29 19.73 346.01Q20.29 346.61 20.63 347.32Q21.2 348.49 21.2 349.94L21.27 372.12Q21.27 372.87 21.08 373.56Q20.73 374.87 19.7 376Q18.68 377.12 17.44 377.51ZM114.47 377.51Q113.79 377.73 113.04 377.73Q112.13 377.73 111.33 377.43Q110.24 377.03 109.35 376.07Q108.62 375.28 108.24 374.35Q107.82 373.32 107.82 372.12L107.82 349.94Q107.82 348.4 108.46 347.19Q108.81 346.53 109.35 345.98Q110.18 345.13 111.18 344.74Q112.04 344.4 113.04 344.4Q114.3 344.4 115.3 344.9Q116.12 345.29 116.77 346.01Q117.32 346.61 117.67 347.32Q118.24 348.49 118.24 349.94L118.31 372.12Q118.31 372.87 118.12 373.56Q117.76 374.87 116.74 376Q115.72 377.12 114.47 377.51ZM43.56 345.16L48.89 345.09Q50.56 345.09 51.77 345.84Q52.41 346.24 52.92 346.85Q53.13 347.1 53.31 347.37Q54.39 349 54.39 351.34Q54.39 354.76 52.75 356.9Q51.54 358.47 50.02 358.88Q49.47 359.03 48.89 359.03L43.56 359.03L43.56 345.16ZM76.1 345.16L81.43 345.09Q83.1 345.09 84.31 345.84Q84.95 346.24 85.46 346.85Q85.67 347.1 85.85 347.37Q86.93 349 86.93 351.34Q86.93 354.76 85.29 356.9Q84.08 358.47 82.56 358.88Q82.01 359.03 81.43 359.03L76.1 359.03L76.1 345.16ZM140.59 345.16L146.61 345.16Q147.65 345.16 148.56 345.5Q149.62 345.9 150.5 346.78Q151.43 347.7 151.83 348.8Q152.15 349.66 152.15 350.62Q152.15 351.77 151.73 352.75Q151.31 353.74 150.45 354.56Q149.36 355.59 148.08 355.96Q147.38 356.16 146.61 356.16L140.59 356.16L140.59 345.16ZM269.33 469.61Q271.18 470.17 273.19 470.17Q275.73 470.17 277.97 469.34Q279.07 468.94 280.1 468.33Q281.39 467.56 282.47 466.56Q283.99 465.16 285.09 463.3Q285.45 462.68 285.74 462.02Q286.93 459.34 286.93 456.12Q286.93 452.31 285.2 449.6Q285.06 449.37 284.9 449.15Q282.87 446.31 279.38 444.37Q279.18 444.26 278.18 443.73Q277.19 443.2 275.98 442.54Q274.77 441.87 273.77 441.32Q272.78 440.78 272.51 440.64Q269.91 439.24 268.94 437.7Q267.96 436.16 267.96 433.87Q267.96 432.73 268.36 431.75Q268.74 430.79 269.5 429.98Q270.38 429.04 271.45 428.64Q272.26 428.34 273.19 428.34Q274.16 428.34 275 428.65Q276.01 429.04 276.85 429.87Q277.3 430.33 277.62 430.86Q278.39 432.14 278.39 433.87L278.46 439.61Q278.46 439.75 278.53 439.82Q278.59 439.89 278.73 439.89L286.59 439.89Q286.73 439.89 286.8 439.82Q286.87 439.75 286.87 439.61L286.87 433.87Q286.87 431.09 285.9 428.7Q285.52 427.77 285 426.9Q284.09 425.38 282.88 424.15Q281.62 422.87 280.03 421.91Q278.8 421.18 277.48 420.74Q275.45 420.06 273.19 420.06Q271.28 420.06 269.5 420.58Q267.93 421.03 266.48 421.89Q265.15 422.68 264.04 423.7Q262.56 425.06 261.47 426.83Q260.88 427.8 260.47 428.83Q259.56 431.17 259.56 433.87Q259.56 437.48 260.9 440.48Q261.14 441 261.42 441.51Q261.5 441.66 261.59 441.82Q263.45 445.01 267.11 447.17Q268.17 447.75 269.3 448.38Q270.43 449.01 271.62 449.66Q272.82 450.31 273.69 450.81Q274.56 451.3 275.11 451.65Q277.98 453.29 278.39 455.4Q278.46 455.76 278.46 456.12Q278.46 457.11 278.15 457.99Q277.77 459.1 276.92 460.04Q276.05 461 274.96 461.41Q274.14 461.73 273.19 461.73Q272.28 461.73 271.48 461.43Q270.39 461.03 269.5 460.07Q268.77 459.28 268.39 458.35Q267.96 457.32 267.96 456.12L267.96 452.91Q267.96 452.66 267.85 452.58Q267.79 452.53 267.69 452.53L259.83 452.53Q259.67 452.53 259.59 452.61Q259.49 452.7 259.49 452.91L259.49 456.12Q259.49 458.52 260.22 460.67Q260.65 461.95 261.35 463.15Q262.38 464.92 263.8 466.29Q264.94 467.4 266.32 468.26Q267.77 469.14 269.33 469.61ZM97.44 469.49L105.92 469.49Q106.05 469.49 106.14 469.42Q106.24 469.34 106.26 469.15L109.81 444.02L113.4 469.15Q113.52 469.45 113.7 469.48Q113.72 469.49 113.75 469.49L122.22 469.49L122.36 469.39Q122.53 469.28 122.56 469.15L130.9 421.06Q130.93 420.94 130.89 420.87Q130.83 420.78 130.63 420.78L122.84 420.78Q122.71 420.78 122.62 420.84Q122.53 420.91 122.5 421.06L117.95 452.67L113.4 421.06Q113.37 420.91 113.28 420.84Q113.19 420.78 113.06 420.78L106.74 420.78Q106.53 420.78 106.42 420.89Q106.35 420.95 106.33 421.06L101.71 452.67L97.24 421.06Q97.2 420.91 97.11 420.84Q97.03 420.78 96.89 420.78L89.03 420.78Q88.9 420.78 88.85 420.85Q88.79 420.92 88.83 421.06L97.1 469.15Q97.12 469.34 97.22 469.42Q97.31 469.49 97.44 469.49ZM135.35 469.49L143.28 469.49Q143.38 469.49 143.45 469.44Q143.55 469.35 143.55 469.15L143.48 421.06Q143.48 420.92 143.41 420.85Q143.35 420.78 143.21 420.78L135.35 420.78Q135.21 420.78 135.14 420.85Q135.07 420.92 135.07 421.06L135 469.15Q135 469.32 135.09 469.4Q135.18 469.49 135.35 469.49ZM156.74 469.49L164.64 469.49Q164.75 469.49 164.81 469.44Q164.91 469.35 164.91 469.15L164.84 429.22L174.04 429.22Q174.15 429.22 174.21 429.17Q174.31 429.09 174.31 428.88L174.31 421.06Q174.31 420.96 174.27 420.9Q174.18 420.78 173.94 420.78L147.34 420.78Q147.21 420.78 147.14 420.85Q147.07 420.92 147.07 421.06L147 428.88Q147 429.05 147.09 429.14Q147.17 429.22 147.34 429.22L156.44 429.22L156.44 469.15Q156.44 469.33 156.53 469.42Q156.61 469.49 156.74 469.49ZM177.97 469.49L185.9 469.49Q186.01 469.49 186.07 469.44Q186.17 469.35 186.17 469.15L186.17 448.57L196.67 448.57L196.67 469.15Q196.67 469.32 196.75 469.4Q196.84 469.49 197.01 469.49L204.87 469.49Q205.04 469.49 205.12 469.4Q205.21 469.32 205.21 469.15L205.07 421.06Q205.07 420.95 205.02 420.88Q204.94 420.78 204.73 420.78L196.94 420.78Q196.8 420.78 196.73 420.85Q196.67 420.92 196.67 421.06L196.67 440.09L186.17 440.09L186.24 421.06Q186.24 420.95 186.19 420.88Q186.11 420.78 185.9 420.78L178.11 420.78Q177.9 420.78 177.82 420.88Q177.76 420.95 177.76 421.06L177.7 469.15Q177.7 469.35 177.8 469.44Q177.86 469.49 177.97 469.49ZM238.37 469.67Q240.11 470.17 241.99 470.17Q244.68 470.17 247.01 469.25Q248.02 468.85 248.96 468.27Q250.24 467.5 251.3 466.5Q252.84 465.06 253.95 463.16Q254.64 461.96 255.07 460.66Q255.8 458.48 255.8 456.06L255.66 421.06Q255.66 420.92 255.59 420.85Q255.52 420.78 255.39 420.78L247.52 420.78Q247.39 420.78 247.32 420.85Q247.25 420.92 247.25 421.06L247.25 456.06Q247.25 457.47 246.71 458.63Q246.35 459.41 245.75 460.07Q245.01 460.88 244.1 461.29Q243.14 461.73 241.99 461.73Q241.04 461.73 240.21 461.41Q239.17 461 238.33 460.07Q237.73 459.41 237.37 458.63Q236.83 457.47 236.83 456.06L236.83 421.06Q236.83 420.92 236.76 420.85Q236.69 420.78 236.55 420.78L228.69 420.78Q228.56 420.78 228.49 420.85Q228.42 420.92 228.42 421.06L228.28 456.06Q228.28 458.35 228.95 460.42Q229.4 461.82 230.14 463.11Q231.17 464.9 232.59 466.28Q233.74 467.4 235.15 468.26Q236.69 469.2 238.37 469.67ZM293.6 456.6L298.38 456.6Q298.52 456.6 298.6 456.54Q298.71 456.45 298.73 456.26L300.2 440.16L300.26 421.12Q300.26 420.95 300.18 420.87Q300.09 420.78 299.92 420.78L292.06 420.78Q291.95 420.78 291.89 420.83Q291.79 420.92 291.79 421.12L291.79 440.16L293.26 456.26Q293.28 456.45 293.38 456.54Q293.46 456.6 293.6 456.6ZM292.06 469.49L299.92 469.49Q300.03 469.49 300.09 469.44Q300.2 469.35 300.2 469.15L300.2 461.52Q300.2 461.35 300.11 461.28Q300.04 461.22 299.92 461.22L292.06 461.22Q291.94 461.22 291.87 461.28Q291.79 461.35 291.79 461.52L291.79 469.15Q291.79 469.35 291.89 469.44Q291.95 469.49 292.06 469.49Z" fill="#F6601F" fill-opacity="1.000000" fill-rule="evenodd"/>
</svg>
