<svg width="741.187500" height="296.250000" viewBox="0 0 741.188 296.25" fill="none" xmlns="http://www.w3.org/2000/svg" xmlns:xlink="http://www.w3.org/1999/xlink">
	<desc>
			Created with Pixso.
	</desc>
	<defs/>
	<path id="Будь частиною майбутнього музики та відкрий нові можливості разом з нами!" d="M530.89 40.93Q535.14 34.84 535.14 23.5Q535.14 12.15 530.92 6.07Q529.13 3.5 526.69 2.02Q523.35 0 518.79 0Q514.05 0 510.63 2.12Q508.27 3.58 506.54 6.04Q502.29 12.09 502.29 23.43Q502.29 34.87 506.54 40.95Q508.33 43.51 510.77 44.99Q514.13 47.03 518.73 47.03Q523.26 47.03 526.58 45.03Q529.07 43.54 530.89 40.93ZM583.57 40.92Q587.54 34.81 587.54 23.5Q587.54 12.21 583.6 6.1Q581.72 3.17 579.03 1.65Q576.12 0 572.26 0Q568.2 0 565.18 1.76Q563.19 2.92 561.65 4.84Q557.76 9.68 556.95 18.87L550.29 18.87L550.29 0.71L541.79 0.71L541.79 46.4L550.29 46.4L550.29 26.37L556.89 26.37Q557.35 36.46 561.31 41.75Q563.04 44.05 565.34 45.35Q568.3 47.03 572.2 47.03Q576.03 47.03 578.95 45.39Q581.66 43.86 583.57 40.92ZM383.35 7.81Q384.23 7.5 385.23 7.5Q386.61 7.5 387.85 7.93Q388.28 8.08 388.7 8.29Q390.29 9.09 391.7 10.06L394.51 3.15Q391.89 1.43 389.59 0.75Q389.56 0.74 389.53 0.73Q387.26 0.06 384.79 0.06Q380.93 0.06 377.94 1.66Q375.03 3.22 372.93 6.28Q368.67 12.5 368.67 23.62Q368.67 34.75 372.81 40.89Q374.68 43.67 377.3 45.19Q380.45 47.03 384.67 47.03Q389.89 47.03 393.23 44.81L393.23 37.25Q389.26 39.56 385.64 39.56Q383.86 39.56 382.47 38.83Q377.35 36.16 377.35 23.68Q377.35 16.06 379.46 11.78Q381 8.66 383.35 7.81ZM354.89 34.87L357.51 46.4L366.04 46.4L354.7 0.53L343.17 0.53L331.85 46.4L340.35 46.4L342.98 34.87L354.89 34.87ZM178.51 42.38Q181.85 38.6 181.85 31.87Q181.85 25.7 178.78 22.38Q178.55 22.13 178.31 21.9Q174.76 18.56 167.82 18.56L165.14 18.56L165.14 8.12L178.32 8.12L178.32 0.71L156.64 0.71L156.64 46.4L168.17 46.4Q173.76 46.4 177.16 43.67Q177.77 43.18 178.31 42.6Q178.41 42.49 178.51 42.38ZM184.01 46.15Q186.23 47.03 189.51 47.03Q192.31 47.03 194.55 45.91Q196.09 45.14 197.37 43.85Q200.51 40.68 202.95 33.03L213.14 0.71L204.54 0.71L199.57 18.56L199.1 20.65L198.67 22.78L198.42 22.78Q198.23 21.03 197.51 18.56L191.7 0.71L182.79 0.71L194.51 32.53Q192.73 38.62 189.64 39.39Q189.2 39.5 188.73 39.5Q187.63 39.5 186.57 39.31Q185.27 39.09 184.01 38.59L184.01 46.15ZM240.01 59.46L248.26 59.46L248.26 38.9L243.07 38.9L243.07 0.71L222.2 0.71Q220.39 21.81 213.95 38.9L211.26 38.9L211.26 59.46L219.51 59.46L219.51 46.4L240.01 46.4L240.01 59.46ZM275 42.05Q278.17 38.3 278.17 31.87Q278.17 25.65 275.06 22.34Q271.53 18.56 263.95 18.56L261.76 18.56L261.76 0.71L253.26 0.71L253.26 46.4L264.14 46.4Q269.92 46.4 273.43 43.58Q274 43.12 274.51 42.59Q274.76 42.33 275 42.05ZM319.32 46.4L327.82 46.4L327.82 0.71L319.32 0.71L319.32 21.5Q317.57 22.59 315.92 23.23Q315.74 23.3 315.57 23.36Q314.06 23.87 312.39 23.87Q310.72 23.87 309.75 23.05Q309.41 22.76 309.15 22.37Q308.17 20.87 308.17 17.59L308.17 0.71L299.67 0.71L299.67 19.46Q299.67 25.01 302.42 28.14Q302.46 28.19 302.5 28.23Q303.1 28.9 303.82 29.43Q306.43 31.37 310.48 31.37Q310.74 31.37 311 31.36Q315.2 31.21 319.32 28.68L319.32 46.4ZM405.26 46.4L413.73 46.4L413.73 8.18L422.48 8.18L422.48 0.71L396.51 0.71L396.51 8.18L405.26 8.18L405.26 46.4ZM435.23 0.71L427.35 0.71L427.35 46.4L437.85 46.4L451.85 13.25L452.26 13.25Q451.54 16.75 451.54 21.37L451.54 46.4L459.35 46.4L459.35 0.71L448.92 0.71L434.98 33.53L434.64 33.53Q435.23 29.71 435.23 25.81L435.23 0.71ZM487.14 46.4L495.64 46.4L495.64 0.71L487.14 0.71L487.14 18.87L475.92 18.87L475.92 0.71L467.42 0.71L467.42 46.4L475.92 46.4L475.92 26.37L487.14 26.37L487.14 46.4ZM350.85 16.71L353.29 27.34L344.67 27.34Q347.29 15.81 347.92 12.57Q348.54 9.34 348.95 6.65Q349.1 7.96 349.87 11.85Q350.64 15.75 350.85 16.71ZM512.95 35.4Q510.98 31.31 510.98 23.5Q510.98 15.65 512.95 11.57Q514.2 8.98 516.22 8.04Q517.38 7.5 518.79 7.5Q520.2 7.5 521.35 8.04Q526.42 10.46 526.42 23.5Q526.42 36.49 521.34 38.93Q520.17 39.5 518.73 39.5Q517.4 39.5 516.3 39Q514.23 38.07 512.95 35.4ZM570.38 39.15Q565.54 37.13 565.54 23.5Q565.54 9.89 570.4 7.85Q571.25 7.5 572.26 7.5Q573.22 7.5 574.04 7.83Q578.85 9.82 578.85 23.5Q578.85 37.13 574.02 39.15Q573.18 39.5 572.2 39.5Q571.22 39.5 570.38 39.15ZM234.57 8.18L234.57 38.9L222.79 38.9Q225.14 32.12 226.87 23.95Q228.6 15.78 229.39 8.18L234.57 8.18ZM167.76 39.03L165.14 39.03L165.14 26L167.2 26Q170.51 26 171.9 27.45Q173.29 28.9 173.29 32.18Q173.29 36.32 171.27 37.96Q169.95 39.03 167.76 39.03ZM263.89 39.03L261.76 39.03L261.76 26L263.45 26Q266.79 26 268.18 27.43Q269.57 28.87 269.57 32.18Q269.57 36.23 267.58 37.88Q266.21 39.03 263.89 39.03ZM135.45 77.62Q138.25 75.18 138.87 69.93L131.84 69.93Q131.5 72.75 130.48 74Q130.29 74.23 130.06 74.42Q129.08 75.25 127.4 75.25Q125.4 75.25 124.41 74.24Q124.37 74.2 124.32 74.15Q123.34 73.06 123 69.93L116.09 69.93Q116.59 75.28 119.25 77.67Q121.9 80.06 127.21 80.06Q132.65 80.06 135.45 77.62ZM333.9 123.93Q338.15 117.84 338.15 106.5Q338.15 95.15 333.93 89.07Q332.15 86.5 329.7 85.02Q326.37 83 321.81 83Q317.07 83 313.64 85.12Q311.29 86.58 309.56 89.04Q305.31 95.09 305.31 106.43Q305.31 117.87 309.56 123.95Q311.35 126.51 313.79 127.99Q317.15 130.03 321.75 130.03Q326.27 130.03 329.6 128.03Q332.08 126.54 333.9 123.93ZM397.03 123.93Q401.28 117.84 401.28 106.5Q401.28 95.15 397.06 89.07Q395.27 86.5 392.83 85.02Q389.49 83 384.93 83Q380.19 83 376.77 85.12Q374.41 86.58 372.68 89.04Q368.43 95.09 368.43 106.43Q368.43 117.87 372.68 123.95Q374.47 126.51 376.91 127.99Q380.27 130.03 384.87 130.03Q389.4 130.03 392.72 128.03Q395.21 126.54 397.03 123.93ZM526.62 99.97Q527.96 97.64 527.96 94.53Q527.96 91.01 526.41 88.44Q525.67 87.21 524.57 86.2Q524.08 85.74 523.54 85.35Q520.36 83.06 515.53 83.06Q511.62 83.06 508.43 84.17Q505.25 85.28 502.15 87.93L506.18 93.62Q509.32 90.77 512.76 90.33Q513.4 90.25 514.06 90.25Q516.64 90.25 518.07 91.53Q518.14 91.6 518.21 91.67Q518.34 91.79 518.45 91.92Q519.65 93.32 519.65 95.75Q519.65 98.23 518.44 99.74Q518.03 100.24 517.5 100.64Q515.34 102.21 510.81 102.21L508.06 102.21L508.06 109.18L511.12 109.18Q515.75 109.18 518.1 110.89Q518.97 111.51 519.52 112.35Q520.46 113.79 520.46 115.84Q520.46 118.94 518.93 120.7Q516.92 123 512.28 123Q509.94 123 507.72 122.48Q504.99 121.85 502.43 120.43L502.43 127.87Q506.56 130.03 513.93 130.03Q520.48 130.03 524.45 126.83Q524.7 126.62 524.95 126.4Q526.09 125.38 526.9 124.15Q529 121 529 116.46Q529 112.95 527.38 110.49Q526.86 109.69 526.17 109.01Q523.34 106.21 518.21 105.59L518.21 105.34Q522.93 104.37 525.45 101.57Q526.12 100.82 526.62 99.97ZM96.28 117.87L98.9 129.4L107.43 129.4L96.09 83.53L84.56 83.53L73.25 129.4L81.75 129.4L84.37 117.87L96.28 117.87ZM708.56 117.87L711.18 129.4L719.71 129.4L708.37 83.53L696.84 83.53L685.53 129.4L694.03 129.4L696.65 117.87L708.56 117.87ZM34.71 90.5L43.4 129.4L52.68 129.4L61.34 90.56L61.59 90.56Q61.15 94.59 61.15 98.43L61.15 129.4L69.21 129.4L69.21 83.71L55.96 83.71L48.21 119.62L47.96 119.62L40.15 83.71L27.09 83.71L27.09 129.4L34.96 129.4L34.96 98.75Q34.96 95 34.37 90.5L34.71 90.5ZM119.34 83.71L111.46 83.71L111.46 129.4L121.96 129.4L135.96 96.25L136.37 96.25Q135.65 99.75 135.65 104.37L135.65 129.4L143.46 129.4L143.46 83.71L133.03 83.71L119.09 116.53L118.75 116.53Q119.34 112.71 119.34 108.81L119.34 83.71ZM173.4 125.38Q176.75 121.61 176.75 114.87Q176.75 108.7 173.67 105.38Q173.44 105.13 173.2 104.9Q169.65 101.56 162.71 101.56L160.03 101.56L160.03 91.12L173.21 91.12L173.21 83.71L151.53 83.71L151.53 129.4L163.06 129.4Q168.65 129.4 172.05 126.67Q172.66 126.18 173.2 125.6Q173.3 125.49 173.4 125.38ZM178.9 129.15Q181.12 130.03 184.4 130.03Q187.2 130.03 189.45 128.91Q190.98 128.14 192.26 126.85Q195.4 123.68 197.84 116.03L208.03 83.71L199.43 83.71L194.46 101.56L194 103.65L193.56 105.78L193.31 105.78Q193.12 104.03 192.4 101.56L186.59 83.71L177.68 83.71L189.4 115.53Q187.62 121.62 184.53 122.39Q184.09 122.5 183.62 122.5Q182.52 122.5 181.46 122.31Q180.16 122.09 178.9 121.59L178.9 129.15ZM217.62 129.4L226.09 129.4L226.09 91.18L234.84 91.18L234.84 83.71L208.87 83.71L208.87 91.18L217.62 91.18L217.62 129.4ZM259.43 129.4L267.93 129.4L267.93 83.71L259.43 83.71L259.43 101.87L248.21 101.87L248.21 83.71L239.71 83.71L239.71 129.4L248.21 129.4L248.21 109.37L259.43 109.37L259.43 129.4ZM297.73 125.05Q300.9 121.3 300.9 114.87Q300.9 108.65 297.8 105.34Q294.26 101.56 286.68 101.56L284.5 101.56L284.5 83.71L276 83.71L276 129.4L286.87 129.4Q292.65 129.4 296.17 126.58Q296.74 126.12 297.25 125.59Q297.5 125.33 297.73 125.05ZM365.21 91.06L365.21 83.71L344.81 83.71L344.81 129.4L353.25 129.4L353.25 91.06L365.21 91.06ZM431.37 90.5L440.06 129.4L449.34 129.4L458 90.56L458.25 90.56Q457.81 94.59 457.81 98.43L457.81 129.4L465.87 129.4L465.87 83.71L452.62 83.71L444.87 119.62L444.62 119.62L436.81 83.71L423.75 83.71L423.75 129.4L431.62 129.4L431.62 98.75Q431.62 95 431.03 90.5L431.37 90.5ZM471.12 129.15Q473.34 130.03 476.62 130.03Q479.42 130.03 481.66 128.91Q483.2 128.14 484.48 126.85Q487.62 123.68 490.06 116.03L500.25 83.71L491.65 83.71L486.68 101.56L486.21 103.65L485.78 105.78L485.53 105.78Q485.34 104.03 484.62 101.56L478.81 83.71L469.9 83.71L481.62 115.53Q479.84 121.62 476.75 122.39Q476.31 122.5 475.84 122.5Q474.74 122.5 473.68 122.31Q472.37 122.09 471.12 121.59L471.12 129.15ZM543.12 83.71L535.25 83.71L535.25 129.4L545.75 129.4L559.75 96.25L560.15 96.25Q559.43 99.75 559.43 104.37L559.43 129.4L567.25 129.4L567.25 83.71L556.81 83.71L542.87 116.53L542.53 116.53Q543.12 112.71 543.12 108.81L543.12 83.71ZM595.59 129.4L605.12 129.4L592.34 105.71L604.87 83.71L595.78 83.71L583.87 105.84L583.87 83.71L575.43 83.71L575.43 129.4L583.87 129.4L583.87 106.25L595.59 129.4ZM617.03 83.71L609.15 83.71L609.15 129.4L619.65 129.4L633.65 96.25L634.06 96.25Q633.34 99.75 633.34 104.37L633.34 129.4L641.15 129.4L641.15 83.71L630.71 83.71L616.78 116.53L616.43 116.53Q617.03 112.71 617.03 108.81L617.03 83.71ZM670.59 129.4L679.06 129.4L679.06 91.18L687.81 91.18L687.81 83.71L661.84 83.71L661.84 91.18L670.59 91.18L670.59 129.4ZM92.25 99.71L94.68 110.34L86.06 110.34Q88.68 98.81 89.31 95.57Q89.93 92.34 90.34 89.65Q90.5 90.96 91.26 94.85Q92.03 98.75 92.25 99.71ZM704.53 99.71L706.96 110.34L698.34 110.34Q700.96 98.81 701.59 95.57Q702.21 92.34 702.62 89.65Q702.78 90.96 703.54 94.85Q704.31 98.75 704.53 99.71ZM315.96 118.4Q314 114.31 314 106.5Q314 98.65 315.96 94.57Q317.22 91.98 319.24 91.04Q320.4 90.5 321.81 90.5Q323.22 90.5 324.37 91.04Q329.43 93.46 329.43 106.5Q329.43 119.49 324.36 121.93Q323.19 122.5 321.75 122.5Q320.42 122.5 319.31 122Q317.25 121.07 315.96 118.4ZM379.09 118.4Q377.12 114.31 377.12 106.5Q377.12 98.65 379.09 94.57Q380.34 91.98 382.36 91.04Q383.52 90.5 384.93 90.5Q386.34 90.5 387.49 91.04Q392.56 93.46 392.56 106.5Q392.56 119.49 387.48 121.93Q386.31 122.5 384.87 122.5Q383.54 122.5 382.44 122Q380.37 121.07 379.09 118.4ZM162.65 122.03L160.03 122.03L160.03 109L162.09 109Q165.4 109 166.79 110.45Q168.18 111.9 168.18 115.18Q168.18 119.32 166.16 120.96Q164.84 122.03 162.65 122.03ZM286.62 122.03L284.5 122.03L284.5 109L286.18 109Q289.53 109 290.92 110.43Q292.31 111.87 292.31 115.18Q292.31 119.23 290.32 120.88Q288.94 122.03 286.62 122.03ZM218.45 160.62Q221.25 158.18 221.87 152.93L214.84 152.93Q214.5 155.75 213.48 157Q213.29 157.23 213.06 157.42Q212.08 158.25 210.4 158.25Q208.4 158.25 207.41 157.24Q207.37 157.2 207.32 157.15Q206.34 156.06 206 152.93L199.09 152.93Q199.59 158.28 202.25 160.67Q204.9 163.06 210.21 163.06Q215.65 163.06 218.45 160.62ZM313.81 206.93Q318.06 200.84 318.06 189.5Q318.06 178.15 313.84 172.07Q312.05 169.5 309.61 168.02Q306.27 166 301.71 166Q296.97 166 293.55 168.12Q291.2 169.58 289.46 172.04Q285.21 178.09 285.21 189.43Q285.21 200.87 289.46 206.95Q291.25 209.51 293.69 210.99Q297.05 213.03 301.65 213.03Q306.18 213.03 309.5 211.03Q311.99 209.54 313.81 206.93ZM469.53 206.93Q473.78 200.84 473.78 189.5Q473.78 178.15 469.56 172.07Q467.77 169.5 465.33 168.02Q461.99 166 457.43 166Q452.69 166 449.27 168.12Q446.91 169.58 445.18 172.04Q440.93 178.09 440.93 189.43Q440.93 200.87 445.18 206.95Q446.97 209.51 449.41 210.99Q452.77 213.03 457.37 213.03Q461.9 213.03 465.22 211.03Q467.71 209.54 469.53 206.93ZM663.46 206.93Q667.71 200.84 667.71 189.5Q667.71 178.15 663.5 172.07Q661.71 169.5 659.26 168.02Q655.93 166 651.37 166Q646.63 166 643.21 168.12Q640.85 169.58 639.12 172.04Q634.87 178.09 634.87 189.43Q634.87 200.87 639.12 206.95Q640.91 209.51 643.35 210.99Q646.71 213.03 651.31 213.03Q655.83 213.03 659.16 211.03Q661.65 209.54 663.46 206.93ZM687.65 173.81Q688.53 173.5 689.53 173.5Q690.91 173.5 692.14 173.93Q692.58 174.08 693 174.29Q694.59 175.09 696 176.06L698.81 169.15Q696.18 167.43 693.89 166.75L693.83 166.73Q691.56 166.06 689.09 166.06Q685.23 166.06 682.23 167.66Q679.33 169.22 677.23 172.28Q672.96 178.5 672.96 189.62Q672.96 200.75 677.1 206.89Q678.98 209.67 681.59 211.19Q684.74 213.03 688.96 213.03Q694.18 213.03 697.53 210.81L697.53 203.25Q693.56 205.56 689.93 205.56Q688.16 205.56 686.77 204.83Q681.65 202.16 681.65 189.68Q681.65 182.06 683.76 177.78Q685.29 174.66 687.65 173.81ZM11.65 166.71L0 166.71L0 212.4L13.75 212.4Q18.21 212.4 21.21 210.31Q22.09 209.69 22.85 208.89Q23.14 208.59 23.4 208.26Q26.18 204.84 26.18 199.15Q26.18 194.75 24.46 192.09Q24.29 191.81 24.08 191.56Q22.34 189.33 18.87 188.46L18.87 188.15Q20.12 187.92 21.14 187.31Q22.56 186.47 23.56 184.92Q25.28 182.25 25.28 178.28Q25.28 172.68 22.48 169.9Q22.26 169.68 22.03 169.48Q18.78 166.71 11.65 166.71ZM33.96 166.71L33.96 212.4L41.96 212.4L41.96 166.71L33.96 166.71ZM76.65 225.46L84.9 225.46L84.9 204.9L79.71 204.9L79.71 166.71L58.84 166.71Q57.03 187.81 50.59 204.9L47.9 204.9L47.9 225.46L56.15 225.46L56.15 212.4L76.65 212.4L76.65 225.46ZM110.18 212.4L119.71 212.4L106.93 188.71L119.46 166.71L110.37 166.71L98.46 188.84L98.46 166.71L90.03 166.71L90.03 212.4L98.46 212.4L98.46 189.25L110.18 212.4ZM145.06 191.86Q148.65 187.97 148.65 180.78Q148.65 173.36 144.95 169.86Q141.63 166.71 135.34 166.71L123.75 166.71L123.75 212.4L132.25 212.4L132.25 195.84L134.37 195.84Q140.46 195.84 144.03 192.84Q144.53 192.42 144.98 191.95Q145.02 191.9 145.06 191.86ZM162.28 166.71L154.4 166.71L154.4 212.4L164.9 212.4L178.9 179.25L179.31 179.25Q178.59 182.75 178.59 187.37L178.59 212.4L186.4 212.4L186.4 166.71L175.96 166.71L162.03 199.53L161.68 199.53Q162.28 195.71 162.28 191.81L162.28 166.71ZM202.34 166.71L194.46 166.71L194.46 212.4L204.96 212.4L218.96 179.25L219.37 179.25Q218.65 182.75 218.65 187.37L218.65 212.4L226.46 212.4L226.46 166.71L216.03 166.71L202.09 199.53L201.75 199.53Q202.34 195.71 202.34 191.81L202.34 166.71ZM270.06 212.4L278.56 212.4L278.56 166.71L270.06 166.71L270.06 184.87L258.84 184.87L258.84 166.71L250.34 166.71L250.34 212.4L258.84 212.4L258.84 192.37L270.06 192.37L270.06 212.4ZM336.37 166.71L324.71 166.71L324.71 212.4L338.46 212.4Q342.93 212.4 345.93 210.31Q346.81 209.69 347.57 208.89Q347.86 208.59 348.12 208.26Q350.9 204.84 350.9 199.15Q350.9 194.75 349.18 192.09Q349.01 191.81 348.8 191.56Q347.06 189.33 343.59 188.46L343.59 188.15Q344.84 187.92 345.86 187.31Q347.28 186.47 348.28 184.92Q350 182.25 350 178.28Q350 172.68 347.2 169.9Q346.98 169.68 346.75 169.48Q343.5 166.71 336.37 166.71ZM358.68 166.71L358.68 212.4L366.68 212.4L366.68 166.71L358.68 166.71ZM399.78 173.5L408.46 212.4L417.75 212.4L426.4 173.56L426.65 173.56Q426.21 177.59 426.21 181.43L426.21 212.4L434.28 212.4L434.28 166.71L421.03 166.71L413.28 202.62L413.03 202.62L405.21 166.71L392.15 166.71L392.15 212.4L400.03 212.4L400.03 181.75Q400.03 178 399.43 173.5L399.78 173.5ZM476.03 166.71L487.25 188.71L475.84 212.4L485.06 212.4L495.15 189.25L495.15 212.4L503.09 212.4L503.09 189.25L513.28 212.4L522.5 212.4L511.09 188.65L522.31 166.71L513.53 166.71L503.09 188.84L503.09 166.71L495.15 166.71L495.15 188.84L484.75 166.71L476.03 166.71ZM547.21 212.4L555.71 212.4L555.71 166.71L533 166.71Q531.71 181 530.54 190.59Q529.37 200.18 528.45 202.93Q527.69 205.2 526.37 205.6Q526.08 205.68 525.78 205.68Q524.4 205.68 523.46 205.31L523.46 212.34Q525.09 213.03 527.62 213.03Q529.9 213.03 531.67 212.08Q533.08 211.32 534.17 209.96Q536.62 206.9 537.56 200.31Q538.96 190 540.37 174.18L547.21 174.18L547.21 212.4ZM571.65 166.71L563.78 166.71L563.78 212.4L574.28 212.4L588.28 179.25L588.68 179.25Q587.96 182.75 587.96 187.37L587.96 212.4L595.78 212.4L595.78 166.71L585.34 166.71L571.4 199.53L571.06 199.53Q571.65 195.71 571.65 191.81L571.65 166.71ZM615.5 166.71L603.84 166.71L603.84 212.4L617.59 212.4Q622.05 212.4 625.05 210.31Q625.94 209.69 626.7 208.89Q626.98 208.59 627.24 208.26Q630.03 204.84 630.03 199.15Q630.03 194.75 628.31 192.09Q628.13 191.81 627.93 191.56Q626.19 189.33 622.71 188.46L622.71 188.15Q623.96 187.92 624.99 187.31Q626.4 186.47 627.4 184.92Q629.12 182.25 629.12 178.28Q629.12 172.68 626.32 169.9Q626.1 169.68 625.87 169.48Q622.62 166.71 615.5 166.71ZM709.56 212.4L718.03 212.4L718.03 174.18L726.78 174.18L726.78 166.71L700.81 166.71L700.81 174.18L709.56 174.18L709.56 212.4ZM733.18 166.71L733.18 212.4L741.18 212.4L741.18 166.71L733.18 166.71ZM295.87 201.4Q293.9 197.31 293.9 189.5Q293.9 181.65 295.87 177.57Q297.12 174.98 299.14 174.04Q300.3 173.5 301.71 173.5Q303.13 173.5 304.28 174.04Q309.34 176.46 309.34 189.5Q309.34 202.49 304.26 204.93Q303.09 205.5 301.65 205.5Q300.32 205.5 299.22 205Q297.15 204.07 295.87 201.4ZM451.59 201.4Q449.62 197.31 449.62 189.5Q449.62 181.65 451.59 177.57Q452.84 174.98 454.86 174.04Q456.02 173.5 457.43 173.5Q458.84 173.5 459.99 174.04Q465.06 176.46 465.06 189.5Q465.06 202.49 459.98 204.93Q458.81 205.5 457.37 205.5Q456.04 205.5 454.94 205Q452.87 204.07 451.59 201.4ZM645.53 201.4Q643.56 197.31 643.56 189.5Q643.56 181.65 645.53 177.57Q646.78 174.98 648.8 174.04Q649.96 173.5 651.37 173.5Q652.78 173.5 653.93 174.04Q659 176.46 659 189.5Q659 202.49 653.92 204.93Q652.75 205.5 651.31 205.5Q649.98 205.5 648.87 205Q646.81 204.07 645.53 201.4ZM11.9 185.09L8 185.09L8 174.06L11.59 174.06Q14.28 174.06 15.53 175.29Q16.78 176.53 16.78 179.37Q16.78 182.21 15.68 183.65Q15.61 183.75 15.52 183.85Q14.4 185.09 11.9 185.09ZM133.87 188.46L132.25 188.46L132.25 174.06L134.31 174.06Q136.78 174.06 138.16 175.28Q138.43 175.52 138.65 175.79Q140.06 177.53 140.06 181.12Q140.06 185.03 138.53 186.75Q138.38 186.91 138.23 187.05Q136.7 188.46 133.87 188.46ZM336.62 185.09L332.71 185.09L332.71 174.06L336.31 174.06Q339 174.06 340.25 175.29Q341.5 176.53 341.5 179.37Q341.5 182.21 340.4 183.65Q340.32 183.75 340.24 183.85Q339.12 185.09 336.62 185.09ZM615.75 185.09L611.84 185.09L611.84 174.06L615.43 174.06Q618.12 174.06 619.37 175.29Q620.62 176.53 620.62 179.37Q620.62 182.21 619.53 183.65Q619.45 183.75 619.37 183.85Q618.24 185.09 615.75 185.09ZM71.21 174.18L71.21 204.9L59.43 204.9Q61.78 198.12 63.51 189.95Q65.25 181.78 66.03 174.18L71.21 174.18ZM8 204.96L8 192.18L12.15 192.18Q14.49 192.18 15.81 193.34Q17.53 194.85 17.53 198.31Q17.53 201.71 16.23 203.34Q15.98 203.66 15.67 203.91Q14.41 204.96 12.28 204.96L8 204.96ZM332.71 204.96L332.71 192.18L336.87 192.18Q339.21 192.18 340.53 193.34Q342.25 194.85 342.25 198.31Q342.25 201.71 340.95 203.34Q340.7 203.66 340.39 203.91Q339.13 204.96 337 204.96L332.71 204.96ZM611.84 204.96L611.84 192.18L616 192.18Q618.33 192.18 619.65 193.34Q621.37 194.85 621.37 198.31Q621.37 201.71 620.07 203.34Q619.82 203.66 619.51 203.91Q618.26 204.96 616.12 204.96L611.84 204.96ZM293.03 289.93Q297.28 283.84 297.28 272.5Q297.28 261.15 293.06 255.07Q291.27 252.5 288.83 251.02Q285.49 249 280.93 249Q276.19 249 272.77 251.12Q270.41 252.58 268.68 255.04Q264.43 261.09 264.43 272.43Q264.43 283.87 268.68 289.95Q270.47 292.51 272.91 293.99Q276.27 296.03 280.87 296.03Q285.4 296.03 288.72 294.03Q291.21 292.54 293.03 289.93ZM257.21 265.97Q258.56 263.64 258.56 260.53Q258.56 257.01 257 254.44Q256.26 253.21 255.17 252.2Q254.67 251.74 254.13 251.35Q250.95 249.06 246.12 249.06Q242.21 249.06 239.03 250.17Q235.84 251.28 232.75 253.93L236.78 259.62Q239.91 256.78 243.36 256.33Q244 256.25 244.65 256.25Q247.24 256.25 248.66 257.53Q248.74 257.6 248.81 257.67Q248.93 257.79 249.05 257.92Q250.25 259.32 250.25 261.75Q250.25 264.23 249.03 265.74Q248.63 266.24 248.09 266.64Q245.93 268.21 241.4 268.21L238.65 268.21L238.65 275.18L241.71 275.18Q246.34 275.18 248.7 276.89Q249.57 277.51 250.12 278.35Q251.06 279.79 251.06 281.84Q251.06 284.94 249.52 286.7Q247.51 289 242.87 289Q240.53 289 238.32 288.48Q235.58 287.85 233.03 286.43L233.03 293.87Q237.15 296.03 244.53 296.03Q251.07 296.03 255.04 292.83Q255.3 292.62 255.54 292.4Q256.68 291.38 257.5 290.15Q259.59 287 259.59 282.46Q259.59 278.95 257.97 276.49Q257.45 275.69 256.76 275.01Q253.93 272.21 248.81 271.59L248.81 271.34Q253.53 270.37 256.04 267.57Q256.72 266.82 257.21 265.97ZM392.27 265.97Q393.62 263.64 393.62 260.53Q393.62 257.01 392.07 254.44Q391.33 253.21 390.23 252.2Q389.74 251.74 389.2 251.35Q386.02 249.06 381.18 249.06Q377.28 249.06 374.09 250.17Q370.9 251.28 367.81 253.93L371.84 259.62Q374.97 256.78 378.42 256.33Q379.06 256.25 379.71 256.25Q382.3 256.25 383.73 257.53Q383.8 257.6 383.87 257.67Q384 257.79 384.11 257.92Q385.31 259.32 385.31 261.75Q385.31 264.23 384.09 265.74Q383.69 266.24 383.15 266.64Q381 268.21 376.46 268.21L373.71 268.21L373.71 275.18L376.78 275.18Q381.4 275.18 383.76 276.89Q384.63 277.51 385.18 278.35Q386.12 279.79 386.12 281.84Q386.12 284.94 384.58 286.7Q382.57 289 377.93 289Q375.6 289 373.38 288.48Q370.64 287.85 368.09 286.43L368.09 293.87Q372.21 296.03 379.59 296.03Q386.13 296.03 390.1 292.83Q390.36 292.62 390.6 292.4Q391.74 291.38 392.56 290.15Q394.65 287 394.65 282.46Q394.65 278.95 393.04 276.49Q392.51 275.69 391.82 275.01Q389 272.21 383.87 271.59L383.87 271.34Q388.59 270.37 391.1 267.57Q391.78 266.82 392.27 265.97ZM219.68 283.87L222.31 295.4L230.84 295.4L219.5 249.53L207.96 249.53L196.65 295.4L205.15 295.4L207.78 283.87L219.68 283.87ZM472 283.87L474.62 295.4L483.15 295.4L471.81 249.53L460.28 249.53L448.96 295.4L457.46 295.4L460.09 283.87L472 283.87ZM193.19 274.86Q196.78 270.97 196.78 263.78Q196.78 256.36 193.07 252.86Q189.76 249.71 183.46 249.71L171.87 249.71L171.87 295.4L180.37 295.4L180.37 278.84L182.5 278.84Q188.59 278.84 192.16 275.84Q192.66 275.42 193.1 274.95Q193.15 274.9 193.19 274.86ZM311.56 256.5L320.25 295.4L329.53 295.4L338.18 256.56L338.43 256.56Q338 260.59 338 264.43L338 295.4L346.06 295.4L346.06 249.71L332.81 249.71L325.06 285.62L324.81 285.62L317 249.71L303.93 249.71L303.93 295.4L311.81 295.4L311.81 264.75Q311.81 261 311.21 256.5L311.56 256.5ZM436.43 295.4L444.93 295.4L444.93 249.71L436.43 249.71L436.43 267.87L425.21 267.87L425.21 249.71L416.71 249.71L416.71 295.4L425.21 295.4L425.21 275.37L436.43 275.37L436.43 295.4ZM494.81 256.5L503.5 295.4L512.78 295.4L521.43 256.56L521.68 256.56Q521.25 260.59 521.25 264.43L521.25 295.4L529.31 295.4L529.31 249.71L516.06 249.71L508.31 285.62L508.06 285.62L500.25 249.71L487.18 249.71L487.18 295.4L495.06 295.4L495.06 264.75Q495.06 261 494.46 256.5L494.81 256.5ZM545.25 249.71L537.37 249.71L537.37 295.4L547.87 295.4L561.87 262.25L562.28 262.25Q561.56 265.75 561.56 270.37L561.56 295.4L569.37 295.4L569.37 249.71L558.93 249.71L545 282.53L544.65 282.53Q545.25 278.71 545.25 274.81L545.25 249.71ZM578.65 280.68L585.5 280.68L587.09 249.71L577.12 249.71L578.65 280.68ZM215.65 265.71L218.09 276.34L209.46 276.34Q212.09 264.81 212.71 261.57Q213.34 258.34 213.75 255.65Q213.9 256.96 214.67 260.85Q215.43 264.75 215.65 265.71ZM467.96 265.71L470.4 276.34L461.78 276.34Q464.4 264.81 465.03 261.57Q465.65 258.34 466.06 255.65Q466.21 256.96 466.98 260.85Q467.75 264.75 467.96 265.71ZM275.09 284.4Q273.12 280.31 273.12 272.5Q273.12 264.65 275.09 260.57Q276.34 257.98 278.36 257.04Q279.52 256.5 280.93 256.5Q282.34 256.5 283.49 257.04Q288.56 259.46 288.56 272.5Q288.56 285.49 283.48 287.93Q282.31 288.5 280.87 288.5Q279.54 288.5 278.44 288Q276.37 287.07 275.09 284.4ZM182 271.46L180.37 271.46L180.37 257.06L182.43 257.06Q184.9 257.06 186.29 258.28Q186.55 258.51 186.78 258.79Q188.18 260.53 188.18 264.12Q188.18 268.03 186.65 269.75Q186.51 269.91 186.35 270.05Q184.83 271.46 182 271.46ZM577.98 287.54Q576.87 288.86 576.87 291.12Q576.87 293.27 577.92 294.59Q578.04 294.74 578.18 294.89Q578.28 294.99 578.39 295.08Q579.68 296.25 582.03 296.25Q584.25 296.25 585.58 295.15Q585.72 295.03 585.85 294.9Q586.02 294.73 586.17 294.55Q587.21 293.26 587.21 291.12Q587.21 288.82 586.08 287.51Q585.99 287.41 585.9 287.32Q585.85 287.27 585.8 287.23Q584.49 286 582.03 286Q579.59 286 578.3 287.21Q578.23 287.27 578.17 287.34Q578.07 287.44 577.98 287.54Z" fill="#F6601F" fill-opacity="1.000000" fill-rule="evenodd"/>
</svg>
