<svg width="774.213867" height="366.925781" viewBox="0 0 774.214 366.926" fill="none" xmlns="http://www.w3.org/2000/svg" xmlns:xlink="http://www.w3.org/1999/xlink">
	<desc>
			Created with Pixso.
	</desc>
	<defs/>
	<path id="Be a part of the future of music &amp; discover new opportunities with us!" d="M339.42 60.24Q341.66 60.92 344.1 60.92Q347 60.92 349.56 60.01Q351.08 59.46 352.49 58.6Q354.07 57.62 355.39 56.37Q357.22 54.64 358.55 52.37Q359.33 51.02 359.84 49.57Q360.79 46.88 360.79 43.86L360.71 16.93Q360.71 13.72 359.65 10.92Q359.16 9.62 358.44 8.4Q357.14 6.19 355.35 4.5Q354.03 3.25 352.45 2.28Q351.43 1.65 350.34 1.19Q347.47 0 344.1 0Q341.78 0 339.64 0.61Q337.64 1.19 335.8 2.3Q333.78 3.52 332.2 5.16Q330.8 6.62 329.74 8.42Q329.15 9.41 328.7 10.47Q327.46 13.44 327.46 16.93L327.38 43.86Q327.38 46.68 328.22 49.21Q328.77 50.86 329.68 52.39Q331.01 54.63 332.82 56.35Q334.16 57.61 335.76 58.6Q337.51 59.67 339.42 60.24ZM0.33 60.09L15.56 60.09Q18.87 60.09 21.77 59Q23.2 58.47 24.52 57.66Q26.45 56.5 28 54.97Q29.7 53.29 30.96 51.17Q31.72 49.86 32.24 48.45Q33.32 45.51 33.32 42.16Q33.32 40.03 32.84 38.02Q32.51 36.66 31.95 35.36Q31.13 33.41 29.91 31.75Q29.11 30.65 28.13 29.67Q30.42 27.72 32.08 24.57Q32.73 23.32 33.13 22Q33.74 19.97 33.74 17.76Q33.74 15.3 33.07 13.03Q32.53 11.17 31.54 9.44Q30.53 7.68 29.18 6.23Q27.59 4.53 25.52 3.27Q24.25 2.52 22.89 2.01Q20.07 0.95 16.85 0.95L0.49 0.95Q0.33 0.95 0.24 1.03Q0.16 1.12 0.16 1.28L0 59.68Q0 59.93 0.12 60.03Q0.2 60.09 0.33 60.09ZM39.76 60.09L67.23 60.09Q67.4 60.09 67.48 60.01Q67.56 59.93 67.56 59.76L67.56 50.05Q67.56 49.8 67.44 49.7Q67.36 49.63 67.23 49.63L49.72 49.63L49.72 34.78L67.23 34.78Q67.4 34.78 67.48 34.69Q67.56 34.61 67.56 34.44L67.48 24.81Q67.48 24.65 67.4 24.57Q67.31 24.48 67.15 24.48L49.72 24.48L49.72 11.2L67.15 11.2Q67.31 11.2 67.4 11.12Q67.48 11.04 67.48 10.87L67.48 1.36Q67.48 1.11 67.36 1.01Q67.28 0.95 67.15 0.95L39.84 0.95Q39.67 0.95 39.59 1.03Q39.51 1.12 39.51 1.28L39.42 59.68Q39.42 59.93 39.55 60.03Q39.63 60.09 39.76 60.09ZM104.88 1.28L94.33 59.68Q94.33 59.93 94.46 60.03Q94.54 60.09 94.67 60.09L104.13 60.09Q104.29 60.09 104.39 60.01Q104.52 59.91 104.54 59.68L105.46 53.45L117.04 53.45L117.95 59.68Q117.97 59.89 118.09 59.99Q118.2 60.09 118.41 60.09L127.83 60.09Q128 60.09 128.08 60.01Q128.18 59.91 128.16 59.68L118.03 1.28Q117.99 1.11 117.88 1.03Q117.78 0.95 117.62 0.95L105.29 0.95Q105.13 0.95 105.03 1.03Q104.92 1.11 104.88 1.28ZM155.97 60.09L165.51 60.09Q165.72 60.09 165.82 59.99Q165.93 59.89 165.93 59.68L165.93 38.26L172.4 38.26Q174.54 38.26 176.53 37.71Q178.71 37.11 180.7 35.85Q181.08 35.62 181.45 35.36Q184.76 33.01 186.93 29.05Q189.29 24.61 189.29 18.63Q189.29 11.56 185.9 7.05Q185.37 6.34 184.75 5.7Q183.69 4.59 182.44 3.74Q178.38 0.95 172.4 0.95L156.05 0.95Q155.88 0.95 155.8 1.03Q155.72 1.12 155.72 1.28L155.55 59.68Q155.55 59.89 155.66 59.99Q155.76 60.09 155.97 60.09ZM202.74 1.28L192.2 59.68Q192.2 59.93 192.32 60.03Q192.4 60.09 192.53 60.09L202 60.09Q202.16 60.09 202.26 60.01Q202.39 59.91 202.41 59.68L203.32 53.45L214.9 53.45L215.82 59.68Q215.84 59.89 215.95 59.99Q216.07 60.09 216.27 60.09L225.69 60.09Q225.86 60.09 225.95 60.01Q226.05 59.91 226.03 59.68L215.9 1.28Q215.86 1.11 215.75 1.03Q215.64 0.95 215.48 0.95L203.16 0.95Q203 0.95 202.9 1.03Q202.79 1.11 202.74 1.28ZM231.67 60.09L241.3 60.09Q241.43 60.09 241.51 60.03Q241.63 59.93 241.63 59.68L241.71 34.69L247.32 34.69Q248.96 34.69 250.34 35.3Q251.6 35.86 252.63 36.93Q253.76 38.11 254.3 39.51Q254.79 40.78 254.79 42.25L254.79 59.84Q254.79 59.93 254.83 59.99Q254.91 60.09 255.12 60.09L264.75 60.09Q264.96 60.09 265.06 59.99Q265.16 59.89 265.16 59.68L265.08 42.25Q265.08 38.78 263.91 35.76Q262.76 32.78 260.47 30.25Q261.51 29.42 262.78 27.68Q264.04 25.93 265 23.4Q265.95 20.87 265.95 17.76Q265.95 14.16 264.64 11.12Q264.21 10.13 263.65 9.21Q262.58 7.46 261.18 6.04Q259.56 4.39 257.49 3.19Q256.01 2.33 254.42 1.8Q251.86 0.95 249.02 0.95L231.84 0.95Q231.67 0.95 231.59 1.03Q231.5 1.12 231.5 1.28L231.34 59.68Q231.34 59.93 231.46 60.03Q231.54 60.09 231.67 60.09ZM280.85 60.09L290.44 60.09Q290.57 60.09 290.65 60.03Q290.77 59.93 290.77 59.68L290.69 11.2L301.85 11.2Q301.98 11.2 302.06 11.14Q302.19 11.04 302.19 10.79L302.19 1.28Q302.19 1.17 302.13 1.09Q302.03 0.95 301.73 0.95L269.44 0.95Q269.27 0.95 269.19 1.03Q269.11 1.12 269.11 1.28L269.02 10.79Q269.02 10.99 269.13 11.1Q269.23 11.2 269.44 11.2L280.48 11.2L280.48 59.68Q280.48 59.91 280.59 60.01Q280.69 60.09 280.85 60.09ZM367.6 60.09L377.14 60.09Q377.35 60.09 377.45 59.99Q377.56 59.89 377.56 59.68L377.56 34.78L394.99 34.78Q395.24 34.78 395.34 34.65Q395.4 34.57 395.4 34.44L395.32 24.81Q395.32 24.56 395.2 24.46Q395.12 24.4 394.99 24.4L377.56 24.4L377.56 11.2L394.99 11.2Q395.15 11.2 395.24 11.12Q395.32 11.04 395.32 10.87L395.32 1.28Q395.32 1.15 395.26 1.07Q395.16 0.95 394.91 0.95L367.68 0.95Q367.51 0.95 367.43 1.03Q367.35 1.12 367.35 1.28L367.18 59.68Q367.18 59.89 367.28 59.99Q367.39 60.09 367.6 60.09ZM433.59 60.09L443.17 60.09Q443.3 60.09 443.38 60.03Q443.51 59.93 443.51 59.68L443.42 11.2L454.59 11.2Q454.72 11.2 454.8 11.14Q454.92 11.04 454.92 10.79L454.92 1.28Q454.92 1.17 454.87 1.09Q454.76 0.95 454.46 0.95L422.17 0.95Q422.01 0.95 421.92 1.03Q421.84 1.12 421.84 1.28L421.76 10.79Q421.76 10.99 421.86 11.1Q421.97 11.2 422.17 11.2L433.21 11.2L433.21 59.68Q433.21 59.91 433.33 60.01Q433.42 60.09 433.59 60.09ZM459.36 60.09L468.99 60.09Q469.12 60.09 469.2 60.03Q469.32 59.93 469.32 59.68L469.32 34.69L482.06 34.69L482.06 59.68Q482.06 59.89 482.17 59.99Q482.27 60.09 482.48 60.09L492.02 60.09Q492.23 60.09 492.34 59.99Q492.44 59.89 492.44 59.68L492.27 1.28Q492.27 1.15 492.21 1.07Q492.11 0.95 491.86 0.95L482.4 0.95Q482.23 0.95 482.15 1.03Q482.06 1.12 482.06 1.28L482.06 24.4L469.32 24.4L469.4 1.28Q469.4 1.15 469.34 1.07Q469.24 0.95 468.99 0.95L459.53 0.95Q459.27 0.95 459.17 1.07Q459.11 1.15 459.11 1.28L459.03 59.68Q459.03 59.93 459.15 60.03Q459.23 60.09 459.36 60.09ZM499.7 60.09L527.18 60.09Q527.34 60.09 527.43 60.01Q527.51 59.93 527.51 59.76L527.51 50.05Q527.51 49.8 527.39 49.7Q527.31 49.63 527.18 49.63L509.66 49.63L509.66 34.78L527.18 34.78Q527.34 34.78 527.43 34.69Q527.51 34.61 527.51 34.44L527.43 24.81Q527.43 24.65 527.34 24.57Q527.26 24.48 527.09 24.48L509.66 24.48L509.66 11.2L527.09 11.2Q527.26 11.2 527.34 11.12Q527.43 11.04 527.43 10.87L527.43 1.36Q527.43 1.11 527.3 1.01Q527.22 0.95 527.09 0.95L499.79 0.95Q499.62 0.95 499.54 1.03Q499.45 1.12 499.45 1.28L499.37 59.68Q499.37 59.93 499.49 60.03Q499.57 60.09 499.7 60.09ZM557.56 60.09L567.1 60.09Q567.31 60.09 567.42 59.99Q567.52 59.89 567.52 59.68L567.52 34.78L584.95 34.78Q585.2 34.78 585.3 34.65Q585.37 34.57 585.37 34.44L585.28 24.81Q585.28 24.56 585.16 24.46Q585.08 24.4 584.95 24.4L567.52 24.4L567.52 11.2L584.95 11.2Q585.12 11.2 585.2 11.12Q585.28 11.04 585.28 10.87L585.28 1.28Q585.28 1.15 585.22 1.07Q585.12 0.95 584.87 0.95L557.64 0.95Q557.48 0.95 557.39 1.03Q557.31 1.12 557.31 1.28L557.14 59.68Q557.14 59.89 557.25 59.99Q557.35 60.09 557.56 60.09ZM604.17 60.32Q606.28 60.92 608.57 60.92Q611.84 60.92 614.67 59.8Q615.89 59.32 617.03 58.62Q618.58 57.67 619.88 56.46Q621.75 54.72 623.09 52.41Q623.93 50.95 624.45 49.38Q625.33 46.73 625.33 43.78L625.17 1.28Q625.17 1.12 625.09 1.03Q625 0.95 624.84 0.95L615.29 0.95Q615.12 0.95 615.04 1.03Q614.96 1.12 614.96 1.28L614.96 43.78Q614.96 45.5 614.3 46.91Q613.86 47.85 613.13 48.66Q612.24 49.64 611.13 50.14Q609.97 50.67 608.57 50.67Q607.41 50.67 606.41 50.28Q605.15 49.78 604.13 48.66Q603.4 47.85 602.96 46.91Q602.3 45.5 602.3 43.78L602.3 1.28Q602.3 1.12 602.22 1.03Q602.13 0.95 601.97 0.95L592.42 0.95Q592.26 0.95 592.17 1.03Q592.09 1.12 592.09 1.28L591.92 43.78Q591.92 46.56 592.73 49.08Q593.28 50.78 594.19 52.35Q595.43 54.52 597.16 56.2Q598.56 57.56 600.27 58.6Q602.14 59.74 604.17 60.32ZM640.57 60.09L650.15 60.09Q650.28 60.09 650.36 60.03Q650.49 59.93 650.49 59.68L650.4 11.2L661.57 11.2Q661.7 11.2 661.78 11.14Q661.9 11.04 661.9 10.79L661.9 1.28Q661.9 1.17 661.85 1.09Q661.74 0.95 661.44 0.95L629.15 0.95Q628.99 0.95 628.9 1.03Q628.82 1.12 628.82 1.28L628.74 10.79Q628.74 10.99 628.84 11.1Q628.95 11.2 629.15 11.2L640.19 11.2L640.19 59.68Q640.19 59.91 640.31 60.01Q640.4 60.09 640.57 60.09ZM677.26 60.32Q679.37 60.92 681.66 60.92Q684.93 60.92 687.75 59.8Q688.98 59.32 690.12 58.62Q691.67 57.67 692.97 56.46Q694.84 54.72 696.18 52.41Q697.02 50.95 697.54 49.38Q698.42 46.73 698.42 43.78L698.26 1.28Q698.26 1.12 698.17 1.03Q698.09 0.95 697.93 0.95L688.38 0.95Q688.21 0.95 688.13 1.03Q688.05 1.12 688.05 1.28L688.05 43.78Q688.05 45.5 687.39 46.91Q686.95 47.85 686.22 48.66Q685.33 49.64 684.22 50.14Q683.06 50.67 681.66 50.67Q680.5 50.67 679.5 50.28Q678.24 49.78 677.21 48.66Q676.48 47.85 676.05 46.91Q675.39 45.5 675.39 43.78L675.39 1.28Q675.39 1.12 675.31 1.03Q675.22 0.95 675.06 0.95L665.51 0.95Q665.34 0.95 665.26 1.03Q665.18 1.12 665.18 1.28L665.01 43.78Q665.01 46.56 665.82 49.08Q666.37 50.78 667.27 52.35Q668.52 54.52 670.25 56.2Q671.64 57.56 673.35 58.6Q675.23 59.74 677.26 60.32ZM705.44 60.09L715.07 60.09Q715.2 60.09 715.27 60.03Q715.4 59.93 715.4 59.68L715.48 34.69L721.08 34.69Q722.73 34.69 724.11 35.3Q725.37 35.86 726.4 36.93Q727.53 38.11 728.06 39.51Q728.56 40.78 728.56 42.25L728.56 59.84Q728.56 59.93 728.6 59.99Q728.67 60.09 728.89 60.09L738.52 60.09Q738.72 60.09 738.83 59.99Q738.93 59.89 738.93 59.68L738.85 42.25Q738.85 38.78 737.68 35.76Q736.53 32.78 734.24 30.25Q735.28 29.42 736.54 27.68Q737.81 25.93 738.77 23.4Q739.72 20.87 739.72 17.76Q739.72 14.16 738.41 11.12Q737.98 10.13 737.42 9.21Q736.35 7.46 734.95 6.04Q733.32 4.39 731.25 3.19Q729.77 2.33 728.18 1.8Q725.63 0.95 722.79 0.95L705.6 0.95Q705.44 0.95 705.35 1.03Q705.27 1.12 705.27 1.28L705.11 59.68Q705.11 59.93 705.23 60.03Q705.31 60.09 705.44 60.09ZM746.4 60.09L773.88 60.09Q774.04 60.09 774.13 60.01Q774.21 59.93 774.21 59.76L774.21 50.05Q774.21 49.8 774.09 49.7Q774.01 49.63 773.88 49.63L756.36 49.63L756.36 34.78L773.88 34.78Q774.04 34.78 774.13 34.69Q774.21 34.61 774.21 34.44L774.13 24.81Q774.13 24.65 774.04 24.57Q773.96 24.48 773.79 24.48L756.36 24.48L756.36 11.2L773.79 11.2Q773.96 11.2 774.04 11.12Q774.13 11.04 774.13 10.87L774.13 1.36Q774.13 1.11 774 1.01Q773.92 0.95 773.79 0.95L746.48 0.95Q746.32 0.95 746.24 1.03Q746.15 1.12 746.15 1.28L746.07 59.68Q746.07 59.93 746.19 60.03Q746.27 60.09 746.4 60.09ZM345.84 50.41Q345.01 50.67 344.1 50.67Q343 50.67 342.02 50.31Q340.7 49.82 339.62 48.66Q338.73 47.7 338.27 46.57Q337.75 45.32 337.75 43.86L337.75 16.93Q337.75 15.05 338.53 13.59Q338.96 12.79 339.62 12.11Q340.62 11.09 341.84 10.62Q342.89 10.21 344.1 10.21Q345.62 10.21 346.85 10.8Q347.83 11.29 348.63 12.16Q349.3 12.89 349.72 13.75Q350.41 15.17 350.41 16.93L350.5 43.86Q350.5 44.77 350.27 45.61Q349.83 47.21 348.59 48.58Q347.35 49.93 345.84 50.41ZM10.37 11.04L16.85 11.04Q18.03 11.04 19.06 11.42Q20.4 11.92 21.49 13.05Q22.6 14.19 23.08 15.55Q23.44 16.59 23.44 17.76Q23.44 18.37 23.33 18.96Q22.99 20.73 21.62 22.3Q20.86 23.17 19.91 23.68Q18.57 24.4 16.85 24.4L10.37 24.4L10.37 11.04ZM165.93 11.12L172.4 11.04Q174.43 11.04 175.9 11.95Q176.68 12.43 177.3 13.17Q177.56 13.48 177.77 13.81Q179.08 15.79 179.08 18.63Q179.08 22.78 177.09 25.37Q175.63 27.29 173.77 27.79Q173.11 27.97 172.4 27.97L165.93 27.97L165.93 11.12ZM241.71 11.12L249.02 11.12Q250.28 11.12 251.38 11.54Q252.68 12.03 253.75 13.09Q254.87 14.2 255.36 15.55Q255.74 16.58 255.74 17.76Q255.74 19.15 255.24 20.33Q254.73 21.54 253.69 22.53Q252.36 23.79 250.81 24.24Q249.95 24.48 249.02 24.48L241.71 24.48L241.71 11.12ZM715.48 11.12L722.79 11.12Q724.05 11.12 725.15 11.54Q726.44 12.03 727.52 13.09Q728.64 14.2 729.13 15.55Q729.51 16.58 729.51 17.76Q729.51 19.15 729.01 20.33Q728.49 21.54 727.46 22.53Q726.13 23.79 724.58 24.24Q723.72 24.48 722.79 24.48L715.48 24.48L715.48 11.12ZM107.16 44.36L110.98 20.5L111.35 17.34L111.85 20.5L115.33 44.36L107.16 44.36ZM205.02 44.36L208.84 20.5L209.22 17.34L209.71 20.5L213.2 44.36L205.02 44.36ZM10.37 34.69L15.56 34.69Q17.03 34.69 18.3 35.2Q19.68 35.74 20.83 36.89Q21.98 38.04 22.53 39.43Q23.03 40.69 23.03 42.16Q23.03 43.58 22.56 44.82Q22.02 46.27 20.83 47.48Q19.65 48.68 18.22 49.24Q16.98 49.72 15.56 49.72L10.29 49.72L10.37 34.69ZM232.42 162.24Q234.66 162.92 237.11 162.92Q240 162.92 242.56 162.01Q244.09 161.46 245.49 160.6Q247.07 159.63 248.39 158.37Q250.22 156.64 251.55 154.37Q252.34 153.02 252.85 151.57Q253.79 148.88 253.79 145.87L253.71 118.93Q253.71 115.72 252.65 112.92Q252.16 111.62 251.45 110.4Q250.15 108.19 248.36 106.5Q247.04 105.25 245.45 104.28Q244.43 103.65 243.34 103.19Q240.48 102 237.11 102Q234.79 102 232.64 102.61Q230.65 103.19 228.81 104.3Q226.78 105.52 225.2 107.16Q223.8 108.62 222.75 110.42Q222.15 111.41 221.71 112.47Q220.46 115.44 220.46 118.93L220.38 145.87Q220.38 148.68 221.23 151.21Q221.78 152.86 222.68 154.39Q224.01 156.63 225.83 158.35Q227.16 159.61 228.77 160.6Q230.52 161.67 232.42 162.24ZM467.99 162.08Q470.49 162.92 473.26 162.92Q476.54 162.92 479.35 161.78Q480.56 161.28 481.69 160.58Q483.15 159.66 484.39 158.5Q486.32 156.7 487.71 154.33Q488.39 153.12 488.87 151.84Q489.95 148.93 489.95 145.62L489.95 141.67Q489.95 141.51 489.87 141.42Q489.78 141.34 489.62 141.34L479.99 141.34Q479.82 141.34 479.74 141.42Q479.66 141.51 479.66 141.67L479.66 145.62Q479.66 146.66 479.38 147.63Q478.95 149.16 477.83 150.49Q476.82 151.7 475.54 152.23Q474.49 152.67 473.26 152.67Q472.07 152.67 471.04 152.26Q469.81 151.77 468.82 150.7Q468.4 150.24 468.07 149.72Q467 148 467 145.62L467 119.1Q467 117.47 467.57 116.07Q467.96 115.12 468.62 114.28Q469.14 113.61 469.8 113.16Q471.21 112.21 473.26 112.21Q474.64 112.21 475.79 112.72Q476.92 113.23 477.83 114.24Q478.63 115.13 479.08 116.17Q479.66 117.51 479.66 119.1L479.66 123Q479.66 123.16 479.74 123.25Q479.82 123.33 479.99 123.33L489.53 123.33Q489.7 123.33 489.78 123.25Q489.87 123.16 489.87 123L489.87 119.1Q489.87 115.55 488.64 112.49Q488.21 111.44 487.65 110.44Q486.35 108.17 484.53 106.45Q483.24 105.23 481.69 104.28Q480.88 103.78 480.02 103.39Q476.96 102 473.26 102Q470.31 102 467.7 102.94Q466.2 103.49 464.82 104.34Q462.78 105.6 461.22 107.29Q459.86 108.76 458.86 110.55Q458.4 111.36 458.04 112.22Q456.7 115.37 456.7 119.1L456.62 145.62Q456.62 149.23 457.87 152.34Q458.29 153.37 458.84 154.35Q460.1 156.57 461.85 158.27Q463.2 159.59 464.84 160.6Q466.35 161.52 467.99 162.08ZM412.5 162.24Q414.75 162.92 417.19 162.92Q420.28 162.92 422.99 161.92Q424.33 161.42 425.58 160.68Q427.15 159.75 428.46 158.54Q430.3 156.84 431.64 154.58Q432.08 153.82 432.43 153.03Q433.88 149.77 433.88 145.87Q433.88 141.23 431.78 137.94Q431.6 137.67 431.41 137.4Q428.94 133.95 424.7 131.59Q424.46 131.46 423.25 130.82Q422.05 130.18 420.58 129.37Q419.1 128.56 417.9 127.89Q416.69 127.23 416.36 127.06Q413.21 125.36 412.03 123.49Q410.84 121.63 410.84 118.85Q410.84 117.46 411.32 116.27Q411.79 115.1 412.71 114.11Q413.77 112.98 415.08 112.49Q416.06 112.12 417.19 112.12Q418.36 112.12 419.39 112.51Q420.62 112.97 421.63 113.99Q422.18 114.54 422.57 115.19Q423.5 116.74 423.5 118.85L423.58 125.82Q423.58 125.98 423.67 126.07Q423.75 126.15 423.92 126.15L433.46 126.15Q433.63 126.15 433.71 126.07Q433.79 125.98 433.79 125.82L433.79 118.85Q433.79 115.47 432.62 112.57Q432.17 111.44 431.53 110.38Q430.42 108.53 428.95 107.04Q427.42 105.48 425.49 104.32Q424 103.44 422.4 102.9Q419.93 102.08 417.19 102.08Q414.86 102.08 412.71 102.7Q410.8 103.25 409.04 104.3Q407.42 105.25 406.07 106.5Q404.28 108.14 402.96 110.3Q402.24 111.47 401.75 112.73Q400.63 115.57 400.63 118.85Q400.63 123.23 402.27 126.87Q402.56 127.51 402.89 128.12Q403 128.31 403.1 128.49Q405.37 132.38 409.81 134.99Q411.09 135.7 412.46 136.46Q413.83 137.23 415.28 138.02Q416.74 138.81 417.79 139.41Q418.85 140.01 419.52 140.43Q423 142.42 423.5 144.99Q423.58 145.42 423.58 145.87Q423.58 147.06 423.21 148.14Q422.75 149.48 421.72 150.62Q420.66 151.78 419.34 152.29Q418.34 152.67 417.19 152.67Q416.08 152.67 415.11 152.31Q413.79 151.82 412.71 150.66Q411.82 149.7 411.35 148.57Q410.84 147.32 410.84 145.87L410.84 141.96Q410.84 141.67 410.7 141.56Q410.63 141.51 410.51 141.51L400.96 141.51Q400.78 141.51 400.67 141.6Q400.55 141.71 400.55 141.96L400.55 145.87Q400.55 148.77 401.43 151.38Q401.96 152.94 402.81 154.39Q404.06 156.54 405.78 158.22Q407.17 159.56 408.85 160.6Q410.6 161.67 412.5 162.24ZM260.6 162.09L270.14 162.09Q270.35 162.09 270.46 161.99Q270.56 161.89 270.56 161.68L270.56 136.78L287.99 136.78Q288.24 136.78 288.34 136.65Q288.41 136.57 288.41 136.44L288.32 126.81Q288.32 126.56 288.2 126.46Q288.12 126.4 287.99 126.4L270.56 126.4L270.56 113.2L287.99 113.2Q288.16 113.2 288.24 113.12Q288.32 113.04 288.32 112.87L288.32 103.28Q288.32 103.15 288.26 103.07Q288.16 102.95 287.91 102.95L260.68 102.95Q260.51 102.95 260.43 103.03Q260.35 103.12 260.35 103.28L260.18 161.68Q260.18 161.89 260.29 161.99Q260.39 162.09 260.6 162.09ZM318.37 162.09L328 162.09Q328.13 162.09 328.21 162.03Q328.33 161.93 328.33 161.68L328.42 118.31L337.26 131.25L346.18 118.31L346.26 161.68Q346.26 161.93 346.39 162.03Q346.47 162.09 346.59 162.09L356.22 162.09Q356.35 162.09 356.43 162.03Q356.56 161.93 356.56 161.68L356.39 103.28Q356.39 103.14 356.32 103.05Q356.22 102.95 356.02 102.95L345.6 102.95Q345.46 102.95 345.34 103Q345.13 103.07 344.98 103.28L337.26 114.49L329.5 103.28Q329.3 103.03 329.07 102.97Q328.99 102.95 328.91 102.95L318.54 102.95Q318.37 102.95 318.29 103.03Q318.21 103.12 318.21 103.28L318.04 161.68Q318.04 161.93 318.16 162.03Q318.24 162.09 318.37 162.09ZM374.91 162.32Q377.02 162.92 379.3 162.92Q382.57 162.92 385.4 161.8Q386.62 161.32 387.77 160.62Q389.32 159.67 390.61 158.46Q392.48 156.72 393.83 154.41Q394.66 152.95 395.18 151.38Q396.07 148.73 396.07 145.78L395.9 103.28Q395.9 103.12 395.82 103.03Q395.74 102.95 395.57 102.95L386.02 102.95Q385.86 102.95 385.77 103.03Q385.69 103.12 385.69 103.28L385.69 145.78Q385.69 147.5 385.03 148.91Q384.6 149.85 383.87 150.66Q382.97 151.64 381.87 152.14Q380.7 152.67 379.3 152.67Q378.15 152.67 377.15 152.28Q375.88 151.78 374.86 150.66Q374.13 149.85 373.69 148.91Q373.03 147.5 373.03 145.78L373.03 103.28Q373.03 103.12 372.95 103.03Q372.87 102.95 372.7 102.95L363.15 102.95Q362.99 102.95 362.91 103.03Q362.82 103.12 362.82 103.28L362.66 145.78Q362.66 148.56 363.47 151.08Q364.01 152.78 364.92 154.35Q366.17 156.52 367.89 158.2Q369.29 159.56 371 160.6Q372.87 161.74 374.91 162.32ZM440.19 162.09L449.81 162.09Q449.94 162.09 450.02 162.03Q450.15 161.93 450.15 161.68L450.06 103.28Q450.06 103.12 449.98 103.03Q449.9 102.95 449.73 102.95L440.19 102.95Q440.02 102.95 439.94 103.03Q439.85 103.12 439.85 103.28L439.77 161.68Q439.77 161.89 439.87 161.99Q439.98 162.09 440.19 162.09ZM532.66 162.18L547.76 162.09Q547.93 162.09 548.01 162.01Q548.1 161.93 548.1 161.76L548.18 135.16L555.69 135.16Q555.86 135.16 555.94 135.07Q556.02 134.99 556.02 134.83L556.02 125.36Q556.02 125.17 555.93 125.07Q555.82 124.95 555.57 124.95L532.45 124.95Q530.39 124.95 529.13 123.94Q528.79 123.67 528.51 123.33Q527.18 121.71 527.18 118.85Q527.18 117.48 527.69 116.34Q528.08 115.47 528.76 114.74Q529.77 113.65 531 113.25Q531.69 113.04 532.45 113.04L544.03 113.04Q544.28 113.04 544.4 112.91Q544.53 112.79 544.53 112.54L544.53 103.53Q544.53 103.24 544.38 103.1Q544.24 102.95 543.95 102.95L532.45 102.95Q529.57 102.95 527.04 103.89Q525.78 104.36 524.6 105.07Q523.01 106.02 521.71 107.28Q520.14 108.81 519 110.79Q518.33 111.98 517.87 113.24Q516.93 115.87 516.93 118.85Q516.93 122.33 517.94 125.18Q518.96 128.02 520.75 129.97Q519.59 131.08 518.66 132.36Q517.83 133.51 517.18 134.8Q516.19 136.75 515.92 138.79Q515.81 139.6 515.81 140.43L515.81 146.03Q515.81 149.77 517.94 153.5Q518.58 154.62 519.37 155.63Q521.21 157.97 523.86 159.69Q524.75 160.27 525.7 160.71Q528.84 162.18 532.66 162.18ZM238.84 152.41Q238.02 152.67 237.11 152.67Q236 152.67 235.03 152.31Q233.7 151.82 232.62 150.66Q231.74 149.7 231.27 148.57Q230.76 147.32 230.76 145.87L230.76 118.93Q230.76 117.05 231.54 115.59Q231.96 114.79 232.62 114.11Q233.62 113.09 234.84 112.62Q235.89 112.21 237.11 112.21Q238.63 112.21 239.85 112.81Q240.84 113.29 241.63 114.16Q242.3 114.89 242.72 115.75Q243.42 117.17 243.42 118.93L243.5 145.87Q243.5 146.77 243.27 147.62Q242.84 149.21 241.59 150.58Q240.36 151.93 238.84 152.41ZM538.18 151.88L532.66 151.97Q530.59 151.97 529.1 151.04L529.09 151.03Q527.87 150.27 527.09 149.19Q526.91 148.95 526.76 148.69Q525.93 147.28 525.93 146.03L525.93 140.43Q525.93 140.14 525.98 139.86Q526.31 137.75 529.13 136.03Q529.59 135.75 530.09 135.56Q531.15 135.16 532.37 135.16L538.26 135.16L538.18 151.88ZM278.05 264.08Q280.54 264.92 283.32 264.92Q286.6 264.92 289.41 263.78Q290.62 263.29 291.75 262.58Q293.21 261.66 294.45 260.5Q296.38 258.7 297.76 256.33Q298.45 255.12 298.93 253.84Q300.01 250.93 300.01 247.62L300.01 243.67Q300.01 243.51 299.92 243.42Q299.84 243.34 299.67 243.34L290.04 243.34Q289.88 243.34 289.8 243.42Q289.71 243.51 289.71 243.67L289.71 247.62Q289.71 248.66 289.44 249.63Q289 251.16 287.89 252.49Q286.88 253.7 285.59 254.23Q284.55 254.67 283.32 254.67Q282.13 254.67 281.1 254.26Q279.87 253.77 278.88 252.7Q278.45 252.24 278.13 251.72Q277.05 250 277.05 247.62L277.05 221.1Q277.05 219.47 277.63 218.07Q278.02 217.12 278.67 216.28Q279.19 215.61 279.86 215.16Q281.26 214.21 283.32 214.21Q284.7 214.21 285.85 214.72Q286.98 215.23 287.89 216.24Q288.69 217.13 289.14 218.17Q289.71 219.51 289.71 221.1L289.71 225Q289.71 225.16 289.8 225.25Q289.88 225.33 290.04 225.33L299.59 225.33Q299.76 225.33 299.84 225.25Q299.92 225.16 299.92 225L299.92 221.1Q299.92 217.55 298.7 214.49Q298.27 213.44 297.7 212.44Q296.4 210.17 294.59 208.45Q293.3 207.23 291.75 206.28Q290.94 205.78 290.08 205.39Q287.02 204 283.32 204Q280.37 204 277.76 204.94Q276.26 205.49 274.88 206.34Q272.84 207.6 271.27 209.29Q269.92 210.76 268.92 212.55Q268.46 213.36 268.1 214.22Q266.76 217.37 266.76 221.1L266.68 247.62Q266.68 251.23 267.93 254.34Q268.34 255.37 268.9 256.35Q270.15 258.57 271.91 260.27Q273.25 261.59 274.9 262.6Q276.41 263.52 278.05 264.08ZM317.19 264.24Q319.43 264.92 321.88 264.92Q324.77 264.92 327.34 264.01Q328.86 263.46 330.26 262.6Q331.85 261.63 333.17 260.37Q335 258.64 336.32 256.37Q337.11 255.02 337.62 253.57Q338.56 250.88 338.56 247.87L338.48 220.93Q338.48 217.72 337.42 214.92Q336.94 213.62 336.22 212.4Q334.92 210.19 333.13 208.5Q331.81 207.25 330.22 206.28Q329.2 205.65 328.12 205.19Q325.25 204 321.88 204Q319.56 204 317.41 204.61Q315.42 205.19 313.58 206.3Q311.56 207.52 309.98 209.16Q308.57 210.62 307.52 212.42Q306.92 213.41 306.48 214.47Q305.24 217.44 305.24 220.93L305.15 247.87Q305.15 250.68 306 253.21Q306.55 254.86 307.46 256.39Q308.78 258.63 310.6 260.35Q311.94 261.61 313.54 262.6Q315.29 263.67 317.19 264.24ZM240.41 264.24Q242.65 264.92 245.1 264.92Q248.18 264.92 250.89 263.92Q252.23 263.42 253.48 262.68Q255.05 261.75 256.36 260.54Q258.21 258.84 259.54 256.58Q259.98 255.82 260.33 255.03Q261.78 251.77 261.78 247.87Q261.78 243.23 259.68 239.94Q259.5 239.67 259.31 239.4Q256.84 235.95 252.61 233.59Q252.36 233.46 251.16 232.82Q249.95 232.18 248.48 231.37Q247.01 230.56 245.8 229.89Q244.6 229.23 244.27 229.06Q241.11 227.36 239.93 225.49Q238.75 223.63 238.75 220.85Q238.75 219.46 239.22 218.27Q239.69 217.1 240.61 216.11Q241.68 214.98 242.98 214.49Q243.97 214.12 245.1 214.12Q246.27 214.12 247.29 214.51Q248.52 214.97 249.54 215.99Q250.09 216.54 250.47 217.19Q251.41 218.74 251.41 220.85L251.49 227.82Q251.49 227.98 251.57 228.07Q251.65 228.15 251.82 228.15L261.37 228.15Q261.53 228.15 261.62 228.07Q261.7 227.98 261.7 227.82L261.7 220.85Q261.7 217.47 260.53 214.57Q260.07 213.44 259.44 212.38Q258.33 210.53 256.86 209.04Q255.33 207.48 253.4 206.32Q251.91 205.44 250.3 204.9Q247.84 204.08 245.1 204.08Q242.77 204.08 240.62 204.7Q238.71 205.25 236.94 206.3Q235.33 207.25 233.98 208.5Q232.19 210.14 230.86 212.3Q230.15 213.47 229.65 214.73Q228.54 217.57 228.54 220.85Q228.54 225.23 230.17 228.87Q230.46 229.51 230.8 230.12Q230.9 230.31 231.01 230.49Q233.27 234.38 237.71 236.99Q239 237.7 240.37 238.46Q241.74 239.23 243.19 240.02Q244.64 240.81 245.7 241.41Q246.76 242.01 247.42 242.43Q250.91 244.42 251.41 246.99Q251.49 247.42 251.49 247.87Q251.49 249.06 251.12 250.14Q250.66 251.48 249.62 252.62Q248.56 253.78 247.25 254.29Q246.25 254.67 245.1 254.67Q243.99 254.67 243.02 254.31Q241.69 253.82 240.61 252.66Q239.72 251.7 239.26 250.57Q238.75 249.32 238.75 247.87L238.75 243.96Q238.75 243.67 238.6 243.56Q238.53 243.51 238.41 243.51L228.87 243.51Q228.68 243.51 228.58 243.6Q228.45 243.71 228.45 243.96L228.45 247.87Q228.45 250.77 229.34 253.38Q229.87 254.94 230.72 256.39Q231.97 258.54 233.69 260.22Q235.07 261.56 236.75 262.6Q238.51 263.67 240.41 264.24ZM173.13 264.09L188.36 264.01Q192.31 263.94 195.62 262.45Q196.52 262.05 197.37 261.54Q199.19 260.45 200.69 259.01Q202.45 257.31 203.76 255.13Q204.59 253.69 205.14 252.15Q206.12 249.33 206.12 246.16L206.12 221.76Q206.12 218.77 205.19 216.11Q204.66 214.6 203.82 213.19Q202.61 211.15 200.97 209.55Q199.49 208.11 197.66 207.03Q196.5 206.33 195.26 205.86Q192.41 204.78 189.11 204.87L173.21 204.95Q173.05 204.95 172.96 205.03Q172.88 205.12 172.88 205.28L172.71 263.68Q172.71 263.89 172.82 263.99Q172.92 264.09 173.13 264.09ZM213.22 264.09L222.85 264.09Q222.98 264.09 223.06 264.03Q223.18 263.93 223.18 263.68L223.1 205.28Q223.1 205.12 223.02 205.03Q222.93 204.95 222.77 204.95L213.22 204.95Q213.06 204.95 212.97 205.03Q212.89 205.12 212.89 205.28L212.81 263.68Q212.81 263.89 212.91 263.99Q213.01 264.09 213.22 264.09ZM354.5 264.09L364.79 264.09Q364.96 264.09 365.06 264.01Q365.19 263.91 365.21 263.68L376.75 205.28Q376.8 205.15 376.75 205.07Q376.69 204.95 376.42 204.95L366.91 204.95Q366.75 204.95 366.65 205.03Q366.54 205.11 366.5 205.28L359.69 244.21L352.72 205.28Q352.67 205.11 352.56 205.03Q352.46 204.95 352.3 204.95L342.67 204.95Q342.43 204.95 342.36 205.06Q342.31 205.14 342.34 205.28L354.09 263.68Q354.11 263.91 354.24 264.01Q354.34 264.09 354.5 264.09ZM382.06 264.09L409.54 264.09Q409.7 264.09 409.78 264.01Q409.87 263.93 409.87 263.76L409.87 254.05Q409.87 253.8 409.74 253.7Q409.66 253.63 409.54 253.63L392.02 253.63L392.02 238.78L409.54 238.78Q409.7 238.78 409.78 238.69Q409.87 238.61 409.87 238.44L409.78 228.81Q409.78 228.65 409.7 228.57Q409.62 228.48 409.45 228.48L392.02 228.48L392.02 215.2L409.45 215.2Q409.62 215.2 409.7 215.12Q409.78 215.04 409.78 214.87L409.78 205.37Q409.78 205.11 409.66 205.01Q409.58 204.95 409.45 204.95L382.14 204.95Q381.98 204.95 381.89 205.03Q381.81 205.12 381.81 205.28L381.73 263.68Q381.73 263.93 381.85 264.03Q381.93 264.09 382.06 264.09ZM417.75 264.09L427.38 264.09Q427.51 264.09 427.59 264.03Q427.71 263.93 427.71 263.68L427.8 238.69L433.4 238.69Q435.05 238.69 436.42 239.3Q437.68 239.86 438.71 240.93Q439.84 242.11 440.38 243.51Q440.87 244.78 440.87 246.25L440.87 263.84Q440.87 263.93 440.91 263.99Q440.99 264.09 441.2 264.09L450.83 264.09Q451.04 264.09 451.14 263.99Q451.25 263.89 451.25 263.68L451.16 246.25Q451.16 242.78 449.99 239.76Q448.84 236.79 446.56 234.25Q447.59 233.42 448.86 231.68Q450.13 229.94 451.08 227.4Q452.04 224.87 452.04 221.76Q452.04 218.16 450.72 215.12Q450.3 214.14 449.73 213.21Q448.66 211.46 447.26 210.04Q445.64 208.39 443.57 207.19Q442.09 206.33 440.5 205.8Q437.94 204.95 435.1 204.95L417.92 204.95Q417.75 204.95 417.67 205.03Q417.59 205.12 417.59 205.28L417.42 263.68Q417.42 263.93 417.54 264.03Q417.62 264.09 417.75 264.09ZM481.21 264.09L489.72 264.09Q490.18 264.09 490.37 263.87Q490.51 263.7 490.51 263.43L489.89 232.8L504.62 264.09L512.09 264.09Q512.26 264.09 512.36 264.01Q512.51 263.89 512.51 263.6L512.42 205.61Q512.42 205.19 512.22 205.04Q512.1 204.95 511.93 204.95L503.5 204.95Q503.08 204.95 502.9 205.16Q502.75 205.32 502.75 205.61L503.17 238.44L488.81 204.95L481.13 204.95Q480.8 204.95 480.63 205.12Q480.47 205.28 480.47 205.61L480.55 263.51Q480.55 263.76 480.67 263.91Q480.84 264.09 481.21 264.09ZM520.23 264.09L547.7 264.09Q547.87 264.09 547.95 264.01Q548.03 263.93 548.03 263.76L548.03 254.05Q548.03 253.8 547.91 253.7Q547.83 253.63 547.7 253.63L530.19 253.63L530.19 238.78L547.7 238.78Q547.87 238.78 547.95 238.69Q548.03 238.61 548.03 238.44L547.95 228.81Q547.95 228.65 547.87 228.57Q547.78 228.48 547.62 228.48L530.19 228.48L530.19 215.2L547.62 215.2Q547.78 215.2 547.87 215.12Q547.95 215.04 547.95 214.87L547.95 205.37Q547.95 205.11 547.83 205.01Q547.75 204.95 547.62 204.95L520.31 204.95Q520.14 204.95 520.06 205.03Q519.98 205.12 519.98 205.28L519.89 263.68Q519.89 263.93 520.02 264.03Q520.1 264.09 520.23 264.09ZM563.43 264.09L573.72 264.09Q573.89 264.09 573.99 264.01Q574.12 263.91 574.14 263.68L578.46 233.17L582.81 263.68Q582.96 264.04 583.17 264.09Q583.2 264.09 583.23 264.09L593.52 264.09L593.69 263.97Q593.9 263.84 593.94 263.68L604.06 205.28Q604.1 205.14 604.05 205.06Q603.97 204.95 603.73 204.95L594.27 204.95Q594.11 204.95 594.01 205.03Q593.9 205.11 593.85 205.28L588.33 243.67L582.81 205.28Q582.77 205.11 582.66 205.03Q582.56 204.95 582.4 204.95L574.72 204.95Q574.46 204.95 574.33 205.08Q574.25 205.16 574.22 205.28L568.62 243.67L563.18 205.28Q563.14 205.11 563.03 205.03Q562.93 204.95 562.77 204.95L553.22 204.95Q553.06 204.95 553 205.03Q552.93 205.11 552.97 205.28L563.02 263.68Q563.04 263.91 563.17 264.01Q563.27 264.09 563.43 264.09ZM323.62 254.41Q322.79 254.67 321.88 254.67Q320.77 254.67 319.8 254.31Q318.47 253.82 317.4 252.66Q316.51 251.7 316.04 250.57Q315.53 249.32 315.53 247.87L315.53 220.93Q315.53 219.05 316.31 217.59Q316.74 216.79 317.4 216.11Q318.4 215.09 319.61 214.62Q320.66 214.21 321.88 214.21Q323.4 214.21 324.62 214.81Q325.61 215.29 326.4 216.16Q327.07 216.89 327.49 217.75Q328.19 219.17 328.19 220.93L328.27 247.87Q328.27 248.77 328.04 249.62Q327.61 251.21 326.36 252.58Q325.13 253.93 323.62 254.41ZM183.17 215.12L189.11 215.04Q190.34 215 191.41 215.38Q192.74 215.86 193.84 216.97Q195 218.14 195.49 219.55Q195.83 220.55 195.83 221.68L195.83 246.16Q195.83 247.68 195.3 248.99Q194.77 250.32 193.67 251.43Q192.68 252.45 191.47 253Q190.06 253.63 188.36 253.63L183.09 253.63L183.17 215.12ZM427.8 215.12L435.1 215.12Q436.36 215.12 437.47 215.54Q438.76 216.03 439.83 217.09Q440.96 218.2 441.45 219.55Q441.83 220.58 441.83 221.76Q441.83 223.15 441.32 224.33Q440.81 225.54 439.77 226.53Q438.45 227.79 436.89 228.24Q436.03 228.48 435.1 228.48L427.8 228.48L427.8 215.12ZM45.13 366.24Q47.37 366.92 49.82 366.92Q52.71 366.92 55.28 366.01Q56.8 365.46 58.2 364.6Q59.79 363.63 61.11 362.37Q62.94 360.64 64.26 358.37Q65.05 357.02 65.56 355.57Q66.51 352.88 66.51 349.87L66.42 322.93Q66.42 319.72 65.37 316.92Q64.88 315.62 64.16 314.4Q62.86 312.19 61.07 310.5Q59.75 309.25 58.16 308.28Q57.15 307.65 56.06 307.19Q53.19 306 49.82 306Q47.5 306 45.36 306.61Q43.36 307.19 41.52 308.3Q39.5 309.52 37.92 311.16Q36.51 312.62 35.46 314.42Q34.86 315.41 34.42 316.47Q33.18 319.44 33.18 322.93L33.09 349.87Q33.09 352.68 33.94 355.21Q34.49 356.86 35.4 358.39Q36.72 360.63 38.54 362.35Q39.88 363.61 41.48 364.6Q43.23 365.67 45.13 366.24ZM162.96 366.24Q165.2 366.92 167.65 366.92Q170.54 366.92 173.11 366.01Q174.63 365.46 176.03 364.6Q177.62 363.63 178.94 362.37Q180.77 360.64 182.09 358.37Q182.88 357.02 183.39 355.57Q184.34 352.88 184.34 349.87L184.25 322.93Q184.25 319.72 183.2 316.92Q182.71 315.62 181.99 314.4Q180.69 312.19 178.9 310.5Q177.58 309.25 175.99 308.28Q174.98 307.65 173.89 307.19Q171.02 306 167.65 306Q165.33 306 163.19 306.61Q161.19 307.19 159.35 308.3Q157.33 309.52 155.75 311.16Q154.34 312.62 153.29 314.42Q152.69 315.41 152.25 316.47Q151.01 319.44 151.01 322.93L150.92 349.87Q150.92 352.68 151.77 355.21Q152.32 356.86 153.23 358.39Q154.55 360.63 156.37 362.35Q157.71 363.61 159.31 364.6Q161.06 365.67 162.96 366.24ZM459.34 366.24Q461.58 366.92 464.03 366.92Q467.11 366.92 469.83 365.92Q471.17 365.42 472.41 364.68Q473.98 363.75 475.29 362.54Q477.14 360.84 478.47 358.58Q478.91 357.82 479.27 357.03Q480.71 353.77 480.71 349.87Q480.71 345.23 478.61 341.94Q478.44 341.67 478.25 341.4Q475.78 337.95 471.54 335.59Q471.29 335.46 470.09 334.82Q468.89 334.18 467.41 333.37Q465.94 332.56 464.74 331.89Q463.53 331.23 463.2 331.06Q460.05 329.36 458.86 327.49Q457.68 325.63 457.68 322.85Q457.68 321.46 458.16 320.27Q458.62 319.1 459.55 318.11Q460.61 316.98 461.91 316.49Q462.9 316.12 464.03 316.12Q465.2 316.12 466.23 316.51Q467.45 316.97 468.47 317.99Q469.02 318.54 469.41 319.19Q470.34 320.74 470.34 322.85L470.42 329.82Q470.42 329.98 470.5 330.07Q470.59 330.15 470.75 330.15L480.3 330.15Q480.47 330.15 480.55 330.07Q480.63 329.98 480.63 329.82L480.63 322.85Q480.63 319.47 479.46 316.57Q479 315.44 478.37 314.38Q477.26 312.53 475.79 311.04Q474.26 309.48 472.33 308.32Q470.84 307.44 469.23 306.9Q466.77 306.08 464.03 306.08Q461.7 306.08 459.55 306.7Q457.64 307.25 455.87 308.3Q454.26 309.25 452.91 310.5Q451.12 312.14 449.79 314.3Q449.08 315.47 448.59 316.73Q447.47 319.57 447.47 322.85Q447.47 327.23 449.11 330.87Q449.39 331.51 449.73 332.12Q449.83 332.31 449.94 332.49Q452.2 336.38 456.64 338.99Q457.93 339.7 459.3 340.46Q460.67 341.23 462.12 342.02Q463.57 342.81 464.63 343.41Q465.69 344.01 466.35 344.43Q469.84 346.42 470.34 348.99Q470.42 349.42 470.42 349.87Q470.42 351.06 470.05 352.14Q469.59 353.48 468.55 354.62Q467.49 355.78 466.18 356.29Q465.18 356.67 464.03 356.67Q462.92 356.67 461.95 356.31Q460.62 355.82 459.55 354.66Q458.66 353.7 458.19 352.57Q457.68 351.32 457.68 349.87L457.68 345.96Q457.68 345.67 457.54 345.56Q457.46 345.51 457.35 345.51L447.8 345.51Q447.61 345.51 447.51 345.6Q447.39 345.71 447.39 345.96L447.39 349.87Q447.39 352.77 448.27 355.38Q448.8 356.94 449.65 358.39Q450.9 360.54 452.62 362.22Q454 363.56 455.69 364.6Q457.44 365.67 459.34 366.24ZM725.26 366.24Q727.5 366.92 729.95 366.92Q733.03 366.92 735.74 365.92Q737.08 365.42 738.33 364.68Q739.9 363.75 741.21 362.54Q743.05 360.84 744.39 358.58Q744.83 357.82 745.18 357.03Q746.63 353.77 746.63 349.87Q746.63 345.23 744.53 341.94Q744.35 341.67 744.16 341.4Q741.69 337.95 737.46 335.59Q737.21 335.46 736.01 334.82Q734.8 334.18 733.33 333.37Q731.85 332.56 730.65 331.89Q729.45 331.23 729.12 331.06Q725.96 329.36 724.78 327.49Q723.6 325.63 723.6 322.85Q723.6 321.46 724.07 320.27Q724.54 319.1 725.46 318.11Q726.52 316.98 727.83 316.49Q728.82 316.12 729.95 316.12Q731.12 316.12 732.14 316.51Q733.37 316.97 734.39 317.99Q734.94 318.54 735.32 319.19Q736.25 320.74 736.25 322.85L736.34 329.82Q736.34 329.98 736.42 330.07Q736.5 330.15 736.67 330.15L746.21 330.15Q746.38 330.15 746.46 330.07Q746.55 329.98 746.55 329.82L746.55 322.85Q746.55 319.47 745.38 316.57Q744.92 315.44 744.29 314.38Q743.18 312.53 741.71 311.04Q740.17 309.48 738.25 308.32Q736.76 307.44 735.15 306.9Q732.68 306.08 729.95 306.08Q727.62 306.08 725.47 306.7Q723.56 307.25 721.79 308.3Q720.18 309.25 718.83 310.5Q717.03 312.14 715.71 314.3Q715 315.47 714.5 316.73Q713.39 319.57 713.39 322.85Q713.39 327.23 715.02 330.87Q715.31 331.51 715.65 332.12Q715.75 332.31 715.86 332.49Q718.12 336.38 722.56 338.99Q723.84 339.7 725.21 340.46Q726.58 341.23 728.04 342.02Q729.49 342.81 730.55 343.41Q731.61 344.01 732.27 344.43Q735.76 346.42 736.25 348.99Q736.34 349.42 736.34 349.87Q736.34 351.06 735.97 352.14Q735.51 353.48 734.47 354.62Q733.41 355.78 732.1 356.29Q731.09 356.67 729.95 356.67Q728.84 356.67 727.86 356.31Q726.54 355.82 725.46 354.66Q724.57 353.7 724.11 352.57Q723.6 351.32 723.6 349.87L723.6 345.96Q723.6 345.67 723.45 345.56Q723.38 345.51 723.26 345.51L713.72 345.51Q713.53 345.51 713.43 345.6Q713.3 345.71 713.3 345.96L713.3 349.87Q713.3 352.77 714.19 355.38Q714.72 356.94 715.56 358.39Q716.82 360.54 718.54 362.22Q719.92 363.56 721.6 364.6Q723.36 365.67 725.26 366.24ZM73.31 366.09L82.86 366.09Q83.07 366.09 83.17 365.99Q83.27 365.89 83.27 365.68L83.27 344.26L89.75 344.26Q91.89 344.26 93.88 343.71Q96.05 343.11 98.05 341.85Q98.43 341.62 98.79 341.36Q102.11 339.01 104.27 335.05Q106.64 330.61 106.64 324.63Q106.64 317.56 103.24 313.05Q102.71 312.35 102.1 311.7Q101.03 310.59 99.79 309.74Q95.72 306.95 89.75 306.95L73.39 306.95Q73.23 306.95 73.15 307.03Q73.06 307.12 73.06 307.28L72.9 365.68Q72.9 365.89 73 365.99Q73.1 366.09 73.31 366.09ZM112.82 366.09L122.37 366.09Q122.58 366.09 122.68 365.99Q122.78 365.89 122.78 365.68L122.78 344.26L129.26 344.26Q131.4 344.26 133.39 343.71Q135.56 343.11 137.56 341.85Q137.94 341.62 138.31 341.36Q141.62 339.01 143.78 335.05Q146.15 330.61 146.15 324.63Q146.15 317.56 142.75 313.05Q142.22 312.35 141.61 311.7Q140.54 310.59 139.3 309.74Q135.23 306.95 129.26 306.95L112.91 306.95Q112.74 306.95 112.66 307.03Q112.57 307.12 112.57 307.28L112.41 365.68Q112.41 365.89 112.51 365.99Q112.62 366.09 112.82 366.09ZM191.06 366.09L200.69 366.09Q200.82 366.09 200.9 366.03Q201.02 365.93 201.02 365.68L201.1 340.69L206.71 340.69Q208.35 340.69 209.73 341.3Q210.99 341.86 212.02 342.93Q213.15 344.11 213.69 345.51Q214.18 346.78 214.18 348.25L214.18 365.84Q214.18 365.93 214.22 365.99Q214.3 366.09 214.51 366.09L224.14 366.09Q224.34 366.09 224.45 365.99Q224.55 365.89 224.55 365.68L224.47 348.25Q224.47 344.78 223.3 341.76Q222.15 338.79 219.86 336.25Q220.9 335.42 222.17 333.68Q223.43 331.94 224.39 329.4Q225.34 326.87 225.34 323.76Q225.34 320.16 224.03 317.12Q223.6 316.14 223.04 315.21Q221.97 313.46 220.57 312.04Q218.95 310.39 216.87 309.19Q215.39 308.33 213.81 307.8Q211.25 306.95 208.41 306.95L191.22 306.95Q191.06 306.95 190.98 307.03Q190.89 307.12 190.89 307.28L190.73 365.68Q190.73 365.93 190.85 366.03Q190.93 366.09 191.06 366.09ZM240.24 366.09L249.83 366.09Q249.96 366.09 250.04 366.03Q250.16 365.93 250.16 365.68L250.08 317.2L261.24 317.2Q261.37 317.2 261.45 317.14Q261.57 317.04 261.57 316.79L261.57 307.28Q261.57 307.17 261.52 307.09Q261.42 306.95 261.12 306.95L228.83 306.95Q228.66 306.95 228.58 307.03Q228.5 307.12 228.5 307.28L228.41 316.79Q228.41 316.99 228.52 317.1Q228.62 317.2 228.83 317.2L239.87 317.2L239.87 365.68Q239.87 365.91 239.98 366.01Q240.07 366.09 240.24 366.09ZM276.94 366.32Q279.05 366.92 281.33 366.92Q284.6 366.92 287.43 365.8Q288.65 365.32 289.8 364.62Q291.35 363.68 292.64 362.46Q294.51 360.72 295.86 358.41Q296.69 356.95 297.21 355.38Q298.1 352.73 298.1 349.78L297.93 307.28Q297.93 307.12 297.85 307.03Q297.76 306.95 297.6 306.95L288.05 306.95Q287.89 306.95 287.8 307.03Q287.72 307.12 287.72 307.28L287.72 349.78Q287.72 351.5 287.06 352.91Q286.63 353.85 285.9 354.66Q285 355.64 283.9 356.14Q282.73 356.67 281.33 356.67Q280.18 356.67 279.18 356.28Q277.91 355.78 276.89 354.66Q276.16 353.85 275.72 352.91Q275.06 351.5 275.06 349.78L275.06 307.28Q275.06 307.12 274.98 307.03Q274.9 306.95 274.73 306.95L265.18 306.95Q265.02 306.95 264.94 307.03Q264.85 307.12 264.85 307.28L264.69 349.78Q264.69 352.56 265.5 355.08Q266.04 356.78 266.95 358.35Q268.2 360.52 269.92 362.2Q271.32 363.56 273.03 364.6Q274.9 365.74 276.94 366.32ZM305.53 366.09L314.03 366.09Q314.5 366.09 314.69 365.87Q314.82 365.7 314.82 365.43L314.2 334.8L328.93 366.09L336.41 366.09Q336.58 366.09 336.68 366.01Q336.82 365.89 336.82 365.6L336.74 307.61Q336.74 307.19 336.53 307.04Q336.42 306.95 336.24 306.95L327.81 306.95Q327.4 306.95 327.21 307.16Q327.07 307.32 327.07 307.61L327.48 340.44L313.12 306.95L305.44 306.95Q305.11 306.95 304.95 307.12Q304.78 307.28 304.78 307.61L304.86 365.51Q304.86 365.76 304.99 365.91Q305.15 366.09 305.53 366.09ZM344.62 366.09L354.25 366.09Q354.38 366.09 354.46 366.03Q354.58 365.93 354.58 365.68L354.5 307.28Q354.5 307.12 354.42 307.03Q354.34 306.95 354.17 306.95L344.62 306.95Q344.46 306.95 344.37 307.03Q344.29 307.12 344.29 307.28L344.21 365.68Q344.21 365.89 344.31 365.99Q344.42 366.09 344.62 366.09ZM370.6 366.09L380.19 366.09Q380.32 366.09 380.4 366.03Q380.52 365.93 380.52 365.68L380.44 317.2L391.61 317.2Q391.74 317.2 391.81 317.14Q391.94 317.04 391.94 316.79L391.94 307.28Q391.94 307.17 391.88 307.09Q391.78 306.95 391.48 306.95L359.19 306.95Q359.03 306.95 358.94 307.03Q358.86 307.12 358.86 307.28L358.78 316.79Q358.78 316.99 358.88 317.1Q358.98 317.2 359.19 317.2L370.23 317.2L370.23 365.68Q370.23 365.91 370.35 366.01Q370.44 366.09 370.6 366.09ZM396.46 366.09L406.09 366.09Q406.22 366.09 406.3 366.03Q406.42 365.93 406.42 365.68L406.34 307.28Q406.34 307.12 406.26 307.03Q406.17 306.95 406.01 306.95L396.46 306.95Q396.3 306.95 396.21 307.03Q396.13 307.12 396.13 307.28L396.05 365.68Q396.05 365.89 396.15 365.99Q396.25 366.09 396.46 366.09ZM414.23 366.09L441.7 366.09Q441.87 366.09 441.95 366.01Q442.03 365.93 442.03 365.76L442.03 356.05Q442.03 355.8 441.91 355.7Q441.83 355.63 441.7 355.63L424.19 355.63L424.19 340.78L441.7 340.78Q441.87 340.78 441.95 340.69Q442.03 340.61 442.03 340.44L441.95 330.81Q441.95 330.65 441.87 330.57Q441.78 330.48 441.62 330.48L424.19 330.48L424.19 317.2L441.62 317.2Q441.78 317.2 441.87 317.12Q441.95 317.04 441.95 316.87L441.95 307.37Q441.95 307.11 441.83 307.01Q441.75 306.95 441.62 306.95L414.31 306.95Q414.14 306.95 414.06 307.03Q413.98 307.12 413.98 307.28L413.89 365.68Q413.89 365.93 414.02 366.03Q414.1 366.09 414.23 366.09ZM516.53 366.09L526.83 366.09Q526.99 366.09 527.09 366.01Q527.22 365.91 527.24 365.68L531.56 335.17L535.91 365.68Q536.06 366.05 536.27 366.09Q536.3 366.09 536.33 366.09L546.62 366.09L546.79 365.97Q547 365.84 547.04 365.68L557.16 307.28Q557.2 307.14 557.15 307.06Q557.07 306.95 556.83 306.95L547.37 306.95Q547.21 306.95 547.11 307.03Q547 307.11 546.95 307.28L541.43 345.67L535.91 307.28Q535.87 307.11 535.76 307.03Q535.66 306.95 535.5 306.95L527.82 306.95Q527.56 306.95 527.43 307.08Q527.35 307.16 527.32 307.28L521.72 345.67L516.28 307.28Q516.24 307.11 516.13 307.03Q516.03 306.95 515.87 306.95L506.32 306.95Q506.16 306.95 506.1 307.03Q506.03 307.11 506.07 307.28L516.12 365.68Q516.14 365.91 516.27 366.01Q516.37 366.09 516.53 366.09ZM562.56 366.09L572.19 366.09Q572.32 366.09 572.4 366.03Q572.52 365.93 572.52 365.68L572.44 307.28Q572.44 307.12 572.36 307.03Q572.27 306.95 572.11 306.95L562.56 306.95Q562.39 306.95 562.31 307.03Q562.23 307.12 562.23 307.28L562.15 365.68Q562.15 365.89 562.25 365.99Q562.35 366.09 562.56 366.09ZM588.54 366.09L598.13 366.09Q598.26 366.09 598.34 366.03Q598.46 365.93 598.46 365.68L598.38 317.2L609.54 317.2Q609.67 317.2 609.75 317.14Q609.87 317.04 609.87 316.79L609.87 307.28Q609.87 307.17 609.82 307.09Q609.72 306.95 609.42 306.95L577.13 306.95Q576.96 306.95 576.88 307.03Q576.8 307.12 576.8 307.28L576.71 316.79Q576.71 316.99 576.82 317.1Q576.92 317.2 577.13 317.2L588.17 317.2L588.17 365.68Q588.17 365.91 588.28 366.01Q588.37 366.09 588.54 366.09ZM614.32 366.09L623.94 366.09Q624.07 366.09 624.15 366.03Q624.28 365.93 624.28 365.68L624.28 340.69L637.02 340.69L637.02 365.68Q637.02 365.89 637.12 365.99Q637.23 366.09 637.43 366.09L646.98 366.09Q647.19 366.09 647.29 365.99Q647.39 365.89 647.39 365.68L647.23 307.28Q647.23 307.15 647.16 307.07Q647.07 306.95 646.81 306.95L637.35 306.95Q637.18 306.95 637.1 307.03Q637.02 307.12 637.02 307.28L637.02 330.4L624.28 330.4L624.36 307.28Q624.36 307.15 624.3 307.07Q624.2 306.95 623.94 306.95L614.48 306.95Q614.23 306.95 614.13 307.07Q614.07 307.15 614.07 307.28L613.98 365.68Q613.98 365.93 614.11 366.03Q614.19 366.09 614.32 366.09ZM687.66 366.32Q689.77 366.92 692.05 366.92Q695.32 366.92 698.15 365.8Q699.38 365.32 700.52 364.62Q702.07 363.68 703.37 362.46Q705.23 360.72 706.58 358.41Q707.41 356.95 707.94 355.38Q708.82 352.73 708.82 349.78L708.65 307.28Q708.65 307.12 708.57 307.03Q708.49 306.95 708.32 306.95L698.78 306.95Q698.61 306.95 698.53 307.03Q698.44 307.12 698.44 307.28L698.44 349.78Q698.44 351.5 697.79 352.91Q697.35 353.85 696.62 354.66Q695.73 355.64 694.62 356.14Q693.45 356.67 692.05 356.67Q690.9 356.67 689.9 356.28Q688.63 355.78 687.61 354.66Q686.88 353.85 686.44 352.91Q685.79 351.5 685.79 349.78L685.79 307.28Q685.79 307.12 685.7 307.03Q685.62 306.95 685.45 306.95L675.91 306.95Q675.74 306.95 675.66 307.03Q675.58 307.12 675.58 307.28L675.41 349.78Q675.41 352.56 676.22 355.08Q676.76 356.78 677.67 358.35Q678.92 360.52 680.64 362.2Q682.04 363.56 683.75 364.6Q685.62 365.74 687.66 366.32ZM754.72 350.45L760.53 350.45Q760.7 350.45 760.8 350.37Q760.93 350.26 760.95 350.03L762.73 330.48L762.82 307.37Q762.82 307.16 762.71 307.05Q762.61 306.95 762.4 306.95L752.86 306.95Q752.73 306.95 752.65 307.01Q752.52 307.11 752.52 307.37L752.52 330.48L754.31 350.03Q754.33 350.26 754.46 350.37Q754.56 350.45 754.72 350.45ZM51.56 356.41Q50.73 356.67 49.82 356.67Q48.71 356.67 47.74 356.31Q46.41 355.82 45.34 354.66Q44.45 353.7 43.98 352.57Q43.47 351.32 43.47 349.87L43.47 322.93Q43.47 321.05 44.25 319.59Q44.68 318.79 45.34 318.11Q46.34 317.09 47.55 316.62Q48.61 316.21 49.82 316.21Q51.34 316.21 52.56 316.81Q53.55 317.29 54.34 318.16Q55.02 318.89 55.44 319.75Q56.13 321.17 56.13 322.93L56.21 349.87Q56.21 350.77 55.98 351.62Q55.55 353.21 54.3 354.58Q53.07 355.93 51.56 356.41ZM169.39 356.41Q168.56 356.67 167.65 356.67Q166.54 356.67 165.57 356.31Q164.24 355.82 163.17 354.66Q162.28 353.7 161.81 352.57Q161.3 351.32 161.3 349.87L161.3 322.93Q161.3 321.05 162.08 319.59Q162.51 318.79 163.17 318.11Q164.17 317.09 165.38 316.62Q166.44 316.21 167.65 316.21Q169.17 316.21 170.39 316.81Q171.38 317.29 172.17 318.16Q172.85 318.89 173.27 319.75Q173.96 321.17 173.96 322.93L174.04 349.87Q174.04 350.77 173.81 351.62Q173.38 353.21 172.13 354.58Q170.9 355.93 169.39 356.41ZM83.27 317.12L89.75 317.04Q91.78 317.04 93.25 317.95Q94.03 318.43 94.64 319.17Q94.9 319.48 95.12 319.81Q96.43 321.79 96.43 324.63Q96.43 328.78 94.44 331.38Q92.97 333.29 91.12 333.79Q90.46 333.97 89.75 333.97L83.27 333.97L83.27 317.12ZM122.78 317.12L129.26 317.04Q131.29 317.04 132.76 317.95Q133.54 318.43 134.16 319.17Q134.41 319.48 134.63 319.81Q135.94 321.79 135.94 324.63Q135.94 328.78 133.95 331.38Q132.48 333.29 130.63 333.79Q129.97 333.97 129.26 333.97L122.78 333.97L122.78 317.12ZM201.1 317.12L208.41 317.12Q209.67 317.12 210.77 317.54Q212.06 318.03 213.14 319.09Q214.26 320.2 214.75 321.54Q215.13 322.58 215.13 323.76Q215.13 325.15 214.63 326.33Q214.12 327.54 213.08 328.53Q211.75 329.79 210.2 330.24Q209.34 330.48 208.41 330.48L201.1 330.48L201.1 317.12ZM752.86 366.09L762.4 366.09Q762.53 366.09 762.61 366.03Q762.73 365.93 762.73 365.68L762.73 356.42Q762.73 356.21 762.63 356.12Q762.55 356.05 762.4 356.05L752.86 356.05Q752.71 356.05 752.63 356.12Q752.52 356.21 752.52 356.42L752.52 365.68Q752.52 365.93 752.65 366.03Q752.73 366.09 752.86 366.09Z" fill="#F6601F" fill-opacity="1.000000" fill-rule="evenodd"/>
</svg>
