<svg width="1187.136230" height="162.925781" viewBox="0 0 1187.14 162.926" fill="none" xmlns="http://www.w3.org/2000/svg" xmlns:xlink="http://www.w3.org/1999/xlink">
	<desc>
			Created with Pixso.
	</desc>
	<defs/>
	<path id="Be a part of the future of music &amp; discover new opportunities with us!" d="M353.98 60.24Q356.22 60.92 358.67 60.92Q361.56 60.92 364.13 60.01Q365.65 59.46 367.06 58.6Q368.64 57.62 369.96 56.37Q371.79 54.64 373.12 52.37Q373.9 51.02 374.41 49.57Q375.36 46.88 375.36 43.86L375.27 16.93Q375.27 13.72 374.22 10.92Q373.73 9.62 373.01 8.4Q371.71 6.19 369.92 4.5Q368.6 3.25 367.01 2.28Q366 1.65 364.91 1.19Q362.04 0 358.67 0Q356.35 0 354.21 0.61Q352.21 1.19 350.37 2.3Q348.35 3.52 346.77 5.16Q345.37 6.62 344.31 8.42Q343.71 9.41 343.27 10.47Q342.03 13.44 342.03 16.93L341.95 43.86Q341.95 46.68 342.79 49.21Q343.34 50.86 344.25 52.39Q345.58 54.63 347.39 56.35Q348.73 57.61 350.33 58.6Q352.08 59.67 353.98 60.24ZM829.45 60.24Q831.69 60.92 834.14 60.92Q837.03 60.92 839.6 60.01Q841.12 59.46 842.52 58.6Q844.11 57.62 845.43 56.37Q847.26 54.64 848.58 52.37Q849.37 51.02 849.88 49.57Q850.83 46.88 850.83 43.86L850.74 16.93Q850.74 13.72 849.69 10.92Q849.2 9.62 848.48 8.4Q847.18 6.19 845.39 4.5Q844.07 3.25 842.48 2.28Q841.47 1.65 840.38 1.19Q837.51 0 834.14 0Q831.82 0 829.68 0.61Q827.68 1.19 825.84 2.3Q823.82 3.52 822.24 5.16Q820.83 6.62 819.78 8.42Q819.18 9.41 818.74 10.47Q817.5 13.44 817.5 16.93L817.41 43.86Q817.41 46.68 818.26 49.21Q818.81 50.86 819.72 52.39Q821.05 54.63 822.86 56.35Q824.2 57.61 825.8 58.6Q827.55 59.67 829.45 60.24ZM1065.03 60.08Q1067.52 60.92 1070.3 60.92Q1073.57 60.92 1076.39 59.78Q1077.6 59.29 1078.73 58.58Q1080.18 57.66 1081.43 56.5Q1083.36 54.7 1084.75 52.33Q1085.43 51.12 1085.91 49.84Q1086.99 46.93 1086.99 43.62L1086.99 39.67Q1086.99 39.51 1086.9 39.42Q1086.81 39.34 1086.66 39.34L1077.03 39.34Q1076.86 39.34 1076.78 39.42Q1076.68 39.51 1076.68 39.67L1076.68 43.62Q1076.68 44.66 1076.42 45.63Q1075.99 47.16 1074.87 48.49Q1073.86 49.69 1072.56 50.23Q1071.53 50.67 1070.3 50.67Q1069.11 50.67 1068.07 50.26Q1066.85 49.77 1065.86 48.7Q1065.43 48.24 1065.11 47.72Q1064.04 46 1064.04 43.62L1064.04 17.09Q1064.04 15.47 1064.61 14.07Q1065 13.12 1065.65 12.28Q1066.17 11.61 1066.84 11.16Q1068.25 10.21 1070.3 10.21Q1071.68 10.21 1072.82 10.72Q1073.96 11.23 1074.87 12.24Q1075.67 13.13 1076.12 14.17Q1076.68 15.51 1076.68 17.09L1076.68 21Q1076.68 21.16 1076.78 21.25Q1076.86 21.33 1077.03 21.33L1086.56 21.33Q1086.74 21.33 1086.81 21.25Q1086.9 21.16 1086.9 21L1086.9 17.09Q1086.9 13.54 1085.68 10.49Q1085.25 9.44 1084.68 8.44Q1083.38 6.17 1081.56 4.45Q1080.28 3.22 1078.73 2.28Q1077.92 1.78 1077.06 1.39Q1074 0 1070.3 0Q1067.35 0 1064.74 0.94Q1063.24 1.49 1061.86 2.34Q1059.81 3.6 1058.25 5.29Q1056.9 6.76 1055.9 8.54Q1055.43 9.36 1055.07 10.22Q1053.74 13.37 1053.74 17.09L1053.66 43.62Q1053.66 47.23 1054.91 50.34Q1055.32 51.37 1055.88 52.35Q1057.13 54.57 1058.89 56.27Q1060.23 57.59 1061.88 58.6Q1063.39 59.52 1065.03 60.08ZM1009.54 60.24Q1011.78 60.92 1014.23 60.92Q1017.32 60.92 1020.03 59.92Q1021.37 59.42 1022.61 58.68Q1024.18 57.75 1025.49 56.54Q1027.34 54.84 1028.67 52.58Q1029.11 51.82 1029.47 51.03Q1030.92 47.77 1030.92 43.86Q1030.92 39.23 1028.81 35.94Q1028.64 35.66 1028.44 35.4Q1025.98 31.95 1021.74 29.59Q1021.49 29.46 1020.29 28.82Q1019.09 28.18 1017.61 27.37Q1016.14 26.56 1014.94 25.89Q1013.73 25.23 1013.4 25.06Q1010.25 23.36 1009.06 21.49Q1007.88 19.63 1007.88 16.85Q1007.88 15.46 1008.36 14.27Q1008.83 13.1 1009.75 12.11Q1010.81 10.98 1012.11 10.49Q1013.1 10.12 1014.23 10.12Q1015.4 10.12 1016.43 10.51Q1017.65 10.97 1018.67 11.99Q1019.22 12.54 1019.61 13.19Q1020.54 14.74 1020.54 16.85L1020.62 23.82Q1020.62 23.98 1020.71 24.07Q1020.79 24.15 1020.95 24.15L1030.5 24.15Q1030.67 24.15 1030.75 24.07Q1030.82 23.98 1030.82 23.82L1030.82 16.85Q1030.82 13.47 1029.66 10.57Q1029.19 9.44 1028.56 8.38Q1027.46 6.53 1025.99 5.04Q1024.46 3.48 1022.53 2.32Q1021.04 1.44 1019.44 0.9Q1016.97 0.08 1014.23 0.08Q1011.9 0.08 1009.75 0.7Q1007.84 1.25 1006.08 2.3Q1004.46 3.25 1003.11 4.49Q1001.32 6.14 999.99 8.3Q999.28 9.47 998.78 10.73Q997.67 13.57 997.67 16.85Q997.67 21.22 999.3 24.87Q999.59 25.51 999.93 26.12Q1000.03 26.31 1000.14 26.49Q1002.4 30.37 1006.84 32.99Q1008.13 33.7 1009.5 34.46Q1010.87 35.23 1012.32 36.02Q1013.77 36.81 1014.83 37.41Q1015.89 38.01 1016.56 38.43Q1020.04 40.42 1020.54 42.99Q1020.62 43.42 1020.62 43.86Q1020.62 45.06 1020.25 46.14Q1019.79 47.48 1018.75 48.62Q1017.7 49.78 1016.38 50.29Q1015.38 50.67 1014.23 50.67Q1013.12 50.67 1012.15 50.31Q1010.82 49.82 1009.75 48.66Q1008.86 47.7 1008.39 46.57Q1007.88 45.32 1007.88 43.86L1007.88 39.96Q1007.88 39.66 1007.74 39.56Q1007.66 39.51 1007.55 39.51L998 39.51Q997.81 39.51 997.71 39.6Q997.58 39.71 997.58 39.96L997.58 43.86Q997.58 46.77 998.47 49.38Q999 50.94 999.85 52.39Q1001.1 54.54 1002.82 56.22Q1004.2 57.56 1005.89 58.6Q1007.64 59.67 1009.54 60.24ZM14.89 60.09L30.13 60.09Q33.44 60.09 36.34 59Q37.76 58.47 39.09 57.66Q41.02 56.5 42.57 54.97Q44.27 53.29 45.52 51.17Q46.29 49.86 46.81 48.45Q47.89 45.51 47.89 42.16Q47.89 40.03 47.4 38.02Q47.07 36.66 46.52 35.36Q45.7 33.41 44.48 31.75Q43.68 30.65 42.7 29.67Q44.99 27.72 46.65 24.57Q47.3 23.32 47.7 22Q48.31 19.97 48.31 17.76Q48.31 15.3 47.64 13.03Q47.1 11.17 46.11 9.44Q45.1 7.68 43.75 6.23Q42.15 4.53 40.09 3.27Q38.82 2.52 37.46 2.01Q34.64 0.95 31.41 0.95L15.06 0.95Q14.89 0.95 14.81 1.03Q14.73 1.12 14.73 1.28L14.56 59.68Q14.56 59.93 14.69 60.03Q14.77 60.09 14.89 60.09ZM54.32 60.09L81.8 60.09Q81.97 60.09 82.05 60.01Q82.13 59.93 82.13 59.76L82.13 50.05Q82.13 49.8 82.01 49.7Q81.93 49.63 81.8 49.63L64.28 49.63L64.28 34.78L81.8 34.78Q81.97 34.78 82.05 34.69Q82.13 34.61 82.13 34.44L82.05 24.81Q82.05 24.65 81.97 24.57Q81.88 24.48 81.72 24.48L64.28 24.48L64.28 11.2L81.72 11.2Q81.88 11.2 81.97 11.12Q82.05 11.04 82.05 10.87L82.05 1.36Q82.05 1.11 81.92 1.01Q81.85 0.95 81.72 0.95L54.41 0.95Q54.24 0.95 54.16 1.03Q54.07 1.12 54.07 1.28L53.99 59.68Q53.99 59.93 54.12 60.03Q54.19 60.09 54.32 60.09ZM119.44 1.28L108.9 59.68Q108.9 59.93 109.03 60.03Q109.1 60.09 109.23 60.09L118.7 60.09Q118.86 60.09 118.96 60.01Q119.09 59.91 119.11 59.68L120.02 53.45L131.6 53.45L132.52 59.68Q132.54 59.89 132.65 59.99Q132.77 60.09 132.97 60.09L142.39 60.09Q142.56 60.09 142.65 60.01Q142.75 59.91 142.73 59.68L132.6 1.28Q132.56 1.11 132.45 1.03Q132.34 0.95 132.19 0.95L119.86 0.95Q119.7 0.95 119.6 1.03Q119.49 1.11 119.44 1.28ZM170.54 60.09L180.08 60.09Q180.29 60.09 180.39 59.99Q180.5 59.89 180.5 59.68L180.5 38.26L186.97 38.26Q189.11 38.26 191.1 37.71Q193.28 37.11 195.27 35.85Q195.65 35.62 196.02 35.36Q199.33 33.01 201.5 29.05Q203.86 24.61 203.86 18.63Q203.86 11.56 200.46 7.05Q199.93 6.34 199.32 5.7Q198.25 4.59 197.01 3.74Q192.95 0.95 186.97 0.95L170.62 0.95Q170.45 0.95 170.37 1.03Q170.29 1.12 170.29 1.28L170.12 59.68Q170.12 59.89 170.22 59.99Q170.33 60.09 170.54 60.09ZM217.31 1.28L206.77 59.68Q206.77 59.93 206.89 60.03Q206.97 60.09 207.1 60.09L216.56 60.09Q216.73 60.09 216.83 60.01Q216.95 59.91 216.98 59.68L217.89 53.45L229.47 53.45L230.38 59.68Q230.4 59.89 230.52 59.99Q230.63 60.09 230.84 60.09L240.26 60.09Q240.43 60.09 240.51 60.01Q240.62 59.91 240.59 59.68L230.47 1.28Q230.42 1.11 230.31 1.03Q230.21 0.95 230.05 0.95L217.72 0.95Q217.57 0.95 217.46 1.03Q217.35 1.11 217.31 1.28ZM246.24 60.09L255.87 60.09Q256 60.09 256.07 60.03Q256.2 59.93 256.2 59.68L256.28 34.69L261.89 34.69Q263.53 34.69 264.91 35.3Q266.17 35.86 267.2 36.93Q268.33 38.11 268.87 39.51Q269.35 40.78 269.35 42.25L269.35 59.84Q269.35 59.93 269.4 59.99Q269.48 60.09 269.69 60.09L279.32 60.09Q279.52 60.09 279.63 59.99Q279.73 59.89 279.73 59.68L279.65 42.25Q279.65 38.78 278.48 35.76Q277.33 32.78 275.04 30.25Q276.08 29.42 277.35 27.68Q278.61 25.93 279.57 23.4Q280.52 20.87 280.52 17.76Q280.52 14.16 279.21 11.12Q278.78 10.13 278.22 9.21Q277.15 7.46 275.75 6.04Q274.13 4.39 272.05 3.19Q270.57 2.33 268.98 1.8Q266.43 0.95 263.59 0.95L246.4 0.95Q246.24 0.95 246.16 1.03Q246.07 1.12 246.07 1.28L245.91 59.68Q245.91 59.93 246.03 60.03Q246.11 60.09 246.24 60.09ZM295.42 60.09L305.01 60.09Q305.14 60.09 305.22 60.03Q305.34 59.93 305.34 59.68L305.26 11.2L316.42 11.2Q316.55 11.2 316.63 11.14Q316.75 11.04 316.75 10.79L316.75 1.28Q316.75 1.17 316.7 1.09Q316.6 0.95 316.3 0.95L284.01 0.95Q283.84 0.95 283.76 1.03Q283.67 1.12 283.67 1.28L283.59 10.79Q283.59 10.99 283.7 11.1Q283.8 11.2 284.01 11.2L295.05 11.2L295.05 59.68Q295.05 59.91 295.16 60.01Q295.25 60.09 295.42 60.09ZM382.16 60.09L391.71 60.09Q391.92 60.09 392.02 59.99Q392.12 59.89 392.12 59.68L392.12 34.78L409.56 34.78Q409.81 34.78 409.91 34.65Q409.97 34.57 409.97 34.44L409.89 24.81Q409.89 24.56 409.76 24.46Q409.69 24.4 409.56 24.4L392.12 24.4L392.12 11.2L409.56 11.2Q409.72 11.2 409.81 11.12Q409.89 11.04 409.89 10.87L409.89 1.28Q409.89 1.15 409.82 1.07Q409.73 0.95 409.47 0.95L382.25 0.95Q382.08 0.95 382 1.03Q381.91 1.12 381.91 1.28L381.75 59.68Q381.75 59.89 381.85 59.99Q381.96 60.09 382.16 60.09ZM448.15 60.09L457.74 60.09Q457.87 60.09 457.95 60.03Q458.07 59.93 458.07 59.68L457.99 11.2L469.16 11.2Q469.29 11.2 469.36 11.14Q469.49 11.04 469.49 10.79L469.49 1.28Q469.49 1.17 469.43 1.09Q469.33 0.95 469.03 0.95L436.74 0.95Q436.58 0.95 436.49 1.03Q436.41 1.12 436.41 1.28L436.33 10.79Q436.33 10.99 436.43 11.1Q436.53 11.2 436.74 11.2L447.78 11.2L447.78 59.68Q447.78 59.91 447.9 60.01Q447.99 60.09 448.15 60.09ZM473.93 60.09L483.56 60.09Q483.69 60.09 483.77 60.03Q483.89 59.93 483.89 59.68L483.89 34.69L496.63 34.69L496.63 59.68Q496.63 59.89 496.74 59.99Q496.84 60.09 497.05 60.09L506.59 60.09Q506.8 60.09 506.9 59.99Q507.01 59.89 507.01 59.68L506.84 1.28Q506.84 1.15 506.78 1.07Q506.68 0.95 506.43 0.95L496.96 0.95Q496.8 0.95 496.71 1.03Q496.63 1.12 496.63 1.28L496.63 24.4L483.89 24.4L483.97 1.28Q483.97 1.15 483.91 1.07Q483.81 0.95 483.56 0.95L474.09 0.95Q473.84 0.95 473.74 1.07Q473.68 1.15 473.68 1.28L473.6 59.68Q473.6 59.93 473.72 60.03Q473.8 60.09 473.93 60.09ZM514.27 60.09L541.75 60.09Q541.91 60.09 542 60.01Q542.08 59.93 542.08 59.76L542.08 50.05Q542.08 49.8 541.95 49.7Q541.88 49.63 541.75 49.63L524.23 49.63L524.23 34.78L541.75 34.78Q541.91 34.78 542 34.69Q542.08 34.61 542.08 34.44L542 24.81Q542 24.65 541.91 24.57Q541.83 24.48 541.66 24.48L524.23 24.48L524.23 11.2L541.66 11.2Q541.83 11.2 541.91 11.12Q542 11.04 542 10.87L542 1.36Q542 1.11 541.87 1.01Q541.79 0.95 541.66 0.95L514.35 0.95Q514.19 0.95 514.1 1.03Q514.02 1.12 514.02 1.28L513.94 59.68Q513.94 59.93 514.06 60.03Q514.14 60.09 514.27 60.09ZM572.13 60.09L581.67 60.09Q581.88 60.09 581.98 59.99Q582.09 59.89 582.09 59.68L582.09 34.78L599.52 34.78Q599.77 34.78 599.87 34.65Q599.93 34.57 599.93 34.44L599.85 24.81Q599.85 24.56 599.73 24.46Q599.65 24.4 599.52 24.4L582.09 24.4L582.09 11.2L599.52 11.2Q599.69 11.2 599.77 11.12Q599.85 11.04 599.85 10.87L599.85 1.28Q599.85 1.15 599.79 1.07Q599.69 0.95 599.44 0.95L572.21 0.95Q572.04 0.95 571.96 1.03Q571.88 1.12 571.88 1.28L571.71 59.68Q571.71 59.89 571.82 59.99Q571.92 60.09 572.13 60.09ZM618.74 60.32Q620.85 60.92 623.14 60.92Q626.41 60.92 629.23 59.8Q630.46 59.32 631.6 58.62Q633.15 57.67 634.45 56.46Q636.31 54.72 637.66 52.41Q638.5 50.95 639.02 49.38Q639.9 46.73 639.9 43.78L639.74 1.28Q639.74 1.12 639.65 1.03Q639.57 0.95 639.4 0.95L629.86 0.95Q629.69 0.95 629.61 1.03Q629.53 1.12 629.53 1.28L629.53 43.78Q629.53 45.5 628.87 46.91Q628.43 47.85 627.7 48.66Q626.81 49.64 625.7 50.14Q624.54 50.67 623.14 50.67Q621.98 50.67 620.98 50.28Q619.71 49.78 618.69 48.66Q617.96 47.85 617.53 46.91Q616.87 45.5 616.87 43.78L616.87 1.28Q616.87 1.12 616.78 1.03Q616.7 0.95 616.54 0.95L606.99 0.95Q606.82 0.95 606.74 1.03Q606.66 1.12 606.66 1.28L606.49 43.78Q606.49 46.56 607.3 49.08Q607.84 50.78 608.75 52.35Q610 54.52 611.73 56.2Q613.12 57.56 614.83 58.6Q616.71 59.74 618.74 60.32ZM655.13 60.09L664.72 60.09Q664.85 60.09 664.93 60.03Q665.05 59.93 665.05 59.68L664.97 11.2L676.14 11.2Q676.27 11.2 676.34 11.14Q676.47 11.04 676.47 10.79L676.47 1.28Q676.47 1.17 676.41 1.09Q676.31 0.95 676.01 0.95L643.72 0.95Q643.56 0.95 643.47 1.03Q643.39 1.12 643.39 1.28L643.31 10.79Q643.31 10.99 643.41 11.1Q643.51 11.2 643.72 11.2L654.76 11.2L654.76 59.68Q654.76 59.91 654.88 60.01Q654.97 60.09 655.13 60.09ZM691.83 60.32Q693.94 60.92 696.22 60.92Q699.49 60.92 702.32 59.8Q703.55 59.32 704.69 58.62Q706.24 57.67 707.54 56.46Q709.4 54.72 710.75 52.41Q711.58 50.95 712.11 49.38Q712.99 46.73 712.99 43.78L712.83 1.28Q712.83 1.12 712.74 1.03Q712.66 0.95 712.49 0.95L702.95 0.95Q702.78 0.95 702.7 1.03Q702.62 1.12 702.62 1.28L702.62 43.78Q702.62 45.5 701.96 46.91Q701.52 47.85 700.79 48.66Q699.9 49.64 698.79 50.14Q697.63 50.67 696.22 50.67Q695.07 50.67 694.07 50.28Q692.8 49.78 691.78 48.66Q691.05 47.85 690.61 46.91Q689.96 45.5 689.96 43.78L689.96 1.28Q689.96 1.12 689.87 1.03Q689.79 0.95 689.62 0.95L680.08 0.95Q679.91 0.95 679.83 1.03Q679.75 1.12 679.75 1.28L679.58 43.78Q679.58 46.56 680.39 49.08Q680.93 50.78 681.84 52.35Q683.09 54.52 684.81 56.2Q686.21 57.56 687.92 58.6Q689.8 59.74 691.83 60.32ZM720.01 60.09L729.63 60.09Q729.76 60.09 729.84 60.03Q729.97 59.93 729.97 59.68L730.05 34.69L735.65 34.69Q737.3 34.69 738.68 35.3Q739.93 35.86 740.96 36.93Q742.09 38.11 742.63 39.51Q743.12 40.78 743.12 42.25L743.12 59.84Q743.12 59.93 743.17 59.99Q743.24 60.09 743.45 60.09L753.08 60.09Q753.29 60.09 753.4 59.99Q753.5 59.89 753.5 59.68L753.42 42.25Q753.42 38.78 752.25 35.76Q751.1 32.78 748.81 30.25Q749.85 29.42 751.11 27.68Q752.38 25.93 753.33 23.4Q754.29 20.87 754.29 17.76Q754.29 14.16 752.97 11.12Q752.55 10.13 751.98 9.21Q750.92 7.46 749.52 6.04Q747.89 4.39 745.82 3.19Q744.34 2.33 742.75 1.8Q740.19 0.95 737.35 0.95L720.17 0.95Q720.01 0.95 719.92 1.03Q719.84 1.12 719.84 1.28L719.67 59.68Q719.67 59.93 719.8 60.03Q719.88 60.09 720.01 60.09ZM760.97 60.09L788.45 60.09Q788.61 60.09 788.69 60.01Q788.78 59.93 788.78 59.76L788.78 50.05Q788.78 49.8 788.65 49.7Q788.57 49.63 788.45 49.63L770.93 49.63L770.93 34.78L788.45 34.78Q788.61 34.78 788.69 34.69Q788.78 34.61 788.78 34.44L788.69 24.81Q788.69 24.65 788.61 24.57Q788.53 24.48 788.36 24.48L770.93 24.48L770.93 11.2L788.36 11.2Q788.53 11.2 788.61 11.12Q788.69 11.04 788.69 10.87L788.69 1.36Q788.69 1.11 788.57 1.01Q788.49 0.95 788.36 0.95L761.05 0.95Q760.89 0.95 760.8 1.03Q760.72 1.12 760.72 1.28L760.64 59.68Q760.64 59.93 760.76 60.03Q760.84 60.09 760.97 60.09ZM857.63 60.09L867.18 60.09Q867.39 60.09 867.49 59.99Q867.59 59.89 867.59 59.68L867.59 34.78L885.02 34.78Q885.28 34.78 885.38 34.65Q885.44 34.57 885.44 34.44L885.36 24.81Q885.36 24.56 885.23 24.46Q885.15 24.4 885.02 24.4L867.59 24.4L867.59 11.2L885.02 11.2Q885.19 11.2 885.27 11.12Q885.36 11.04 885.36 10.87L885.36 1.28Q885.36 1.15 885.29 1.07Q885.19 0.95 884.94 0.95L857.72 0.95Q857.55 0.95 857.47 1.03Q857.38 1.12 857.38 1.28L857.22 59.68Q857.22 59.89 857.32 59.99Q857.42 60.09 857.63 60.09ZM915.41 60.09L925.03 60.09Q925.16 60.09 925.24 60.03Q925.37 59.93 925.37 59.68L925.45 16.31L934.29 29.26L943.21 16.31L943.3 59.68Q943.3 59.93 943.42 60.03Q943.5 60.09 943.63 60.09L953.26 60.09Q953.39 60.09 953.47 60.03Q953.59 59.93 953.59 59.68L953.42 1.28Q953.42 1.14 953.35 1.05Q953.26 0.95 953.05 0.95L942.63 0.95Q942.49 0.95 942.37 1Q942.17 1.07 942.01 1.28L934.29 12.49L926.53 1.28Q926.34 1.03 926.1 0.97Q926.03 0.95 925.95 0.95L915.57 0.95Q915.41 0.95 915.32 1.03Q915.24 1.12 915.24 1.28L915.07 59.68Q915.07 59.93 915.2 60.03Q915.28 60.09 915.41 60.09ZM971.94 60.32Q974.05 60.92 976.33 60.92Q979.6 60.92 982.43 59.8Q983.66 59.32 984.8 58.62Q986.35 57.67 987.65 56.46Q989.51 54.72 990.86 52.41Q991.69 50.95 992.22 49.38Q993.1 46.73 993.1 43.78L992.93 1.28Q992.93 1.12 992.85 1.03Q992.77 0.95 992.6 0.95L983.06 0.95Q982.89 0.95 982.81 1.03Q982.72 1.12 982.72 1.28L982.72 43.78Q982.72 45.5 982.07 46.91Q981.63 47.85 980.9 48.66Q980.01 49.64 978.9 50.14Q977.74 50.67 976.33 50.67Q975.18 50.67 974.18 50.28Q972.91 49.78 971.89 48.66Q971.16 47.85 970.72 46.91Q970.07 45.5 970.07 43.78L970.07 1.28Q970.07 1.12 969.98 1.03Q969.9 0.95 969.73 0.95L960.19 0.95Q960.02 0.95 959.94 1.03Q959.86 1.12 959.86 1.28L959.69 43.78Q959.69 46.56 960.5 49.08Q961.04 50.78 961.95 52.35Q963.2 54.52 964.92 56.2Q966.32 57.56 968.03 58.6Q969.91 59.74 971.94 60.32ZM1037.22 60.09L1046.85 60.09Q1046.98 60.09 1047.06 60.03Q1047.18 59.93 1047.18 59.68L1047.1 1.28Q1047.1 1.12 1047.02 1.03Q1046.93 0.95 1046.77 0.95L1037.22 0.95Q1037.06 0.95 1036.98 1.03Q1036.89 1.12 1036.89 1.28L1036.81 59.68Q1036.81 59.89 1036.91 59.99Q1037.02 60.09 1037.22 60.09ZM1129.68 60.18L1144.8 60.09Q1144.97 60.09 1145.05 60.01Q1145.13 59.93 1145.13 59.76L1145.22 33.16L1152.73 33.16Q1152.9 33.16 1152.98 33.07Q1153.06 32.99 1153.06 32.82L1153.06 23.36Q1153.06 23.17 1152.97 23.07Q1152.85 22.95 1152.6 22.95L1129.49 22.95Q1127.43 22.95 1126.17 21.94Q1125.82 21.67 1125.54 21.33Q1124.22 19.71 1124.22 16.85Q1124.22 15.48 1124.73 14.33Q1125.11 13.47 1125.79 12.74Q1126.81 11.64 1128.04 11.25Q1128.73 11.04 1129.49 11.04L1141.06 11.04Q1141.31 11.04 1141.43 10.91Q1141.56 10.79 1141.56 10.54L1141.56 1.53Q1141.56 1.24 1141.42 1.09Q1141.27 0.95 1140.98 0.95L1129.49 0.95Q1126.61 0.95 1124.07 1.89Q1122.81 2.36 1121.64 3.07Q1120.05 4.02 1118.75 5.28Q1117.18 6.81 1116.04 8.79Q1115.37 9.98 1114.91 11.24Q1113.96 13.87 1113.96 16.85Q1113.96 20.33 1114.98 23.17Q1116 26.02 1117.78 27.97Q1116.63 29.08 1115.69 30.36Q1114.86 31.51 1114.21 32.8Q1113.23 34.75 1112.94 36.79Q1112.84 37.6 1112.84 38.43L1112.84 44.03Q1112.84 47.77 1114.98 51.5Q1115.62 52.62 1116.41 53.63Q1118.25 55.97 1120.9 57.69Q1121.79 58.27 1122.74 58.71Q1125.88 60.18 1129.68 60.18ZM360.41 50.41Q359.58 50.67 358.67 50.67Q357.56 50.67 356.59 50.31Q355.27 49.82 354.19 48.66Q353.3 47.7 352.83 46.57Q352.32 45.32 352.32 43.86L352.32 16.93Q352.32 15.05 353.1 13.59Q353.53 12.79 354.19 12.11Q355.19 11.09 356.4 10.62Q357.46 10.21 358.67 10.21Q360.19 10.21 361.42 10.8Q362.4 11.29 363.2 12.16Q363.87 12.89 364.29 13.75Q364.98 15.17 364.98 16.93L365.06 43.86Q365.06 44.77 364.83 45.61Q364.4 47.21 363.15 48.58Q361.92 49.93 360.41 50.41ZM835.88 50.41Q835.05 50.67 834.14 50.67Q833.03 50.67 832.06 50.31Q830.73 49.82 829.66 48.66Q828.77 47.7 828.3 46.57Q827.79 45.32 827.79 43.86L827.79 16.93Q827.79 15.05 828.57 13.59Q829 12.79 829.66 12.11Q830.66 11.09 831.87 10.62Q832.93 10.21 834.14 10.21Q835.66 10.21 836.88 10.8Q837.87 11.29 838.66 12.16Q839.34 12.89 839.76 13.75Q840.45 15.17 840.45 16.93L840.53 43.86Q840.53 44.77 840.3 45.61Q839.87 47.21 838.62 48.58Q837.39 49.93 835.88 50.41ZM24.94 11.04L31.41 11.04Q32.59 11.04 33.63 11.42Q34.96 11.92 36.06 13.05Q37.17 14.19 37.65 15.55Q38.01 16.59 38.01 17.76Q38.01 18.37 37.9 18.96Q37.56 20.73 36.19 22.3Q35.43 23.17 34.48 23.68Q33.14 24.4 31.41 24.4L24.94 24.4L24.94 11.04ZM180.5 11.12L186.97 11.04Q189 11.04 190.47 11.95Q191.25 12.43 191.87 13.17Q192.12 13.48 192.34 13.81Q193.65 15.79 193.65 18.63Q193.65 22.78 191.66 25.37Q190.19 27.29 188.34 27.79Q187.68 27.97 186.97 27.97L180.5 27.97L180.5 11.12ZM256.28 11.12L263.59 11.12Q264.85 11.12 265.95 11.54Q267.24 12.03 268.32 13.09Q269.44 14.2 269.93 15.55Q270.31 16.58 270.31 17.76Q270.31 19.15 269.81 20.33Q269.29 21.54 268.26 22.53Q266.93 23.79 265.38 24.24Q264.52 24.48 263.59 24.48L256.28 24.48L256.28 11.12ZM730.05 11.12L737.35 11.12Q738.62 11.12 739.72 11.54Q741.01 12.03 742.09 13.09Q743.21 14.2 743.7 15.55Q744.08 16.58 744.08 17.76Q744.08 19.15 743.58 20.33Q743.06 21.54 742.02 22.53Q740.7 23.79 739.14 24.24Q738.28 24.48 737.35 24.48L730.05 24.48L730.05 11.12ZM121.73 44.36L125.54 20.5L125.92 17.34L126.42 20.5L129.9 44.36L121.73 44.36ZM219.59 44.36L223.41 20.5L223.78 17.34L224.28 20.5L227.77 44.36L219.59 44.36ZM1135.21 49.88L1129.68 49.97Q1127.63 49.97 1126.14 49.04L1126.13 49.03Q1124.9 48.27 1124.13 47.19Q1123.94 46.95 1123.8 46.69Q1122.97 45.28 1122.97 44.03L1122.97 38.43Q1122.97 38.14 1123.01 37.86Q1123.34 35.75 1126.17 34.03Q1126.63 33.75 1127.13 33.56Q1128.18 33.16 1129.4 33.16L1135.3 33.16L1135.21 49.88ZM24.94 34.69L30.13 34.69Q31.6 34.69 32.86 35.2Q34.25 35.74 35.4 36.89Q36.55 38.04 37.09 39.43Q37.6 40.69 37.6 42.16Q37.6 43.58 37.13 44.82Q36.58 46.27 35.4 47.48Q34.22 48.68 32.78 49.24Q31.55 49.72 30.13 49.72L24.86 49.72L24.94 34.69ZM105.33 162.08Q107.83 162.92 110.6 162.92Q113.88 162.92 116.69 161.78Q117.9 161.28 119.03 160.58Q120.49 159.66 121.73 158.5Q123.66 156.7 125.05 154.33Q125.73 153.12 126.21 151.84Q127.29 148.93 127.29 145.62L127.29 141.67Q127.29 141.51 127.2 141.42Q127.12 141.34 126.96 141.34L117.33 141.34Q117.16 141.34 117.08 141.42Q117 141.51 117 141.67L117 145.62Q117 146.66 116.72 147.63Q116.29 149.16 115.17 150.49Q114.16 151.7 112.88 152.23Q111.83 152.67 110.6 152.67Q109.41 152.67 108.38 152.26Q107.15 151.77 106.16 150.7Q105.74 150.24 105.41 149.72Q104.34 148 104.34 145.62L104.34 119.1Q104.34 117.47 104.91 116.07Q105.3 115.12 105.95 114.28Q106.47 113.61 107.14 113.16Q108.55 112.21 110.6 112.21Q111.98 112.21 113.13 112.72Q114.26 113.23 115.17 114.24Q115.97 115.13 116.42 116.17Q117 117.51 117 119.1L117 123Q117 123.16 117.08 123.25Q117.16 123.33 117.33 123.33L126.87 123.33Q127.04 123.33 127.12 123.25Q127.2 123.16 127.2 123L127.2 119.1Q127.2 115.55 125.98 112.49Q125.55 111.44 124.98 110.44Q123.69 108.17 121.87 106.45Q120.58 105.23 119.03 104.28Q118.22 103.78 117.36 103.39Q114.3 102 110.6 102Q107.65 102 105.04 102.94Q103.54 103.49 102.16 104.34Q100.12 105.6 98.55 107.29Q97.2 108.76 96.2 110.55Q95.74 111.36 95.38 112.22Q94.04 115.37 94.04 119.1L93.96 145.62Q93.96 149.23 95.21 152.34Q95.63 153.37 96.18 154.35Q97.43 156.57 99.19 158.27Q100.54 159.59 102.18 160.6Q103.69 161.52 105.33 162.08ZM144.47 162.24Q146.71 162.92 149.16 162.92Q152.05 162.92 154.62 162.01Q156.14 161.46 157.54 160.6Q159.13 159.63 160.45 158.37Q162.28 156.64 163.6 154.37Q164.39 153.02 164.9 151.57Q165.85 148.88 165.85 145.87L165.76 118.93Q165.76 115.72 164.71 112.92Q164.22 111.62 163.5 110.4Q162.2 108.19 160.41 106.5Q159.09 105.25 157.5 104.28Q156.49 103.65 155.4 103.19Q152.53 102 149.16 102Q146.84 102 144.7 102.61Q142.7 103.19 140.86 104.3Q138.84 105.52 137.26 107.16Q135.85 108.62 134.8 110.42Q134.2 111.41 133.76 112.47Q132.52 115.44 132.52 118.93L132.43 145.87Q132.43 148.68 133.28 151.21Q133.83 152.86 134.74 154.39Q136.06 156.63 137.88 158.35Q139.22 159.61 140.82 160.6Q142.57 161.67 144.47 162.24ZM469.45 162.24Q471.69 162.92 474.14 162.92Q477.03 162.92 479.59 162.01Q481.11 161.46 482.52 160.6Q484.1 159.63 485.42 158.37Q487.25 156.64 488.58 154.37Q489.37 153.02 489.88 151.57Q490.82 148.88 490.82 145.87L490.74 118.93Q490.74 115.72 489.68 112.92Q489.19 111.62 488.48 110.4Q487.17 108.19 485.39 106.5Q484.06 105.25 482.48 104.28Q481.46 103.65 480.37 103.19Q477.51 102 474.14 102Q471.81 102 469.67 102.61Q467.68 103.19 465.84 104.3Q463.81 105.52 462.23 107.16Q460.83 108.62 459.78 110.42Q459.18 111.41 458.74 112.47Q457.49 115.44 457.49 118.93L457.41 145.87Q457.41 148.68 458.25 151.21Q458.8 152.86 459.71 154.39Q461.04 156.63 462.86 158.35Q464.19 159.61 465.79 160.6Q467.55 161.67 469.45 162.24ZM587.28 162.24Q589.52 162.92 591.96 162.92Q594.86 162.92 597.42 162.01Q598.94 161.46 600.35 160.6Q601.93 159.63 603.25 158.37Q605.08 156.64 606.41 154.37Q607.19 153.02 607.71 151.57Q608.65 148.88 608.65 145.87L608.57 118.93Q608.57 115.72 607.51 112.92Q607.02 111.62 606.31 110.4Q605 108.19 603.21 106.5Q601.89 105.25 600.31 104.28Q599.29 103.65 598.2 103.19Q595.33 102 591.96 102Q589.64 102 587.5 102.61Q585.51 103.19 583.66 104.3Q581.64 105.52 580.06 107.16Q578.66 108.62 577.61 110.42Q577.01 111.41 576.57 112.47Q575.32 115.44 575.32 118.93L575.24 145.87Q575.24 148.68 576.08 151.21Q576.63 152.86 577.54 154.39Q578.87 156.63 580.69 158.35Q582.02 159.61 583.62 160.6Q585.38 161.67 587.28 162.24ZM67.69 162.24Q69.93 162.92 72.38 162.92Q75.46 162.92 78.17 161.92Q79.51 161.42 80.76 160.68Q82.33 159.75 83.64 158.54Q85.49 156.84 86.82 154.58Q87.26 153.82 87.61 153.03Q89.06 149.77 89.06 145.87Q89.06 141.23 86.96 137.94Q86.78 137.67 86.59 137.4Q84.12 133.95 79.89 131.59Q79.64 131.46 78.44 130.82Q77.23 130.18 75.76 129.37Q74.29 128.56 73.08 127.89Q71.88 127.23 71.55 127.06Q68.39 125.36 67.21 123.49Q66.03 121.63 66.03 118.85Q66.03 117.46 66.51 116.27Q66.97 115.1 67.9 114.11Q68.96 112.98 70.26 112.49Q71.25 112.12 72.38 112.12Q73.55 112.12 74.58 112.51Q75.8 112.97 76.82 113.99Q77.37 114.54 77.76 115.19Q78.69 116.74 78.69 118.85L78.77 125.82Q78.77 125.98 78.85 126.07Q78.94 126.15 79.1 126.15L88.65 126.15Q88.81 126.15 88.9 126.07Q88.98 125.98 88.98 125.82L88.98 118.85Q88.98 115.47 87.81 112.57Q87.35 111.44 86.72 110.38Q85.61 108.53 84.14 107.04Q82.61 105.48 80.68 104.32Q79.19 103.44 77.58 102.9Q75.12 102.08 72.38 102.08Q70.05 102.08 67.9 102.7Q65.99 103.25 64.22 104.3Q62.61 105.25 61.26 106.5Q59.47 108.14 58.14 110.3Q57.43 111.47 56.93 112.73Q55.82 115.57 55.82 118.85Q55.82 123.23 57.46 126.87Q57.74 127.51 58.08 128.12Q58.18 128.31 58.29 128.49Q60.55 132.38 64.99 134.99Q66.28 135.7 67.65 136.46Q69.02 137.23 70.47 138.02Q71.92 138.81 72.98 139.41Q74.04 140.01 74.7 140.43Q78.19 142.42 78.69 144.99Q78.77 145.42 78.77 145.87Q78.77 147.06 78.4 148.14Q77.94 149.48 76.9 150.62Q75.84 151.78 74.53 152.29Q73.53 152.67 72.38 152.67Q71.27 152.67 70.3 152.31Q68.97 151.82 67.9 150.66Q67.01 149.7 66.54 148.57Q66.03 147.32 66.03 145.87L66.03 141.96Q66.03 141.67 65.89 141.56Q65.81 141.51 65.7 141.51L56.15 141.51Q55.96 141.51 55.86 141.6Q55.73 141.71 55.73 141.96L55.73 145.87Q55.73 148.77 56.62 151.38Q57.15 152.94 58 154.39Q59.25 156.54 60.97 158.22Q62.35 159.56 64.04 160.6Q65.79 161.67 67.69 162.24ZM883.66 162.24Q885.9 162.92 888.35 162.92Q891.43 162.92 894.14 161.92Q895.48 161.42 896.73 160.68Q898.3 159.75 899.61 158.54Q901.45 156.84 902.79 154.58Q903.23 153.82 903.58 153.03Q905.03 149.77 905.03 145.87Q905.03 141.23 902.93 137.94Q902.75 137.67 902.56 137.4Q900.09 133.95 895.86 131.59Q895.61 131.46 894.4 130.82Q893.2 130.18 891.73 129.37Q890.25 128.56 889.05 127.89Q887.85 127.23 887.52 127.06Q884.36 125.36 883.18 123.49Q882 121.63 882 118.85Q882 117.46 882.47 116.27Q882.94 115.1 883.86 114.11Q884.92 112.98 886.23 112.49Q887.22 112.12 888.35 112.12Q889.52 112.12 890.54 112.51Q891.77 112.97 892.79 113.99Q893.34 114.54 893.72 115.19Q894.65 116.74 894.65 118.85L894.74 125.82Q894.74 125.98 894.82 126.07Q894.9 126.15 895.07 126.15L904.61 126.15Q904.78 126.15 904.86 126.07Q904.95 125.98 904.95 125.82L904.95 118.85Q904.95 115.47 903.78 112.57Q903.32 111.44 902.68 110.38Q901.58 108.53 900.11 107.04Q898.57 105.48 896.65 104.32Q895.16 103.44 893.55 102.9Q891.08 102.08 888.35 102.08Q886.02 102.08 883.87 102.7Q881.96 103.25 880.19 104.3Q878.58 105.25 877.23 106.5Q875.43 108.14 874.11 110.3Q873.4 111.47 872.9 112.73Q871.79 115.57 871.79 118.85Q871.79 123.23 873.42 126.87Q873.71 127.51 874.05 128.12Q874.15 128.31 874.26 128.49Q876.52 132.38 880.96 134.99Q882.24 135.7 883.61 136.46Q884.98 137.23 886.44 138.02Q887.89 138.81 888.95 139.41Q890.01 140.01 890.67 140.43Q894.16 142.42 894.65 144.99Q894.74 145.42 894.74 145.87Q894.74 147.06 894.37 148.14Q893.91 149.48 892.87 150.62Q891.81 151.78 890.5 152.29Q889.49 152.67 888.35 152.67Q887.24 152.67 886.26 152.31Q884.94 151.82 883.86 150.66Q882.97 149.7 882.51 148.57Q882 147.32 882 145.87L882 141.96Q882 141.67 881.85 141.56Q881.78 141.51 881.66 141.51L872.12 141.51Q871.93 141.51 871.83 141.6Q871.7 141.71 871.7 141.96L871.7 145.87Q871.7 148.77 872.59 151.38Q873.12 152.94 873.96 154.39Q875.22 156.54 876.93 158.22Q878.32 159.56 880 160.6Q881.76 161.67 883.66 162.24ZM1149.57 162.24Q1151.81 162.92 1154.27 162.92Q1157.35 162.92 1160.06 161.92Q1161.4 161.42 1162.65 160.68Q1164.22 159.75 1165.53 158.54Q1167.37 156.84 1168.71 154.58Q1169.15 153.82 1169.5 153.03Q1170.94 149.77 1170.94 145.87Q1170.94 141.23 1168.85 137.94Q1168.67 137.67 1168.48 137.4Q1166.01 133.95 1161.78 131.59Q1161.53 131.46 1160.31 130.82Q1159.12 130.18 1157.65 129.37Q1156.17 128.56 1154.97 127.89Q1153.77 127.23 1153.43 127.06Q1150.28 125.36 1149.1 123.49Q1147.92 121.63 1147.92 118.85Q1147.92 117.46 1148.39 116.27Q1148.86 115.1 1149.78 114.11Q1150.84 112.98 1152.15 112.49Q1153.14 112.12 1154.27 112.12Q1155.43 112.12 1156.46 112.51Q1157.68 112.97 1158.71 113.99Q1159.26 114.54 1159.64 115.19Q1160.56 116.74 1160.56 118.85L1160.66 125.82Q1160.66 125.98 1160.74 126.07Q1160.81 126.15 1160.99 126.15L1170.53 126.15Q1170.69 126.15 1170.78 126.07Q1170.87 125.98 1170.87 125.82L1170.87 118.85Q1170.87 115.47 1169.69 112.57Q1169.24 111.44 1168.6 110.38Q1167.5 108.53 1166.03 107.04Q1164.49 105.48 1162.56 104.32Q1161.07 103.44 1159.47 102.9Q1157 102.08 1154.27 102.08Q1151.93 102.08 1149.79 102.7Q1147.88 103.25 1146.11 104.3Q1144.5 105.25 1143.15 106.5Q1141.35 108.14 1140.03 110.3Q1139.31 111.47 1138.81 112.73Q1137.71 115.57 1137.71 118.85Q1137.71 123.23 1139.34 126.87Q1139.63 127.51 1139.97 128.12Q1140.06 128.31 1140.18 128.49Q1142.43 132.38 1146.88 134.99Q1148.16 135.7 1149.53 136.46Q1150.9 137.23 1152.36 138.02Q1153.81 138.81 1154.87 139.41Q1155.93 140.01 1156.59 140.43Q1160.07 142.42 1160.56 144.99Q1160.66 145.42 1160.66 145.87Q1160.66 147.06 1160.29 148.14Q1159.82 149.48 1158.79 150.62Q1157.73 151.78 1156.42 152.29Q1155.41 152.67 1154.27 152.67Q1153.16 152.67 1152.18 152.31Q1150.86 151.82 1149.78 150.66Q1148.89 149.7 1148.43 148.57Q1147.92 147.32 1147.92 145.87L1147.92 141.96Q1147.92 141.67 1147.77 141.56Q1147.69 141.51 1147.57 141.51L1138.04 141.51Q1137.85 141.51 1137.75 141.6Q1137.62 141.71 1137.62 141.96L1137.62 145.87Q1137.62 148.77 1138.51 151.38Q1139.04 152.94 1139.88 154.39Q1141.14 156.54 1142.85 158.22Q1144.24 159.56 1145.92 160.6Q1147.68 161.67 1149.57 162.24ZM0.41 162.09L15.64 162.01Q19.59 161.94 22.9 160.45Q23.8 160.05 24.65 159.54Q26.47 158.45 27.97 157.01Q29.74 155.31 31.04 153.13Q31.88 151.69 32.42 150.15Q33.41 147.33 33.41 144.16L33.41 119.76Q33.41 116.77 32.47 114.11Q31.94 112.6 31.1 111.19Q29.89 109.15 28.25 107.55Q26.77 106.11 24.94 105.03Q23.78 104.33 22.54 103.86Q19.69 102.78 16.39 102.87L0.49 102.95Q0.33 102.95 0.24 103.03Q0.16 103.12 0.16 103.28L0 161.68Q0 161.89 0.1 161.99Q0.2 162.09 0.41 162.09ZM40.5 162.09L50.13 162.09Q50.26 162.09 50.34 162.03Q50.46 161.93 50.46 161.68L50.38 103.28Q50.38 103.12 50.3 103.03Q50.21 102.95 50.05 102.95L40.5 102.95Q40.34 102.95 40.25 103.03Q40.17 103.12 40.17 103.28L40.09 161.68Q40.09 161.89 40.19 161.99Q40.3 162.09 40.5 162.09ZM181.78 162.09L192.08 162.09Q192.24 162.09 192.34 162.01Q192.47 161.91 192.49 161.68L204.03 103.28Q204.08 103.15 204.03 103.07Q203.97 102.95 203.7 102.95L194.19 102.95Q194.03 102.95 193.93 103.03Q193.82 103.11 193.78 103.28L186.97 142.21L180 103.28Q179.95 103.11 179.84 103.03Q179.74 102.95 179.58 102.95L169.95 102.95Q169.71 102.95 169.64 103.06Q169.59 103.14 169.62 103.28L181.37 161.68Q181.39 161.91 181.52 162.01Q181.62 162.09 181.78 162.09ZM209.34 162.09L236.82 162.09Q236.98 162.09 237.07 162.01Q237.15 161.93 237.15 161.76L237.15 152.05Q237.15 151.8 237.03 151.7Q236.95 151.63 236.82 151.63L219.3 151.63L219.3 136.78L236.82 136.78Q236.98 136.78 237.07 136.69Q237.15 136.61 237.15 136.44L237.07 126.81Q237.07 126.65 236.98 126.57Q236.9 126.48 236.73 126.48L219.3 126.48L219.3 113.2L236.73 113.2Q236.9 113.2 236.98 113.12Q237.07 113.04 237.07 112.87L237.07 103.37Q237.07 103.11 236.94 103.01Q236.86 102.95 236.73 102.95L209.42 102.95Q209.26 102.95 209.18 103.03Q209.09 103.12 209.09 103.28L209.01 161.68Q209.01 161.93 209.13 162.03Q209.21 162.09 209.34 162.09ZM245.03 162.09L254.66 162.09Q254.79 162.09 254.87 162.03Q255 161.93 255 161.68L255.08 136.69L260.68 136.69Q262.33 136.69 263.7 137.3Q264.96 137.86 265.99 138.93Q267.12 140.11 267.66 141.51Q268.15 142.78 268.15 144.25L268.15 161.84Q268.15 161.93 268.2 161.99Q268.27 162.09 268.48 162.09L278.11 162.09Q278.32 162.09 278.42 161.99Q278.53 161.89 278.53 161.68L278.45 144.25Q278.45 140.78 277.28 137.76Q276.12 134.78 273.84 132.25Q274.88 131.42 276.14 129.68Q277.41 127.94 278.36 125.4Q279.32 122.87 279.32 119.76Q279.32 116.16 278 113.12Q277.58 112.14 277.01 111.21Q275.95 109.46 274.54 108.04Q272.92 106.39 270.85 105.19Q269.37 104.33 267.78 103.8Q265.22 102.95 262.38 102.95L245.2 102.95Q245.03 102.95 244.95 103.03Q244.87 103.12 244.87 103.28L244.7 161.68Q244.7 161.93 244.83 162.03Q244.9 162.09 245.03 162.09ZM308.49 162.09L317 162.09Q317.46 162.09 317.66 161.87Q317.79 161.7 317.79 161.43L317.17 130.8L331.9 162.09L339.37 162.09Q339.54 162.09 339.64 162.01Q339.79 161.89 339.79 161.6L339.7 103.61Q339.7 103.19 339.5 103.04Q339.39 102.95 339.21 102.95L330.78 102.95Q330.36 102.95 330.18 103.16Q330.03 103.32 330.03 103.61L330.45 136.44L316.09 102.95L308.41 102.95Q308.08 102.95 307.91 103.12Q307.75 103.28 307.75 103.61L307.83 161.51Q307.83 161.76 307.95 161.91Q308.12 162.09 308.49 162.09ZM347.51 162.09L374.98 162.09Q375.15 162.09 375.23 162.01Q375.32 161.93 375.32 161.76L375.32 152.05Q375.32 151.8 375.19 151.7Q375.11 151.63 374.98 151.63L357.47 151.63L357.47 136.78L374.98 136.78Q375.15 136.78 375.23 136.69Q375.32 136.61 375.32 136.44L375.23 126.81Q375.23 126.65 375.15 126.57Q375.07 126.48 374.9 126.48L357.47 126.48L357.47 113.2L374.9 113.2Q375.07 113.2 375.15 113.12Q375.23 113.04 375.23 112.87L375.23 103.37Q375.23 103.11 375.11 103.01Q375.03 102.95 374.9 102.95L347.59 102.95Q347.42 102.95 347.34 103.03Q347.26 103.12 347.26 103.28L347.18 161.68Q347.18 161.93 347.3 162.03Q347.38 162.09 347.51 162.09ZM390.71 162.09L401.01 162.09Q401.17 162.09 401.27 162.01Q401.4 161.91 401.42 161.68L405.74 131.17L410.1 161.68Q410.24 162.05 410.45 162.09Q410.48 162.09 410.51 162.09L420.8 162.09L420.97 161.97Q421.18 161.84 421.22 161.68L431.35 103.28Q431.38 103.14 431.33 103.06Q431.25 102.95 431.01 102.95L421.55 102.95Q421.39 102.95 421.29 103.03Q421.18 103.11 421.14 103.28L415.62 141.67L410.1 103.28Q410.05 103.11 409.94 103.03Q409.84 102.95 409.68 102.95L402 102.95Q401.74 102.95 401.61 103.08Q401.54 103.16 401.5 103.28L395.9 141.67L390.46 103.28Q390.42 103.11 390.31 103.03Q390.21 102.95 390.05 102.95L380.5 102.95Q380.34 102.95 380.28 103.03Q380.21 103.11 380.25 103.28L390.3 161.68Q390.32 161.91 390.45 162.01Q390.55 162.09 390.71 162.09ZM497.63 162.09L507.17 162.09Q507.38 162.09 507.48 161.99Q507.59 161.89 507.59 161.68L507.59 140.26L514.06 140.26Q516.2 140.26 518.19 139.71Q520.37 139.11 522.36 137.85Q522.74 137.62 523.11 137.36Q526.42 135.01 528.59 131.05Q530.95 126.61 530.95 120.63Q530.95 113.56 527.56 109.05Q527.03 108.35 526.41 107.7Q525.34 106.59 524.1 105.74Q520.04 102.95 514.06 102.95L497.71 102.95Q497.54 102.95 497.46 103.03Q497.38 103.12 497.38 103.28L497.21 161.68Q497.21 161.89 497.32 161.99Q497.42 162.09 497.63 162.09ZM537.14 162.09L546.68 162.09Q546.89 162.09 547 161.99Q547.1 161.89 547.1 161.68L547.1 140.26L553.57 140.26Q555.71 140.26 557.7 139.71Q559.88 139.11 561.88 137.85Q562.26 137.62 562.62 137.36Q565.93 135.01 568.1 131.05Q570.47 126.61 570.47 120.63Q570.47 113.56 567.07 109.05Q566.54 108.35 565.92 107.7Q564.86 106.59 563.61 105.74Q559.55 102.95 553.57 102.95L537.22 102.95Q537.06 102.95 536.97 103.03Q536.89 103.12 536.89 103.28L536.72 161.68Q536.72 161.89 536.83 161.99Q536.93 162.09 537.14 162.09ZM615.37 162.09L625 162.09Q625.13 162.09 625.21 162.03Q625.33 161.93 625.33 161.68L625.42 136.69L631.02 136.69Q632.67 136.69 634.04 137.3Q635.3 137.86 636.33 138.93Q637.46 140.11 638 141.51Q638.49 142.78 638.49 144.25L638.49 161.84Q638.49 161.93 638.53 161.99Q638.61 162.09 638.82 162.09L648.45 162.09Q648.66 162.09 648.76 161.99Q648.87 161.89 648.87 161.68L648.78 144.25Q648.78 140.78 647.62 137.76Q646.46 134.78 644.18 132.25Q645.21 131.42 646.48 129.68Q647.75 127.94 648.7 125.4Q649.66 122.87 649.66 119.76Q649.66 116.16 648.34 113.12Q647.92 112.14 647.35 111.21Q646.28 109.46 644.88 108.04Q643.26 106.39 641.19 105.19Q639.71 104.33 638.12 103.8Q635.56 102.95 632.72 102.95L615.54 102.95Q615.37 102.95 615.29 103.03Q615.21 103.12 615.21 103.28L615.04 161.68Q615.04 161.93 615.17 162.03Q615.24 162.09 615.37 162.09ZM664.56 162.09L674.14 162.09Q674.27 162.09 674.35 162.03Q674.48 161.93 674.48 161.68L674.39 113.2L685.56 113.2Q685.69 113.2 685.77 113.14Q685.89 113.04 685.89 112.79L685.89 103.28Q685.89 103.17 685.83 103.09Q685.73 102.95 685.43 102.95L653.14 102.95Q652.98 102.95 652.89 103.03Q652.81 103.12 652.81 103.28L652.73 112.79Q652.73 112.99 652.83 113.1Q652.93 113.2 653.14 113.2L664.18 113.2L664.18 161.68Q664.18 161.91 664.3 162.01Q664.39 162.09 664.56 162.09ZM701.25 162.32Q703.36 162.92 705.64 162.92Q708.92 162.92 711.74 161.8Q712.97 161.32 714.11 160.62Q715.66 159.67 716.96 158.46Q718.82 156.72 720.17 154.41Q721.01 152.95 721.53 151.38Q722.41 148.73 722.41 145.78L722.25 103.28Q722.25 103.12 722.16 103.03Q722.08 102.95 721.91 102.95L712.37 102.95Q712.2 102.95 712.12 103.03Q712.04 103.12 712.04 103.28L712.04 145.78Q712.04 147.5 711.38 148.91Q710.94 149.85 710.21 150.66Q709.32 151.64 708.21 152.14Q707.05 152.67 705.64 152.67Q704.49 152.67 703.49 152.28Q702.22 151.78 701.2 150.66Q700.47 149.85 700.04 148.91Q699.38 147.5 699.38 145.78L699.38 103.28Q699.38 103.12 699.29 103.03Q699.21 102.95 699.05 102.95L689.5 102.95Q689.33 102.95 689.25 103.03Q689.17 103.12 689.17 103.28L689 145.78Q689 148.56 689.81 151.08Q690.35 152.78 691.26 154.35Q692.51 156.52 694.24 158.2Q695.63 159.56 697.34 160.6Q699.22 161.74 701.25 162.32ZM729.84 162.09L738.35 162.09Q738.81 162.09 739 161.87Q739.14 161.7 739.14 161.43L738.52 130.8L753.25 162.09L760.72 162.09Q760.89 162.09 760.99 162.01Q761.14 161.89 761.14 161.6L761.05 103.61Q761.05 103.19 760.85 103.04Q760.73 102.95 760.55 102.95L752.13 102.95Q751.71 102.95 751.53 103.16Q751.38 103.32 751.38 103.61L751.8 136.44L737.44 102.95L729.76 102.95Q729.43 102.95 729.26 103.12Q729.09 103.28 729.09 103.61L729.18 161.51Q729.18 161.76 729.3 161.91Q729.47 162.09 729.84 162.09ZM768.94 162.09L778.57 162.09Q778.7 162.09 778.78 162.03Q778.9 161.93 778.9 161.68L778.82 103.28Q778.82 103.12 778.73 103.03Q778.65 102.95 778.48 102.95L768.94 102.95Q768.77 102.95 768.69 103.03Q768.61 103.12 768.61 103.28L768.52 161.68Q768.52 161.89 768.63 161.99Q768.73 162.09 768.94 162.09ZM794.92 162.09L804.51 162.09Q804.64 162.09 804.72 162.03Q804.84 161.93 804.84 161.68L804.76 113.2L815.92 113.2Q816.05 113.2 816.13 113.14Q816.25 113.04 816.25 112.79L816.25 103.28Q816.25 103.17 816.2 103.09Q816.09 102.95 815.8 102.95L783.51 102.95Q783.34 102.95 783.26 103.03Q783.17 103.12 783.17 103.28L783.09 112.79Q783.09 112.99 783.19 113.1Q783.3 113.2 783.51 113.2L794.55 113.2L794.55 161.68Q794.55 161.91 794.66 162.01Q794.75 162.09 794.92 162.09ZM820.78 162.09L830.41 162.09Q830.54 162.09 830.61 162.03Q830.74 161.93 830.74 161.68L830.65 103.28Q830.65 103.12 830.57 103.03Q830.49 102.95 830.32 102.95L820.78 102.95Q820.61 102.95 820.53 103.03Q820.44 103.12 820.44 103.28L820.36 161.68Q820.36 161.89 820.47 161.99Q820.57 162.09 820.78 162.09ZM838.54 162.09L866.02 162.09Q866.18 162.09 866.27 162.01Q866.35 161.93 866.35 161.76L866.35 152.05Q866.35 151.8 866.22 151.7Q866.15 151.63 866.02 151.63L848.5 151.63L848.5 136.78L866.02 136.78Q866.18 136.78 866.27 136.69Q866.35 136.61 866.35 136.44L866.27 126.81Q866.27 126.65 866.18 126.57Q866.1 126.48 865.93 126.48L848.5 126.48L848.5 113.2L865.93 113.2Q866.1 113.2 866.18 113.12Q866.27 113.04 866.27 112.87L866.27 103.37Q866.27 103.11 866.14 103.01Q866.06 102.95 865.93 102.95L838.62 102.95Q838.46 102.95 838.37 103.03Q838.29 103.12 838.29 103.28L838.21 161.68Q838.21 161.93 838.33 162.03Q838.41 162.09 838.54 162.09ZM940.85 162.09L951.14 162.09Q951.3 162.09 951.4 162.01Q951.53 161.91 951.56 161.68L955.87 131.17L960.23 161.68Q960.38 162.05 960.59 162.09Q960.62 162.09 960.64 162.09L970.94 162.09L971.1 161.97Q971.31 161.84 971.35 161.68L981.48 103.28Q981.51 103.14 981.46 103.06Q981.39 102.95 981.15 102.95L971.68 102.95Q971.53 102.95 971.42 103.03Q971.31 103.11 971.27 103.28L965.75 141.67L960.23 103.28Q960.19 103.11 960.08 103.03Q959.97 102.95 959.81 102.95L952.14 102.95Q951.88 102.95 951.75 103.08Q951.67 103.16 951.64 103.28L946.04 141.67L940.6 103.28Q940.56 103.11 940.44 103.03Q940.34 102.95 940.18 102.95L930.64 102.95Q930.48 102.95 930.41 103.03Q930.35 103.11 930.39 103.28L940.43 161.68Q940.46 161.91 940.58 162.01Q940.68 162.09 940.85 162.09ZM986.88 162.09L996.5 162.09Q996.63 162.09 996.71 162.03Q996.84 161.93 996.84 161.68L996.75 103.28Q996.75 103.12 996.67 103.03Q996.59 102.95 996.42 102.95L986.88 102.95Q986.71 102.95 986.63 103.03Q986.54 103.12 986.54 103.28L986.46 161.68Q986.46 161.89 986.56 161.99Q986.67 162.09 986.88 162.09ZM1012.86 162.09L1022.45 162.09Q1022.58 162.09 1022.66 162.03Q1022.78 161.93 1022.78 161.68L1022.7 113.2L1033.86 113.2Q1033.99 113.2 1034.06 113.14Q1034.18 113.04 1034.18 112.79L1034.18 103.28Q1034.18 103.17 1034.14 103.09Q1034.04 102.95 1033.74 102.95L1001.45 102.95Q1001.28 102.95 1001.2 103.03Q1001.12 103.12 1001.12 103.28L1001.03 112.79Q1001.03 112.99 1001.14 113.1Q1001.24 113.2 1001.45 113.2L1012.49 113.2L1012.49 161.68Q1012.49 161.91 1012.6 162.01Q1012.69 162.09 1012.86 162.09ZM1038.64 162.09L1048.26 162.09Q1048.39 162.09 1048.47 162.03Q1048.6 161.93 1048.6 161.68L1048.6 136.69L1061.34 136.69L1061.34 161.68Q1061.34 161.89 1061.43 161.99Q1061.55 162.09 1061.75 162.09L1071.3 162.09Q1071.51 162.09 1071.61 161.99Q1071.71 161.89 1071.71 161.68L1071.55 103.28Q1071.55 103.15 1071.48 103.07Q1071.39 102.95 1071.13 102.95L1061.67 102.95Q1061.5 102.95 1061.42 103.03Q1061.34 103.12 1061.34 103.28L1061.34 126.4L1048.6 126.4L1048.68 103.28Q1048.68 103.15 1048.62 103.07Q1048.52 102.95 1048.26 102.95L1038.8 102.95Q1038.55 102.95 1038.44 103.07Q1038.39 103.15 1038.39 103.28L1038.3 161.68Q1038.3 161.93 1038.43 162.03Q1038.51 162.09 1038.64 162.09ZM1111.98 162.32Q1114.09 162.92 1116.37 162.92Q1119.64 162.92 1122.47 161.8Q1123.69 161.32 1124.84 160.62Q1126.39 159.67 1127.68 158.46Q1129.55 156.72 1130.9 154.41Q1131.73 152.95 1132.26 151.38Q1133.14 148.73 1133.14 145.78L1132.97 103.28Q1132.97 103.12 1132.89 103.03Q1132.81 102.95 1132.64 102.95L1123.1 102.95Q1122.93 102.95 1122.85 103.03Q1122.76 103.12 1122.76 103.28L1122.76 145.78Q1122.76 147.5 1122.11 148.91Q1121.67 149.85 1120.93 150.66Q1120.05 151.64 1118.93 152.14Q1117.77 152.67 1116.37 152.67Q1115.22 152.67 1114.22 152.28Q1112.94 151.78 1111.93 150.66Q1111.19 149.85 1110.76 148.91Q1110.1 147.5 1110.1 145.78L1110.1 103.28Q1110.1 103.12 1110.02 103.03Q1109.93 102.95 1109.77 102.95L1100.23 102.95Q1100.06 102.95 1099.98 103.03Q1099.9 103.12 1099.9 103.28L1099.73 145.78Q1099.73 148.56 1100.54 151.08Q1101.07 152.78 1101.99 154.35Q1103.24 156.52 1104.96 158.2Q1106.36 159.56 1108.06 160.6Q1109.93 161.74 1111.98 162.32ZM1179.04 146.45L1184.85 146.45Q1185.02 146.45 1185.12 146.37Q1185.25 146.26 1185.27 146.03L1187.05 126.48L1187.14 103.37Q1187.14 103.16 1187.03 103.05Q1186.93 102.95 1186.72 102.95L1177.18 102.95Q1177.05 102.95 1176.97 103.01Q1176.84 103.11 1176.84 103.37L1176.84 126.48L1178.63 146.03Q1178.65 146.26 1178.78 146.37Q1178.88 146.45 1179.04 146.45ZM150.9 152.41Q150.07 152.67 149.16 152.67Q148.05 152.67 147.08 152.31Q145.75 151.82 144.68 150.66Q143.79 149.7 143.32 148.57Q142.81 147.32 142.81 145.87L142.81 118.93Q142.81 117.05 143.59 115.59Q144.02 114.79 144.68 114.11Q145.68 113.09 146.89 112.62Q147.95 112.21 149.16 112.21Q150.68 112.21 151.9 112.81Q152.89 113.29 153.68 114.16Q154.36 114.89 154.78 115.75Q155.47 117.17 155.47 118.93L155.55 145.87Q155.55 146.77 155.32 147.62Q154.89 149.21 153.64 150.58Q152.41 151.93 150.9 152.41ZM475.87 152.41Q475.05 152.67 474.14 152.67Q473.03 152.67 472.05 152.31Q470.73 151.82 469.65 150.66Q468.76 149.7 468.3 148.57Q467.79 147.32 467.79 145.87L467.79 118.93Q467.79 117.05 468.57 115.59Q468.99 114.79 469.65 114.11Q470.65 113.09 471.87 112.62Q472.92 112.21 474.14 112.21Q475.65 112.21 476.88 112.81Q477.86 113.29 478.66 114.16Q479.33 114.89 479.75 115.75Q480.44 117.17 480.44 118.93L480.53 145.87Q480.53 146.77 480.3 147.62Q479.87 149.21 478.62 150.58Q477.38 151.93 475.87 152.41ZM593.7 152.41Q592.88 152.67 591.96 152.67Q590.86 152.67 589.88 152.31Q588.56 151.82 587.48 150.66Q586.59 149.7 586.13 148.57Q585.62 147.32 585.62 145.87L585.62 118.93Q585.62 117.05 586.39 115.59Q586.82 114.79 587.48 114.11Q588.48 113.09 589.7 112.62Q590.75 112.21 591.96 112.21Q593.48 112.21 594.71 112.81Q595.69 113.29 596.49 114.16Q597.16 114.89 597.58 115.75Q598.27 117.17 598.27 118.93L598.36 145.87Q598.36 146.77 598.13 147.62Q597.7 149.21 596.45 150.58Q595.21 151.93 593.7 152.41ZM10.45 113.12L16.39 113.04Q17.62 113 18.7 113.38Q20.02 113.86 21.12 114.97Q22.28 116.14 22.77 117.55Q23.11 118.55 23.11 119.68L23.11 144.16Q23.11 145.68 22.59 146.99Q22.05 148.32 20.95 149.43Q19.96 150.45 18.75 151Q17.34 151.63 15.64 151.63L10.37 151.63L10.45 113.12ZM507.59 113.12L514.06 113.04Q516.09 113.04 517.56 113.95Q518.34 114.43 518.96 115.17Q519.22 115.48 519.44 115.81Q520.75 117.79 520.75 120.63Q520.75 124.78 518.75 127.38Q517.28 129.28 515.44 129.79Q514.77 129.97 514.06 129.97L507.59 129.97L507.59 113.12ZM547.1 113.12L553.57 113.04Q555.61 113.04 557.07 113.95Q557.85 114.43 558.47 115.17Q558.73 115.48 558.95 115.81Q560.26 117.79 560.26 120.63Q560.26 124.78 558.26 127.38Q556.8 129.28 554.95 129.79Q554.28 129.97 553.57 129.97L547.1 129.97L547.1 113.12ZM255.08 113.12L262.38 113.12Q263.64 113.12 264.75 113.54Q266.04 114.03 267.11 115.09Q268.24 116.2 268.73 117.55Q269.11 118.58 269.11 119.76Q269.11 121.15 268.6 122.33Q268.09 123.54 267.05 124.53Q265.73 125.79 264.17 126.24Q263.31 126.48 262.38 126.48L255.08 126.48L255.08 113.12ZM625.42 113.12L632.72 113.12Q633.98 113.12 635.09 113.54Q636.38 114.03 637.45 115.09Q638.58 116.2 639.07 117.55Q639.45 118.58 639.45 119.76Q639.45 121.15 638.95 122.33Q638.43 123.54 637.39 124.53Q636.07 125.79 634.51 126.24Q633.65 126.48 632.72 126.48L625.42 126.48L625.42 113.12ZM1177.18 162.09L1186.72 162.09Q1186.85 162.09 1186.93 162.03Q1187.05 161.93 1187.05 161.68L1187.05 152.42Q1187.05 152.21 1186.94 152.12Q1186.87 152.05 1186.72 152.05L1177.18 152.05Q1177.03 152.05 1176.94 152.12Q1176.84 152.21 1176.84 152.42L1176.84 161.68Q1176.84 161.93 1176.97 162.03Q1177.05 162.09 1177.18 162.09Z" fill="#F6601F" fill-opacity="1.000000" fill-rule="evenodd"/>
</svg>
