<svg width="296.248047" height="317.484375" viewBox="0 0 296.248 317.484" fill="none" xmlns="http://www.w3.org/2000/svg" xmlns:xlink="http://www.w3.org/1999/xlink">
	<desc>
			Created with Pixso.
	</desc>
	<defs/>
	<path id="Будь частиною майбутнього музики та відкрий нові можливості разом з нами!" d="M257.29 28.14Q260.21 23.95 260.21 16.15Q260.21 8.35 257.31 4.18Q256.09 2.41 254.41 1.39Q252.11 0 248.98 0Q245.72 0 243.36 1.46Q241.75 2.46 240.56 4.15Q237.63 8.31 237.63 16.11Q237.63 23.97 240.56 28.15Q241.79 29.91 243.46 30.93Q245.77 32.33 248.93 32.33Q252.05 32.33 254.33 30.96Q256.04 29.93 257.29 28.14ZM293.51 28.13Q296.24 23.93 296.24 16.15Q296.24 8.4 293.54 4.2Q292.24 2.18 290.39 1.13Q288.39 0 285.74 0Q282.95 0 280.87 1.21Q279.5 2.01 278.44 3.33Q275.77 6.66 275.21 12.97L270.63 12.97L270.63 0.49L264.79 0.49L264.79 31.9L270.63 31.9L270.63 18.13L275.17 18.13Q275.49 25.07 278.21 28.7Q279.4 30.29 280.98 31.18Q283.01 32.33 285.69 32.33Q288.33 32.33 290.34 31.2Q292.2 30.15 293.51 28.13ZM155.86 5.37Q156.47 5.15 157.15 5.15Q158.11 5.15 158.95 5.45Q159.25 5.56 159.54 5.7Q160.63 6.25 161.6 6.91L163.53 2.17Q161.73 0.99 160.15 0.51Q160.13 0.51 160.11 0.5Q158.55 0.04 156.85 0.04Q154.2 0.04 152.14 1.14Q150.14 2.21 148.7 4.32Q145.77 8.59 145.77 16.24Q145.77 23.89 148.61 28.11Q149.9 30.02 151.7 31.07Q153.87 32.33 156.77 32.33Q160.35 32.33 162.65 30.81L162.65 25.61Q159.92 27.2 157.43 27.2Q156.22 27.2 155.26 26.7Q151.74 24.86 151.74 16.28Q151.74 11.04 153.19 8.1Q154.24 5.96 155.86 5.37ZM136.29 23.97L138.1 31.9L143.96 31.9L136.16 0.36L128.24 0.36L120.46 31.9L126.3 31.9L128.11 23.97L136.29 23.97ZM15.03 29.14Q17.33 26.54 17.33 21.91Q17.33 17.67 15.22 15.39Q15.06 15.22 14.89 15.06Q12.46 12.76 7.69 12.76L5.84 12.76L5.84 5.58L14.91 5.58L14.91 0.49L0 0.49L0 31.9L7.92 31.9Q11.77 31.9 14.1 30.03Q14.52 29.69 14.89 29.29Q14.97 29.21 15.03 29.14ZM18.82 31.73Q20.34 32.33 22.6 32.33Q24.52 32.33 26.06 31.56Q27.12 31.04 28 30.15Q30.16 27.97 31.83 22.71L38.84 0.49L32.93 0.49L29.51 12.76L29.19 14.2L28.89 15.66L28.72 15.66Q28.59 14.46 28.1 12.76L24.1 0.49L17.98 0.49L26.03 22.36Q24.81 26.55 22.69 27.08Q22.38 27.15 22.06 27.15Q21.3 27.15 20.57 27.03Q19.68 26.87 18.82 26.53L18.82 31.73ZM57.32 40.88L62.99 40.88L62.99 26.75L59.42 26.75L59.42 0.49L45.07 0.49Q43.82 14.99 39.4 26.75L37.55 26.75L37.55 40.88L43.22 40.88L43.22 31.9L57.32 31.9L57.32 40.88ZM81.37 28.91Q83.55 26.33 83.55 21.91Q83.55 17.64 81.41 15.36Q78.98 12.76 73.77 12.76L72.27 12.76L72.27 0.49L66.42 0.49L66.42 31.9L73.9 31.9Q77.88 31.9 80.29 29.96Q80.68 29.65 81.03 29.28Q81.21 29.1 81.37 28.91ZM111.84 31.9L117.69 31.9L117.69 0.49L111.84 0.49L111.84 14.78Q110.64 15.53 109.5 15.97Q109.38 16.02 109.26 16.06Q108.23 16.41 107.07 16.41Q105.93 16.41 105.26 15.85Q105.03 15.65 104.85 15.38Q104.17 14.35 104.17 12.09L104.17 0.49L98.33 0.49L98.33 13.38Q98.33 17.2 100.22 19.35Q100.25 19.38 100.27 19.41Q100.69 19.87 101.18 20.24Q102.98 21.57 105.76 21.57Q105.94 21.57 106.12 21.56Q109.01 21.46 111.84 19.72L111.84 31.9ZM170.93 31.9L176.75 31.9L176.75 5.63L182.76 5.63L182.76 0.49L164.91 0.49L164.91 5.63L170.93 5.63L170.93 31.9ZM191.53 0.49L186.11 0.49L186.11 31.9L193.33 31.9L202.96 9.11L203.24 9.11Q202.74 11.51 202.74 14.69L202.74 31.9L208.11 31.9L208.11 0.49L200.94 0.49L191.36 23.05L191.12 23.05Q191.53 20.43 191.53 17.74L191.53 0.49ZM227.21 31.9L233.06 31.9L233.06 0.49L227.21 0.49L227.21 12.97L219.5 12.97L219.5 0.49L213.66 0.49L213.66 31.9L219.5 31.9L219.5 18.13L227.21 18.13L227.21 31.9ZM133.52 11.49L135.2 18.8L129.27 18.8Q131.07 10.87 131.5 8.64Q131.93 6.42 132.21 4.57Q132.32 5.48 132.84 8.15Q133.37 10.83 133.52 11.49ZM244.96 24.34Q243.61 21.52 243.61 16.15Q243.61 10.76 244.96 7.96Q245.82 6.18 247.21 5.53Q248.01 5.15 248.98 5.15Q249.95 5.15 250.74 5.53Q254.22 7.19 254.22 16.15Q254.22 25.09 250.73 26.77Q249.93 27.15 248.93 27.15Q248.02 27.15 247.26 26.81Q245.84 26.17 244.96 24.34ZM284.44 26.91Q281.12 25.53 281.12 16.15Q281.12 6.8 284.46 5.4Q285.04 5.15 285.74 5.15Q286.4 5.15 286.96 5.39Q290.27 6.75 290.27 16.15Q290.27 25.53 286.95 26.91Q286.37 27.15 285.69 27.15Q285.02 27.15 284.44 26.91ZM53.58 5.63L53.58 26.75L45.48 26.75Q47.09 22.08 48.28 16.46Q49.47 10.85 50.01 5.63L53.58 5.63ZM7.64 26.83L5.84 26.83L5.84 17.87L7.26 17.87Q9.53 17.87 10.49 18.87Q11.45 19.87 11.45 22.13Q11.45 24.97 10.05 26.1Q9.15 26.83 7.64 26.83ZM73.73 26.83L72.27 26.83L72.27 17.87L73.43 17.87Q75.73 17.87 76.68 18.86Q77.64 19.85 77.64 22.13Q77.64 24.91 76.27 26.05Q75.33 26.83 73.73 26.83ZM93.99 53.3Q95.91 51.63 96.34 48.02L91.51 48.02Q91.27 49.95 90.57 50.81Q90.44 50.97 90.29 51.1Q89.61 51.67 88.46 51.67Q87.08 51.67 86.4 50.98Q86.37 50.95 86.34 50.92Q85.66 50.16 85.43 48.02L80.68 48.02Q81.02 51.69 82.85 53.33Q84.68 54.98 88.33 54.98Q92.07 54.98 93.99 53.3ZM230.43 85.14Q233.35 80.95 233.35 73.15Q233.35 65.35 230.45 61.18Q229.22 59.41 227.54 58.39Q225.25 57 222.11 57Q218.85 57 216.5 58.46Q214.88 59.46 213.69 61.15Q210.77 65.31 210.77 73.11Q210.77 80.97 213.69 85.15Q214.92 86.91 216.6 87.93Q218.91 89.33 222.07 89.33Q225.18 89.33 227.47 87.96Q229.18 86.93 230.43 85.14ZM273.82 85.14Q276.75 80.95 276.75 73.15Q276.75 65.35 273.85 61.18Q272.62 59.41 270.94 58.39Q268.65 57 265.51 57Q262.25 57 259.9 58.46Q258.28 59.46 257.09 61.15Q254.17 65.31 254.17 73.11Q254.17 80.97 257.09 85.15Q258.32 86.91 260 87.93Q262.31 89.33 265.47 89.33Q268.58 89.33 270.87 87.96Q272.57 86.93 273.82 85.14ZM67.06 80.97L68.86 88.9L74.73 88.9L66.93 57.36L59 57.36L51.22 88.9L57.07 88.9L58.87 80.97L67.06 80.97ZM24.73 62.15L30.71 88.9L37.09 88.9L43.04 62.2L43.21 62.2Q42.91 64.97 42.91 67.61L42.91 88.9L48.45 88.9L48.45 57.49L39.34 57.49L34.02 82.18L33.84 82.18L28.47 57.49L19.49 57.49L19.49 88.9L24.91 88.9L24.91 67.83Q24.91 65.25 24.5 62.15L24.73 62.15ZM82.91 57.49L77.5 57.49L77.5 88.9L84.72 88.9L94.34 66.11L94.62 66.11Q94.13 68.51 94.13 71.69L94.13 88.9L99.5 88.9L99.5 57.49L92.32 57.49L82.74 80.05L82.51 80.05Q82.91 77.43 82.91 74.74L82.91 57.49ZM120.08 86.14Q122.38 83.54 122.38 78.91Q122.38 74.67 120.27 72.39Q120.11 72.22 119.94 72.06Q117.5 69.76 112.73 69.76L110.89 69.76L110.89 62.58L119.95 62.58L119.95 57.49L105.04 57.49L105.04 88.9L112.97 88.9Q116.81 88.9 119.15 87.03Q119.57 86.69 119.94 86.29Q120.01 86.21 120.08 86.14ZM123.86 88.73Q125.39 89.33 127.64 89.33Q129.57 89.33 131.11 88.56Q132.17 88.04 133.05 87.15Q135.21 84.97 136.88 79.71L143.89 57.49L137.98 57.49L134.56 69.76L134.24 71.2L133.94 72.66L133.77 72.66Q133.64 71.46 133.14 69.76L129.15 57.49L123.03 57.49L131.08 79.36Q129.86 83.55 127.73 84.08Q127.43 84.15 127.11 84.15Q126.35 84.15 125.62 84.03Q124.73 83.87 123.86 83.53L123.86 88.73ZM150.48 88.9L156.31 88.9L156.31 62.63L162.32 62.63L162.32 57.49L144.47 57.49L144.47 62.63L150.48 62.63L150.48 88.9ZM179.23 88.9L185.07 88.9L185.07 57.49L179.23 57.49L179.23 69.97L171.52 69.97L171.52 57.49L165.67 57.49L165.67 88.9L171.52 88.9L171.52 75.13L179.23 75.13L179.23 88.9ZM205.56 85.91Q207.74 83.33 207.74 78.91Q207.74 74.64 205.61 72.36Q203.17 69.76 197.96 69.76L196.46 69.76L196.46 57.49L190.62 57.49L190.62 88.9L198.09 88.9Q202.07 88.9 204.48 86.96Q204.87 86.65 205.22 86.28Q205.4 86.1 205.56 85.91ZM251.95 62.54L251.95 57.49L237.92 57.49L237.92 88.9L243.72 88.9L243.72 62.54L251.95 62.54ZM64.29 68.49L65.96 75.8L60.03 75.8Q61.84 67.87 62.27 65.64Q62.7 63.42 62.98 61.57Q63.08 62.48 63.61 65.15Q64.14 67.83 64.29 68.49ZM218.09 81.34Q216.74 78.52 216.74 73.15Q216.74 67.76 218.09 64.96Q218.95 63.18 220.34 62.53Q221.14 62.15 222.11 62.15Q223.08 62.15 223.87 62.53Q227.35 64.19 227.35 73.15Q227.35 82.09 223.87 83.77Q223.06 84.15 222.07 84.15Q221.15 84.15 220.39 83.81Q218.98 83.17 218.09 81.34ZM261.49 81.34Q260.14 78.52 260.14 73.15Q260.14 67.76 261.49 64.96Q262.35 63.18 263.74 62.53Q264.54 62.15 265.51 62.15Q266.48 62.15 267.27 62.53Q270.75 64.19 270.75 73.15Q270.75 82.09 267.26 83.77Q266.46 84.15 265.47 84.15Q264.55 84.15 263.79 83.81Q262.37 83.17 261.49 81.34ZM112.69 83.83L110.89 83.83L110.89 74.87L112.31 74.87Q114.58 74.87 115.54 75.87Q116.49 76.87 116.49 79.13Q116.49 81.97 115.1 83.1Q114.19 83.83 112.69 83.83ZM197.92 83.83L196.46 83.83L196.46 74.87L197.62 74.87Q199.92 74.87 200.87 75.86Q201.83 76.85 201.83 79.13Q201.83 81.91 200.46 83.05Q199.52 83.83 197.92 83.83ZM118.01 125.67Q118.93 124.06 118.93 121.93Q118.93 119.51 117.86 117.74Q117.36 116.9 116.6 116.2Q116.26 115.89 115.89 115.62Q113.71 114.04 110.38 114.04Q107.7 114.04 105.51 114.8Q103.31 115.57 101.19 117.39L103.96 121.3Q106.11 119.35 108.48 119.04Q108.92 118.98 109.37 118.98Q111.15 118.98 112.13 119.87Q112.18 119.91 112.23 119.96Q112.32 120.04 112.39 120.14Q113.22 121.1 113.22 122.76Q113.22 124.47 112.38 125.51Q112.11 125.85 111.74 126.13Q110.25 127.21 107.14 127.21L105.25 127.21L105.25 132L107.35 132Q110.53 132 112.15 133.17Q112.75 133.6 113.13 134.18Q113.78 135.17 113.78 136.58Q113.78 138.71 112.72 139.92Q111.34 141.5 108.15 141.5Q106.54 141.5 105.02 141.14Q103.14 140.71 101.38 139.74L101.38 144.85Q104.22 146.33 109.29 146.33Q113.79 146.33 116.51 144.13Q116.69 143.99 116.86 143.84Q117.64 143.14 118.2 142.29Q119.64 140.13 119.64 137.01Q119.64 134.59 118.53 132.9Q118.17 132.35 117.7 131.88Q115.75 129.96 112.23 129.53L112.23 129.36Q115.47 128.69 117.2 126.77Q117.67 126.25 118.01 125.67ZM243.09 137.97L244.9 145.9L250.76 145.9L242.96 114.36L235.03 114.36L227.26 145.9L233.1 145.9L234.91 137.97L243.09 137.97ZM52.52 119.15L58.5 145.9L64.88 145.9L70.83 119.2L71 119.2Q70.7 121.97 70.7 124.61L70.7 145.9L76.24 145.9L76.24 114.49L67.13 114.49L61.81 139.18L61.63 139.18L56.26 114.49L47.28 114.49L47.28 145.9L52.7 145.9L52.7 124.83Q52.7 122.25 52.29 119.15L52.52 119.15ZM79.85 145.73Q81.38 146.33 83.63 146.33Q85.56 146.33 87.1 145.56Q88.16 145.04 89.04 144.15Q91.2 141.97 92.87 136.71L99.88 114.49L93.97 114.49L90.55 126.76L90.23 128.2L89.93 129.66L89.76 129.66Q89.63 128.46 89.13 126.76L85.14 114.49L79.01 114.49L87.07 136.36Q85.85 140.55 83.72 141.08Q83.42 141.15 83.1 141.15Q82.34 141.15 81.61 141.03Q80.71 140.87 79.85 140.53L79.85 145.73ZM129.35 114.49L123.94 114.49L123.94 145.9L131.16 145.9L140.78 123.11L141.06 123.11Q140.57 125.51 140.57 128.69L140.57 145.9L145.94 145.9L145.94 114.49L138.76 114.49L129.18 137.05L128.94 137.05Q129.35 134.43 129.35 131.74L129.35 114.49ZM165.43 145.9L171.98 145.9L163.19 129.62L171.81 114.49L165.55 114.49L157.37 129.7L157.37 114.49L151.57 114.49L151.57 145.9L157.37 145.9L157.37 129.98L165.43 145.9ZM180.16 114.49L174.75 114.49L174.75 145.9L181.97 145.9L191.59 123.11L191.87 123.11Q191.38 125.51 191.38 128.69L191.38 145.9L196.75 145.9L196.75 114.49L189.57 114.49L179.99 137.05L179.76 137.05Q180.16 134.43 180.16 131.74L180.16 114.49ZM216.99 145.9L222.81 145.9L222.81 119.63L228.83 119.63L228.83 114.49L210.97 114.49L210.97 119.63L216.99 119.63L216.99 145.9ZM240.32 125.49L242 132.8L236.07 132.8Q237.87 124.87 238.3 122.64Q238.73 120.42 239.01 118.57Q239.12 119.48 239.64 122.15Q240.17 124.83 240.32 125.49ZM171.23 167.3Q173.15 165.63 173.58 162.02L168.74 162.02Q168.51 163.95 167.81 164.81Q167.68 164.97 167.52 165.1Q166.85 165.67 165.69 165.67Q164.32 165.67 163.64 164.98Q163.61 164.95 163.58 164.92Q162.9 164.17 162.66 162.02L157.92 162.02Q158.26 165.69 160.09 167.33Q161.91 168.98 165.56 168.98Q169.3 168.98 171.23 167.3ZM236.79 199.14Q239.71 194.95 239.71 187.15Q239.71 179.35 236.81 175.18Q235.58 173.41 233.9 172.39Q231.61 171 228.47 171Q225.21 171 222.86 172.46Q221.24 173.46 220.05 175.15Q217.13 179.31 217.13 187.11Q217.13 194.97 220.05 199.15Q221.28 200.91 222.96 201.93Q225.27 203.33 228.43 203.33Q231.54 203.33 233.83 201.96Q235.54 200.93 236.79 199.14ZM29.05 171.49L21.04 171.49L21.04 202.9L30.49 202.9Q33.56 202.9 35.62 201.46Q36.23 201.04 36.75 200.48Q36.95 200.28 37.13 200.06Q39.04 197.7 39.04 193.79Q39.04 190.76 37.86 188.94Q37.74 188.75 37.6 188.57Q36.4 187.04 34.02 186.44L34.02 186.23Q34.87 186.07 35.58 185.65Q36.55 185.07 37.24 184.01Q38.42 182.17 38.42 179.44Q38.42 175.59 36.5 173.68Q36.35 173.53 36.19 173.39Q33.95 171.49 29.05 171.49ZM44.39 171.49L44.39 202.9L49.89 202.9L49.89 171.49L44.39 171.49ZM73.74 211.88L79.41 211.88L79.41 197.75L75.85 197.75L75.85 171.49L61.49 171.49Q60.25 185.99 55.82 197.75L53.97 197.75L53.97 211.88L59.65 211.88L59.65 202.9L73.74 202.9L73.74 211.88ZM96.79 202.9L103.35 202.9L94.56 186.62L103.17 171.49L96.92 171.49L88.74 186.7L88.74 171.49L82.94 171.49L82.94 202.9L88.74 202.9L88.74 186.98L96.79 202.9ZM120.77 188.78Q123.24 186.11 123.24 181.16Q123.24 176.06 120.7 173.65Q118.41 171.49 114.09 171.49L106.12 171.49L106.12 202.9L111.96 202.9L111.96 191.52L113.42 191.52Q117.61 191.52 120.07 189.45Q120.41 189.17 120.72 188.84Q120.75 188.81 120.77 188.78ZM132.61 171.49L127.19 171.49L127.19 202.9L134.41 202.9L144.04 180.11L144.32 180.11Q143.82 182.51 143.82 185.69L143.82 202.9L149.19 202.9L149.19 171.49L142.02 171.49L132.44 194.05L132.2 194.05Q132.61 191.43 132.61 188.74L132.61 171.49ZM160.15 171.49L154.74 171.49L154.74 202.9L161.96 202.9L171.58 180.11L171.86 180.11Q171.37 182.51 171.37 185.69L171.37 202.9L176.74 202.9L176.74 171.49L169.56 171.49L159.98 194.05L159.74 194.05Q160.15 191.43 160.15 188.74L160.15 171.49ZM206.71 202.9L212.55 202.9L212.55 171.49L206.71 171.49L206.71 183.97L198.99 183.97L198.99 171.49L193.15 171.49L193.15 202.9L198.99 202.9L198.99 189.13L206.71 189.13L206.71 202.9ZM252.3 171.49L244.28 171.49L244.28 202.9L253.74 202.9Q256.8 202.9 258.87 201.46Q259.48 201.04 260 200.48Q260.2 200.28 260.37 200.06Q262.29 197.7 262.29 193.79Q262.29 190.76 261.1 188.94Q260.98 188.75 260.85 188.57Q259.65 187.04 257.26 186.44L257.26 186.23Q258.12 186.07 258.82 185.65Q259.8 185.07 260.48 184.01Q261.66 182.17 261.66 179.44Q261.66 175.59 259.74 173.68Q259.59 173.53 259.43 173.39Q257.2 171.49 252.3 171.49ZM267.64 171.49L267.64 202.9L273.14 202.9L273.14 171.49L267.64 171.49ZM224.45 195.34Q223.1 192.52 223.1 187.15Q223.1 181.76 224.45 178.96Q225.31 177.18 226.7 176.53Q227.5 176.15 228.47 176.15Q229.44 176.15 230.23 176.53Q233.71 178.19 233.71 187.15Q233.71 196.09 230.22 197.77Q229.42 198.15 228.43 198.15Q227.51 198.15 226.75 197.81Q225.34 197.17 224.45 195.34ZM29.22 184.12L26.54 184.12L26.54 176.54L29.01 176.54Q30.86 176.54 31.72 177.39Q32.58 178.24 32.58 180.19Q32.58 182.15 31.82 183.14Q31.77 183.21 31.71 183.27Q30.94 184.12 29.22 184.12ZM113.08 186.44L111.96 186.44L111.96 176.54L113.38 176.54Q115.08 176.54 116.03 177.38Q116.21 177.54 116.37 177.73Q117.33 178.93 117.33 181.4Q117.33 184.08 116.28 185.26Q116.18 185.37 116.07 185.47Q115.03 186.44 113.08 186.44ZM252.47 184.12L249.78 184.12L249.78 176.54L252.25 176.54Q254.1 176.54 254.96 177.39Q255.82 178.24 255.82 180.19Q255.82 182.15 255.07 183.14Q255.02 183.21 254.96 183.27Q254.19 184.12 252.47 184.12ZM70 176.63L70 197.75L61.9 197.75Q63.51 193.08 64.71 187.47Q65.9 181.85 66.44 176.63L70 176.63ZM26.54 197.79L26.54 189L29.4 189Q31 189 31.91 189.8Q33.09 190.83 33.09 193.21Q33.09 195.55 32.2 196.67Q32.03 196.89 31.82 197.07Q30.95 197.79 29.48 197.79L26.54 197.79ZM249.78 197.79L249.78 189L252.64 189Q254.25 189 255.16 189.8Q256.34 190.83 256.34 193.21Q256.34 195.55 255.44 196.67Q255.27 196.89 255.06 197.07Q254.2 197.79 252.73 197.79L249.78 197.79ZM80.3 256.14Q83.23 251.95 83.23 244.15Q83.23 236.35 80.33 232.18Q79.1 230.41 77.42 229.39Q75.12 228 71.99 228Q68.73 228 66.38 229.46Q64.76 230.46 63.57 232.15Q60.65 236.31 60.65 244.11Q60.65 251.97 63.57 256.15Q64.8 257.91 66.48 258.93Q68.79 260.33 71.95 260.33Q75.06 260.33 77.35 258.96Q79.05 257.93 80.3 256.14ZM213.64 256.14Q216.56 251.95 216.56 244.15Q216.56 236.35 213.66 232.18Q212.43 230.41 210.75 229.39Q208.46 228 205.32 228Q202.06 228 199.71 229.46Q198.09 230.46 196.9 232.15Q193.98 236.31 193.98 244.11Q193.98 251.97 196.9 256.15Q198.13 257.91 199.81 258.93Q202.12 260.33 205.28 260.33Q208.39 260.33 210.68 258.96Q212.39 257.93 213.64 256.14ZM230.26 233.37Q230.87 233.15 231.55 233.15Q232.51 233.15 233.35 233.45Q233.65 233.56 233.94 233.7Q235.03 234.25 236 234.92L237.93 230.17Q236.13 228.99 234.55 228.51Q234.53 228.51 234.51 228.5Q232.95 228.04 231.25 228.04Q228.6 228.04 226.54 229.14Q224.54 230.21 223.1 232.32Q220.17 236.59 220.17 244.24Q220.17 251.89 223.01 256.11Q224.3 258.02 226.1 259.07Q228.27 260.33 231.17 260.33Q234.76 260.33 237.05 258.81L237.05 253.61Q234.33 255.2 231.83 255.2Q230.62 255.2 229.66 254.7Q226.14 252.86 226.14 244.28Q226.14 239.04 227.59 236.1Q228.64 233.96 230.26 233.37ZM32.35 233.15L38.32 259.9L44.7 259.9L50.66 233.2L50.83 233.2Q50.53 235.97 50.53 238.61L50.53 259.9L56.07 259.9L56.07 228.49L46.96 228.49L41.63 253.18L41.46 253.18L36.09 228.49L27.11 228.49L27.11 259.9L32.52 259.9L32.52 238.83Q32.52 236.25 32.11 233.15L32.35 233.15ZM84.77 228.49L92.49 243.62L84.64 259.9L90.98 259.9L97.92 243.98L97.92 259.9L103.38 259.9L103.38 243.98L110.38 259.9L116.72 259.9L108.88 243.57L116.59 228.49L110.55 228.49L103.38 243.7L103.38 228.49L97.92 228.49L97.92 243.7L90.77 228.49L84.77 228.49ZM133.71 259.9L139.56 259.9L139.56 228.49L123.94 228.49Q123.06 238.31 122.25 244.91Q121.45 251.5 120.81 253.39Q120.29 254.95 119.38 255.22Q119.19 255.28 118.98 255.28Q118.03 255.28 117.39 255.02L117.39 259.86Q118.5 260.33 120.24 260.33Q121.81 260.33 123.03 259.68Q124 259.16 124.74 258.23Q126.43 256.12 127.08 251.59Q128.04 244.5 129.01 233.63L133.71 233.63L133.71 259.9ZM150.52 228.49L145.1 228.49L145.1 259.9L152.32 259.9L161.94 237.11L162.22 237.11Q161.73 239.51 161.73 242.69L161.73 259.9L167.1 259.9L167.1 228.49L159.92 228.49L150.34 251.05L150.11 251.05Q150.52 248.43 150.52 245.74L150.52 228.49ZM180.66 228.49L172.64 228.49L172.64 259.9L182.1 259.9Q185.16 259.9 187.23 258.46Q187.84 258.04 188.36 257.48Q188.56 257.28 188.73 257.06Q190.65 254.7 190.65 250.79Q190.65 247.76 189.47 245.94Q189.34 245.75 189.21 245.57Q188.01 244.04 185.62 243.44L185.62 243.23Q186.48 243.07 187.18 242.65Q188.16 242.07 188.84 241.01Q190.02 239.17 190.02 236.44Q190.02 232.59 188.1 230.68Q187.95 230.53 187.79 230.39Q185.56 228.49 180.66 228.49ZM245.33 259.9L251.15 259.9L251.15 233.63L257.16 233.63L257.16 228.49L239.31 228.49L239.31 233.63L245.33 233.63L245.33 259.9ZM261.57 228.49L261.57 259.9L267.07 259.9L267.07 228.49L261.57 228.49ZM67.97 252.34Q66.62 249.52 66.62 244.15Q66.62 238.76 67.97 235.96Q68.83 234.18 70.22 233.53Q71.02 233.15 71.99 233.15Q72.96 233.15 73.75 233.53Q77.23 235.19 77.23 244.15Q77.23 253.09 73.74 254.77Q72.94 255.15 71.95 255.15Q71.03 255.15 70.27 254.81Q68.85 254.17 67.97 252.34ZM201.3 252.34Q199.95 249.52 199.95 244.15Q199.95 238.76 201.3 235.96Q202.16 234.18 203.55 233.53Q204.35 233.15 205.32 233.15Q206.29 233.15 207.08 233.53Q210.56 235.19 210.56 244.15Q210.56 253.09 207.08 254.77Q206.27 255.15 205.28 255.15Q204.36 255.15 203.6 254.81Q202.19 254.17 201.3 252.34ZM180.83 241.12L178.14 241.12L178.14 233.54L180.61 233.54Q182.46 233.54 183.32 234.39Q184.18 235.24 184.18 237.19Q184.18 239.15 183.43 240.14Q183.38 240.21 183.32 240.27Q182.55 241.12 180.83 241.12ZM178.14 254.79L178.14 246L181 246Q182.61 246 183.52 246.8Q184.7 247.83 184.7 250.21Q184.7 252.55 183.81 253.67Q183.63 253.89 183.42 254.07Q182.56 254.79 181.09 254.79L178.14 254.79ZM93.76 313.14Q96.69 308.95 96.69 301.15Q96.69 293.35 93.79 289.18Q92.56 287.41 90.88 286.39Q88.58 285 85.45 285Q82.19 285 79.84 286.46Q78.22 287.46 77.03 289.15Q74.11 293.31 74.11 301.11Q74.11 308.97 77.03 313.15Q78.26 314.91 79.94 315.93Q82.25 317.33 85.41 317.33Q88.52 317.33 90.81 315.96Q92.51 314.93 93.76 313.14ZM69.14 296.67Q70.07 295.06 70.07 292.93Q70.07 290.51 69 288.74Q68.49 287.9 67.74 287.2Q67.4 286.89 67.02 286.62Q64.84 285.04 61.52 285.04Q58.83 285.04 56.64 285.8Q54.45 286.57 52.32 288.39L55.09 292.3Q57.25 290.35 59.62 290.04Q60.06 289.98 60.51 289.98Q62.28 289.98 63.26 290.87Q63.31 290.91 63.36 290.96Q63.45 291.04 63.53 291.14Q64.35 292.1 64.35 293.76Q64.35 295.47 63.52 296.51Q63.24 296.85 62.87 297.13Q61.39 298.21 58.27 298.21L56.38 298.21L56.38 303L58.49 303Q61.67 303 63.29 304.17Q63.89 304.6 64.26 305.18Q64.91 306.17 64.91 307.58Q64.91 309.71 63.85 310.92Q62.47 312.5 59.28 312.5Q57.67 312.5 56.15 312.14Q54.27 311.71 52.51 310.74L52.51 315.85Q55.35 317.33 60.42 317.33Q64.92 317.33 67.65 315.13Q67.82 314.99 67.99 314.84Q68.78 314.14 69.34 313.29Q70.78 311.13 70.78 308.01Q70.78 305.59 69.66 303.9Q69.31 303.35 68.83 302.88Q66.89 300.96 63.36 300.53L63.36 300.36Q66.61 299.69 68.34 297.77Q68.8 297.25 69.14 296.67ZM162 296.67Q162.92 295.06 162.92 292.93Q162.92 290.51 161.85 288.74Q161.34 287.9 160.59 287.2Q160.25 286.89 159.88 286.62Q157.69 285.04 154.37 285.04Q151.69 285.04 149.49 285.8Q147.3 286.57 145.18 288.39L147.95 292.3Q150.1 290.35 152.47 290.04Q152.91 289.98 153.36 289.98Q155.14 289.98 156.12 290.87Q156.17 290.91 156.22 290.96Q156.3 291.04 156.38 291.14Q157.21 292.1 157.21 293.76Q157.21 295.47 156.37 296.51Q156.1 296.85 155.72 297.13Q154.24 298.21 151.13 298.21L149.24 298.21L149.24 303L151.34 303Q154.52 303 156.14 304.17Q156.74 304.6 157.12 305.18Q157.77 306.17 157.77 307.58Q157.77 309.71 156.71 310.92Q155.33 312.5 152.14 312.5Q150.53 312.5 149 312.14Q147.13 311.71 145.37 310.74L145.37 315.85Q148.21 317.33 153.28 317.33Q157.78 317.33 160.5 315.13Q160.68 314.99 160.85 314.84Q161.63 314.14 162.19 313.29Q163.63 311.13 163.63 308.01Q163.63 305.59 162.52 303.9Q162.16 303.35 161.69 302.88Q159.74 300.96 156.22 300.53L156.22 300.36Q159.46 299.69 161.19 297.77Q161.66 297.25 162 296.67ZM43.34 308.97L45.14 316.9L51.01 316.9L43.21 285.36L35.28 285.36L27.51 316.9L33.35 316.9L35.15 308.97L43.34 308.97ZM216.81 308.97L218.61 316.9L224.47 316.9L216.68 285.36L208.75 285.36L200.97 316.9L206.81 316.9L208.62 308.97L216.81 308.97ZM25.13 302.78Q27.59 300.11 27.59 295.16Q27.59 290.06 25.05 287.65Q22.76 285.49 18.44 285.49L10.47 285.49L10.47 316.9L16.31 316.9L16.31 305.51L17.77 305.51Q21.96 305.51 24.42 303.45Q24.76 303.17 25.07 302.84Q25.1 302.81 25.13 302.78ZM106.5 290.15L112.48 316.9L118.86 316.9L124.81 290.2L124.98 290.2Q124.68 292.97 124.68 295.61L124.68 316.9L130.22 316.9L130.22 285.49L121.11 285.49L115.79 310.18L115.61 310.18L110.24 285.49L101.26 285.49L101.26 316.9L106.68 316.9L106.68 295.82Q106.68 293.25 106.27 290.15L106.5 290.15ZM192.36 316.9L198.2 316.9L198.2 285.49L192.36 285.49L192.36 297.97L184.64 297.97L184.64 285.49L178.8 285.49L178.8 316.9L184.64 316.9L184.64 303.13L192.36 303.13L192.36 316.9ZM232.49 290.15L238.46 316.9L244.84 316.9L250.79 290.2L250.97 290.2Q250.66 292.97 250.66 295.61L250.66 316.9L256.21 316.9L256.21 285.49L247.1 285.49L241.77 310.18L241.6 310.18L236.23 285.49L227.25 285.49L227.25 316.9L232.66 316.9L232.66 295.82Q232.66 293.25 232.25 290.15L232.49 290.15ZM267.16 285.49L261.75 285.49L261.75 316.9L268.97 316.9L278.59 294.11L278.87 294.11Q278.38 296.51 278.38 299.69L278.38 316.9L283.75 316.9L283.75 285.49L276.57 285.49L266.99 308.05L266.76 308.05Q267.16 305.43 267.16 302.74L267.16 285.49ZM290.13 306.78L294.84 306.78L295.93 285.49L289.08 285.49L290.13 306.78ZM40.57 296.49L42.24 303.8L36.31 303.8Q38.12 295.87 38.55 293.64Q38.98 291.42 39.26 289.57Q39.37 290.48 39.89 293.15Q40.42 295.82 40.57 296.49ZM214.03 296.49L215.71 303.8L209.78 303.8Q211.58 295.87 212.01 293.64Q212.44 291.42 212.72 289.57Q212.83 290.48 213.36 293.15Q213.88 295.82 214.03 296.49ZM81.43 309.34Q80.08 306.52 80.08 301.15Q80.08 295.76 81.43 292.96Q82.29 291.18 83.68 290.53Q84.48 290.15 85.45 290.15Q86.42 290.15 87.21 290.53Q90.69 292.19 90.69 301.15Q90.69 310.09 87.2 311.77Q86.4 312.15 85.41 312.15Q84.49 312.15 83.73 311.81Q82.31 311.17 81.43 309.34ZM17.43 300.44L16.31 300.44L16.31 290.54L17.73 290.54Q19.43 290.54 20.38 291.38Q20.56 291.54 20.72 291.73Q21.68 292.93 21.68 295.4Q21.68 298.08 20.63 299.26Q20.53 299.37 20.42 299.47Q19.38 300.44 17.43 300.44ZM289.67 311.5Q288.91 312.41 288.91 313.96Q288.91 315.44 289.63 316.34Q289.71 316.45 289.81 316.55Q289.88 316.62 289.95 316.68Q290.84 317.48 292.45 317.48Q293.98 317.48 294.89 316.73Q294.99 316.65 295.08 316.56Q295.2 316.44 295.3 316.32Q296.02 315.43 296.02 313.96Q296.02 312.38 295.24 311.48Q295.18 311.41 295.12 311.35Q295.08 311.31 295.05 311.28Q294.15 310.43 292.45 310.43Q290.77 310.43 289.89 311.27Q289.84 311.31 289.8 311.36Q289.73 311.43 289.67 311.5Z" fill="#F6601F" fill-opacity="1.000000" fill-rule="evenodd"/>
</svg>
