<svg width="1182.000000" height="155.531250" viewBox="0 0 1182 155.531" fill="none" xmlns="http://www.w3.org/2000/svg" xmlns:xlink="http://www.w3.org/1999/xlink">
	<desc>
			Created with Pixso.
	</desc>
	<defs/>
	<path id="Будь частиною майбутнього музики та відкрий нові можливості разом з нами!" d="M573.59 7.68Q576.39 5.25 577.01 0L569.98 0Q569.64 2.81 568.62 4.06Q568.43 4.29 568.2 4.48Q567.22 5.31 565.54 5.31Q563.54 5.31 562.55 4.31Q562.51 4.26 562.46 4.21Q561.48 3.12 561.14 0L554.23 0Q554.73 5.34 557.39 7.73Q560.04 10.12 565.35 10.12Q570.79 10.12 573.59 7.68ZM386.1 54Q390.35 47.9 390.35 36.56Q390.35 25.21 386.14 19.14Q384.35 16.56 381.91 15.08Q378.57 13.06 374.01 13.06Q369.27 13.06 365.85 15.18Q363.49 16.64 361.76 19.1Q357.51 25.15 357.51 36.5Q357.51 47.93 361.76 54.01Q363.55 56.57 365.99 58.05Q369.35 60.09 373.95 60.09Q378.47 60.09 381.8 58.09Q384.29 56.6 386.1 54ZM438.79 53.98Q442.76 47.87 442.76 36.56Q442.76 25.28 438.82 19.17Q436.94 16.24 434.25 14.71Q431.33 13.06 427.48 13.06Q423.42 13.06 420.4 14.82Q418.41 15.98 416.87 17.9Q412.98 22.75 412.17 31.93L405.51 31.93L405.51 13.78L397.01 13.78L397.01 59.46L405.51 59.46L405.51 39.43L412.1 39.43Q412.57 49.53 416.53 54.81Q418.26 57.12 420.56 58.42Q423.51 60.09 427.42 60.09Q431.25 60.09 434.17 58.45Q436.88 56.92 438.79 53.98ZM772.04 54Q776.29 47.9 776.29 36.56Q776.29 25.21 772.07 19.14Q770.29 16.56 767.84 15.08Q764.51 13.06 759.95 13.06Q755.21 13.06 751.78 15.18Q749.43 16.64 747.7 19.1Q743.45 25.15 743.45 36.5Q743.45 47.93 747.7 54.01Q749.49 56.57 751.93 58.05Q755.29 60.09 759.89 60.09Q764.41 60.09 767.74 58.09Q770.23 56.6 772.04 54ZM835.17 54Q839.42 47.9 839.42 36.56Q839.42 25.21 835.2 19.14Q833.41 16.56 830.97 15.08Q827.63 13.06 823.07 13.06Q818.33 13.06 814.91 15.18Q812.56 16.64 810.82 19.1Q806.57 25.15 806.57 36.5Q806.57 47.93 810.82 54.01Q812.61 56.57 815.05 58.05Q818.41 60.09 823.01 60.09Q827.54 60.09 830.86 58.09Q833.35 56.6 835.17 54ZM238.57 20.88Q239.45 20.56 240.45 20.56Q241.83 20.56 243.06 20.99Q243.5 21.15 243.92 21.35Q245.51 22.15 246.92 23.12L249.73 16.21Q247.1 14.5 244.81 13.81Q244.78 13.8 244.75 13.79Q242.48 13.12 240.01 13.12Q236.15 13.12 233.15 14.72Q230.25 16.28 228.15 19.34Q223.89 25.56 223.89 36.68Q223.89 47.81 228.03 53.95Q229.9 56.73 232.51 58.25Q235.67 60.09 239.89 60.09Q245.1 60.09 248.45 57.87L248.45 50.31Q244.48 52.62 240.85 52.62Q239.08 52.62 237.69 51.89Q232.57 49.22 232.57 36.75Q232.57 29.12 234.68 24.84Q236.22 21.73 238.57 20.88ZM964.76 30.03Q966.1 27.7 966.1 24.59Q966.1 21.08 964.55 18.5Q963.81 17.28 962.71 16.26Q962.22 15.8 961.68 15.41Q958.5 13.12 953.67 13.12Q949.76 13.12 946.57 14.23Q943.39 15.34 940.29 18L944.32 23.68Q947.46 20.84 950.9 20.39Q951.55 20.31 952.2 20.31Q954.78 20.31 956.21 21.59Q956.28 21.66 956.35 21.73Q956.48 21.85 956.59 21.99Q957.79 23.38 957.79 25.81Q957.79 28.29 956.58 29.8Q956.17 30.3 955.64 30.7Q953.48 32.28 948.95 32.28L946.2 32.28L946.2 39.25L949.26 39.25Q953.89 39.25 956.25 40.95Q957.11 41.58 957.66 42.41Q958.6 43.85 958.6 45.9Q958.6 49 957.07 50.76Q955.06 53.06 950.42 53.06Q948.08 53.06 945.86 52.54Q943.13 51.91 940.57 50.5L940.57 57.93Q944.7 60.09 952.07 60.09Q958.62 60.09 962.59 56.89Q962.84 56.68 963.09 56.46Q964.23 55.44 965.04 54.21Q967.14 51.06 967.14 46.53Q967.14 43.01 965.52 40.55Q965 39.76 964.31 39.07Q961.48 36.28 956.35 35.65L956.35 35.4Q961.07 34.43 963.59 31.64Q964.26 30.89 964.76 30.03ZM210.1 47.93L212.73 59.46L221.26 59.46L209.92 13.59L198.39 13.59L187.07 59.46L195.57 59.46L198.2 47.93L210.1 47.93ZM534.42 47.93L537.04 59.46L545.57 59.46L534.23 13.59L522.7 13.59L511.39 59.46L519.89 59.46L522.51 47.93L534.42 47.93ZM1146.69 47.93L1149.32 59.46L1157.86 59.46L1146.52 13.59L1134.98 13.59L1123.67 59.46L1132.17 59.46L1134.8 47.93L1146.69 47.93ZM33.73 55.44Q37.07 51.67 37.07 44.93Q37.07 38.76 34 35.44Q33.77 35.19 33.53 34.96Q29.98 31.62 23.04 31.62L20.35 31.62L20.35 21.18L33.54 21.18L33.54 13.78L11.85 13.78L11.85 59.46L23.39 59.46Q28.98 59.46 32.38 56.74Q32.99 56.25 33.53 55.67Q33.63 55.56 33.73 55.44ZM39.23 59.21Q41.45 60.09 44.73 60.09Q47.53 60.09 49.77 58.97Q51.31 58.21 52.59 56.92Q55.73 53.75 58.17 46.09L68.35 13.78L59.76 13.78L54.79 31.62L54.32 33.71L53.89 35.84L53.64 35.84Q53.45 34.09 52.73 31.62L46.92 13.78L38.01 13.78L49.73 45.59Q47.95 51.69 44.86 52.45Q44.42 52.56 43.95 52.56Q42.85 52.56 41.78 52.37Q40.48 52.15 39.23 51.65L39.23 59.21ZM95.23 72.53L103.48 72.53L103.48 51.96L98.29 51.96L98.29 13.78L77.42 13.78Q75.6 34.87 69.17 51.96L66.48 51.96L66.48 72.53L74.73 72.53L74.73 59.46L95.23 59.46L95.23 72.53ZM130.21 55.11Q133.39 51.37 133.39 44.93Q133.39 38.71 130.28 35.4Q126.74 31.62 119.17 31.62L116.98 31.62L116.98 13.78L108.48 13.78L108.48 59.46L119.35 59.46Q125.14 59.46 128.65 56.64Q129.22 56.18 129.73 55.65Q129.98 55.39 130.21 55.11ZM174.54 59.46L183.04 59.46L183.04 13.78L174.54 13.78L174.54 34.56Q172.79 35.65 171.14 36.29Q170.96 36.36 170.79 36.42Q169.28 36.93 167.6 36.93Q165.94 36.93 164.97 36.11Q164.63 35.82 164.37 35.43Q163.39 33.93 163.39 30.65L163.39 13.78L154.89 13.78L154.89 32.53Q154.89 38.07 157.64 41.2Q157.67 41.25 157.71 41.29Q158.32 41.97 159.03 42.5Q161.65 44.43 165.7 44.43Q165.96 44.43 166.22 44.42Q170.42 44.28 174.54 41.75L174.54 59.46ZM260.48 59.46L268.95 59.46L268.95 21.25L277.7 21.25L277.7 13.78L251.73 13.78L251.73 21.25L260.48 21.25L260.48 59.46ZM290.45 13.78L282.57 13.78L282.57 59.46L293.07 59.46L307.07 26.31L307.48 26.31Q306.76 29.81 306.76 34.43L306.76 59.46L314.57 59.46L314.57 13.78L304.14 13.78L290.2 46.59L289.85 46.59Q290.45 42.78 290.45 38.87L290.45 13.78ZM342.35 59.46L350.85 59.46L350.85 13.78L342.35 13.78L342.35 31.93L331.14 31.93L331.14 13.78L322.64 13.78L322.64 59.46L331.14 59.46L331.14 39.43L342.35 39.43L342.35 59.46ZM472.85 20.56L481.54 59.46L490.82 59.46L499.48 20.62L499.73 20.62Q499.29 24.65 499.29 28.5L499.29 59.46L507.35 59.46L507.35 13.78L494.1 13.78L486.35 49.68L486.1 49.68L478.29 13.78L465.23 13.78L465.23 59.46L473.1 59.46L473.1 28.81Q473.1 25.06 472.51 20.56L472.85 20.56ZM557.48 13.78L549.6 13.78L549.6 59.46L560.1 59.46L574.1 26.31L574.51 26.31Q573.79 29.81 573.79 34.43L573.79 59.46L581.6 59.46L581.6 13.78L571.17 13.78L557.23 46.59L556.89 46.59Q557.48 42.78 557.48 38.87L557.48 13.78ZM611.54 55.44Q614.89 51.67 614.89 44.93Q614.89 38.76 611.81 35.44Q611.58 35.19 611.34 34.96Q607.79 31.62 600.85 31.62L598.17 31.62L598.17 21.18L611.35 21.18L611.35 13.78L589.67 13.78L589.67 59.46L601.2 59.46Q606.79 59.46 610.19 56.74Q610.8 56.25 611.34 55.67Q611.44 55.56 611.54 55.44ZM617.04 59.21Q619.26 60.09 622.54 60.09Q625.34 60.09 627.59 58.97Q629.12 58.21 630.4 56.92Q633.54 53.75 635.98 46.09L646.17 13.78L637.57 13.78L632.6 31.62L632.14 33.71L631.7 35.84L631.45 35.84Q631.26 34.09 630.54 31.62L624.73 13.78L615.82 13.78L627.54 45.59Q625.77 51.69 622.67 52.45Q622.23 52.56 621.76 52.56Q620.66 52.56 619.6 52.37Q618.3 52.15 617.04 51.65L617.04 59.21ZM655.76 59.46L664.23 59.46L664.23 21.25L672.98 21.25L672.98 13.78L647.01 13.78L647.01 21.25L655.76 21.25L655.76 59.46ZM697.57 59.46L706.07 59.46L706.07 13.78L697.57 13.78L697.57 31.93L686.35 31.93L686.35 13.78L677.85 13.78L677.85 59.46L686.35 59.46L686.35 39.43L697.57 39.43L697.57 59.46ZM735.87 55.11Q739.04 51.37 739.04 44.93Q739.04 38.71 735.94 35.4Q732.4 31.62 724.82 31.62L722.64 31.62L722.64 13.78L714.14 13.78L714.14 59.46L725.01 59.46Q730.79 59.46 734.31 56.64Q734.88 56.18 735.39 55.65Q735.64 55.39 735.87 55.11ZM803.35 21.12L803.35 13.78L782.95 13.78L782.95 59.46L791.39 59.46L791.39 21.12L803.35 21.12ZM869.51 20.56L878.2 59.46L887.48 59.46L896.14 20.62L896.39 20.62Q895.95 24.65 895.95 28.5L895.95 59.46L904.01 59.46L904.01 13.78L890.76 13.78L883.01 49.68L882.76 49.68L874.95 13.78L861.89 13.78L861.89 59.46L869.76 59.46L869.76 28.81Q869.76 25.06 869.17 20.56L869.51 20.56ZM909.26 59.21Q911.48 60.09 914.76 60.09Q917.56 60.09 919.8 58.97Q921.34 58.21 922.62 56.92Q925.76 53.75 928.2 46.09L938.39 13.78L929.79 13.78L924.82 31.62L924.35 33.71L923.92 35.84L923.67 35.84Q923.48 34.09 922.76 31.62L916.95 13.78L908.04 13.78L919.76 45.59Q917.98 51.69 914.89 52.45Q914.45 52.56 913.98 52.56Q912.88 52.56 911.82 52.37Q910.52 52.15 909.26 51.65L909.26 59.21ZM981.26 13.78L973.39 13.78L973.39 59.46L983.89 59.46L997.89 26.31L998.29 26.31Q997.57 29.81 997.57 34.43L997.57 59.46L1005.39 59.46L1005.39 13.78L994.95 13.78L981.01 46.59L980.67 46.59Q981.26 42.78 981.26 38.87L981.26 13.78ZM1033.73 59.46L1043.27 59.46L1030.48 35.78L1043.02 13.78L1033.92 13.78L1022.02 35.9L1022.02 13.78L1013.58 13.78L1013.58 59.46L1022.02 59.46L1022.02 36.31L1033.73 59.46ZM1055.17 13.78L1047.3 13.78L1047.3 59.46L1057.8 59.46L1071.8 26.31L1072.19 26.31Q1071.48 29.81 1071.48 34.43L1071.48 59.46L1079.3 59.46L1079.3 13.78L1068.86 13.78L1054.92 46.59L1054.57 46.59Q1055.17 42.78 1055.17 38.87L1055.17 13.78ZM1108.73 59.46L1117.19 59.46L1117.19 21.25L1125.94 21.25L1125.94 13.78L1099.98 13.78L1099.98 21.25L1108.73 21.25L1108.73 59.46ZM206.07 29.78L208.51 40.4L199.89 40.4Q202.51 28.87 203.14 25.64Q203.76 22.4 204.17 19.71Q204.32 21.03 205.09 24.92Q205.85 28.81 206.07 29.78ZM530.39 29.78L532.82 40.4L524.2 40.4Q526.82 28.87 527.45 25.64Q528.07 22.4 528.48 19.71Q528.64 21.03 529.4 24.92Q530.17 28.81 530.39 29.78ZM1142.67 29.78L1145.11 40.4L1136.48 40.4Q1139.11 28.87 1139.73 25.64Q1140.36 22.4 1140.77 19.71Q1140.92 21.03 1141.68 24.92Q1142.44 28.81 1142.67 29.78ZM368.17 48.46Q366.2 44.37 366.2 36.56Q366.2 28.71 368.17 24.64Q369.42 22.04 371.44 21.1Q372.6 20.56 374.01 20.56Q375.42 20.56 376.57 21.11Q381.64 23.52 381.64 36.56Q381.64 49.56 376.56 51.99Q375.39 52.56 373.95 52.56Q372.62 52.56 371.51 52.06Q369.45 51.13 368.17 48.46ZM425.6 52.21Q420.76 50.2 420.76 36.56Q420.76 22.96 425.62 20.92Q426.47 20.56 427.48 20.56Q428.44 20.56 429.26 20.89Q434.07 22.88 434.07 36.56Q434.07 50.2 429.24 52.21Q428.4 52.56 427.42 52.56Q426.44 52.56 425.6 52.21ZM754.1 48.46Q752.14 44.37 752.14 36.56Q752.14 28.71 754.1 24.64Q755.36 22.04 757.38 21.1Q758.54 20.56 759.95 20.56Q761.36 20.56 762.51 21.11Q767.57 23.52 767.57 36.56Q767.57 49.56 762.5 51.99Q761.33 52.56 759.89 52.56Q758.56 52.56 757.45 52.06Q755.39 51.13 754.1 48.46ZM817.23 48.46Q815.26 44.37 815.26 36.56Q815.26 28.71 817.23 24.64Q818.48 22.04 820.5 21.1Q821.66 20.56 823.07 20.56Q824.48 20.56 825.63 21.11Q830.7 23.52 830.7 36.56Q830.7 49.56 825.62 51.99Q824.45 52.56 823.01 52.56Q821.68 52.56 820.58 52.06Q818.51 51.13 817.23 48.46ZM89.79 21.25L89.79 51.96L78.01 51.96Q80.35 45.18 82.09 37.01Q83.82 28.84 84.6 21.25L89.79 21.25ZM22.98 52.09L20.35 52.09L20.35 39.06L22.42 39.06Q25.73 39.06 27.12 40.51Q28.51 41.96 28.51 45.25Q28.51 49.38 26.49 51.02Q25.16 52.09 22.98 52.09ZM119.1 52.09L116.98 52.09L116.98 39.06L118.67 39.06Q122.01 39.06 123.4 40.5Q124.79 41.93 124.79 45.25Q124.79 49.29 122.8 50.95Q121.43 52.09 119.1 52.09ZM600.79 52.09L598.17 52.09L598.17 39.06L600.23 39.06Q603.54 39.06 604.93 40.51Q606.32 41.96 606.32 45.25Q606.32 49.38 604.3 51.02Q602.98 52.09 600.79 52.09ZM724.76 52.09L722.64 52.09L722.64 39.06L724.32 39.06Q727.67 39.06 729.06 40.5Q730.45 41.93 730.45 45.25Q730.45 49.29 728.46 50.95Q727.08 52.09 724.76 52.09ZM218.45 90.68Q221.25 88.25 221.87 83L214.84 83Q214.5 85.81 213.48 87.06Q213.29 87.29 213.06 87.48Q212.08 88.31 210.4 88.31Q208.4 88.31 207.41 87.31Q207.37 87.26 207.32 87.21Q206.34 86.12 206 83L199.09 83Q199.59 88.34 202.25 90.73Q204.9 93.12 210.21 93.12Q215.65 93.12 218.45 90.68ZM313.81 137Q318.06 130.9 318.06 119.56Q318.06 108.21 313.84 102.14Q312.05 99.56 309.61 98.08Q306.27 96.06 301.71 96.06Q296.97 96.06 293.55 98.18Q291.2 99.64 289.46 102.1Q285.21 108.15 285.21 119.5Q285.21 130.93 289.46 137.01Q291.25 139.57 293.69 141.05Q297.05 143.09 301.65 143.09Q306.18 143.09 309.5 141.09Q311.99 139.6 313.81 137ZM469.53 137Q473.78 130.9 473.78 119.56Q473.78 108.21 469.56 102.14Q467.77 99.56 465.33 98.08Q461.99 96.06 457.43 96.06Q452.69 96.06 449.27 98.18Q446.91 99.64 445.18 102.1Q440.93 108.15 440.93 119.5Q440.93 130.93 445.18 137.01Q446.97 139.57 449.41 141.05Q452.77 143.09 457.37 143.09Q461.9 143.09 465.22 141.09Q467.71 139.6 469.53 137ZM663.46 137Q667.71 130.9 667.71 119.56Q667.71 108.21 663.5 102.14Q661.71 99.56 659.26 98.08Q655.93 96.06 651.37 96.06Q646.63 96.06 643.21 98.18Q640.85 99.64 639.12 102.1Q634.87 108.15 634.87 119.5Q634.87 130.93 639.12 137.01Q640.91 139.57 643.35 141.05Q646.71 143.09 651.31 143.09Q655.83 143.09 659.16 141.09Q661.65 139.6 663.46 137ZM887.81 137Q892.06 130.9 892.06 119.56Q892.06 108.21 887.84 102.14Q886.05 99.56 883.61 98.08Q880.27 96.06 875.71 96.06Q870.97 96.06 867.55 98.18Q865.2 99.64 863.46 102.1Q859.21 108.15 859.21 119.5Q859.21 130.93 863.46 137.01Q865.25 139.57 867.69 141.05Q871.05 143.09 875.65 143.09Q880.18 143.09 883.5 141.09Q885.99 139.6 887.81 137ZM687.65 103.88Q688.53 103.56 689.53 103.56Q690.91 103.56 692.14 103.99Q692.58 104.15 693 104.35Q694.59 105.15 696 106.12L698.81 99.21Q696.18 97.5 693.89 96.81L693.83 96.79Q691.56 96.12 689.09 96.12Q685.23 96.12 682.23 97.72Q679.33 99.28 677.23 102.34Q672.96 108.56 672.96 119.68Q672.96 130.81 677.1 136.95Q678.98 139.73 681.59 141.25Q684.74 143.09 688.96 143.09Q694.18 143.09 697.53 140.87L697.53 133.31Q693.56 135.62 689.93 135.62Q688.16 135.62 686.77 134.89Q681.65 132.22 681.65 119.75Q681.65 112.12 683.76 107.84Q685.29 104.73 687.65 103.88ZM851.99 113.03Q853.34 110.7 853.34 107.59Q853.34 104.08 851.79 101.5Q851.04 100.28 849.95 99.26Q849.46 98.8 848.91 98.41Q845.74 96.12 840.9 96.12Q837 96.12 833.81 97.23Q830.62 98.34 827.53 101L831.56 106.68Q834.69 103.84 838.14 103.39Q838.78 103.31 839.43 103.31Q842.02 103.31 843.44 104.59Q843.52 104.66 843.59 104.73Q843.71 104.85 843.83 104.99Q845.03 106.38 845.03 108.81Q845.03 111.29 843.81 112.8Q843.41 113.3 842.87 113.7Q840.71 115.28 836.18 115.28L833.43 115.28L833.43 122.25L836.5 122.25Q841.12 122.25 843.48 123.95Q844.35 124.58 844.9 125.41Q845.84 126.85 845.84 128.9Q845.84 132 844.3 133.76Q842.29 136.06 837.65 136.06Q835.31 136.06 833.1 135.54Q830.36 134.91 827.81 133.5L827.81 140.93Q831.93 143.09 839.31 143.09Q845.85 143.09 849.82 139.89Q850.08 139.68 850.32 139.46Q851.46 138.45 852.28 137.21Q854.37 134.06 854.37 129.53Q854.37 126.01 852.76 123.55Q852.23 122.76 851.54 122.07Q848.71 119.28 843.59 118.65L843.59 118.4Q848.31 117.43 850.82 114.64Q851.5 113.89 851.99 113.03ZM987.05 113.03Q988.4 110.7 988.4 107.59Q988.4 104.08 986.85 101.5Q986.11 100.28 985.01 99.26Q984.52 98.8 983.98 98.41Q980.8 96.12 975.96 96.12Q972.06 96.12 968.87 97.23Q965.68 98.34 962.59 101L966.62 106.68Q969.76 103.84 973.2 103.39Q973.84 103.31 974.5 103.31Q977.08 103.31 978.51 104.59Q978.58 104.66 978.65 104.73Q978.78 104.85 978.89 104.99Q980.09 106.38 980.09 108.81Q980.09 111.29 978.88 112.8Q978.47 113.3 977.93 113.7Q975.78 115.28 971.25 115.28L968.5 115.28L968.5 122.25L971.56 122.25Q976.18 122.25 978.54 123.95Q979.41 124.58 979.96 125.41Q980.9 126.85 980.9 128.9Q980.9 132 979.37 133.76Q977.36 136.06 972.71 136.06Q970.38 136.06 968.16 135.54Q965.42 134.91 962.87 133.5L962.87 140.93Q967 143.09 974.37 143.09Q980.92 143.09 984.88 139.89Q985.14 139.68 985.39 139.46Q986.52 138.45 987.34 137.21Q989.43 134.06 989.43 129.53Q989.43 126.01 987.82 123.55Q987.3 122.76 986.6 122.07Q983.78 119.28 978.65 118.65L978.65 118.4Q983.37 117.43 985.89 114.64Q986.56 113.89 987.05 113.03ZM814.46 130.93L817.09 142.46L825.62 142.46L814.28 96.59L802.75 96.59L791.43 142.46L799.93 142.46L802.56 130.93L814.46 130.93ZM1066.78 130.93L1069.41 142.46L1077.93 142.46L1066.59 96.59L1055.06 96.59L1043.75 142.46L1052.25 142.46L1054.88 130.93L1066.78 130.93ZM11.65 96.78L0 96.78L0 142.46L13.75 142.46Q18.21 142.46 21.21 140.37Q22.09 139.75 22.85 138.95Q23.14 138.65 23.4 138.33Q26.18 134.9 26.18 129.21Q26.18 124.81 24.46 122.15Q24.29 121.88 24.08 121.62Q22.34 119.4 18.87 118.53L18.87 118.21Q20.12 117.98 21.14 117.37Q22.56 116.53 23.56 114.98Q25.28 112.31 25.28 108.34Q25.28 102.74 22.48 99.96Q22.26 99.74 22.03 99.54Q18.78 96.78 11.65 96.78ZM33.96 96.78L33.96 142.46L41.96 142.46L41.96 96.78L33.96 96.78ZM76.65 155.53L84.9 155.53L84.9 134.96L79.71 134.96L79.71 96.78L58.84 96.78Q57.03 117.87 50.59 134.96L47.9 134.96L47.9 155.53L56.15 155.53L56.15 142.46L76.65 142.46L76.65 155.53ZM110.18 142.46L119.71 142.46L106.93 118.78L119.46 96.78L110.37 96.78L98.46 118.9L98.46 96.78L90.03 96.78L90.03 142.46L98.46 142.46L98.46 119.31L110.18 142.46ZM145.06 121.92Q148.65 118.04 148.65 110.84Q148.65 103.42 144.95 99.92Q141.63 96.78 135.34 96.78L123.75 96.78L123.75 142.46L132.25 142.46L132.25 125.9L134.37 125.9Q140.46 125.9 144.03 122.9Q144.53 122.49 144.98 122.01Q145.02 121.97 145.06 121.92ZM162.28 96.78L154.4 96.78L154.4 142.46L164.9 142.46L178.9 109.31L179.31 109.31Q178.59 112.81 178.59 117.43L178.59 142.46L186.4 142.46L186.4 96.78L175.96 96.78L162.03 129.59L161.68 129.59Q162.28 125.78 162.28 121.87L162.28 96.78ZM202.34 96.78L194.46 96.78L194.46 142.46L204.96 142.46L218.96 109.31L219.37 109.31Q218.65 112.81 218.65 117.43L218.65 142.46L226.46 142.46L226.46 96.78L216.03 96.78L202.09 129.59L201.75 129.59Q202.34 125.78 202.34 121.87L202.34 96.78ZM270.06 142.46L278.56 142.46L278.56 96.78L270.06 96.78L270.06 114.93L258.84 114.93L258.84 96.78L250.34 96.78L250.34 142.46L258.84 142.46L258.84 122.43L270.06 122.43L270.06 142.46ZM336.37 96.78L324.71 96.78L324.71 142.46L338.46 142.46Q342.93 142.46 345.93 140.37Q346.81 139.75 347.57 138.95Q347.86 138.65 348.12 138.33Q350.9 134.9 350.9 129.21Q350.9 124.81 349.18 122.15Q349.01 121.88 348.8 121.62Q347.06 119.4 343.59 118.53L343.59 118.21Q344.84 117.98 345.86 117.37Q347.28 116.53 348.28 114.98Q350 112.31 350 108.34Q350 102.74 347.2 99.96Q346.98 99.74 346.75 99.54Q343.5 96.78 336.37 96.78ZM358.68 96.78L358.68 142.46L366.68 142.46L366.68 96.78L358.68 96.78ZM399.78 103.56L408.46 142.46L417.75 142.46L426.4 103.62L426.65 103.62Q426.21 107.65 426.21 111.5L426.21 142.46L434.28 142.46L434.28 96.78L421.03 96.78L413.28 132.68L413.03 132.68L405.21 96.78L392.15 96.78L392.15 142.46L400.03 142.46L400.03 111.81Q400.03 108.06 399.43 103.56L399.78 103.56ZM476.03 96.78L487.25 118.78L475.84 142.46L485.06 142.46L495.15 119.31L495.15 142.46L503.09 142.46L503.09 119.31L513.28 142.46L522.5 142.46L511.09 118.71L522.31 96.78L513.53 96.78L503.09 118.9L503.09 96.78L495.15 96.78L495.15 118.9L484.75 96.78L476.03 96.78ZM547.21 142.46L555.71 142.46L555.71 96.78L533 96.78Q531.71 111.06 530.54 120.65Q529.37 130.25 528.45 133Q527.69 135.26 526.37 135.66Q526.08 135.75 525.78 135.75Q524.4 135.75 523.46 135.37L523.46 142.4Q525.09 143.09 527.62 143.09Q529.9 143.09 531.67 142.14Q533.08 141.39 534.17 140.03Q536.62 136.96 537.56 130.37Q538.96 120.06 540.37 104.25L547.21 104.25L547.21 142.46ZM571.65 96.78L563.78 96.78L563.78 142.46L574.28 142.46L588.28 109.31L588.68 109.31Q587.96 112.81 587.96 117.43L587.96 142.46L595.78 142.46L595.78 96.78L585.34 96.78L571.4 129.59L571.06 129.59Q571.65 125.78 571.65 121.87L571.65 96.78ZM615.5 96.78L603.84 96.78L603.84 142.46L617.59 142.46Q622.05 142.46 625.05 140.37Q625.94 139.75 626.7 138.95Q626.98 138.65 627.24 138.33Q630.03 134.9 630.03 129.21Q630.03 124.81 628.31 122.15Q628.13 121.88 627.93 121.62Q626.19 119.4 622.71 118.53L622.71 118.21Q623.96 117.98 624.99 117.37Q626.4 116.53 627.4 114.98Q629.12 112.31 629.12 108.34Q629.12 102.74 626.32 99.96Q626.1 99.74 625.87 99.54Q622.62 96.78 615.5 96.78ZM709.56 142.46L718.03 142.46L718.03 104.25L726.78 104.25L726.78 96.78L700.81 96.78L700.81 104.25L709.56 104.25L709.56 142.46ZM733.18 96.78L733.18 142.46L741.18 142.46L741.18 96.78L733.18 96.78ZM787.97 121.92Q791.56 118.04 791.56 110.84Q791.56 103.42 787.86 99.92Q784.54 96.78 778.25 96.78L766.65 96.78L766.65 142.46L775.15 142.46L775.15 125.9L777.28 125.9Q783.37 125.9 786.94 122.9Q787.44 122.49 787.89 122.01Q787.93 121.97 787.97 121.92ZM906.34 103.56L915.03 142.46L924.31 142.46L932.96 103.62L933.21 103.62Q932.78 107.65 932.78 111.5L932.78 142.46L940.84 142.46L940.84 96.78L927.59 96.78L919.84 132.68L919.59 132.68L911.78 96.78L898.71 96.78L898.71 142.46L906.59 142.46L906.59 111.81Q906.59 108.06 906 103.56L906.34 103.56ZM1031.22 142.46L1039.72 142.46L1039.72 96.78L1031.22 96.78L1031.22 114.93L1020 114.93L1020 96.78L1011.5 96.78L1011.5 142.46L1020 142.46L1020 122.43L1031.22 122.43L1031.22 142.46ZM1089.59 103.56L1098.28 142.46L1107.56 142.46L1116.22 103.62L1116.47 103.62Q1116.03 107.65 1116.03 111.5L1116.03 142.46L1124.09 142.46L1124.09 96.78L1110.84 96.78L1103.09 132.68L1102.84 132.68L1095.03 96.78L1081.97 96.78L1081.97 142.46L1089.84 142.46L1089.84 111.81Q1089.84 108.06 1089.25 103.56L1089.59 103.56ZM1140.03 96.78L1132.16 96.78L1132.16 142.46L1142.66 142.46L1156.66 109.31L1157.06 109.31Q1156.34 112.81 1156.34 117.43L1156.34 142.46L1164.16 142.46L1164.16 96.78L1153.72 96.78L1139.78 129.59L1139.43 129.59Q1140.03 125.78 1140.03 121.87L1140.03 96.78ZM1173.43 127.75L1180.28 127.75L1181.88 96.78L1171.91 96.78L1173.43 127.75ZM810.43 112.78L812.87 123.4L804.25 123.4Q806.87 111.87 807.5 108.64Q808.12 105.4 808.53 102.71Q808.68 104.03 809.45 107.92Q810.21 111.81 810.43 112.78ZM1062.75 112.78L1065.18 123.4L1056.56 123.4Q1059.18 111.87 1059.81 108.64Q1060.43 105.4 1060.84 102.71Q1061 104.03 1061.77 107.92Q1062.53 111.81 1062.75 112.78ZM295.87 131.46Q293.9 127.37 293.9 119.56Q293.9 111.71 295.87 107.64Q297.12 105.04 299.14 104.1Q300.3 103.56 301.71 103.56Q303.13 103.56 304.28 104.11Q309.34 106.52 309.34 119.56Q309.34 132.56 304.26 135Q303.09 135.56 301.65 135.56Q300.32 135.56 299.22 135.06Q297.15 134.13 295.87 131.46ZM451.59 131.46Q449.62 127.37 449.62 119.56Q449.62 111.71 451.59 107.64Q452.84 105.04 454.86 104.1Q456.02 103.56 457.43 103.56Q458.84 103.56 459.99 104.11Q465.06 106.52 465.06 119.56Q465.06 132.56 459.98 135Q458.81 135.56 457.37 135.56Q456.04 135.56 454.94 135.06Q452.87 134.13 451.59 131.46ZM645.53 131.46Q643.56 127.37 643.56 119.56Q643.56 111.71 645.53 107.64Q646.78 105.04 648.8 104.1Q649.96 103.56 651.37 103.56Q652.78 103.56 653.93 104.11Q659 106.52 659 119.56Q659 132.56 653.92 135Q652.75 135.56 651.31 135.56Q649.98 135.56 648.87 135.06Q646.81 134.13 645.53 131.46ZM869.87 131.46Q867.9 127.37 867.9 119.56Q867.9 111.71 869.87 107.64Q871.12 105.04 873.14 104.1Q874.3 103.56 875.71 103.56Q877.13 103.56 878.28 104.11Q883.34 106.52 883.34 119.56Q883.34 132.56 878.26 135Q877.09 135.56 875.65 135.56Q874.32 135.56 873.22 135.06Q871.15 134.13 869.87 131.46ZM11.9 115.15L8 115.15L8 104.12L11.59 104.12Q14.28 104.12 15.53 105.35Q16.78 106.59 16.78 109.43Q16.78 112.28 15.68 113.71Q15.61 113.82 15.52 113.91Q14.4 115.15 11.9 115.15ZM133.87 118.53L132.25 118.53L132.25 104.12L134.31 104.12Q136.78 104.12 138.16 105.35Q138.43 105.58 138.65 105.85Q140.06 107.59 140.06 111.18Q140.06 115.09 138.53 116.81Q138.38 116.97 138.23 117.11Q136.7 118.53 133.87 118.53ZM336.62 115.15L332.71 115.15L332.71 104.12L336.31 104.12Q339 104.12 340.25 105.35Q341.5 106.59 341.5 109.43Q341.5 112.28 340.4 113.71Q340.32 113.82 340.24 113.91Q339.12 115.15 336.62 115.15ZM615.75 115.15L611.84 115.15L611.84 104.12L615.43 104.12Q618.12 104.12 619.37 105.35Q620.62 106.59 620.62 109.43Q620.62 112.28 619.53 113.71Q619.45 113.82 619.37 113.91Q618.24 115.15 615.75 115.15ZM776.78 118.53L775.15 118.53L775.15 104.12L777.21 104.12Q779.68 104.12 781.07 105.35Q781.33 105.58 781.56 105.85Q782.96 107.59 782.96 111.18Q782.96 115.09 781.43 116.81Q781.29 116.97 781.13 117.11Q779.61 118.53 776.78 118.53ZM71.21 104.25L71.21 134.96L59.43 134.96Q61.78 128.18 63.51 120.01Q65.25 111.84 66.03 104.25L71.21 104.25ZM8 135.03L8 122.25L12.15 122.25Q14.49 122.25 15.81 123.4Q17.53 124.91 17.53 128.37Q17.53 131.78 16.23 133.4Q15.98 133.72 15.67 133.98Q14.41 135.03 12.28 135.03L8 135.03ZM332.71 135.03L332.71 122.25L336.87 122.25Q339.21 122.25 340.53 123.4Q342.25 124.91 342.25 128.37Q342.25 131.78 340.95 133.4Q340.7 133.72 340.39 133.98Q339.13 135.03 337 135.03L332.71 135.03ZM611.84 135.03L611.84 122.25L616 122.25Q618.33 122.25 619.65 123.4Q621.37 124.91 621.37 128.37Q621.37 131.78 620.07 133.4Q619.82 133.72 619.51 133.98Q618.26 135.03 616.12 135.03L611.84 135.03ZM1172.77 134.61Q1171.66 135.92 1171.66 138.18Q1171.66 140.33 1172.69 141.65Q1172.82 141.8 1172.97 141.95Q1173.06 142.05 1173.17 142.14Q1174.47 143.31 1176.81 143.31Q1179.04 143.31 1180.36 142.21Q1180.51 142.1 1180.64 141.96Q1180.81 141.8 1180.96 141.61Q1182 140.32 1182 138.18Q1182 135.88 1180.86 134.57Q1180.78 134.48 1180.68 134.39Q1180.64 134.34 1180.59 134.29Q1179.28 133.06 1176.81 133.06Q1174.37 133.06 1173.07 134.28Q1173.02 134.34 1172.94 134.4Q1172.86 134.5 1172.77 134.61Z" fill="#F6601F" fill-opacity="1.000000" fill-rule="evenodd"/>
</svg>
