<svg width="18" height="18" viewBox="0 0 18 18" fill="none" xmlns="http://www.w3.org/2000/svg">
<g clip-path="url(#clip0_236_6729)">
<path d="M5.25 3C8.1495 3 10.5 2.32843 10.5 1.5C10.5 0.671573 8.1495 0 5.25 0C2.35051 0 0 0.671573 0 1.5C0 2.32843 2.35051 3 5.25 3Z" fill="white"/>
<path d="M5.25 6.37506C8.1495 6.37506 10.5 5.70381 10.5 4.87505V3.1748C8.847 4.06055 6.003 4.12505 5.25 4.12505C4.497 4.12505 1.653 4.06055 0 3.1748V4.87505C0 5.70381 2.3505 6.37506 5.25 6.37506Z" fill="white"/>
<path d="M7.125 14.1526V16.3951C6.5475 16.4626 5.91 16.5001 5.25 16.5001C2.3475 16.5001 0 15.8251 0 15.0001V13.2976C1.65 14.1826 4.5 14.2501 5.25 14.2501C5.5725 14.2501 6.285 14.2351 7.125 14.1526Z" fill="white"/>
<path d="M7.2075 10.7701C7.185 10.8376 7.17 10.9201 7.155 10.9951L7.125 10.9726V13.0201C6.5475 13.0876 5.91 13.1251 5.25 13.1251C2.3475 13.1251 0 12.4501 0 11.6251V9.92261C1.65 10.8076 4.5 10.8751 5.25 10.8751C5.58 10.8751 6.33 10.8601 7.2075 10.7701Z" fill="white"/>
<path d="M5.25 7.50005C4.497 7.50005 1.653 7.43555 0 6.5498V8.25005C0 9.07881 2.3505 9.75006 5.25 9.75006C8.1495 9.75006 10.5 9.07881 10.5 8.25005V6.5498C8.847 7.43555 6.003 7.50005 5.25 7.50005Z" fill="white"/>
<path d="M13.125 12.75C15.8174 12.75 18 12.0784 18 11.25C18 10.4216 15.8174 9.75 13.125 9.75C10.4326 9.75 8.25 10.4216 8.25 11.25C8.25 12.0784 10.4326 12.75 13.125 12.75Z" fill="white"/>
<path d="M13.125 15.3751C15.8175 15.3751 18 14.7038 18 13.8751V12.9248C16.4655 13.8113 13.824 13.8751 13.125 13.8751C12.426 13.8751 9.7845 13.8106 8.25 12.9248V13.8751C8.25 14.7038 10.4325 15.3751 13.125 15.3751Z" fill="white"/>
<path d="M13.125 16.5001C12.426 16.5001 9.7845 16.4356 8.25 15.5498V16.5001C8.25 17.3288 10.4325 18.0001 13.125 18.0001C15.8175 18.0001 18 17.3288 18 16.5001V15.5498C16.4655 16.4356 13.824 16.5001 13.125 16.5001Z" fill="white"/>
</g>
<defs>
<clipPath id="clip0_236_6729">
<rect width="18" height="18" fill="white"/>
</clipPath>
</defs>
</svg>
