<svg width="90" height="96" viewBox="0 0 90 96" fill="none" xmlns="http://www.w3.org/2000/svg">
<path fill-rule="evenodd" clip-rule="evenodd" d="M63.7143 26.1429C63.7143 36.4785 55.3356 44.8572 45 44.8572C34.6644 44.8572 26.2857 36.4785 26.2857 26.1429C26.2857 15.8073 34.6644 7.42859 45 7.42859C55.3356 7.42859 63.7143 15.8073 63.7143 26.1429ZM51.4781 51.0342C62.5437 48.1625 70.7143 38.1068 70.7143 26.1429C70.7143 11.9413 59.2016 0.428589 45 0.428589C30.7984 0.428589 19.2857 11.9413 19.2857 26.1429C19.2857 38.1068 27.4563 48.1625 38.5219 51.0342C19.0281 53.8448 3.57448 69.1505 0.541203 88.5714C0.184927 90.8525 0 93.1904 0 95.5714H7H83H90C90 93.1904 89.8151 90.8525 89.4588 88.5714C86.4255 69.1505 70.9719 53.8448 51.4781 51.0342ZM7.64339 88.5714C10.9287 70.9283 26.4045 57.5714 45 57.5714C63.5955 57.5714 79.0713 70.9283 82.3566 88.5714H7.64339Z" fill="url(#paint0_linear_98_670)"/>
<defs>
<linearGradient id="paint0_linear_98_670" x1="-1.91589e-06" y1="2.06534e-06" x2="90" y2="96" gradientUnits="userSpaceOnUse">
<stop stop-color="white"/>
<stop offset="1" stop-color="white" stop-opacity="0"/>
</linearGradient>
</defs>
</svg>
