<svg width="48" height="41" viewBox="0 0 48 41" fill="none" xmlns="http://www.w3.org/2000/svg">
<path d="M1.25 34.75C14.0068 34.75 26.3651 36.4562 38.1091 39.6529C39.8054 40.1146 41.5 38.8533 41.5 37.0953V34.75M4.75 1.5V3.25C4.75 4.2165 3.9665 5 3 5H1.25M1.25 5V4.125C1.25 2.67525 2.42525 1.5 3.875 1.5H43.25M1.25 5V26M43.25 1.5V3.25C43.25 4.2165 44.0335 5 45 5H46.75M43.25 1.5H44.125C45.5747 1.5 46.75 2.67525 46.75 4.125V26.875C46.75 28.3247 45.5747 29.5 44.125 29.5H43.25M46.75 26H45C44.0335 26 43.25 26.7835 43.25 27.75V29.5M43.25 29.5H4.75M4.75 29.5H3.875C2.42525 29.5 1.25 28.3247 1.25 26.875V26M4.75 29.5V27.75C4.75 26.7835 3.9665 26 3 26H1.25M31 15.5C31 19.366 27.866 22.5 24 22.5C20.134 22.5 17 19.366 17 15.5C17 11.634 20.134 8.5 24 8.5C27.866 8.5 31 11.634 31 15.5ZM38 15.5H38.0175V15.5175H38V15.5ZM10 15.5H10.0175V15.5175H10V15.5Z" stroke="#F6601F" stroke-width="2" stroke-linecap="round" stroke-linejoin="round"/>
</svg>
