<svg width="38" height="48" viewBox="0 0 38 48" fill="none" xmlns="http://www.w3.org/2000/svg">
<path d="M36.5 29.25V23.125C36.5 18.7758 32.9742 15.25 28.625 15.25H25.125C23.6753 15.25 22.5 14.0747 22.5 12.625V9.125C22.5 4.77576 18.9742 1.25 14.625 1.25H10.25M10.25 31H27.75M10.25 38H19M15.5 1.25H4.125C2.67525 1.25 1.5 2.42525 1.5 3.875V44.125C1.5 45.5747 2.67525 46.75 4.125 46.75H33.875C35.3247 46.75 36.5 45.5747 36.5 44.125V22.25C36.5 10.652 27.098 1.25 15.5 1.25Z" stroke="#F6601F" stroke-width="2" stroke-linecap="round" stroke-linejoin="round"/>
</svg>
