<svg width="28.000000" height="28.000000" viewBox="0 0 28 28" fill="none" xmlns="http://www.w3.org/2000/svg" xmlns:xlink="http://www.w3.org/1999/xlink">
	<desc>
			Created with Pixso.
	</desc>
	<defs>
		<clipPath id="clip575_89746">
			<rect id="spotify" rx="-0.500000" width="27.000000" height="27.000000" transform="translate(0.500000 0.500000)" fill="white" fill-opacity="0"/>
		</clipPath>
	</defs>
	<rect id="spotify" rx="-0.500000" width="27.000000" height="27.000000" transform="translate(0.500000 0.500000)" fill="#FFFFFF" fill-opacity="0"/>
	<g clip-path="url(#clip575_89746)">
		<circle id="bg" cx="14.000000" cy="14.000000" r="12.250000" fill="#1ED760" fill-opacity="1.000000"/>
		<path id="spotify" d="M19.56 18.92C19.35 19.25 18.91 19.34 18.56 19.14C15.81 17.55 12.36 17.19 8.29 18.07C7.9 18.14 7.51 17.92 7.43 17.55C7.34 17.17 7.58 16.8 7.97 16.72C12.42 15.75 16.24 16.17 19.31 17.96C19.66 18.16 19.77 18.58 19.56 18.92ZM20.99 15.89C20.72 16.3 20.16 16.42 19.73 16.18C16.59 14.33 11.81 13.8 8.1 14.88C7.61 15.01 7.1 14.76 6.96 14.31C6.83 13.84 7.09 13.36 7.58 13.23C11.82 12.01 17.09 12.59 20.71 14.71C21.11 14.94 21.25 15.48 20.99 15.89ZM21.11 12.73C17.35 10.6 11.14 10.4 7.54 11.44C6.96 11.61 6.35 11.3 6.17 10.75C5.99 10.2 6.32 9.62 6.89 9.44C11.02 8.25 17.89 8.49 22.21 10.93C22.73 11.23 22.9 11.86 22.59 12.35C22.3 12.86 21.63 13.03 21.11 12.73Z" fill="#FFFFFF" fill-opacity="1.000000" fill-rule="nonzero"/>
	</g>
</svg>
