<svg width="28.000000" height="28.000000" viewBox="0 0 28 28" fill="none" xmlns="http://www.w3.org/2000/svg" xmlns:xlink="http://www.w3.org/1999/xlink">
	<desc>
			Created with Pixso.
	</desc>
	<defs>
		<clipPath id="clip575_89785">
			<rect id="youtube_music" rx="-0.500000" width="27.000000" height="27.000000" transform="translate(0.500000 0.500000)" fill="white" fill-opacity="0"/>
		</clipPath>
	</defs>
	<rect id="youtube_music" rx="-0.500000" width="27.000000" height="27.000000" transform="translate(0.500000 0.500000)" fill="#FFFFFF" fill-opacity="0"/>
	<g clip-path="url(#clip575_89785)">
		<path id="vector" d="M26.25 14C26.25 20.76 20.76 26.25 14 26.25C7.23 26.25 1.75 20.76 1.75 14C1.75 7.23 7.23 1.75 14 1.75C20.76 1.75 26.25 7.23 26.25 14Z" fill="#FF0000" fill-opacity="1.000000" fill-rule="evenodd"/>
		<path id="vector" d="M14 8.41C17.08 8.41 19.58 10.91 19.58 14C19.58 17.08 17.08 19.58 14 19.58C10.91 19.58 8.41 17.08 8.41 14C8.41 10.91 10.91 8.41 14 8.41ZM14 7.87C10.61 7.87 7.87 10.61 7.87 14C7.87 17.38 10.61 20.12 14 20.12C17.38 20.12 20.12 17.38 20.12 14C20.12 10.61 17.38 7.87 14 7.87Z" fill="#FFFFFF" fill-opacity="1.000000" fill-rule="nonzero"/>
		<path id="vector" d="M12.25 17.5L17.5 13.84L12.25 10.5L12.25 17.5Z" fill="#FFFFFF" fill-opacity="1.000000" fill-rule="nonzero"/>
	</g>
</svg>
