<svg width="32" height="30" viewBox="0 0 32 30" fill="none" xmlns="http://www.w3.org/2000/svg">
<path fill-rule="evenodd" clip-rule="evenodd" d="M20.1483 0.165311C19.0469 0.402184 17.9889 0.838822 17.021 1.45612C16.1997 1.97982 15.6607 1.96791 15.0448 1.41249C14.6616 1.06687 14.4344 0.992138 14.1553 1.12C13.8067 1.27966 13.7299 1.59503 13.7978 2.58743C13.9138 4.28402 14.2409 5.31147 14.8714 5.9597L15.2108 6.30867L15.0493 6.51675C14.6446 7.03772 14.5045 7.45962 14.538 8.056C14.5788 8.78324 14.9 9.35074 15.4822 9.72431C15.7179 9.87557 15.9066 10.0697 15.9404 10.1957C16.0604 10.6431 16.5745 11.9316 16.9163 12.6418C17.3168 13.4738 18.0771 14.5494 18.5737 14.9862C19.2909 15.6171 20.303 15.9015 21.5546 15.8239C22.9556 15.7369 23.5898 15.4015 24.5419 14.2435C25.0903 13.5768 25.9765 11.8269 26.3422 10.6889C26.5052 10.1818 26.6331 9.92313 26.7378 9.88868C27.025 9.79407 27.4875 9.31389 27.714 8.87503C28.1319 8.06568 27.9688 6.66132 27.3892 6.07857L27.1981 5.88643L27.3924 5.32013C27.6925 4.44488 27.6683 3.76477 27.3112 3.0305C26.8426 2.06698 25.5306 0.927007 24.3245 0.435606C23.1998 -0.0227139 21.5262 -0.131038 20.1483 0.165311ZM22.5073 1.2872C23.4473 1.41412 24.2278 1.73601 25.0102 2.31928C26.1122 3.14088 26.4786 3.81276 26.2796 4.6467C26.1219 5.3077 26.0001 5.38698 25.2061 5.34541C23.4021 5.25097 21.8696 4.3279 21.2554 2.96571C20.9582 2.3066 20.8454 2.20718 20.4339 2.24146C20.0895 2.27026 20.0768 2.28551 19.7103 3.11106C19.4621 3.67007 18.7868 4.39406 18.1804 4.75151C17.6624 5.05678 16.6982 5.39649 16.3497 5.39649C15.829 5.39649 15.2715 4.49502 15.1502 3.4566C15.0944 2.97951 15.0951 2.97745 15.2988 3.04413C15.6526 3.1599 16.5096 3.10831 16.9097 2.94711C17.1206 2.8621 17.4927 2.66499 17.7367 2.50902C18.7182 1.88144 20.0546 1.41104 21.2137 1.28523C21.5418 1.24967 21.8171 1.21521 21.8255 1.20887C21.8337 1.20244 22.1405 1.23775 22.5073 1.2872ZM22.4174 5.88917C23.3025 6.35152 24.3013 6.59491 25.3171 6.59568L26.0966 6.59628L26.3554 6.89263C26.9556 7.58002 26.7164 8.66729 25.9374 8.79258L25.6189 8.84383L25.2611 9.91859C24.4745 12.2815 23.5399 13.8225 22.5812 14.3374C22.2829 14.4976 22.0985 14.5225 21.2137 14.5225C20.3272 14.5225 20.1448 14.4978 19.8443 14.3364C18.9337 13.8475 17.9704 12.2446 17.2038 9.94258C17.0083 9.35554 16.8142 8.86723 16.7725 8.85737C16.7308 8.84752 16.5879 8.81521 16.455 8.78564C15.8434 8.64946 15.6094 7.92016 16.0044 7.3818C16.3629 6.89314 16.6703 6.6962 17.4921 6.42874C18.7186 6.02946 19.6508 5.42331 20.26 4.62896L20.4996 4.31668L21.1123 4.92206C21.5276 5.33238 21.9482 5.64407 22.4174 5.88917ZM10.1627 8.98892C9.53264 9.19151 9.17996 9.41699 8.67601 9.93941C7.96811 10.6732 7.6814 11.3039 7.58586 12.3381C7.56192 12.5974 7.54061 12.8162 7.53848 12.8243C7.53209 12.8492 5.65367 13.8821 3.35848 15.123C2.16317 15.7693 1.09364 16.3808 0.981823 16.482C0.0360511 17.3377 0.560798 18.9522 1.87552 19.2316C2.24123 19.3094 2.64078 19.1539 4.03596 18.3913C4.69417 18.0316 5.26724 17.7372 5.30943 17.7372C5.38494 17.7372 5.60841 18.0747 6.17356 19.0421L6.46018 19.5327L6.82171 19.3296C7.02055 19.2178 7.20473 19.1481 7.23106 19.1746C7.2574 19.201 7.27896 21.6475 7.27896 24.6111V29.9998L7.89686 29.9746L8.51476 29.9494L8.53462 24.2504C8.54553 21.1159 8.55507 18.5097 8.55593 18.4589C8.55669 18.408 8.75169 18.2749 8.98914 18.163C9.22658 18.0512 9.43735 17.9329 9.45755 17.9C9.47766 17.8672 9.30193 17.4065 9.06695 16.8761C8.83198 16.3458 8.64993 15.906 8.66246 15.8988C8.67499 15.8916 8.78425 15.8235 8.90528 15.7476C9.11459 15.6163 9.15048 15.6222 9.6448 15.8685C11.8443 16.9647 14.425 15.6805 14.9192 13.2438C15.2166 11.7774 14.5687 10.2235 13.3254 9.42136C12.4241 8.83972 11.163 8.66729 10.1627 8.98892ZM12.1565 10.252C13.1275 10.6311 13.7119 11.4982 13.7048 12.5493C13.6978 13.5803 13.2491 14.3062 12.3532 14.7362C11.3346 15.225 10.271 15.0182 9.51261 14.1838C9.03456 13.6579 8.84792 13.1465 8.87025 12.4238C8.90008 11.4551 9.56571 10.5388 10.475 10.2147C10.8716 10.0733 11.7485 10.0927 12.1565 10.252ZM8.00118 14.3906C8.07269 14.5297 8.13124 14.6614 8.13124 14.6831C8.13124 14.705 7.83396 14.8846 7.47072 15.0824C3.03325 17.4981 2.08535 17.991 1.96586 17.9449C1.77478 17.8711 1.69808 17.5691 1.83691 17.437C1.9293 17.3492 7.78325 14.1385 7.85203 14.138C7.8626 14.1379 7.92967 14.2516 8.00118 14.3906ZM17.975 16.4041C17.5532 16.5146 16.9561 16.7012 16.6483 16.8186C14.3474 17.6964 12.3866 19.52 11.5369 21.5726C11.0747 22.6887 11.029 23.1546 11.029 26.7432V29.9922H21.2645H31.5L31.4625 26.5857C31.4275 23.3991 31.4128 23.1348 31.2364 22.4935C30.5399 19.9618 28.4578 17.8191 25.6677 16.7631C25.0863 16.5431 23.7543 16.1946 23.4947 16.1946C23.4064 16.1946 23.1372 16.3856 22.8963 16.6191C21.7368 17.7429 20.4991 17.7486 19.5449 16.6346C19.1057 16.1217 19.0717 16.1167 17.975 16.4041ZM7.69777 16.9016C7.78368 17.1019 7.83686 17.2955 7.81606 17.3318C7.79527 17.368 7.58987 17.4936 7.35967 17.611L6.94103 17.8243L6.72651 17.4825C6.60847 17.2945 6.51191 17.1215 6.51191 17.0979C6.51191 17.0449 7.38123 16.5393 7.47422 16.5382C7.51129 16.5378 7.61186 16.7014 7.69777 16.9016ZM18.975 17.8736C19.4163 18.2745 20.2274 18.6561 20.788 18.7265C21.6232 18.8314 22.5677 18.5229 23.4248 17.865C23.8302 17.5539 23.8323 17.5534 24.2696 17.6568C26.5126 18.1874 28.6196 19.7804 29.5318 21.6352C30.1205 22.8321 30.1392 22.9569 30.1825 25.9858L30.2213 28.7067H21.2643H12.3074V26.077C12.3074 23.1326 12.3538 22.7767 12.876 21.7222C13.5906 20.2791 14.7204 19.1782 16.3131 18.3729C16.9186 18.0668 18.2647 17.5762 18.5187 17.5691C18.5833 17.5673 18.7887 17.7043 18.975 17.8736Z" fill="#F6601F"/>
</svg>
