<svg width="22" height="21" viewBox="0 0 22 21" fill="none" xmlns="http://www.w3.org/2000/svg">
<path d="M2.9799 6.57023C2.05679 7.66148 1.35239 8.94366 0.934326 10.3491C2.22562 14.6856 6.24308 17.8477 10.9991 17.8477C11.9916 17.8477 12.952 17.7099 13.8622 17.4525M5.2276 4.57528C6.88385 3.48324 8.86768 2.84766 10.9999 2.84766C15.7559 2.84766 19.7734 6.0097 21.0647 10.3462C20.3528 12.7395 18.8105 14.7754 16.772 16.1197M5.2276 4.57528L1.99997 1.34766M5.2276 4.57528L8.87865 8.22634M16.772 16.1197L20 19.3477M16.772 16.1197L13.1213 12.469M13.1213 12.469C13.6642 11.9261 14 11.1761 14 10.3477C14 8.6908 12.6568 7.34766 11 7.34766C10.1715 7.34766 9.42154 7.68344 8.87865 8.22634M13.1213 12.469L8.87865 8.22634" stroke="#F6601F" stroke-width="1.5" stroke-linecap="round" stroke-linejoin="round"/>
</svg>
