<svg width="22" height="17" viewBox="0 0 22 17" fill="none" xmlns="http://www.w3.org/2000/svg">
<path d="M1.0355 8.67006C0.96642 8.46279 0.966354 8.23839 1.03531 8.03108C2.42368 3.85738 6.36074 0.847656 11.0008 0.847656C15.6386 0.847656 19.5742 3.85458 20.9643 8.02526C21.0334 8.23253 21.0334 8.45693 20.9645 8.66423C19.5761 12.8379 15.639 15.8477 10.999 15.8477C6.36115 15.8477 2.42559 12.8407 1.0355 8.67006Z" stroke="#F6601F" stroke-width="1.5" stroke-linecap="round" stroke-linejoin="round"/>
<path d="M14 8.34766C14 10.0045 12.6568 11.3477 11 11.3477C9.3431 11.3477 7.99995 10.0045 7.99995 8.34766C7.99995 6.6908 9.3431 5.34766 11 5.34766C12.6568 5.34766 14 6.6908 14 8.34766Z" stroke="#F6601F" stroke-width="1.5" stroke-linecap="round" stroke-linejoin="round"/>
</svg>
