<svg width="170" height="48" viewBox="0 0 170 48" fill="none" xmlns="http://www.w3.org/2000/svg">
<g filter="url(#filter0_bdi_58_12423)">
<g clip-path="url(#clip0_58_12423)">
<rect width="170" height="48" rx="8" fill="url(#paint0_linear_58_12423)" fill-opacity="0.04" shape-rendering="crispEdges"/>
<g style="mix-blend-mode:plus-lighter" opacity="0.5" filter="url(#filter1_f_58_12423)">
<ellipse cx="23.9993" cy="24.0148" rx="12.7611" ry="12.7765" fill="url(#paint1_linear_58_12423)"/>
<path d="M21.1551 16.5106L29.5629 14.8396C29.946 14.7635 30.3031 15.0566 30.3031 15.4472V28.3294C30.3031 29.4261 29.5362 30.3734 28.4635 30.6016L27.7207 30.7596C26.4268 31.0349 25.208 30.0482 25.208 28.7252C25.208 27.7933 25.8361 26.9785 26.7373 26.7413L28.8425 26.1873C29.1283 26.1121 29.3274 25.8538 29.3274 25.5583V19.5773C29.3274 19.3023 29.0748 19.0968 28.8056 19.1527L21.7993 20.6089C21.5837 20.6537 21.4292 20.8437 21.4292 21.0638V29.9955C21.4292 31.1951 20.5899 32.2311 19.4164 32.4801L18.9071 32.5881C17.5738 32.8709 16.3186 31.854 16.3186 30.4911C16.3186 29.6225 16.9032 28.8627 17.7428 28.6401L19.9464 28.0558C20.218 27.9838 20.4071 27.738 20.4071 27.457V17.422C20.4071 16.9786 20.7203 16.597 21.1551 16.5106Z" fill="url(#paint2_radial_58_12423)"/>
<path fill-rule="evenodd" clip-rule="evenodd" d="M38 24C38 31.732 31.732 38 24 38C16.268 38 10 31.732 10 24C10 16.268 16.268 10 24 10C31.732 10 38 16.268 38 24ZM36.7611 24.0155C36.7611 31.0718 31.0477 36.792 24 36.792C16.9523 36.792 11.2389 31.0718 11.2389 24.0155C11.2389 16.9592 16.9523 11.2389 24 11.2389C31.0477 11.2389 36.7611 16.9592 36.7611 24.0155Z" fill="url(#paint3_radial_58_12423)"/>
</g>
<path d="M52.6152 18.5V12.1587H53.4062V17.7881H56.4648V18.5H52.6152ZM58.007 13.1562C57.7433 13.1562 57.528 12.9409 57.528 12.6772C57.528 12.4092 57.7433 12.1982 58.007 12.1982C58.275 12.1982 58.486 12.4092 58.486 12.6772C58.486 12.9409 58.275 13.1562 58.007 13.1562ZM57.6246 18.5V13.9297H58.3893V18.5H57.6246ZM61.4124 18.5879C60.3357 18.5879 59.6853 18.0386 59.593 17.2212L59.5887 17.1816H60.3533L60.3621 17.2256C60.4544 17.6826 60.7928 17.9507 61.4168 17.9507C62.0364 17.9507 62.4055 17.6914 62.4055 17.2783V17.2739C62.4055 16.9443 62.2342 16.7598 61.7156 16.6323L60.9905 16.4565C60.1292 16.25 59.7117 15.8501 59.7117 15.1909V15.1865C59.7117 14.3999 60.4016 13.8418 61.3904 13.8418C62.3924 13.8418 63.0296 14.4263 63.0867 15.1909L63.0911 15.248H62.3616L62.3572 15.2173C62.2957 14.7734 61.9573 14.479 61.3904 14.479C60.8367 14.479 60.4939 14.7471 60.4939 15.1514V15.1558C60.4939 15.4678 60.7005 15.6831 61.2058 15.8062L61.9309 15.9819C62.8538 16.2061 63.1878 16.5708 63.1878 17.2212V17.2256C63.1878 18.0254 62.4319 18.5879 61.4124 18.5879ZM65.8285 18.5879C64.9892 18.5879 64.5761 18.21 64.5761 17.3354V14.5625H63.9081V13.9297H64.5761V12.6948H65.3671V13.9297H66.2372V14.5625H65.3671V17.3311C65.3671 17.8188 65.5824 17.9551 65.9911 17.9551C66.0834 17.9551 66.1713 17.9419 66.2372 17.9375V18.5571C66.1405 18.5703 65.9779 18.5879 65.8285 18.5879ZM69.168 18.5879C67.8541 18.5879 67.063 17.6694 67.063 16.2324V16.228C67.063 14.813 67.8716 13.8418 69.1197 13.8418C70.3677 13.8418 71.128 14.769 71.128 16.1401V16.4214H67.8365C67.8541 17.3618 68.3726 17.9111 69.1856 17.9111C69.7657 17.9111 70.1744 17.6211 70.3062 17.23L70.3194 17.1904H71.0709L71.0621 17.2344C70.9127 17.9902 70.1656 18.5879 69.168 18.5879ZM69.1153 14.5186C68.4517 14.5186 67.9332 14.9712 67.8497 15.8237H70.3502C70.2754 14.936 69.7833 14.5186 69.1153 14.5186ZM72.2614 18.5V13.9297H73.0261V14.5801H73.0437C73.2897 14.1538 73.7556 13.8418 74.4499 13.8418C75.4519 13.8418 76.0319 14.4922 76.0319 15.5337V18.5H75.2673V15.6699C75.2673 14.9272 74.9201 14.5186 74.217 14.5186C73.4963 14.5186 73.0261 15.0327 73.0261 15.8105V18.5H72.2614ZM81.4673 18.5879C80.1972 18.5879 79.3491 17.6694 79.3491 16.2148V16.2061C79.3491 14.7515 80.2016 13.8418 81.4629 13.8418C82.7241 13.8418 83.581 14.7471 83.581 16.2061V16.2148C83.581 17.6738 82.7285 18.5879 81.4673 18.5879ZM81.4717 17.9111C82.2759 17.9111 82.7988 17.2871 82.7988 16.2148V16.2061C82.7988 15.1338 82.2715 14.5186 81.4629 14.5186C80.6675 14.5186 80.1313 15.1382 80.1313 16.2061V16.2148C80.1313 17.2915 80.6631 17.9111 81.4717 17.9111ZM84.7145 18.5V13.9297H85.4791V14.5801H85.4967C85.7428 14.1538 86.2086 13.8418 86.903 13.8418C87.9049 13.8418 88.485 14.4922 88.485 15.5337V18.5H87.7203V15.6699C87.7203 14.9272 87.3732 14.5186 86.67 14.5186C85.9493 14.5186 85.4791 15.0327 85.4791 15.8105V18.5H84.7145Z" fill="white"/>
<path d="M52.2031 35.5L56.3047 24.2266H58.1953L62.2891 35.5H60.4531L59.4219 32.4531H55.0781L54.0391 35.5H52.2031ZM57.2344 26.0938L55.5469 31.0469H58.9453L57.2656 26.0938H57.2344ZM63.3359 38.2344V27.2812H65.0234V28.6953H65.0625C65.5547 27.7188 66.4609 27.125 67.6328 27.125C69.7266 27.125 71.0703 28.7656 71.0703 31.3906V31.3984C71.0703 34.0156 69.7188 35.6641 67.6562 35.6641C66.4922 35.6641 65.5469 35.0703 65.0625 34.1172H65.0234V38.2344H63.3359ZM67.1953 34.2109C68.5234 34.2109 69.3516 33.1328 69.3516 31.3984V31.3906C69.3516 29.6406 68.5156 28.5703 67.1953 28.5703C65.9141 28.5703 65.0156 29.6797 65.0156 31.3906V31.3984C65.0156 33.1016 65.9219 34.2109 67.1953 34.2109ZM72.3828 38.2344V27.2812H74.0703V28.6953H74.1094C74.6016 27.7188 75.5078 27.125 76.6797 27.125C78.7734 27.125 80.1172 28.7656 80.1172 31.3906V31.3984C80.1172 34.0156 78.7656 35.6641 76.7031 35.6641C75.5391 35.6641 74.5938 35.0703 74.1094 34.1172H74.0703V38.2344H72.3828ZM76.2422 34.2109C77.5703 34.2109 78.3984 33.1328 78.3984 31.3984V31.3906C78.3984 29.6406 77.5625 28.5703 76.2422 28.5703C74.9609 28.5703 74.0625 29.6797 74.0625 31.3906V31.3984C74.0625 33.1016 74.9688 34.2109 76.2422 34.2109ZM81.4922 35.5V24.2266H83.1797V35.5H81.4922ZM88.4219 35.6641C86.0078 35.6641 84.5469 34.0156 84.5469 31.4219V31.4141C84.5469 28.8438 86.0312 27.125 88.3359 27.125C90.6406 27.125 92.0547 28.7812 92.0547 31.25V31.8203H86.2344C86.2656 33.375 87.1172 34.2812 88.4609 34.2812C89.4609 34.2812 90.125 33.7656 90.3359 33.1484L90.3594 33.0859H91.9609L91.9453 33.1719C91.6797 34.4766 90.4141 35.6641 88.4219 35.6641ZM88.3438 28.5078C87.25 28.5078 86.4062 29.25 86.2578 30.625H90.3828C90.2422 29.2031 89.4453 28.5078 88.3438 28.5078ZM96.8203 35.5V24.2266H98.8438L102.492 33.2266H102.539L106.195 24.2266H108.211V35.5H106.617V27.1797H106.562L103.164 35.5H101.867L98.4688 27.1797H98.4141V35.5H96.8203ZM112.883 35.6641C111.078 35.6641 110.047 34.5 110.047 32.6094V27.2812H111.734V32.2812C111.734 33.5234 112.312 34.2109 113.484 34.2109C114.672 34.2109 115.438 33.3594 115.438 32.0781V27.2812H117.133V35.5H115.438V34.2656H115.398C114.969 35.0938 114.133 35.6641 112.883 35.6641ZM121.883 35.6641C119.828 35.6641 118.625 34.6484 118.453 33.1484L118.445 33.0781H120.117L120.133 33.1562C120.289 33.9141 120.852 34.3594 121.891 34.3594C122.906 34.3594 123.516 33.9375 123.516 33.2734V33.2656C123.516 32.7344 123.219 32.4297 122.336 32.2188L120.992 31.9141C119.43 31.5547 118.656 30.8047 118.656 29.6094V29.6016C118.656 28.1328 119.938 27.125 121.828 27.125C123.773 27.125 124.945 28.2109 125.031 29.6094L125.039 29.7031H123.453L123.445 29.6484C123.344 28.9297 122.781 28.4297 121.828 28.4297C120.922 28.4297 120.352 28.8594 120.352 29.5156V29.5234C120.352 30.0312 120.688 30.375 121.57 30.5859L122.906 30.8906C124.586 31.2812 125.227 31.9453 125.227 33.125V33.1328C125.227 34.6328 123.82 35.6641 121.883 35.6641ZM127.453 26.0156C126.906 26.0156 126.469 25.5781 126.469 25.0469C126.469 24.5078 126.906 24.0703 127.453 24.0703C128.008 24.0703 128.438 24.5078 128.438 25.0469C128.438 25.5781 128.008 26.0156 127.453 26.0156ZM126.609 35.5V27.2812H128.297V35.5H126.609ZM133.57 35.6641C131.172 35.6641 129.672 34.0156 129.672 31.3828V31.375C129.672 28.7734 131.203 27.125 133.547 27.125C135.664 27.125 136.945 28.4844 137.086 30.0312L137.094 30.0859H135.484L135.469 30.0234C135.289 29.2188 134.664 28.5391 133.562 28.5391C132.25 28.5391 131.398 29.6328 131.398 31.3906V31.3984C131.398 33.1953 132.266 34.25 133.57 34.25C134.609 34.25 135.273 33.6484 135.477 32.7578L135.484 32.6953H137.109L137.102 32.75C136.922 34.3984 135.547 35.6641 133.57 35.6641Z" fill="white"/>
<ellipse cx="23.9993" cy="24.0148" rx="12.7611" ry="12.7765" fill="url(#paint4_linear_58_12423)"/>
<path d="M21.1551 16.5106L29.5629 14.8396C29.946 14.7635 30.3031 15.0566 30.3031 15.4472V28.3294C30.3031 29.4261 29.5362 30.3734 28.4635 30.6016L27.7207 30.7596C26.4268 31.0349 25.208 30.0482 25.208 28.7252C25.208 27.7933 25.8361 26.9785 26.7373 26.7413L28.8425 26.1873C29.1283 26.1121 29.3274 25.8538 29.3274 25.5583V19.5773C29.3274 19.3023 29.0748 19.0968 28.8056 19.1527L21.7993 20.6089C21.5837 20.6537 21.4292 20.8437 21.4292 21.0638V29.9955C21.4292 31.1951 20.5899 32.2311 19.4164 32.4801L18.9071 32.5881C17.5738 32.8709 16.3186 31.854 16.3186 30.4911C16.3186 29.6225 16.9032 28.8627 17.7428 28.6401L19.9464 28.0558C20.218 27.9838 20.4071 27.738 20.4071 27.457V17.422C20.4071 16.9786 20.7203 16.597 21.1551 16.5106Z" fill="url(#paint5_radial_58_12423)"/>
<path fill-rule="evenodd" clip-rule="evenodd" d="M38 24C38 31.732 31.732 38 24 38C16.268 38 10 31.732 10 24C10 16.268 16.268 10 24 10C31.732 10 38 16.268 38 24ZM36.7611 24.0155C36.7611 31.0718 31.0477 36.792 24 36.792C16.9523 36.792 11.2389 31.0718 11.2389 24.0155C11.2389 16.9592 16.9523 11.2389 24 11.2389C31.0477 11.2389 36.7611 16.9592 36.7611 24.0155Z" fill="url(#paint6_radial_58_12423)"/>
<g filter="url(#filter2_f_58_12423)">
<ellipse cx="24.5" cy="47.5" rx="11.5" ry="6.5" fill="#1A75B0"/>
</g>
</g>
<rect width="170" height="48" rx="8" stroke="url(#paint7_linear_58_12423)" stroke-opacity="0.5" stroke-width="0.8" shape-rendering="crispEdges"/>
</g>
<g style="mix-blend-mode:screen" filter="url(#filter3_f_58_12423)">
<circle cx="17" cy="17" r="9" fill="white" fill-opacity="0.18"/>
</g>
<defs>
<filter id="filter0_bdi_58_12423" x="-20.3999" y="-20.4004" width="214.8" height="88.8008" filterUnits="userSpaceOnUse" color-interpolation-filters="sRGB">
<feFlood flood-opacity="0" result="BackgroundImageFix"/>
<feGaussianBlur in="BackgroundImageFix" stdDeviation="10"/>
<feComposite in2="SourceAlpha" operator="in" result="effect1_backgroundBlur_58_12423"/>
<feColorMatrix in="SourceAlpha" type="matrix" values="0 0 0 0 0 0 0 0 0 0 0 0 0 0 0 0 0 0 127 0" result="hardAlpha"/>
<feOffset dx="8" dy="4"/>
<feGaussianBlur stdDeviation="8"/>
<feComposite in2="hardAlpha" operator="out"/>
<feColorMatrix type="matrix" values="0 0 0 0 0 0 0 0 0 0 0 0 0 0 0 0 0 0 0.08 0"/>
<feBlend mode="normal" in2="effect1_backgroundBlur_58_12423" result="effect2_dropShadow_58_12423"/>
<feBlend mode="normal" in="SourceGraphic" in2="effect2_dropShadow_58_12423" result="shape"/>
<feColorMatrix in="SourceAlpha" type="matrix" values="0 0 0 0 0 0 0 0 0 0 0 0 0 0 0 0 0 0 127 0" result="hardAlpha"/>
<feOffset/>
<feGaussianBlur stdDeviation="4"/>
<feComposite in2="hardAlpha" operator="arithmetic" k2="-1" k3="1"/>
<feColorMatrix type="matrix" values="0 0 0 0 0.913725 0 0 0 0 0.380392 0 0 0 0 0.490196 0 0 0 0.32 0"/>
<feBlend mode="normal" in2="shape" result="effect3_innerShadow_58_12423"/>
</filter>
<filter id="filter1_f_58_12423" x="-4" y="-4" width="56" height="56" filterUnits="userSpaceOnUse" color-interpolation-filters="sRGB">
<feFlood flood-opacity="0" result="BackgroundImageFix"/>
<feBlend mode="normal" in="SourceGraphic" in2="BackgroundImageFix" result="shape"/>
<feGaussianBlur stdDeviation="6" result="effect1_foregroundBlur_58_12423"/>
</filter>
<filter id="filter2_f_58_12423" x="-5" y="23" width="59" height="49" filterUnits="userSpaceOnUse" color-interpolation-filters="sRGB">
<feFlood flood-opacity="0" result="BackgroundImageFix"/>
<feBlend mode="normal" in="SourceGraphic" in2="BackgroundImageFix" result="shape"/>
<feGaussianBlur stdDeviation="9" result="effect1_foregroundBlur_58_12423"/>
</filter>
<filter id="filter3_f_58_12423" x="-12" y="-12" width="58" height="58" filterUnits="userSpaceOnUse" color-interpolation-filters="sRGB">
<feFlood flood-opacity="0" result="BackgroundImageFix"/>
<feBlend mode="normal" in="SourceGraphic" in2="BackgroundImageFix" result="shape"/>
<feGaussianBlur stdDeviation="10" result="effect1_foregroundBlur_58_12423"/>
</filter>
<linearGradient id="paint0_linear_58_12423" x1="0" y1="0" x2="25.1045" y2="88.9117" gradientUnits="userSpaceOnUse">
<stop stop-color="#F8FBFF"/>
<stop offset="1" stop-color="white" stop-opacity="0"/>
</linearGradient>
<linearGradient id="paint1_linear_58_12423" x1="23.9993" y1="11.2383" x2="23.9993" y2="36.7914" gradientUnits="userSpaceOnUse">
<stop stop-color="white"/>
<stop offset="1" stop-color="#DDE2E7"/>
</linearGradient>
<radialGradient id="paint2_radial_58_12423" cx="0" cy="0" r="1" gradientUnits="userSpaceOnUse" gradientTransform="translate(16.3186 35.7389) rotate(-55.1325) scale(28.0109 21.9967)">
<stop stop-color="#7A66FB"/>
<stop offset="0.440198" stop-color="#52A2F4"/>
<stop offset="0.702" stop-color="#FC5D6D"/>
<stop offset="1" stop-color="#E85E7B"/>
</radialGradient>
<radialGradient id="paint3_radial_58_12423" cx="0" cy="0" r="1" gradientUnits="userSpaceOnUse" gradientTransform="translate(16.3186 35.7389) rotate(-55.1325) scale(28.0109 21.9967)">
<stop stop-color="#7A66FB"/>
<stop offset="0.440198" stop-color="#52A2F4"/>
<stop offset="0.702" stop-color="#FC5D6D"/>
<stop offset="1" stop-color="#E85E7B"/>
</radialGradient>
<linearGradient id="paint4_linear_58_12423" x1="23.9993" y1="11.2383" x2="23.9993" y2="36.7914" gradientUnits="userSpaceOnUse">
<stop stop-color="white"/>
<stop offset="1" stop-color="#DDE2E7"/>
</linearGradient>
<radialGradient id="paint5_radial_58_12423" cx="0" cy="0" r="1" gradientUnits="userSpaceOnUse" gradientTransform="translate(16.3186 35.7389) rotate(-55.1325) scale(28.0109 21.9967)">
<stop stop-color="#7A66FB"/>
<stop offset="0.440198" stop-color="#52A2F4"/>
<stop offset="0.702" stop-color="#FC5D6D"/>
<stop offset="1" stop-color="#E85E7B"/>
</radialGradient>
<radialGradient id="paint6_radial_58_12423" cx="0" cy="0" r="1" gradientUnits="userSpaceOnUse" gradientTransform="translate(16.3186 35.7389) rotate(-55.1325) scale(28.0109 21.9967)">
<stop stop-color="#7A66FB"/>
<stop offset="0.440198" stop-color="#52A2F4"/>
<stop offset="0.702" stop-color="#FC5D6D"/>
<stop offset="1" stop-color="#E85E7B"/>
</radialGradient>
<linearGradient id="paint7_linear_58_12423" x1="3.54167" y1="-1" x2="25.9272" y2="84.3808" gradientUnits="userSpaceOnUse">
<stop stop-color="#D8D8D8" stop-opacity="0.05"/>
<stop offset="1" stop-color="white" stop-opacity="0.4"/>
</linearGradient>
<clipPath id="clip0_58_12423">
<rect width="170" height="48" rx="8" fill="white"/>
</clipPath>
</defs>
</svg>
