<svg width="32.000000" height="32.000000" viewBox="0 0 32 32" fill="none" xmlns="http://www.w3.org/2000/svg" xmlns:xlink="http://www.w3.org/1999/xlink">
	<defs>
		<clipPath id="clip1059_89712">
			<rect id="spotify" rx="-0.500000" width="31.000000" height="31.000000" transform="translate(0.500000 0.500000)" fill="white" fill-opacity="0"/>
		</clipPath>
	</defs>
	<rect id="spotify" rx="-0.500000" width="31.000000" height="31.000000" transform="translate(0.500000 0.500000)" fill="#FFFFFF" fill-opacity="0"/>
	<g clip-path="url(#clip1059_89712)">
		<circle id="bg" cx="16.000000" cy="16.000000" r="14.000000" fill="#1ED760" fill-opacity="1.000000"/>
		<path id="spotify" d="M22.36 21.62C22.12 22 21.61 22.1 21.21 21.88C18.07 20.05 14.13 19.64 9.48 20.65C9.03 20.74 8.58 20.48 8.49 20.05C8.39 19.63 8.66 19.21 9.11 19.11C14.2 18.01 18.56 18.48 22.07 20.53C22.47 20.75 22.6 21.24 22.36 21.62ZM23.99 18.16C23.68 18.63 23.05 18.76 22.55 18.49C18.96 16.38 13.49 15.77 9.25 17C8.69 17.16 8.12 16.87 7.96 16.35C7.8 15.82 8.1 15.27 8.66 15.12C13.51 13.73 19.54 14.39 23.67 16.81C24.13 17.08 24.29 17.69 23.99 18.16ZM24.13 14.54C19.82 12.12 12.73 11.89 8.61 13.07C7.96 13.27 7.26 12.92 7.05 12.28C6.84 11.66 7.23 10.99 7.88 10.8C12.6 9.43 20.45 9.7 25.39 12.5C25.98 12.83 26.17 13.56 25.82 14.12C25.48 14.69 24.72 14.89 24.13 14.54Z" fill="#FFFFFF" fill-opacity="1.000000" fill-rule="nonzero"/>
	</g>
</svg>
