<svg width="170" height="48" viewBox="0 0 170 48" fill="none" xmlns="http://www.w3.org/2000/svg">
<g filter="url(#filter0_bdi_58_12452)">
<g clip-path="url(#clip0_58_12452)">
<rect width="170" height="48" rx="8" fill="url(#paint0_linear_58_12452)" fill-opacity="0.04" shape-rendering="crispEdges"/>
<g style="mix-blend-mode:plus-lighter" opacity="0.5" filter="url(#filter1_f_58_12452)">
<circle cx="24" cy="24" r="14" fill="#1ED760"/>
<path d="M30.3643 29.623C30.1252 30.0025 29.6149 30.1087 29.2163 29.881C26.075 28.0593 22.1364 27.6494 17.4802 28.6514C17.0338 28.7425 16.5873 28.4844 16.4916 28.0593C16.3959 27.6343 16.667 27.2092 17.1135 27.1181C22.2002 26.0099 26.5693 26.4805 30.0773 28.5299C30.476 28.7576 30.6035 29.2434 30.3643 29.623ZM31.9908 26.1617C31.6878 26.6323 31.05 26.769 30.5557 26.4957C26.9679 24.3856 21.4985 23.7783 17.257 25.008C16.6989 25.1598 16.1249 24.8714 15.9654 24.3552C15.8059 23.8239 16.1089 23.2774 16.667 23.1256C21.5145 21.7289 27.542 22.3969 31.6719 24.8106C32.1343 25.0839 32.2938 25.6911 31.9908 26.1617ZM32.1343 22.5487C27.829 20.1197 20.7332 19.892 16.6192 21.0761C15.9654 21.2735 15.2638 20.9243 15.0565 20.2867C14.8492 19.6643 15.2319 18.9964 15.8857 18.799C20.6056 17.4327 28.4509 17.706 33.394 20.4993C33.984 20.8332 34.1754 21.5619 33.8246 22.1236C33.4897 22.7005 32.7243 22.8978 32.1343 22.5487Z" fill="white"/>
</g>
<path d="M52.6152 18.5V12.1587H53.4062V17.7881H56.4648V18.5H52.6152ZM58.007 13.1562C57.7433 13.1562 57.528 12.9409 57.528 12.6772C57.528 12.4092 57.7433 12.1982 58.007 12.1982C58.275 12.1982 58.486 12.4092 58.486 12.6772C58.486 12.9409 58.275 13.1562 58.007 13.1562ZM57.6246 18.5V13.9297H58.3893V18.5H57.6246ZM61.4124 18.5879C60.3357 18.5879 59.6853 18.0386 59.593 17.2212L59.5887 17.1816H60.3533L60.3621 17.2256C60.4544 17.6826 60.7928 17.9507 61.4168 17.9507C62.0364 17.9507 62.4055 17.6914 62.4055 17.2783V17.2739C62.4055 16.9443 62.2342 16.7598 61.7156 16.6323L60.9905 16.4565C60.1292 16.25 59.7117 15.8501 59.7117 15.1909V15.1865C59.7117 14.3999 60.4016 13.8418 61.3904 13.8418C62.3924 13.8418 63.0296 14.4263 63.0867 15.1909L63.0911 15.248H62.3616L62.3572 15.2173C62.2957 14.7734 61.9573 14.479 61.3904 14.479C60.8367 14.479 60.4939 14.7471 60.4939 15.1514V15.1558C60.4939 15.4678 60.7005 15.6831 61.2058 15.8062L61.9309 15.9819C62.8538 16.2061 63.1878 16.5708 63.1878 17.2212V17.2256C63.1878 18.0254 62.4319 18.5879 61.4124 18.5879ZM65.8285 18.5879C64.9892 18.5879 64.5761 18.21 64.5761 17.3354V14.5625H63.9081V13.9297H64.5761V12.6948H65.3671V13.9297H66.2372V14.5625H65.3671V17.3311C65.3671 17.8188 65.5824 17.9551 65.9911 17.9551C66.0834 17.9551 66.1713 17.9419 66.2372 17.9375V18.5571C66.1405 18.5703 65.9779 18.5879 65.8285 18.5879ZM69.168 18.5879C67.8541 18.5879 67.063 17.6694 67.063 16.2324V16.228C67.063 14.813 67.8716 13.8418 69.1197 13.8418C70.3677 13.8418 71.128 14.769 71.128 16.1401V16.4214H67.8365C67.8541 17.3618 68.3726 17.9111 69.1856 17.9111C69.7657 17.9111 70.1744 17.6211 70.3062 17.23L70.3194 17.1904H71.0709L71.0621 17.2344C70.9127 17.9902 70.1656 18.5879 69.168 18.5879ZM69.1153 14.5186C68.4517 14.5186 67.9332 14.9712 67.8497 15.8237H70.3502C70.2754 14.936 69.7833 14.5186 69.1153 14.5186ZM72.2614 18.5V13.9297H73.0261V14.5801H73.0437C73.2897 14.1538 73.7556 13.8418 74.4499 13.8418C75.4519 13.8418 76.0319 14.4922 76.0319 15.5337V18.5H75.2673V15.6699C75.2673 14.9272 74.9201 14.5186 74.217 14.5186C73.4963 14.5186 73.0261 15.0327 73.0261 15.8105V18.5H72.2614ZM81.4673 18.5879C80.1972 18.5879 79.3491 17.6694 79.3491 16.2148V16.2061C79.3491 14.7515 80.2016 13.8418 81.4629 13.8418C82.7241 13.8418 83.581 14.7471 83.581 16.2061V16.2148C83.581 17.6738 82.7285 18.5879 81.4673 18.5879ZM81.4717 17.9111C82.2759 17.9111 82.7988 17.2871 82.7988 16.2148V16.2061C82.7988 15.1338 82.2715 14.5186 81.4629 14.5186C80.6675 14.5186 80.1313 15.1382 80.1313 16.2061V16.2148C80.1313 17.2915 80.6631 17.9111 81.4717 17.9111ZM84.7145 18.5V13.9297H85.4791V14.5801H85.4967C85.7428 14.1538 86.2086 13.8418 86.903 13.8418C87.9049 13.8418 88.485 14.4922 88.485 15.5337V18.5H87.7203V15.6699C87.7203 14.9272 87.3732 14.5186 86.67 14.5186C85.9493 14.5186 85.4791 15.0327 85.4791 15.8105V18.5H84.7145Z" fill="white"/>
<path d="M56.8828 35.6875C54.3516 35.6875 52.6797 34.4844 52.5391 32.5L52.5312 32.3828H54.2344L54.25 32.4844C54.4062 33.5234 55.4453 34.1719 56.9531 34.1719C58.4609 34.1719 59.4141 33.4922 59.4141 32.4375V32.4297C59.4141 31.5234 58.7969 31.0312 57.3047 30.7031L56.0781 30.4453C53.8672 29.9766 52.7969 28.9609 52.7969 27.2891V27.2812C52.8047 25.3594 54.5 24.0391 56.8828 24.0391C59.2344 24.0391 60.8438 25.3203 60.9609 27.2109L60.9688 27.3438H59.2656L59.2578 27.2344C59.1016 26.1875 58.1953 25.5547 56.8594 25.5547C55.4609 25.5625 54.5703 26.2266 54.5703 27.2109V27.2188C54.5703 28.0625 55.2109 28.5781 56.6172 28.8828L57.8516 29.1406C60.1797 29.6328 61.1797 30.5781 61.1797 32.3203V32.3281C61.1797 34.3828 59.5547 35.6875 56.8828 35.6875ZM62.5547 38.2344V27.2812H64.2422V28.6953H64.2812C64.7734 27.7188 65.6797 27.125 66.8516 27.125C68.9453 27.125 70.2891 28.7656 70.2891 31.3906V31.3984C70.2891 34.0156 68.9375 35.6641 66.875 35.6641C65.7109 35.6641 64.7656 35.0703 64.2812 34.1172H64.2422V38.2344H62.5547ZM66.4141 34.2109C67.7422 34.2109 68.5703 33.1328 68.5703 31.3984V31.3906C68.5703 29.6406 67.7344 28.5703 66.4141 28.5703C65.1328 28.5703 64.2344 29.6797 64.2344 31.3906V31.3984C64.2344 33.1016 65.1406 34.2109 66.4141 34.2109ZM75.1328 35.6641C72.7734 35.6641 71.2344 34.0312 71.2344 31.3906V31.375C71.2344 28.75 72.7891 27.125 75.125 27.125C77.4688 27.125 79.0312 28.7422 79.0312 31.375V31.3906C79.0312 34.0391 77.4844 35.6641 75.1328 35.6641ZM75.1406 34.25C76.4609 34.25 77.3047 33.2031 77.3047 31.3906V31.375C77.3047 29.5781 76.4453 28.5391 75.125 28.5391C73.8281 28.5391 72.9609 29.5781 72.9609 31.375V31.3906C72.9609 33.2109 73.8203 34.25 75.1406 34.25ZM83.2188 35.6641C81.5938 35.6641 80.8125 34.9766 80.8125 33.3359V28.625H79.6328V27.2812H80.8125V25.1406H82.5391V27.2812H84.0781V28.625H82.5391V33.2344C82.5391 34.0703 82.9141 34.3203 83.625 34.3203C83.8047 34.3203 83.9531 34.3047 84.0781 34.2891V35.5938C83.8828 35.625 83.5625 35.6641 83.2188 35.6641ZM86.3906 26.0156C85.8438 26.0156 85.4062 25.5781 85.4062 25.0469C85.4062 24.5078 85.8438 24.0703 86.3906 24.0703C86.9453 24.0703 87.375 24.5078 87.375 25.0469C87.375 25.5781 86.9453 26.0156 86.3906 26.0156ZM85.5469 35.5V27.2812H87.2344V35.5H85.5469ZM89.4688 35.5V28.625H88.3359V27.2812H89.4688V26.4062C89.4688 24.8125 90.2188 24.0625 91.8906 24.0625C92.2344 24.0625 92.6094 24.0938 92.8359 24.1328V25.3828C92.6719 25.3594 92.4609 25.3438 92.25 25.3438C91.4922 25.3438 91.1328 25.7109 91.1328 26.4375V27.2812H92.8047V28.625H91.1641V35.5H89.4688ZM95.1016 38.2422C94.7734 38.2422 94.4219 38.2031 94.2188 38.1641V36.8438C94.3516 36.875 94.5469 36.9062 94.7734 36.9062C95.5703 36.9062 96.0078 36.6953 96.2891 35.8984L96.4297 35.5078L93.4375 27.2812H95.2656L97.3359 33.9688H97.3906L99.4609 27.2812H101.242L98.1797 35.8828C97.5703 37.5859 96.7109 38.2422 95.1016 38.2422Z" fill="white"/>
<circle cx="24" cy="24" r="14" fill="#1ED760"/>
<path d="M30.3643 29.623C30.1252 30.0025 29.6149 30.1087 29.2163 29.881C26.075 28.0593 22.1364 27.6494 17.4802 28.6514C17.0338 28.7425 16.5873 28.4844 16.4916 28.0593C16.3959 27.6343 16.667 27.2092 17.1135 27.1181C22.2002 26.0099 26.5693 26.4805 30.0773 28.5299C30.476 28.7576 30.6035 29.2434 30.3643 29.623ZM31.9908 26.1617C31.6878 26.6323 31.05 26.769 30.5557 26.4957C26.9679 24.3856 21.4985 23.7783 17.257 25.008C16.6989 25.1598 16.1249 24.8714 15.9654 24.3552C15.8059 23.8239 16.1089 23.2774 16.667 23.1256C21.5145 21.7289 27.542 22.3969 31.6719 24.8106C32.1343 25.0839 32.2938 25.6911 31.9908 26.1617ZM32.1343 22.5487C27.829 20.1197 20.7332 19.892 16.6192 21.0761C15.9654 21.2735 15.2638 20.9243 15.0565 20.2867C14.8492 19.6643 15.2319 18.9964 15.8857 18.799C20.6056 17.4327 28.4509 17.706 33.394 20.4993C33.984 20.8332 34.1754 21.5619 33.8246 22.1236C33.4897 22.7005 32.7243 22.8978 32.1343 22.5487Z" fill="white"/>
<g filter="url(#filter2_f_58_12452)">
<ellipse cx="24.5" cy="47.5" rx="11.5" ry="6.5" fill="#2BD969"/>
</g>
</g>
<rect width="170" height="48" rx="8" stroke="url(#paint1_linear_58_12452)" stroke-opacity="0.5" stroke-width="0.8" shape-rendering="crispEdges"/>
</g>
<g style="mix-blend-mode:screen" filter="url(#filter3_f_58_12452)">
<circle cx="17" cy="17" r="9" fill="white" fill-opacity="0.18"/>
</g>
<defs>
<filter id="filter0_bdi_58_12452" x="-20.3999" y="-20.4004" width="214.8" height="88.8008" filterUnits="userSpaceOnUse" color-interpolation-filters="sRGB">
<feFlood flood-opacity="0" result="BackgroundImageFix"/>
<feGaussianBlur in="BackgroundImageFix" stdDeviation="10"/>
<feComposite in2="SourceAlpha" operator="in" result="effect1_backgroundBlur_58_12452"/>
<feColorMatrix in="SourceAlpha" type="matrix" values="0 0 0 0 0 0 0 0 0 0 0 0 0 0 0 0 0 0 127 0" result="hardAlpha"/>
<feOffset dx="8" dy="4"/>
<feGaussianBlur stdDeviation="8"/>
<feComposite in2="hardAlpha" operator="out"/>
<feColorMatrix type="matrix" values="0 0 0 0 0 0 0 0 0 0 0 0 0 0 0 0 0 0 0.08 0"/>
<feBlend mode="normal" in2="effect1_backgroundBlur_58_12452" result="effect2_dropShadow_58_12452"/>
<feBlend mode="normal" in="SourceGraphic" in2="effect2_dropShadow_58_12452" result="shape"/>
<feColorMatrix in="SourceAlpha" type="matrix" values="0 0 0 0 0 0 0 0 0 0 0 0 0 0 0 0 0 0 127 0" result="hardAlpha"/>
<feOffset/>
<feGaussianBlur stdDeviation="4"/>
<feComposite in2="hardAlpha" operator="arithmetic" k2="-1" k3="1"/>
<feColorMatrix type="matrix" values="0 0 0 0 0.168627 0 0 0 0 0.85098 0 0 0 0 0.411765 0 0 0 0.32 0"/>
<feBlend mode="normal" in2="shape" result="effect3_innerShadow_58_12452"/>
</filter>
<filter id="filter1_f_58_12452" x="-4" y="-4" width="56" height="56" filterUnits="userSpaceOnUse" color-interpolation-filters="sRGB">
<feFlood flood-opacity="0" result="BackgroundImageFix"/>
<feBlend mode="normal" in="SourceGraphic" in2="BackgroundImageFix" result="shape"/>
<feGaussianBlur stdDeviation="6" result="effect1_foregroundBlur_58_12452"/>
</filter>
<filter id="filter2_f_58_12452" x="-5" y="23" width="59" height="49" filterUnits="userSpaceOnUse" color-interpolation-filters="sRGB">
<feFlood flood-opacity="0" result="BackgroundImageFix"/>
<feBlend mode="normal" in="SourceGraphic" in2="BackgroundImageFix" result="shape"/>
<feGaussianBlur stdDeviation="9" result="effect1_foregroundBlur_58_12452"/>
</filter>
<filter id="filter3_f_58_12452" x="-12" y="-12" width="58" height="58" filterUnits="userSpaceOnUse" color-interpolation-filters="sRGB">
<feFlood flood-opacity="0" result="BackgroundImageFix"/>
<feBlend mode="normal" in="SourceGraphic" in2="BackgroundImageFix" result="shape"/>
<feGaussianBlur stdDeviation="10" result="effect1_foregroundBlur_58_12452"/>
</filter>
<linearGradient id="paint0_linear_58_12452" x1="0" y1="0" x2="25.1045" y2="88.9117" gradientUnits="userSpaceOnUse">
<stop stop-color="#F8FBFF"/>
<stop offset="1" stop-color="white" stop-opacity="0"/>
</linearGradient>
<linearGradient id="paint1_linear_58_12452" x1="3.54167" y1="-1" x2="25.9272" y2="84.3808" gradientUnits="userSpaceOnUse">
<stop stop-color="#D8D8D8" stop-opacity="0.05"/>
<stop offset="1" stop-color="white" stop-opacity="0.4"/>
</linearGradient>
<clipPath id="clip0_58_12452">
<rect width="170" height="48" rx="8" fill="white"/>
</clipPath>
</defs>
</svg>
