<svg width="32.000000" height="32.000000" viewBox="0 0 32 32" fill="none" xmlns="http://www.w3.org/2000/svg" xmlns:xlink="http://www.w3.org/1999/xlink">
	<defs>
		<clipPath id="clip1059_89715">
			<rect id="youtube_music" rx="-0.500000" width="31.000000" height="31.000000" transform="translate(0.500000 0.500000)" fill="white" fill-opacity="0"/>
		</clipPath>
	</defs>
	<rect id="youtube_music" rx="-0.500000" width="31.000000" height="31.000000" transform="translate(0.500000 0.500000)" fill="#FFFFFF" fill-opacity="0"/>
	<g clip-path="url(#clip1059_89715)">
		<path id="vector" d="M30 16C30 23.73 23.73 30 16 30C8.26 30 2 23.73 2 16C2 8.26 8.26 2 16 2C23.73 2 30 8.26 30 16Z" fill="#FF0000" fill-opacity="1.000000" fill-rule="evenodd"/>
		<path id="vector" d="M16 9.61C19.52 9.61 22.38 12.48 22.38 16C22.38 19.51 19.52 22.38 16 22.38C12.47 22.38 9.61 19.51 9.61 16C9.61 12.48 12.47 9.61 16 9.61ZM16 9C12.13 9 9 12.13 9 16C9 19.86 12.13 23 16 23C19.86 23 23 19.86 23 16C23 12.13 19.86 9 16 9Z" fill="#FFFFFF" fill-opacity="1.000000" fill-rule="nonzero"/>
		<path id="vector" d="M14 20L20 15.82L14 12L14 20Z" fill="#FFFFFF" fill-opacity="1.000000" fill-rule="nonzero"/>
	</g>
</svg>
