<svg width="1202" height="299" viewBox="0 0 1202 299" fill="none" xmlns="http://www.w3.org/2000/svg">
<path d="M138.018 122.056C170.035 116.693 206.537 116.888 240.796 122.056C275.055 127.224 309.313 140.145 343.574 145.973C377.833 151.801 412.091 150.537 446.35 150.756C480.611 150.975 514.87 152.677 549.128 145.973C583.387 139.269 617.648 124.158 651.907 126.84C686.165 129.521 720.424 149.996 754.685 150.756C788.944 151.517 823.202 132.564 857.461 122.056C891.722 111.549 925.98 109.488 960.239 114.881C994.498 120.275 1023.76 131.151 1058.02 144C1058.02 144 1094.5 163 1199 167V237C1164.74 237 994.498 237 960.239 237C925.98 237 891.722 237 857.461 237C823.202 237 788.944 237 754.685 237C720.424 237 686.165 237 651.907 237C617.648 237 583.387 237 549.128 237C514.87 237 480.611 237 446.35 237C412.091 237 377.833 237 343.574 237C309.313 237 275.055 237 240.796 237C206.537 237 35.2413 237 0.982422 237L1.01752 166.5C75 154.5 106 127.419 138.018 122.056Z" fill="url(#paint0_linear_19_14676)" fill-opacity="0.2"/>
<path d="M1.01752 166.5C79.8625 153.5 104.093 127.557 139.122 122.028C174.15 116.5 207.57 116.875 241.793 122.028C276.017 127.182 310.24 140.067 344.465 145.879C378.689 151.691 412.912 150.431 447.135 150.649C481.36 150.868 515.584 152.565 549.807 145.879C584.031 139.194 618.256 124.125 652.479 126.799C686.702 129.473 720.926 149.891 755.151 150.649C789.374 151.408 823.597 132.507 857.821 122.028C892.046 111.55 926.269 109.495 960.493 114.873C994.716 120.252 1028.94 133.066 1063.16 145.879C1094.05 157.5 1137.74 164 1201.02 167" stroke="url(#paint1_linear_19_14676)"/>
<path d="M63.6414 262.818V273H62.4084V263.912H57.2777V273H56.0448V262.818H63.6414ZM65.9693 273V265.364H67.1426V273H65.9693ZM66.5659 264.091C66.3372 264.091 66.14 264.013 65.9743 263.857C65.8119 263.701 65.7307 263.514 65.7307 263.295C65.7307 263.077 65.8119 262.889 65.9743 262.734C66.14 262.578 66.3372 262.5 66.5659 262.5C66.7946 262.5 66.9901 262.578 67.1525 262.734C67.3183 262.889 67.4011 263.077 67.4011 263.295C67.4011 263.514 67.3183 263.701 67.1525 263.857C66.9901 264.013 66.7946 264.091 66.5659 264.091ZM68.4762 275.188V271.906H69.1126C69.2684 271.744 69.4026 271.568 69.5153 271.379C69.628 271.19 69.7258 270.967 69.8086 270.708C69.8948 270.446 69.9677 270.128 70.0274 269.754C70.087 269.376 70.1401 268.92 70.1865 268.386L70.445 265.364H75.2973V271.906H76.4706V275.188H75.2973V273H69.6495V275.188H68.4762ZM70.445 271.906H74.124V266.457H71.5387L71.3399 268.386C71.257 269.185 71.1543 269.883 71.0316 270.479C70.909 271.076 70.7135 271.552 70.445 271.906ZM82.741 265.364V266.457H79.2012V273H78.0279V265.364H82.741ZM87.1595 273.159C86.4701 273.159 85.8652 272.995 85.3448 272.667C84.8278 272.339 84.4234 271.88 84.1318 271.29C83.8434 270.7 83.6992 270.01 83.6992 269.222C83.6992 268.426 83.8434 267.732 84.1318 267.138C84.4234 266.545 84.8278 266.085 85.3448 265.756C85.8652 265.428 86.4701 265.264 87.1595 265.264C87.8489 265.264 88.4521 265.428 88.9691 265.756C89.4895 266.085 89.8938 266.545 90.1822 267.138C90.4739 267.732 90.6197 268.426 90.6197 269.222C90.6197 270.01 90.4739 270.7 90.1822 271.29C89.8938 271.88 89.4895 272.339 88.9691 272.667C88.4521 272.995 87.8489 273.159 87.1595 273.159ZM87.1595 272.105C87.6831 272.105 88.114 271.971 88.4521 271.702C88.7902 271.434 89.0404 271.081 89.2028 270.643C89.3652 270.206 89.4464 269.732 89.4464 269.222C89.4464 268.711 89.3652 268.236 89.2028 267.795C89.0404 267.354 88.7902 266.998 88.4521 266.726C88.114 266.454 87.6831 266.318 87.1595 266.318C86.6358 266.318 86.2049 266.454 85.8669 266.726C85.5288 266.998 85.2786 267.354 85.1161 267.795C84.9537 268.236 84.8725 268.711 84.8725 269.222C84.8725 269.732 84.9537 270.206 85.1161 270.643C85.2786 271.081 85.5288 271.434 85.8669 271.702C86.2049 271.971 86.6358 272.105 87.1595 272.105ZM91.4127 266.457V265.364H97.6172V266.457H95.1115V273H93.9382V266.457H91.4127ZM102.034 273.159C101.345 273.159 100.74 272.995 100.22 272.667C99.7028 272.339 99.2984 271.88 99.0068 271.29C98.7184 270.7 98.5742 270.01 98.5742 269.222C98.5742 268.426 98.7184 267.732 99.0068 267.138C99.2984 266.545 99.7028 266.085 100.22 265.756C100.74 265.428 101.345 265.264 102.034 265.264C102.724 265.264 103.327 265.428 103.844 265.756C104.364 266.085 104.769 266.545 105.057 267.138C105.349 267.732 105.495 268.426 105.495 269.222C105.495 270.01 105.349 270.7 105.057 271.29C104.769 271.88 104.364 272.339 103.844 272.667C103.327 272.995 102.724 273.159 102.034 273.159ZM102.034 272.105C102.558 272.105 102.989 271.971 103.327 271.702C103.665 271.434 103.915 271.081 104.078 270.643C104.24 270.206 104.321 269.732 104.321 269.222C104.321 268.711 104.24 268.236 104.078 267.795C103.915 267.354 103.665 266.998 103.327 266.726C102.989 266.454 102.558 266.318 102.034 266.318C101.511 266.318 101.08 266.454 100.742 266.726C100.404 266.998 100.154 267.354 99.9911 267.795C99.8287 268.236 99.7475 268.711 99.7475 269.222C99.7475 269.732 99.8287 270.206 99.9911 270.643C100.154 271.081 100.404 271.434 100.742 271.702C101.08 271.971 101.511 272.105 102.034 272.105ZM107.286 273V265.364H110.408C111.23 265.364 111.883 265.549 112.367 265.92C112.851 266.292 113.093 266.782 113.093 267.392C113.093 267.856 112.955 268.216 112.68 268.471C112.405 268.723 112.052 268.893 111.621 268.983C111.903 269.023 112.176 269.122 112.441 269.281C112.71 269.44 112.932 269.659 113.107 269.938C113.283 270.213 113.371 270.551 113.371 270.952C113.371 271.343 113.272 271.692 113.073 272.001C112.874 272.309 112.589 272.553 112.218 272.732C111.846 272.911 111.402 273 110.885 273H107.286ZM108.399 271.926H110.885C111.29 271.926 111.606 271.83 111.835 271.638C112.063 271.446 112.178 271.184 112.178 270.852C112.178 270.458 112.063 270.148 111.835 269.923C111.606 269.694 111.29 269.58 110.885 269.58H108.399V271.926ZM108.399 268.565H110.408C110.723 268.565 110.993 268.522 111.218 268.436C111.444 268.347 111.616 268.221 111.735 268.058C111.858 267.893 111.919 267.697 111.919 267.472C111.919 267.15 111.785 266.898 111.517 266.716C111.248 266.53 110.879 266.438 110.408 266.438H108.399V268.565ZM115.147 273V265.364H116.32V268.685H117.096L119.84 265.364H121.352L118.269 269.043L121.391 273H119.88L117.374 269.778H116.32V273H115.147ZM124.914 273.179C124.43 273.179 123.991 273.088 123.596 272.906C123.202 272.72 122.889 272.453 122.657 272.105C122.425 271.754 122.309 271.33 122.309 270.832C122.309 270.395 122.395 270.04 122.567 269.768C122.739 269.493 122.97 269.278 123.258 269.122C123.547 268.966 123.865 268.85 124.213 268.774C124.564 268.695 124.917 268.632 125.272 268.585C125.736 268.526 126.112 268.481 126.4 268.451C126.692 268.418 126.904 268.363 127.037 268.287C127.172 268.211 127.24 268.078 127.24 267.889V267.849C127.24 267.359 127.106 266.978 126.838 266.706C126.573 266.434 126.17 266.298 125.63 266.298C125.07 266.298 124.63 266.421 124.312 266.666C123.994 266.911 123.77 267.173 123.641 267.452L122.527 267.054C122.726 266.59 122.991 266.229 123.323 265.97C123.658 265.708 124.022 265.526 124.417 265.423C124.814 265.317 125.205 265.264 125.59 265.264C125.835 265.264 126.117 265.294 126.435 265.354C126.757 265.41 127.066 265.528 127.365 265.707C127.666 265.886 127.917 266.156 128.115 266.517C128.314 266.878 128.414 267.362 128.414 267.969V273H127.24V271.966H127.181C127.101 272.132 126.969 272.309 126.783 272.498C126.597 272.687 126.351 272.848 126.042 272.98C125.734 273.113 125.358 273.179 124.914 273.179ZM125.093 272.125C125.557 272.125 125.948 272.034 126.266 271.852C126.588 271.669 126.829 271.434 126.992 271.146C127.158 270.857 127.24 270.554 127.24 270.236V269.162C127.191 269.222 127.081 269.276 126.912 269.326C126.747 269.372 126.554 269.414 126.336 269.45C126.12 269.483 125.91 269.513 125.704 269.54C125.502 269.563 125.338 269.583 125.212 269.599C124.907 269.639 124.622 269.704 124.357 269.793C124.095 269.879 123.883 270.01 123.721 270.186C123.561 270.358 123.482 270.594 123.482 270.892C123.482 271.3 123.633 271.608 123.934 271.817C124.239 272.022 124.625 272.125 125.093 272.125ZM134.015 271.051H135.268C135.295 271.396 135.451 271.658 135.736 271.837C136.024 272.016 136.399 272.105 136.859 272.105C137.33 272.105 137.733 272.009 138.067 271.817C138.402 271.621 138.569 271.306 138.569 270.872C138.569 270.617 138.506 270.395 138.381 270.206C138.255 270.014 138.077 269.865 137.849 269.759C137.62 269.652 137.35 269.599 137.038 269.599H135.726V268.545H137.038C137.506 268.545 137.85 268.439 138.072 268.227C138.298 268.015 138.41 267.75 138.41 267.432C138.41 267.09 138.289 266.817 138.047 266.612C137.805 266.403 137.462 266.298 137.018 266.298C136.571 266.298 136.198 266.399 135.9 266.602C135.601 266.8 135.444 267.057 135.427 267.372H134.194C134.208 266.961 134.334 266.598 134.572 266.283C134.811 265.965 135.136 265.717 135.547 265.538C135.958 265.355 136.428 265.264 136.959 265.264C137.496 265.264 137.961 265.359 138.356 265.548C138.753 265.733 139.06 265.987 139.275 266.308C139.494 266.626 139.604 266.988 139.604 267.392C139.604 267.823 139.483 268.171 139.241 268.436C138.999 268.701 138.695 268.89 138.331 269.003V269.082C138.619 269.102 138.869 269.195 139.082 269.361C139.297 269.523 139.464 269.737 139.584 270.002C139.703 270.264 139.763 270.554 139.763 270.872C139.763 271.336 139.638 271.741 139.39 272.085C139.141 272.427 138.8 272.692 138.366 272.881C137.931 273.066 137.436 273.159 136.879 273.159C136.339 273.159 135.855 273.071 135.427 272.896C135 272.717 134.66 272.47 134.408 272.155C134.16 271.837 134.029 271.469 134.015 271.051ZM143.658 273.179C143.174 273.179 142.735 273.088 142.34 272.906C141.946 272.72 141.633 272.453 141.401 272.105C141.169 271.754 141.053 271.33 141.053 270.832C141.053 270.395 141.139 270.04 141.311 269.768C141.484 269.493 141.714 269.278 142.002 269.122C142.291 268.966 142.609 268.85 142.957 268.774C143.308 268.695 143.661 268.632 144.016 268.585C144.48 268.526 144.856 268.481 145.144 268.451C145.436 268.418 145.648 268.363 145.781 268.287C145.917 268.211 145.985 268.078 145.985 267.889V267.849C145.985 267.359 145.85 266.978 145.582 266.706C145.317 266.434 144.914 266.298 144.374 266.298C143.814 266.298 143.374 266.421 143.056 266.666C142.738 266.911 142.514 267.173 142.385 267.452L141.272 267.054C141.47 266.59 141.736 266.229 142.067 265.97C142.402 265.708 142.766 265.526 143.161 265.423C143.558 265.317 143.95 265.264 144.334 265.264C144.579 265.264 144.861 265.294 145.179 265.354C145.501 265.41 145.811 265.528 146.109 265.707C146.41 265.886 146.661 266.156 146.86 266.517C147.058 266.878 147.158 267.362 147.158 267.969V273H145.985V271.966H145.925C145.845 272.132 145.713 272.309 145.527 272.498C145.342 272.687 145.095 272.848 144.786 272.98C144.478 273.113 144.102 273.179 143.658 273.179ZM143.837 272.125C144.301 272.125 144.692 272.034 145.01 271.852C145.332 271.669 145.574 271.434 145.736 271.146C145.902 270.857 145.985 270.554 145.985 270.236V269.162C145.935 269.222 145.825 269.276 145.656 269.326C145.491 269.372 145.299 269.414 145.08 269.45C144.864 269.483 144.654 269.513 144.448 269.54C144.246 269.563 144.082 269.583 143.956 269.599C143.651 269.639 143.366 269.704 143.101 269.793C142.839 269.879 142.627 270.01 142.465 270.186C142.306 270.358 142.226 270.594 142.226 270.892C142.226 271.3 142.377 271.608 142.678 271.817C142.983 272.022 143.37 272.125 143.837 272.125ZM149.299 273V265.364H155.305V273H154.132V266.457H150.473V273H149.299ZM157.93 275.864C157.731 275.864 157.554 275.847 157.398 275.814C157.242 275.784 157.135 275.754 157.075 275.724L157.373 274.69C157.658 274.763 157.91 274.79 158.129 274.77C158.348 274.75 158.542 274.652 158.711 274.477C158.883 274.304 159.04 274.024 159.183 273.636L159.402 273.04L156.578 265.364H157.851L159.958 271.449H160.038L162.146 265.364H163.419L160.177 274.114C160.031 274.508 159.851 274.835 159.635 275.093C159.42 275.355 159.17 275.549 158.885 275.675C158.603 275.801 158.285 275.864 157.93 275.864ZM167.796 273.159C167.08 273.159 166.464 272.99 165.947 272.652C165.43 272.314 165.032 271.848 164.754 271.255C164.475 270.662 164.336 269.984 164.336 269.222C164.336 268.446 164.478 267.762 164.764 267.168C165.052 266.572 165.453 266.106 165.967 265.771C166.484 265.433 167.087 265.264 167.776 265.264C168.313 265.264 168.797 265.364 169.228 265.562C169.659 265.761 170.012 266.04 170.287 266.398C170.562 266.756 170.733 267.173 170.799 267.651H169.626C169.536 267.303 169.337 266.994 169.029 266.726C168.724 266.454 168.313 266.318 167.796 266.318C167.339 266.318 166.938 266.437 166.593 266.676C166.252 266.911 165.985 267.245 165.793 267.675C165.604 268.103 165.509 268.605 165.509 269.182C165.509 269.772 165.602 270.286 165.788 270.723C165.977 271.161 166.242 271.5 166.583 271.742C166.928 271.984 167.332 272.105 167.796 272.105C168.101 272.105 168.378 272.052 168.626 271.946C168.875 271.84 169.085 271.688 169.258 271.489C169.43 271.29 169.553 271.051 169.626 270.773H170.799C170.733 271.223 170.569 271.629 170.307 271.991C170.048 272.349 169.705 272.634 169.278 272.846C168.853 273.055 168.36 273.159 167.796 273.159ZM172.514 273V265.364H173.688V268.685H174.463L177.207 265.364H178.719L175.636 269.043L178.759 273H177.247L174.742 269.778H173.688V273H172.514ZM180.789 275.864C180.591 275.864 180.413 275.847 180.257 275.814C180.102 275.784 179.994 275.754 179.934 275.724L180.233 274.69C180.518 274.763 180.77 274.79 180.988 274.77C181.207 274.75 181.401 274.652 181.57 274.477C181.742 274.304 181.9 274.024 182.042 273.636L182.261 273.04L179.437 265.364H180.71L182.818 271.449H182.897L185.005 265.364H186.278L183.037 274.114C182.891 274.508 182.71 274.835 182.495 275.093C182.279 275.355 182.029 275.549 181.744 275.675C181.462 275.801 181.144 275.864 180.789 275.864ZM191.923 262.818H193.395L196.855 271.27H196.974L200.435 262.818H201.906V273H200.753V265.264H200.653L197.472 273H196.358L193.176 265.264H193.077V273H191.923V262.818ZM204.796 262.818L207.819 271.389H207.938L210.961 262.818H212.253L208.515 273H207.242L203.503 262.818H204.796ZM213.839 273V262.818H217.28C218.078 262.818 218.731 262.962 219.238 263.251C219.749 263.536 220.127 263.922 220.372 264.409C220.617 264.896 220.74 265.44 220.74 266.04C220.74 266.64 220.617 267.185 220.372 267.675C220.13 268.166 219.756 268.557 219.248 268.849C218.741 269.137 218.092 269.281 217.3 269.281H214.834V268.188H217.26C217.807 268.188 218.246 268.093 218.577 267.904C218.909 267.715 219.149 267.46 219.298 267.138C219.451 266.814 219.527 266.447 219.527 266.04C219.527 265.632 219.451 265.268 219.298 264.946C219.149 264.625 218.907 264.373 218.572 264.19C218.238 264.005 217.793 263.912 217.24 263.912H215.072V273H213.839Z" fill="white"/>
<path d="M133.966 11.3636H135.512L136.807 13.0682L137.148 13.5227L139.08 16.0909H137.535L136.262 14.3864L135.944 13.9545L133.966 11.3636ZM139.557 9.18182C139.557 10.4091 139.336 11.4697 138.893 12.3636C138.449 13.2576 137.841 13.947 137.069 14.4318C136.296 14.9167 135.413 15.1591 134.421 15.1591C133.429 15.1591 132.546 14.9167 131.773 14.4318C131 13.947 130.393 13.2576 129.949 12.3636C129.506 11.4697 129.285 10.4091 129.285 9.18182C129.285 7.95455 129.506 6.89394 129.949 6C130.393 5.10606 131 4.41667 131.773 3.93182C132.546 3.44697 133.429 3.20455 134.421 3.20455C135.413 3.20455 136.296 3.44697 137.069 3.93182C137.841 4.41667 138.449 5.10606 138.893 6C139.336 6.89394 139.557 7.95455 139.557 9.18182ZM138.194 9.18182C138.194 8.17424 138.025 7.32386 137.688 6.63068C137.355 5.9375 136.902 5.41288 136.33 5.05682C135.762 4.70076 135.125 4.52273 134.421 4.52273C133.716 4.52273 133.078 4.70076 132.506 5.05682C131.938 5.41288 131.485 5.9375 131.148 6.63068C130.815 7.32386 130.648 8.17424 130.648 9.18182C130.648 10.1894 130.815 11.0398 131.148 11.733C131.485 12.4261 131.938 12.9508 132.506 13.3068C133.078 13.6629 133.716 13.8409 134.421 13.8409C135.125 13.8409 135.762 13.6629 136.33 13.3068C136.902 12.9508 137.355 12.4261 137.688 11.733C138.025 11.0398 138.194 10.1894 138.194 9.18182ZM145.813 3.36364V15H144.404V4.84091H144.336L141.495 6.72727V5.29545L144.404 3.36364H145.813Z" fill="white"/>
<path d="M439.841 11.3636H441.387L442.682 13.0682L443.023 13.5227L444.955 16.0909H443.41L442.137 14.3864L441.819 13.9545L439.841 11.3636ZM445.432 9.18182C445.432 10.4091 445.211 11.4697 444.768 12.3636C444.324 13.2576 443.716 13.947 442.944 14.4318C442.171 14.9167 441.288 15.1591 440.296 15.1591C439.304 15.1591 438.421 14.9167 437.648 14.4318C436.875 13.947 436.268 13.2576 435.824 12.3636C435.381 11.4697 435.16 10.4091 435.16 9.18182C435.16 7.95455 435.381 6.89394 435.824 6C436.268 5.10606 436.875 4.41667 437.648 3.93182C438.421 3.44697 439.304 3.20455 440.296 3.20455C441.288 3.20455 442.171 3.44697 442.944 3.93182C443.716 4.41667 444.324 5.10606 444.768 6C445.211 6.89394 445.432 7.95455 445.432 9.18182ZM444.069 9.18182C444.069 8.17424 443.9 7.32386 443.563 6.63068C443.23 5.9375 442.777 5.41288 442.205 5.05682C441.637 4.70076 441 4.52273 440.296 4.52273C439.591 4.52273 438.953 4.70076 438.381 5.05682C437.813 5.41288 437.36 5.9375 437.023 6.63068C436.69 7.32386 436.523 8.17424 436.523 9.18182C436.523 10.1894 436.69 11.0398 437.023 11.733C437.36 12.4261 437.813 12.9508 438.381 13.3068C438.953 13.6629 439.591 13.8409 440.296 13.8409C441 13.8409 441.637 13.6629 442.205 13.3068C442.777 12.9508 443.23 12.4261 443.563 11.733C443.9 11.0398 444.069 10.1894 444.069 9.18182ZM447.597 15V13.9773L451.438 9.77273C451.889 9.2803 452.26 8.85227 452.552 8.48864C452.843 8.12121 453.059 7.77652 453.199 7.45455C453.343 7.12879 453.415 6.78788 453.415 6.43182C453.415 6.02273 453.317 5.66856 453.12 5.36932C452.927 5.07008 452.661 4.83901 452.324 4.67614C451.987 4.51326 451.608 4.43182 451.188 4.43182C450.741 4.43182 450.351 4.52462 450.018 4.71023C449.688 4.89205 449.432 5.14773 449.25 5.47727C449.072 5.80682 448.983 6.19318 448.983 6.63636H447.643C447.643 5.95455 447.8 5.35606 448.114 4.84091C448.429 4.32576 448.857 3.92424 449.398 3.63636C449.944 3.34848 450.555 3.20455 451.233 3.20455C451.915 3.20455 452.519 3.34848 453.046 3.63636C453.572 3.92424 453.985 4.3125 454.285 4.80114C454.584 5.28977 454.733 5.83333 454.733 6.43182C454.733 6.85985 454.656 7.27841 454.5 7.6875C454.349 8.0928 454.084 8.54545 453.705 9.04545C453.33 9.54167 452.809 10.1477 452.143 10.8636L449.529 13.6591V13.75H454.938V15H447.597Z" fill="white"/>
<path d="M747.091 11.3636H748.637L749.932 13.0682L750.273 13.5227L752.205 16.0909H750.66L749.387 14.3864L749.069 13.9545L747.091 11.3636ZM752.682 9.18182C752.682 10.4091 752.461 11.4697 752.018 12.3636C751.574 13.2576 750.966 13.947 750.194 14.4318C749.421 14.9167 748.538 15.1591 747.546 15.1591C746.554 15.1591 745.671 14.9167 744.898 14.4318C744.125 13.947 743.518 13.2576 743.074 12.3636C742.631 11.4697 742.41 10.4091 742.41 9.18182C742.41 7.95455 742.631 6.89394 743.074 6C743.518 5.10606 744.125 4.41667 744.898 3.93182C745.671 3.44697 746.554 3.20455 747.546 3.20455C748.538 3.20455 749.421 3.44697 750.194 3.93182C750.966 4.41667 751.574 5.10606 752.018 6C752.461 6.89394 752.682 7.95455 752.682 9.18182ZM751.319 9.18182C751.319 8.17424 751.15 7.32386 750.813 6.63068C750.48 5.9375 750.027 5.41288 749.455 5.05682C748.887 4.70076 748.25 4.52273 747.546 4.52273C746.841 4.52273 746.203 4.70076 745.631 5.05682C745.063 5.41288 744.61 5.9375 744.273 6.63068C743.94 7.32386 743.773 8.17424 743.773 9.18182C743.773 10.1894 743.94 11.0398 744.273 11.733C744.61 12.4261 745.063 12.9508 745.631 13.3068C746.203 13.6629 746.841 13.8409 747.546 13.8409C748.25 13.8409 748.887 13.6629 749.455 13.3068C750.027 12.9508 750.48 12.4261 750.813 11.733C751.15 11.0398 751.319 10.1894 751.319 9.18182ZM758.779 15.1591C758.029 15.1591 757.36 15.0303 756.773 14.7727C756.19 14.5152 755.726 14.1572 755.381 13.6989C755.04 13.2367 754.855 12.7008 754.824 12.0909H756.256C756.286 12.4659 756.415 12.7898 756.643 13.0625C756.87 13.3314 757.167 13.5398 757.535 13.6875C757.902 13.8352 758.309 13.9091 758.756 13.9091C759.256 13.9091 759.699 13.822 760.086 13.6477C760.472 13.4735 760.775 13.2311 760.995 12.9205C761.214 12.6098 761.324 12.25 761.324 11.8409C761.324 11.4129 761.218 11.036 761.006 10.7102C760.794 10.3807 760.483 10.1231 760.074 9.9375C759.665 9.75189 759.165 9.65909 758.574 9.65909H757.643V8.40909H758.574C759.036 8.40909 759.442 8.32576 759.79 8.15909C760.143 7.99242 760.417 7.75758 760.614 7.45455C760.815 7.15152 760.915 6.79545 760.915 6.38636C760.915 5.99242 760.828 5.64962 760.654 5.35795C760.48 5.06629 760.233 4.83901 759.915 4.67614C759.601 4.51326 759.23 4.43182 758.802 4.43182C758.4 4.43182 758.021 4.50568 757.665 4.65341C757.313 4.79735 757.025 5.00758 756.802 5.28409C756.578 5.55682 756.457 5.88636 756.438 6.27273H755.074C755.097 5.66288 755.281 5.12879 755.625 4.67045C755.97 4.20833 756.421 3.84848 756.978 3.59091C757.538 3.33333 758.154 3.20455 758.824 3.20455C759.544 3.20455 760.161 3.35038 760.677 3.64205C761.192 3.92992 761.588 4.31061 761.864 4.78409C762.141 5.25758 762.279 5.76894 762.279 6.31818C762.279 6.97348 762.107 7.5322 761.762 7.99432C761.421 8.45644 760.957 8.77652 760.37 8.95455V9.04545C761.105 9.16667 761.679 9.47917 762.091 9.98295C762.504 10.483 762.711 11.1023 762.711 11.8409C762.711 12.4735 762.538 13.0417 762.194 13.5455C761.853 14.0455 761.387 14.4394 760.796 14.7273C760.205 15.0152 759.533 15.1591 758.779 15.1591Z" fill="white"/>
<path d="M1054.05 11.3636H1055.6L1056.89 13.0682L1057.23 13.5227L1059.17 16.0909H1057.62L1056.35 14.3864L1056.03 13.9545L1054.05 11.3636ZM1059.64 9.18182C1059.64 10.4091 1059.42 11.4697 1058.98 12.3636C1058.54 13.2576 1057.93 13.947 1057.15 14.4318C1056.38 14.9167 1055.5 15.1591 1054.51 15.1591C1053.51 15.1591 1052.63 14.9167 1051.86 14.4318C1051.09 13.947 1050.48 13.2576 1050.04 12.3636C1049.59 11.4697 1049.37 10.4091 1049.37 9.18182C1049.37 7.95455 1049.59 6.89394 1050.04 6C1050.48 5.10606 1051.09 4.41667 1051.86 3.93182C1052.63 3.44697 1053.51 3.20455 1054.51 3.20455C1055.5 3.20455 1056.38 3.44697 1057.15 3.93182C1057.93 4.41667 1058.54 5.10606 1058.98 6C1059.42 6.89394 1059.64 7.95455 1059.64 9.18182ZM1058.28 9.18182C1058.28 8.17424 1058.11 7.32386 1057.77 6.63068C1057.44 5.9375 1056.99 5.41288 1056.42 5.05682C1055.85 4.70076 1055.21 4.52273 1054.51 4.52273C1053.8 4.52273 1053.16 4.70076 1052.59 5.05682C1052.02 5.41288 1051.57 5.9375 1051.23 6.63068C1050.9 7.32386 1050.73 8.17424 1050.73 9.18182C1050.73 10.1894 1050.9 11.0398 1051.23 11.733C1051.57 12.4261 1052.02 12.9508 1052.59 13.3068C1053.16 13.6629 1053.8 13.8409 1054.51 13.8409C1055.21 13.8409 1055.85 13.6629 1056.42 13.3068C1056.99 12.9508 1057.44 12.4261 1057.77 11.733C1058.11 11.0398 1058.28 10.1894 1058.28 9.18182ZM1061.54 12.6136V11.4545L1066.65 3.36364H1067.49V5.15909H1066.92L1063.06 11.2727V11.3636H1069.94V12.6136H1061.54ZM1067.01 15V12.2614V11.7216V3.36364H1068.35V15H1067.01Z" fill="white"/>
<path d="M355.972 262.818V273H354.74V263.912H349.609V273H348.376V262.818H355.972ZM360.548 273.179C360.064 273.179 359.625 273.088 359.23 272.906C358.836 272.72 358.522 272.453 358.29 272.105C358.058 271.754 357.942 271.33 357.942 270.832C357.942 270.395 358.029 270.04 358.201 269.768C358.373 269.493 358.604 269.278 358.892 269.122C359.18 268.966 359.499 268.85 359.847 268.774C360.198 268.695 360.551 268.632 360.906 268.585C361.37 268.526 361.746 268.481 362.034 268.451C362.326 268.418 362.538 268.363 362.67 268.287C362.806 268.211 362.874 268.078 362.874 267.889V267.849C362.874 267.359 362.74 266.978 362.472 266.706C362.206 266.434 361.804 266.298 361.263 266.298C360.703 266.298 360.264 266.421 359.946 266.666C359.628 266.911 359.404 267.173 359.275 267.452L358.161 267.054C358.36 266.59 358.625 266.229 358.957 265.97C359.291 265.708 359.656 265.526 360.05 265.423C360.448 265.317 360.839 265.264 361.224 265.264C361.469 265.264 361.751 265.294 362.069 265.354C362.39 265.41 362.7 265.528 362.999 265.707C363.3 265.886 363.55 266.156 363.749 266.517C363.948 266.878 364.048 267.362 364.048 267.969V273H362.874V271.966H362.815C362.735 272.132 362.603 272.309 362.417 272.498C362.231 272.687 361.984 272.848 361.676 272.98C361.368 273.113 360.992 273.179 360.548 273.179ZM360.727 272.125C361.191 272.125 361.582 272.034 361.9 271.852C362.221 271.669 362.463 271.434 362.626 271.146C362.791 270.857 362.874 270.554 362.874 270.236V269.162C362.825 269.222 362.715 269.276 362.546 269.326C362.38 269.372 362.188 269.414 361.969 269.45C361.754 269.483 361.544 269.513 361.338 269.54C361.136 269.563 360.972 269.583 360.846 269.599C360.541 269.639 360.256 269.704 359.991 269.793C359.729 269.879 359.517 270.01 359.354 270.186C359.195 270.358 359.116 270.594 359.116 270.892C359.116 271.3 359.267 271.608 359.568 271.817C359.873 272.022 360.259 272.125 360.727 272.125ZM366.189 275.864V265.364H367.323V266.577H367.462C367.548 266.444 367.667 266.275 367.82 266.07C367.976 265.861 368.198 265.675 368.486 265.513C368.778 265.347 369.172 265.264 369.669 265.264C370.312 265.264 370.879 265.425 371.369 265.746C371.86 266.068 372.243 266.524 372.518 267.114C372.793 267.704 372.931 268.4 372.931 269.202C372.931 270.01 372.793 270.711 372.518 271.305C372.243 271.895 371.862 272.352 371.374 272.677C370.887 272.998 370.325 273.159 369.689 273.159C369.199 273.159 368.806 273.078 368.511 272.915C368.216 272.75 367.989 272.562 367.83 272.354C367.671 272.142 367.548 271.966 367.462 271.827H367.362V275.864H366.189ZM367.343 269.182C367.343 269.759 367.427 270.267 367.596 270.708C367.765 271.146 368.012 271.489 368.337 271.737C368.662 271.982 369.059 272.105 369.53 272.105C370.021 272.105 370.43 271.976 370.758 271.717C371.089 271.455 371.338 271.104 371.504 270.663C371.673 270.219 371.757 269.725 371.757 269.182C371.757 268.645 371.674 268.161 371.509 267.73C371.346 267.296 371.099 266.953 370.768 266.701C370.44 266.446 370.027 266.318 369.53 266.318C369.053 266.318 368.652 266.439 368.327 266.681C368.002 266.92 367.757 267.254 367.591 267.685C367.425 268.113 367.343 268.612 367.343 269.182ZM373.722 266.457V265.364H379.927V266.457H377.421V273H376.248V266.457H373.722ZM386.749 268.645V269.739H382.533V268.645H386.749ZM382.812 265.364V273H381.638V265.364H382.812ZM387.644 265.364V273H386.471V265.364H387.644ZM392.988 273.159C392.253 273.159 391.618 272.997 391.084 272.672C390.554 272.344 390.145 271.886 389.856 271.3C389.571 270.71 389.429 270.024 389.429 269.241C389.429 268.459 389.571 267.77 389.856 267.173C390.145 266.573 390.546 266.106 391.059 265.771C391.577 265.433 392.18 265.264 392.869 265.264C393.267 265.264 393.66 265.33 394.047 265.463C394.435 265.596 394.788 265.811 395.106 266.109C395.425 266.404 395.678 266.795 395.867 267.283C396.056 267.77 396.15 268.37 396.15 269.082V269.58H390.264V268.565H394.957C394.957 268.134 394.871 267.75 394.699 267.412C394.53 267.074 394.288 266.807 393.973 266.612C393.661 266.416 393.293 266.318 392.869 266.318C392.402 266.318 391.997 266.434 391.656 266.666C391.318 266.895 391.058 267.193 390.876 267.561C390.693 267.929 390.602 268.323 390.602 268.744V269.42C390.602 269.997 390.702 270.486 390.9 270.887C391.103 271.285 391.383 271.588 391.741 271.797C392.099 272.002 392.515 272.105 392.988 272.105C393.297 272.105 393.575 272.062 393.824 271.976C394.076 271.886 394.293 271.754 394.475 271.578C394.657 271.399 394.798 271.177 394.898 270.912L396.031 271.23C395.912 271.615 395.711 271.953 395.43 272.244C395.148 272.533 394.8 272.758 394.385 272.92C393.971 273.08 393.506 273.159 392.988 273.159ZM397.935 275.864V265.364H399.069V266.577H399.208C399.294 266.444 399.413 266.275 399.566 266.07C399.722 265.861 399.944 265.675 400.232 265.513C400.524 265.347 400.918 265.264 401.415 265.264C402.058 265.264 402.625 265.425 403.116 265.746C403.606 266.068 403.989 266.524 404.264 267.114C404.539 267.704 404.677 268.4 404.677 269.202C404.677 270.01 404.539 270.711 404.264 271.305C403.989 271.895 403.608 272.352 403.121 272.677C402.633 272.998 402.072 273.159 401.435 273.159C400.945 273.159 400.552 273.078 400.257 272.915C399.962 272.75 399.735 272.562 399.576 272.354C399.417 272.142 399.294 271.966 399.208 271.827H399.108V275.864H397.935ZM399.089 269.182C399.089 269.759 399.173 270.267 399.342 270.708C399.511 271.146 399.758 271.489 400.083 271.737C400.408 271.982 400.805 272.105 401.276 272.105C401.767 272.105 402.176 271.976 402.504 271.717C402.836 271.455 403.084 271.104 403.25 270.663C403.419 270.219 403.503 269.725 403.503 269.182C403.503 268.645 403.421 268.161 403.255 267.73C403.092 267.296 402.845 266.953 402.514 266.701C402.186 266.446 401.773 266.318 401.276 266.318C400.799 266.318 400.398 266.439 400.073 266.681C399.748 266.92 399.503 267.254 399.337 267.685C399.171 268.113 399.089 268.612 399.089 269.182ZM409.569 273.159C408.853 273.159 408.236 272.99 407.719 272.652C407.202 272.314 406.805 271.848 406.526 271.255C406.248 270.662 406.108 269.984 406.108 269.222C406.108 268.446 406.251 267.762 406.536 267.168C406.824 266.572 407.225 266.106 407.739 265.771C408.256 265.433 408.859 265.264 409.549 265.264C410.086 265.264 410.57 265.364 411.001 265.562C411.431 265.761 411.784 266.04 412.059 266.398C412.335 266.756 412.505 267.173 412.572 267.651H411.398C411.309 267.303 411.11 266.994 410.802 266.726C410.497 266.454 410.086 266.318 409.569 266.318C409.111 266.318 408.71 266.437 408.366 266.676C408.024 266.911 407.757 267.245 407.565 267.675C407.376 268.103 407.282 268.605 407.282 269.182C407.282 269.772 407.375 270.286 407.56 270.723C407.749 271.161 408.014 271.5 408.356 271.742C408.7 271.984 409.105 272.105 409.569 272.105C409.874 272.105 410.15 272.052 410.399 271.946C410.648 271.84 410.858 271.688 411.03 271.489C411.203 271.29 411.325 271.051 411.398 270.773H412.572C412.505 271.223 412.341 271.629 412.079 271.991C411.821 272.349 411.478 272.634 411.05 272.846C410.626 273.055 410.132 273.159 409.569 273.159ZM413.685 266.457V265.364H419.89V266.457H417.384V273H416.211V266.457H413.685ZM421.601 273V265.364H424.723C425.545 265.364 426.198 265.549 426.682 265.92C427.166 266.292 427.408 266.782 427.408 267.392C427.408 267.856 427.27 268.216 426.995 268.471C426.72 268.723 426.367 268.893 425.936 268.983C426.218 269.023 426.492 269.122 426.757 269.281C427.025 269.44 427.247 269.659 427.423 269.938C427.599 270.213 427.686 270.551 427.686 270.952C427.686 271.343 427.587 271.692 427.388 272.001C427.189 272.309 426.904 272.553 426.533 272.732C426.162 272.911 425.718 273 425.201 273H421.601ZM422.715 271.926H425.201C425.605 271.926 425.922 271.83 426.15 271.638C426.379 271.446 426.493 271.184 426.493 270.852C426.493 270.458 426.379 270.148 426.15 269.923C425.922 269.694 425.605 269.58 425.201 269.58H422.715V271.926ZM422.715 268.565H424.723C425.038 268.565 425.308 268.522 425.534 268.436C425.759 268.347 425.931 268.221 426.051 268.058C426.173 267.893 426.235 267.697 426.235 267.472C426.235 267.15 426.1 266.898 425.832 266.716C425.564 266.53 425.194 266.438 424.723 266.438H422.715V268.565ZM432.565 273.159C431.875 273.159 431.271 272.995 430.75 272.667C430.233 272.339 429.829 271.88 429.537 271.29C429.249 270.7 429.105 270.01 429.105 269.222C429.105 268.426 429.249 267.732 429.537 267.138C429.829 266.545 430.233 266.085 430.75 265.756C431.271 265.428 431.875 265.264 432.565 265.264C433.254 265.264 433.857 265.428 434.374 265.756C434.895 266.085 435.299 266.545 435.588 267.138C435.879 267.732 436.025 268.426 436.025 269.222C436.025 270.01 435.879 270.7 435.588 271.29C435.299 271.88 434.895 272.339 434.374 272.667C433.857 272.995 433.254 273.159 432.565 273.159ZM432.565 272.105C433.088 272.105 433.519 271.971 433.857 271.702C434.195 271.434 434.446 271.081 434.608 270.643C434.771 270.206 434.852 269.732 434.852 269.222C434.852 268.711 434.771 268.236 434.608 267.795C434.446 267.354 434.195 266.998 433.857 266.726C433.519 266.454 433.088 266.318 432.565 266.318C432.041 266.318 431.61 266.454 431.272 266.726C430.934 266.998 430.684 267.354 430.521 267.795C430.359 268.236 430.278 268.711 430.278 269.222C430.278 269.732 430.359 270.206 430.521 270.643C430.684 271.081 430.934 271.434 431.272 271.702C431.61 271.971 432.041 272.105 432.565 272.105ZM441.276 271.051H442.529C442.556 271.396 442.711 271.658 442.996 271.837C443.285 272.016 443.659 272.105 444.12 272.105C444.591 272.105 444.993 272.009 445.328 271.817C445.663 271.621 445.83 271.306 445.83 270.872C445.83 270.617 445.767 270.395 445.641 270.206C445.515 270.014 445.338 269.865 445.109 269.759C444.881 269.652 444.611 269.599 444.299 269.599H442.987V268.545H444.299C444.766 268.545 445.111 268.439 445.333 268.227C445.558 268.015 445.671 267.75 445.671 267.432C445.671 267.09 445.55 266.817 445.308 266.612C445.066 266.403 444.723 266.298 444.279 266.298C443.832 266.298 443.459 266.399 443.161 266.602C442.862 266.8 442.705 267.057 442.688 267.372H441.455C441.469 266.961 441.594 266.598 441.833 266.283C442.072 265.965 442.397 265.717 442.808 265.538C443.219 265.355 443.689 265.264 444.219 265.264C444.756 265.264 445.222 265.359 445.616 265.548C446.014 265.733 446.321 265.987 446.536 266.308C446.755 266.626 446.864 266.988 446.864 267.392C446.864 267.823 446.743 268.171 446.501 268.436C446.259 268.701 445.956 268.89 445.592 269.003V269.082C445.88 269.102 446.13 269.195 446.342 269.361C446.558 269.523 446.725 269.737 446.844 270.002C446.964 270.264 447.023 270.554 447.023 270.872C447.023 271.336 446.899 271.741 446.651 272.085C446.402 272.427 446.061 272.692 445.626 272.881C445.192 273.066 444.697 273.159 444.14 273.159C443.6 273.159 443.116 273.071 442.688 272.896C442.261 272.717 441.921 272.47 441.669 272.155C441.42 271.837 441.29 271.469 441.276 271.051ZM451.933 273V271.906H452.211C452.44 271.906 452.631 271.862 452.783 271.772C452.935 271.679 453.058 271.518 453.151 271.29C453.247 271.058 453.32 270.736 453.37 270.325C453.423 269.911 453.461 269.384 453.484 268.744L453.623 265.364H458.714V273H457.541V266.457H454.737L454.618 269.182C454.591 269.808 454.535 270.36 454.449 270.837C454.366 271.311 454.238 271.709 454.066 272.031C453.897 272.352 453.671 272.594 453.39 272.756C453.108 272.919 452.755 273 452.331 273H451.933ZM460.867 273V265.364H462.04V273H460.867ZM461.463 264.091C461.235 264.091 461.038 264.013 460.872 263.857C460.709 263.701 460.628 263.514 460.628 263.295C460.628 263.077 460.709 262.889 460.872 262.734C461.038 262.578 461.235 262.5 461.463 262.5C461.692 262.5 461.888 262.578 462.05 262.734C462.216 262.889 462.299 263.077 462.299 263.295C462.299 263.514 462.216 263.701 462.05 263.857C461.888 264.013 461.692 264.091 461.463 264.091ZM463.374 275.188V271.906H464.01C464.166 271.744 464.3 271.568 464.413 271.379C464.526 271.19 464.623 270.967 464.706 270.708C464.792 270.446 464.865 270.128 464.925 269.754C464.985 269.376 465.038 268.92 465.084 268.386L465.343 265.364H470.195V271.906H471.368V275.188H470.195V273H464.547V275.188H463.374ZM465.343 271.906H469.021V266.457H466.436L466.237 268.386C466.155 269.185 466.052 269.883 465.929 270.479C465.807 271.076 465.611 271.552 465.343 271.906ZM474.099 271.27L477.778 265.364H479.13V273H477.957V267.094L474.298 273H472.925V265.364H474.099V271.27ZM481.279 275.864V265.364H482.412V266.577H482.552C482.638 266.444 482.757 266.275 482.91 266.07C483.065 265.861 483.287 265.675 483.576 265.513C483.867 265.347 484.262 265.264 484.759 265.264C485.402 265.264 485.969 265.425 486.459 265.746C486.95 266.068 487.333 266.524 487.608 267.114C487.883 267.704 488.02 268.4 488.02 269.202C488.02 270.01 487.883 270.711 487.608 271.305C487.333 271.895 486.952 272.352 486.464 272.677C485.977 272.998 485.415 273.159 484.779 273.159C484.288 273.159 483.896 273.078 483.601 272.915C483.306 272.75 483.079 272.562 482.92 272.354C482.76 272.142 482.638 271.966 482.552 271.827H482.452V275.864H481.279ZM482.432 269.182C482.432 269.759 482.517 270.267 482.686 270.708C482.855 271.146 483.102 271.489 483.427 271.737C483.751 271.982 484.149 272.105 484.62 272.105C485.11 272.105 485.52 271.976 485.848 271.717C486.179 271.455 486.428 271.104 486.594 270.663C486.763 270.219 486.847 269.725 486.847 269.182C486.847 268.645 486.764 268.161 486.599 267.73C486.436 267.296 486.189 266.953 485.858 266.701C485.53 266.446 485.117 266.318 484.62 266.318C484.143 266.318 483.742 266.439 483.417 266.681C483.092 266.92 482.847 267.254 482.681 267.685C482.515 268.113 482.432 268.612 482.432 269.182ZM490.292 275.864C490.094 275.864 489.916 275.847 489.76 275.814C489.605 275.784 489.497 275.754 489.437 275.724L489.736 274.69C490.021 274.763 490.273 274.79 490.491 274.77C490.71 274.75 490.904 274.652 491.073 274.477C491.245 274.304 491.403 274.024 491.545 273.636L491.764 273.04L488.94 265.364H490.213L492.321 271.449H492.4L494.508 265.364H495.781L492.54 274.114C492.394 274.508 492.213 274.835 491.998 275.093C491.782 275.355 491.532 275.549 491.247 275.675C490.965 275.801 490.647 275.864 490.292 275.864ZM500.989 268.705V269.798H496.952V268.705H500.989ZM497.946 265.364V273H496.773V265.364H497.946ZM503.335 273.159C502.646 273.159 502.041 272.995 501.521 272.667C501.004 272.339 500.599 271.88 500.308 271.29C500.019 270.7 499.875 270.01 499.875 269.222C499.875 268.426 500.019 267.732 500.308 267.138C500.599 266.545 501.004 266.085 501.521 265.756C502.041 265.428 502.646 265.264 503.335 265.264C504.025 265.264 504.628 265.428 505.145 265.756C505.665 266.085 506.07 266.545 506.358 267.138C506.65 267.732 506.796 268.426 506.796 269.222C506.796 270.01 506.65 270.7 506.358 271.29C506.07 271.88 505.665 272.339 505.145 272.667C504.628 272.995 504.025 273.159 503.335 273.159ZM503.335 272.105C503.859 272.105 504.29 271.971 504.628 271.702C504.966 271.434 505.216 271.081 505.379 270.643C505.541 270.206 505.622 269.732 505.622 269.222C505.622 268.711 505.541 268.236 505.379 267.795C505.216 267.354 504.966 266.998 504.628 266.726C504.29 266.454 503.859 266.318 503.335 266.318C502.812 266.318 502.381 266.454 502.043 266.726C501.705 266.998 501.454 267.354 501.292 267.795C501.13 268.236 501.048 268.711 501.048 269.222C501.048 269.732 501.13 270.206 501.292 270.643C501.454 271.081 501.705 271.434 502.043 271.702C502.381 271.971 502.812 272.105 503.335 272.105ZM514.591 265.364V273H513.418V265.364H514.591ZM514.134 269.003V270.097C513.869 270.196 513.605 270.284 513.343 270.36C513.081 270.433 512.806 270.491 512.518 270.534C512.23 270.574 511.913 270.594 511.568 270.594C510.703 270.594 510.009 270.36 509.485 269.893C508.965 269.425 508.705 268.724 508.705 267.79V265.344H509.878V267.79C509.878 268.181 509.953 268.502 510.102 268.754C510.251 269.006 510.453 269.193 510.708 269.316C510.963 269.439 511.25 269.5 511.568 269.5C512.066 269.5 512.515 269.455 512.916 269.366C513.32 269.273 513.726 269.152 514.134 269.003ZM517.917 271.27L521.596 265.364H522.948V273H521.775V267.094L518.116 273H516.744V265.364H517.917V271.27ZM529.273 271.409L531.938 265.364H533.052L529.751 273H528.796L525.555 265.364H526.648L529.273 271.409ZM526.271 265.364V273H525.097V265.364H526.271ZM532.276 273V265.364H533.45V273H532.276ZM536.771 271.27L540.45 265.364H541.802V273H540.629V267.094L536.969 273H535.597V265.364H536.771V271.27ZM400.811 294.179C400.327 294.179 399.888 294.088 399.494 293.906C399.099 293.72 398.786 293.453 398.554 293.105C398.322 292.754 398.206 292.33 398.206 291.832C398.206 291.395 398.292 291.04 398.465 290.768C398.637 290.493 398.867 290.278 399.156 290.122C399.444 289.966 399.762 289.85 400.11 289.774C400.462 289.695 400.815 289.632 401.169 289.585C401.633 289.526 402.009 289.481 402.298 289.451C402.589 289.418 402.802 289.363 402.934 289.287C403.07 289.211 403.138 289.078 403.138 288.889V288.849C403.138 288.359 403.004 287.978 402.735 287.706C402.47 287.434 402.067 287.298 401.527 287.298C400.967 287.298 400.528 287.421 400.21 287.666C399.892 287.911 399.668 288.173 399.539 288.452L398.425 288.054C398.624 287.59 398.889 287.229 399.22 286.97C399.555 286.708 399.92 286.526 400.314 286.423C400.712 286.317 401.103 286.264 401.487 286.264C401.733 286.264 402.014 286.294 402.333 286.354C402.654 286.41 402.964 286.528 403.262 286.707C403.564 286.886 403.814 287.156 404.013 287.517C404.212 287.878 404.311 288.362 404.311 288.969V294H403.138V292.966H403.078C402.999 293.132 402.866 293.309 402.681 293.498C402.495 293.687 402.248 293.848 401.94 293.98C401.632 294.113 401.255 294.179 400.811 294.179ZM400.99 293.125C401.454 293.125 401.845 293.034 402.164 292.852C402.485 292.669 402.727 292.434 402.889 292.146C403.055 291.857 403.138 291.554 403.138 291.236V290.162C403.088 290.222 402.979 290.276 402.81 290.326C402.644 290.372 402.452 290.414 402.233 290.45C402.018 290.483 401.807 290.513 401.602 290.54C401.4 290.563 401.235 290.583 401.11 290.599C400.805 290.639 400.52 290.704 400.254 290.793C399.993 290.879 399.78 291.01 399.618 291.186C399.459 291.358 399.379 291.594 399.379 291.892C399.379 292.3 399.53 292.608 399.832 292.817C400.137 293.022 400.523 293.125 400.99 293.125ZM411.166 286.364V287.457H407.626V294H406.453V286.364H411.166ZM412.879 296.864V286.364H414.012V287.577H414.151C414.237 287.444 414.357 287.275 414.509 287.07C414.665 286.861 414.887 286.675 415.175 286.513C415.467 286.347 415.862 286.264 416.359 286.264C417.002 286.264 417.568 286.425 418.059 286.746C418.549 287.068 418.932 287.524 419.207 288.114C419.482 288.704 419.62 289.4 419.62 290.202C419.62 291.01 419.482 291.711 419.207 292.305C418.932 292.895 418.551 293.352 418.064 293.677C417.577 293.998 417.015 294.159 416.379 294.159C415.888 294.159 415.495 294.078 415.2 293.915C414.905 293.75 414.678 293.562 414.519 293.354C414.36 293.142 414.237 292.966 414.151 292.827H414.052V296.864H412.879ZM414.032 290.182C414.032 290.759 414.116 291.267 414.286 291.708C414.455 292.146 414.701 292.489 415.026 292.737C415.351 292.982 415.749 293.105 416.219 293.105C416.71 293.105 417.119 292.976 417.447 292.717C417.779 292.455 418.027 292.104 418.193 291.663C418.362 291.219 418.447 290.725 418.447 290.182C418.447 289.645 418.364 289.161 418.198 288.73C418.036 288.296 417.789 287.953 417.457 287.701C417.129 287.446 416.717 287.318 416.219 287.318C415.742 287.318 415.341 287.439 415.016 287.681C414.692 287.92 414.446 288.254 414.281 288.685C414.115 289.113 414.032 289.612 414.032 290.182ZM424.612 294.159C423.876 294.159 423.241 293.997 422.707 293.672C422.177 293.344 421.768 292.886 421.479 292.3C421.194 291.71 421.052 291.024 421.052 290.241C421.052 289.459 421.194 288.77 421.479 288.173C421.768 287.573 422.169 287.106 422.683 286.771C423.2 286.433 423.803 286.264 424.492 286.264C424.89 286.264 425.283 286.33 425.67 286.463C426.058 286.596 426.411 286.811 426.729 287.109C427.048 287.404 427.301 287.795 427.49 288.283C427.679 288.77 427.773 289.37 427.773 290.082V290.58H421.887V289.565H426.58C426.58 289.134 426.494 288.75 426.322 288.412C426.153 288.074 425.911 287.807 425.596 287.612C425.284 287.416 424.916 287.318 424.492 287.318C424.025 287.318 423.621 287.434 423.279 287.666C422.941 287.895 422.681 288.193 422.499 288.561C422.316 288.929 422.225 289.323 422.225 289.744V290.42C422.225 290.997 422.325 291.486 422.523 291.887C422.726 292.285 423.006 292.588 423.364 292.797C423.722 293.002 424.138 293.105 424.612 293.105C424.92 293.105 425.198 293.062 425.447 292.976C425.699 292.886 425.916 292.754 426.098 292.578C426.28 292.399 426.421 292.177 426.521 291.912L427.654 292.23C427.535 292.615 427.334 292.953 427.053 293.244C426.771 293.533 426.423 293.758 426.009 293.92C425.594 294.08 425.129 294.159 424.612 294.159ZM434.271 286.364V287.457H430.732V294H429.558V286.364H434.271ZM437.835 294.179C437.351 294.179 436.912 294.088 436.517 293.906C436.123 293.72 435.81 293.453 435.578 293.105C435.346 292.754 435.23 292.33 435.23 291.832C435.23 291.395 435.316 291.04 435.488 290.768C435.66 290.493 435.891 290.278 436.179 290.122C436.468 289.966 436.786 289.85 437.134 289.774C437.485 289.695 437.838 289.632 438.193 289.585C438.657 289.526 439.033 289.481 439.321 289.451C439.613 289.418 439.825 289.363 439.958 289.287C440.093 289.211 440.161 289.078 440.161 288.889V288.849C440.161 288.359 440.027 287.978 439.759 287.706C439.494 287.434 439.091 287.298 438.551 287.298C437.99 287.298 437.551 287.421 437.233 287.666C436.915 287.911 436.691 288.173 436.562 288.452L435.448 288.054C435.647 287.59 435.912 287.229 436.244 286.97C436.579 286.708 436.943 286.526 437.338 286.423C437.735 286.317 438.126 286.264 438.511 286.264C438.756 286.264 439.038 286.294 439.356 286.354C439.677 286.41 439.987 286.528 440.286 286.707C440.587 286.886 440.838 287.156 441.036 287.517C441.235 287.878 441.335 288.362 441.335 288.969V294H440.161V292.966H440.102C440.022 293.132 439.89 293.309 439.704 293.498C439.518 293.687 439.271 293.848 438.963 293.98C438.655 294.113 438.279 294.179 437.835 294.179ZM438.014 293.125C438.478 293.125 438.869 293.034 439.187 292.852C439.508 292.669 439.75 292.434 439.913 292.146C440.079 291.857 440.161 291.554 440.161 291.236V290.162C440.112 290.222 440.002 290.276 439.833 290.326C439.668 290.372 439.475 290.414 439.257 290.45C439.041 290.483 438.831 290.513 438.625 290.54C438.423 290.563 438.259 290.583 438.133 290.599C437.828 290.639 437.543 290.704 437.278 290.793C437.016 290.879 436.804 291.01 436.642 291.186C436.482 291.358 436.403 291.594 436.403 291.892C436.403 292.3 436.554 292.608 436.855 292.817C437.16 293.022 437.546 293.125 438.014 293.125ZM442.437 287.457V286.364H448.642V287.457H446.136V294H444.963V287.457H442.437ZM453.059 294.159C452.37 294.159 451.765 293.995 451.244 293.667C450.727 293.339 450.323 292.88 450.031 292.29C449.743 291.7 449.599 291.01 449.599 290.222C449.599 289.426 449.743 288.732 450.031 288.138C450.323 287.545 450.727 287.085 451.244 286.756C451.765 286.428 452.37 286.264 453.059 286.264C453.748 286.264 454.352 286.428 454.869 286.756C455.389 287.085 455.793 287.545 456.082 288.138C456.373 288.732 456.519 289.426 456.519 290.222C456.519 291.01 456.373 291.7 456.082 292.29C455.793 292.88 455.389 293.339 454.869 293.667C454.352 293.995 453.748 294.159 453.059 294.159ZM453.059 293.105C453.583 293.105 454.013 292.971 454.352 292.702C454.69 292.434 454.94 292.081 455.102 291.643C455.265 291.206 455.346 290.732 455.346 290.222C455.346 289.711 455.265 289.236 455.102 288.795C454.94 288.354 454.69 287.998 454.352 287.726C454.013 287.454 453.583 287.318 453.059 287.318C452.535 287.318 452.104 287.454 451.766 287.726C451.428 287.998 451.178 288.354 451.016 288.795C450.853 289.236 450.772 289.711 450.772 290.222C450.772 290.732 450.853 291.206 451.016 291.643C451.178 292.081 451.428 292.434 451.766 292.702C452.104 292.971 452.535 293.105 453.059 293.105ZM458.31 296.864V286.364H459.444V287.577H459.583C459.669 287.444 459.788 287.275 459.941 287.07C460.097 286.861 460.319 286.675 460.607 286.513C460.899 286.347 461.293 286.264 461.79 286.264C462.433 286.264 463 286.425 463.491 286.746C463.981 287.068 464.364 287.524 464.639 288.114C464.914 288.704 465.052 289.4 465.052 290.202C465.052 291.01 464.914 291.711 464.639 292.305C464.364 292.895 463.983 293.352 463.496 293.677C463.008 293.998 462.447 294.159 461.81 294.159C461.32 294.159 460.927 294.078 460.632 293.915C460.337 293.75 460.11 293.562 459.951 293.354C459.792 293.142 459.669 292.966 459.583 292.827H459.483V296.864H458.31ZM459.464 290.182C459.464 290.759 459.548 291.267 459.717 291.708C459.886 292.146 460.133 292.489 460.458 292.737C460.783 292.982 461.18 293.105 461.651 293.105C462.142 293.105 462.551 292.976 462.879 292.717C463.211 292.455 463.459 292.104 463.625 291.663C463.794 291.219 463.878 290.725 463.878 290.182C463.878 289.645 463.796 289.161 463.63 288.73C463.467 288.296 463.22 287.953 462.889 287.701C462.561 287.446 462.148 287.318 461.651 287.318C461.174 287.318 460.773 287.439 460.448 287.681C460.123 287.92 459.878 288.254 459.712 288.685C459.546 289.113 459.464 289.612 459.464 290.182ZM469.089 294.179C468.605 294.179 468.166 294.088 467.771 293.906C467.377 293.72 467.064 293.453 466.831 293.105C466.599 292.754 466.483 292.33 466.483 291.832C466.483 291.395 466.57 291.04 466.742 290.768C466.914 290.493 467.145 290.278 467.433 290.122C467.721 289.966 468.04 289.85 468.388 289.774C468.739 289.695 469.092 289.632 469.447 289.585C469.911 289.526 470.287 289.481 470.575 289.451C470.867 289.418 471.079 289.363 471.211 289.287C471.347 289.211 471.415 289.078 471.415 288.889V288.849C471.415 288.359 471.281 287.978 471.013 287.706C470.747 287.434 470.345 287.298 469.805 287.298C469.244 287.298 468.805 287.421 468.487 287.666C468.169 287.911 467.945 288.173 467.816 288.452L466.702 288.054C466.901 287.59 467.166 287.229 467.498 286.97C467.832 286.708 468.197 286.526 468.591 286.423C468.989 286.317 469.38 286.264 469.765 286.264C470.01 286.264 470.292 286.294 470.61 286.354C470.931 286.41 471.241 286.528 471.54 286.707C471.841 286.886 472.091 287.156 472.29 287.517C472.489 287.878 472.589 288.362 472.589 288.969V294H471.415V292.966H471.356C471.276 293.132 471.144 293.309 470.958 293.498C470.772 293.687 470.525 293.848 470.217 293.98C469.909 294.113 469.533 294.179 469.089 294.179ZM469.268 293.125C469.732 293.125 470.123 293.034 470.441 292.852C470.762 292.669 471.004 292.434 471.167 292.146C471.332 291.857 471.415 291.554 471.415 291.236V290.162C471.366 290.222 471.256 290.276 471.087 290.326C470.921 290.372 470.729 290.414 470.51 290.45C470.295 290.483 470.085 290.513 469.879 290.54C469.677 290.563 469.513 290.583 469.387 290.599C469.082 290.639 468.797 290.704 468.532 290.793C468.27 290.879 468.058 291.01 467.895 291.186C467.736 291.358 467.657 291.594 467.657 291.892C467.657 292.3 467.808 292.608 468.109 292.817C468.414 293.022 468.8 293.125 469.268 293.125ZM478.906 292.409L481.571 286.364H482.685L479.384 294H478.429L475.188 286.364H476.281L478.906 292.409ZM475.903 286.364V294H474.73V286.364H475.903ZM481.909 294V286.364H483.082V294H481.909ZM486.403 292.27L490.082 286.364H491.435V294H490.261V288.094L486.602 294H485.23V286.364H486.403V292.27Z" fill="white"/>
<path d="M662.085 263.912V262.818H669.722V263.912H666.52V273H665.287V263.912H662.085ZM673.46 273.159C672.771 273.159 672.166 272.995 671.646 272.667C671.129 272.339 670.724 271.88 670.433 271.29C670.144 270.7 670 270.01 670 269.222C670 268.426 670.144 267.732 670.433 267.138C670.724 266.545 671.129 266.085 671.646 265.756C672.166 265.428 672.771 265.264 673.46 265.264C674.15 265.264 674.753 265.428 675.27 265.756C675.79 266.085 676.195 266.545 676.483 267.138C676.775 267.732 676.92 268.426 676.92 269.222C676.92 270.01 676.775 270.7 676.483 271.29C676.195 271.88 675.79 272.339 675.27 272.667C674.753 272.995 674.15 273.159 673.46 273.159ZM673.46 272.105C673.984 272.105 674.415 271.971 674.753 271.702C675.091 271.434 675.341 271.081 675.504 270.643C675.666 270.206 675.747 269.732 675.747 269.222C675.747 268.711 675.666 268.236 675.504 267.795C675.341 267.354 675.091 266.998 674.753 266.726C674.415 266.454 673.984 266.318 673.46 266.318C672.937 266.318 672.506 266.454 672.168 266.726C671.83 266.998 671.579 267.354 671.417 267.795C671.255 268.236 671.173 268.711 671.173 269.222C671.173 269.732 671.255 270.206 671.417 270.643C671.579 271.081 671.83 271.434 672.168 271.702C672.506 271.971 672.937 272.105 673.46 272.105ZM678.711 273V265.364H679.885V268.685H680.66L683.405 265.364H684.916L681.834 269.043L684.956 273H683.444L680.939 269.778H679.885V273H678.711ZM689.118 273.159C688.382 273.159 687.748 272.997 687.214 272.672C686.684 272.344 686.275 271.886 685.986 271.3C685.701 270.71 685.559 270.024 685.559 269.241C685.559 268.459 685.701 267.77 685.986 267.173C686.275 266.573 686.676 266.106 687.189 265.771C687.706 265.433 688.31 265.264 688.999 265.264C689.397 265.264 689.789 265.33 690.177 265.463C690.565 265.596 690.918 265.811 691.236 266.109C691.554 266.404 691.808 266.795 691.997 267.283C692.186 267.77 692.28 268.37 692.28 269.082V269.58H686.394V268.565H691.087C691.087 268.134 691.001 267.75 690.829 267.412C690.659 267.074 690.418 266.807 690.103 266.612C689.791 266.416 689.423 266.318 688.999 266.318C688.532 266.318 688.127 266.434 687.786 266.666C687.448 266.895 687.188 267.193 687.005 267.561C686.823 267.929 686.732 268.323 686.732 268.744V269.42C686.732 269.997 686.831 270.486 687.03 270.887C687.232 271.285 687.512 271.588 687.87 271.797C688.228 272.002 688.644 272.105 689.118 272.105C689.427 272.105 689.705 272.062 689.954 271.976C690.205 271.886 690.422 271.754 690.605 271.578C690.787 271.399 690.928 271.177 691.027 270.912L692.161 271.23C692.042 271.615 691.841 271.953 691.559 272.244C691.278 272.533 690.93 272.758 690.515 272.92C690.101 273.08 689.635 273.159 689.118 273.159ZM699.176 268.645V269.739H694.96V268.645H699.176ZM695.238 265.364V273H694.065V265.364H695.238ZM700.071 265.364V273H698.897V265.364H700.071ZM702.213 273V265.364H703.387V273H702.213ZM702.81 264.091C702.581 264.091 702.384 264.013 702.218 263.857C702.056 263.701 701.975 263.514 701.975 263.295C701.975 263.077 702.056 262.889 702.218 262.734C702.384 262.578 702.581 262.5 702.81 262.5C703.039 262.5 703.234 262.578 703.397 262.734C703.562 262.889 703.645 263.077 703.645 263.295C703.645 263.514 703.562 263.701 703.397 263.857C703.234 264.013 703.039 264.091 702.81 264.091ZM705.058 271.051H706.311C706.338 271.396 706.494 271.658 706.779 271.837C707.067 272.016 707.441 272.105 707.902 272.105C708.373 272.105 708.776 272.009 709.11 271.817C709.445 271.621 709.612 271.306 709.612 270.872C709.612 270.617 709.549 270.395 709.424 270.206C709.298 270.014 709.12 269.865 708.892 269.759C708.663 269.652 708.393 269.599 708.081 269.599H706.769V268.545H708.081C708.549 268.545 708.893 268.439 709.115 268.227C709.341 268.015 709.453 267.75 709.453 267.432C709.453 267.09 709.332 266.817 709.09 266.612C708.848 266.403 708.505 266.298 708.061 266.298C707.614 266.298 707.241 266.399 706.943 266.602C706.644 266.8 706.487 267.057 706.47 267.372H705.237C705.251 266.961 705.377 266.598 705.615 266.283C705.854 265.965 706.179 265.717 706.59 265.538C707.001 265.355 707.471 265.264 708.002 265.264C708.539 265.264 709.004 265.359 709.399 265.548C709.796 265.733 710.103 265.987 710.318 266.308C710.537 266.626 710.647 266.988 710.647 267.392C710.647 267.823 710.526 268.171 710.284 268.436C710.042 268.701 709.738 268.89 709.374 269.003V269.082C709.662 269.102 709.912 269.195 710.124 269.361C710.34 269.523 710.507 269.737 710.627 270.002C710.746 270.264 710.806 270.554 710.806 270.872C710.806 271.336 710.681 271.741 710.433 272.085C710.184 272.427 709.843 272.692 709.409 272.881C708.974 273.066 708.479 273.159 707.922 273.159C707.382 273.159 706.898 273.071 706.47 272.896C706.043 272.717 705.703 272.47 705.451 272.155C705.203 271.837 705.072 271.469 705.058 271.051ZM714.701 273.179C714.217 273.179 713.778 273.088 713.383 272.906C712.989 272.72 712.676 272.453 712.444 272.105C712.212 271.754 712.096 271.33 712.096 270.832C712.096 270.395 712.182 270.04 712.354 269.768C712.527 269.493 712.757 269.278 713.045 269.122C713.334 268.966 713.652 268.85 714 268.774C714.351 268.695 714.704 268.632 715.059 268.585C715.523 268.526 715.899 268.481 716.187 268.451C716.479 268.418 716.691 268.363 716.824 268.287C716.96 268.211 717.028 268.078 717.028 267.889V267.849C717.028 267.359 716.893 266.978 716.625 266.706C716.36 266.434 715.957 266.298 715.417 266.298C714.857 266.298 714.417 266.421 714.099 266.666C713.781 266.911 713.557 267.173 713.428 267.452L712.314 267.054C712.513 266.59 712.778 266.229 713.11 265.97C713.445 265.708 713.809 265.526 714.204 265.423C714.601 265.317 714.993 265.264 715.377 265.264C715.622 265.264 715.904 265.294 716.222 265.354C716.544 265.41 716.854 265.528 717.152 265.707C717.453 265.886 717.704 266.156 717.903 266.517C718.101 266.878 718.201 267.362 718.201 267.969V273H717.028V271.966H716.968C716.888 272.132 716.756 272.309 716.57 272.498C716.385 272.687 716.138 272.848 715.829 272.98C715.521 273.113 715.145 273.179 714.701 273.179ZM714.88 272.125C715.344 272.125 715.735 272.034 716.053 271.852C716.375 271.669 716.617 271.434 716.779 271.146C716.945 270.857 717.028 270.554 717.028 270.236V269.162C716.978 269.222 716.868 269.276 716.699 269.326C716.534 269.372 716.341 269.414 716.123 269.45C715.907 269.483 715.697 269.513 715.491 269.54C715.289 269.563 715.125 269.583 714.999 269.599C714.694 269.639 714.409 269.704 714.144 269.793C713.882 269.879 713.67 270.01 713.508 270.186C713.349 270.358 713.269 270.594 713.269 270.892C713.269 271.3 713.42 271.608 713.721 271.817C714.026 272.022 714.412 272.125 714.88 272.125ZM726.348 265.364V271.906H727.422V275.466H726.249V273H720.342V265.364H721.516V271.906H725.175V265.364H726.348ZM729.229 273V265.364H730.402V273H729.229ZM729.826 264.091C729.597 264.091 729.4 264.013 729.234 263.857C729.072 263.701 728.99 263.514 728.99 263.295C728.99 263.077 729.072 262.889 729.234 262.734C729.4 262.578 729.597 262.5 729.826 262.5C730.054 262.5 730.25 262.578 730.412 262.734C730.578 262.889 730.661 263.077 730.661 263.295C730.661 263.514 730.578 263.701 730.412 263.857C730.25 264.013 730.054 264.091 729.826 264.091ZM737.145 273V266.438H735.117C734.659 266.438 734.3 266.544 734.038 266.756C733.776 266.968 733.645 267.259 733.645 267.631C733.645 267.995 733.763 268.282 733.998 268.491C734.237 268.7 734.563 268.804 734.977 268.804H737.443V269.898H734.977C734.46 269.898 734.015 269.807 733.64 269.624C733.266 269.442 732.977 269.182 732.775 268.844C732.573 268.502 732.472 268.098 732.472 267.631C732.472 267.16 732.578 266.756 732.79 266.418C733.002 266.08 733.305 265.819 733.7 265.637C734.098 265.455 734.57 265.364 735.117 265.364H738.259V273H737.145ZM732.054 273L734.222 269.202H735.495L733.327 273H732.054ZM743.913 266.457V265.364H750.117V266.457H747.612V273H746.438V266.457H743.913ZM751.829 275.864V265.364H752.962V266.577H753.101C753.188 266.444 753.307 266.275 753.459 266.07C753.615 265.861 753.837 265.675 754.126 265.513C754.417 265.347 754.812 265.264 755.309 265.264C755.952 265.264 756.519 265.425 757.009 265.746C757.5 266.068 757.882 266.524 758.158 267.114C758.433 267.704 758.57 268.4 758.57 269.202C758.57 270.01 758.433 270.711 758.158 271.305C757.882 271.895 757.501 272.352 757.014 272.677C756.527 272.998 755.965 273.159 755.329 273.159C754.838 273.159 754.445 273.078 754.15 272.915C753.855 272.75 753.628 272.562 753.469 272.354C753.31 272.142 753.188 271.966 753.101 271.827H753.002V275.864H751.829ZM752.982 269.182C752.982 269.759 753.067 270.267 753.236 270.708C753.405 271.146 753.652 271.489 753.976 271.737C754.301 271.982 754.699 272.105 755.17 272.105C755.66 272.105 756.069 271.976 756.398 271.717C756.729 271.455 756.978 271.104 757.143 270.663C757.312 270.219 757.397 269.725 757.397 269.182C757.397 268.645 757.314 268.161 757.148 267.73C756.986 267.296 756.739 266.953 756.408 266.701C756.079 266.446 755.667 266.318 755.17 266.318C754.692 266.318 754.291 266.439 753.966 266.681C753.642 266.92 753.396 267.254 753.231 267.685C753.065 268.113 752.982 268.612 752.982 269.182ZM763.562 273.159C762.826 273.159 762.191 272.997 761.658 272.672C761.127 272.344 760.718 271.886 760.43 271.3C760.144 270.71 760.002 270.024 760.002 269.241C760.002 268.459 760.144 267.77 760.43 267.173C760.718 266.573 761.119 266.106 761.633 265.771C762.15 265.433 762.753 265.264 763.442 265.264C763.84 265.264 764.233 265.33 764.621 265.463C765.008 265.596 765.361 265.811 765.68 266.109C765.998 266.404 766.251 266.795 766.44 267.283C766.629 267.77 766.724 268.37 766.724 269.082V269.58H760.837V268.565H765.53C765.53 268.134 765.444 267.75 765.272 267.412C765.103 267.074 764.861 266.807 764.546 266.612C764.234 266.416 763.867 266.318 763.442 266.318C762.975 266.318 762.571 266.434 762.229 266.666C761.891 266.895 761.631 267.193 761.449 267.561C761.266 267.929 761.175 268.323 761.175 268.744V269.42C761.175 269.997 761.275 270.486 761.474 270.887C761.676 271.285 761.956 271.588 762.314 271.797C762.672 272.002 763.088 272.105 763.562 272.105C763.87 272.105 764.148 272.062 764.397 271.976C764.649 271.886 764.866 271.754 765.048 271.578C765.23 271.399 765.371 271.177 765.471 270.912L766.604 271.23C766.485 271.615 766.284 271.953 766.003 272.244C765.721 272.533 765.373 272.758 764.959 272.92C764.544 273.08 764.079 273.159 763.562 273.159ZM768.508 273V265.364H769.682V268.685H770.457L773.202 265.364H774.713L771.631 269.043L774.753 273H773.241L770.736 269.778H769.682V273H768.508ZM776.028 273V265.364H777.201V273H776.028ZM776.624 264.091C776.396 264.091 776.199 264.013 776.033 263.857C775.87 263.701 775.789 263.514 775.789 263.295C775.789 263.077 775.87 262.889 776.033 262.734C776.199 262.578 776.396 262.5 776.624 262.5C776.853 262.5 777.049 262.578 777.211 262.734C777.377 262.889 777.46 263.077 777.46 263.295C777.46 263.514 777.377 263.701 777.211 263.857C777.049 264.013 776.853 264.091 776.624 264.091ZM779.35 273V265.364H782.472C783.294 265.364 783.947 265.549 784.431 265.92C784.915 266.292 785.157 266.782 785.157 267.392C785.157 267.856 785.019 268.216 784.744 268.471C784.469 268.723 784.116 268.893 783.685 268.983C783.967 269.023 784.241 269.122 784.506 269.281C784.774 269.44 784.996 269.659 785.172 269.938C785.348 270.213 785.435 270.551 785.435 270.952C785.435 271.343 785.336 271.692 785.137 272.001C784.938 272.309 784.653 272.553 784.282 272.732C783.911 272.911 783.467 273 782.95 273H779.35ZM780.464 271.926H782.95C783.354 271.926 783.67 271.83 783.899 271.638C784.128 271.446 784.242 271.184 784.242 270.852C784.242 270.458 784.128 270.148 783.899 269.923C783.67 269.694 783.354 269.58 782.95 269.58H780.464V271.926ZM780.464 268.565H782.472C782.787 268.565 783.057 268.522 783.283 268.436C783.508 268.347 783.68 268.221 783.8 268.058C783.922 267.893 783.984 267.697 783.984 267.472C783.984 267.15 783.849 266.898 783.581 266.716C783.313 266.53 782.943 266.438 782.472 266.438H780.464V268.565ZM791.149 273V265.364H792.322V273H791.149ZM791.746 264.091C791.517 264.091 791.32 264.013 791.154 263.857C790.992 263.701 790.91 263.514 790.91 263.295C790.91 263.077 790.992 262.889 791.154 262.734C791.32 262.578 791.517 262.5 791.746 262.5C791.974 262.5 792.17 262.578 792.332 262.734C792.498 262.889 792.581 263.077 792.581 263.295C792.581 263.514 792.498 263.701 792.332 263.857C792.17 264.013 791.974 264.091 791.746 264.091ZM797.931 271.051H799.184C799.211 271.396 799.367 271.658 799.652 271.837C799.94 272.016 800.315 272.105 800.775 272.105C801.246 272.105 801.649 272.009 801.983 271.817C802.318 271.621 802.485 271.306 802.485 270.872C802.485 270.617 802.422 270.395 802.297 270.206C802.171 270.014 801.993 269.865 801.765 269.759C801.536 269.652 801.266 269.599 800.954 269.599H799.642V268.545H800.954C801.422 268.545 801.766 268.439 801.988 268.227C802.214 268.015 802.326 267.75 802.326 267.432C802.326 267.09 802.205 266.817 801.963 266.612C801.722 266.403 801.378 266.298 800.934 266.298C800.487 266.298 800.114 266.399 799.816 266.602C799.517 266.8 799.36 267.057 799.343 267.372H798.11C798.124 266.961 798.25 266.598 798.488 266.283C798.727 265.965 799.052 265.717 799.463 265.538C799.874 265.355 800.344 265.264 800.875 265.264C801.412 265.264 801.877 265.359 802.272 265.548C802.669 265.733 802.976 265.987 803.191 266.308C803.41 266.626 803.52 266.988 803.52 267.392C803.52 267.823 803.399 268.171 803.157 268.436C802.915 268.701 802.611 268.89 802.247 269.003V269.082C802.535 269.102 802.785 269.195 802.998 269.361C803.213 269.523 803.38 269.737 803.5 270.002C803.619 270.264 803.679 270.554 803.679 270.872C803.679 271.336 803.554 271.741 803.306 272.085C803.057 272.427 802.716 272.692 802.282 272.881C801.847 273.066 801.352 273.159 800.795 273.159C800.255 273.159 799.771 273.071 799.343 272.896C798.916 272.717 798.576 272.47 798.324 272.155C798.076 271.837 797.945 271.469 797.931 271.051ZM807.574 273.179C807.09 273.179 806.651 273.088 806.256 272.906C805.862 272.72 805.549 272.453 805.317 272.105C805.085 271.754 804.969 271.33 804.969 270.832C804.969 270.395 805.055 270.04 805.227 269.768C805.4 269.493 805.63 269.278 805.918 269.122C806.207 268.966 806.525 268.85 806.873 268.774C807.224 268.695 807.577 268.632 807.932 268.585C808.396 268.526 808.772 268.481 809.06 268.451C809.352 268.418 809.564 268.363 809.697 268.287C809.833 268.211 809.901 268.078 809.901 267.889V267.849C809.901 267.359 809.766 266.978 809.498 266.706C809.233 266.434 808.83 266.298 808.29 266.298C807.73 266.298 807.291 266.421 806.972 266.666C806.654 266.911 806.43 267.173 806.301 267.452L805.188 267.054C805.386 266.59 805.652 266.229 805.983 265.97C806.318 265.708 806.682 265.526 807.077 265.423C807.474 265.317 807.866 265.264 808.25 265.264C808.495 265.264 808.777 265.294 809.095 265.354C809.417 265.41 809.727 265.528 810.025 265.707C810.326 265.886 810.577 266.156 810.776 266.517C810.974 266.878 811.074 267.362 811.074 267.969V273H809.901V271.966H809.841C809.761 272.132 809.629 272.309 809.443 272.498C809.258 272.687 809.011 272.848 808.702 272.98C808.394 273.113 808.018 273.179 807.574 273.179ZM807.753 272.125C808.217 272.125 808.608 272.034 808.926 271.852C809.248 271.669 809.49 271.434 809.652 271.146C809.818 270.857 809.901 270.554 809.901 270.236V269.162C809.851 269.222 809.742 269.276 809.572 269.326C809.407 269.372 809.215 269.414 808.996 269.45C808.78 269.483 808.57 269.513 808.364 269.54C808.162 269.563 807.998 269.583 807.872 269.599C807.567 269.639 807.282 269.704 807.017 269.793C806.755 269.879 806.543 270.01 806.381 270.186C806.222 270.358 806.142 270.594 806.142 270.892C806.142 271.3 806.293 271.608 806.594 271.817C806.899 272.022 807.286 272.125 807.753 272.125ZM813.215 273V265.364H819.221V273H818.048V266.457H814.389V273H813.215ZM821.846 275.864C821.647 275.864 821.47 275.847 821.314 275.814C821.158 275.784 821.051 275.754 820.991 275.724L821.289 274.69C821.574 274.763 821.826 274.79 822.045 274.77C822.264 274.75 822.458 274.652 822.627 274.477C822.799 274.304 822.956 274.024 823.099 273.636L823.318 273.04L820.494 265.364H821.767L823.874 271.449H823.954L826.062 265.364H827.335L824.093 274.114C823.947 274.508 823.767 274.835 823.551 275.093C823.336 275.355 823.086 275.549 822.801 275.675C822.519 275.801 822.201 275.864 821.846 275.864ZM831.712 273.159C830.996 273.159 830.38 272.99 829.863 272.652C829.346 272.314 828.948 271.848 828.67 271.255C828.391 270.662 828.252 269.984 828.252 269.222C828.252 268.446 828.394 267.762 828.68 267.168C828.968 266.572 829.369 266.106 829.883 265.771C830.4 265.433 831.003 265.264 831.692 265.264C832.229 265.264 832.713 265.364 833.144 265.562C833.575 265.761 833.928 266.04 834.203 266.398C834.478 266.756 834.649 267.173 834.715 267.651H833.542C833.452 267.303 833.253 266.994 832.945 266.726C832.64 266.454 832.229 266.318 831.712 266.318C831.255 266.318 830.854 266.437 830.509 266.676C830.168 266.911 829.901 267.245 829.709 267.675C829.52 268.103 829.425 268.605 829.425 269.182C829.425 269.772 829.518 270.286 829.704 270.723C829.893 271.161 830.158 271.5 830.499 271.742C830.844 271.984 831.248 272.105 831.712 272.105C832.017 272.105 832.294 272.052 832.542 271.946C832.791 271.84 833.002 271.688 833.174 271.489C833.346 271.29 833.469 271.051 833.542 270.773H834.715C834.649 271.223 834.485 271.629 834.223 271.991C833.964 272.349 833.621 272.634 833.194 272.846C832.769 273.055 832.276 273.159 831.712 273.159ZM836.43 273V265.364H837.604V268.685H838.379L841.123 265.364H842.635L839.552 269.043L842.675 273H841.163L838.658 269.778H837.604V273H836.43ZM742.98 283.818V294H741.748V283.818H742.98ZM745.453 294V283.818H748.893C749.692 283.818 750.345 283.962 750.852 284.251C751.362 284.536 751.74 284.922 751.985 285.409C752.231 285.896 752.353 286.44 752.353 287.04C752.353 287.64 752.231 288.185 751.985 288.675C751.743 289.166 751.369 289.557 750.862 289.849C750.355 290.137 749.705 290.281 748.913 290.281H746.447V289.188H748.873C749.42 289.188 749.859 289.093 750.191 288.904C750.522 288.715 750.762 288.46 750.911 288.138C751.064 287.814 751.14 287.447 751.14 287.04C751.14 286.632 751.064 286.268 750.911 285.946C750.762 285.625 750.52 285.373 750.186 285.19C749.851 285.005 749.407 284.912 748.853 284.912H746.686V294H745.453ZM762.93 288.909C762.93 289.983 762.736 290.911 762.349 291.693C761.961 292.475 761.429 293.079 760.753 293.503C760.077 293.927 759.304 294.139 758.436 294.139C757.568 294.139 756.795 293.927 756.119 293.503C755.443 293.079 754.911 292.475 754.523 291.693C754.136 290.911 753.942 289.983 753.942 288.909C753.942 287.835 754.136 286.907 754.523 286.125C754.911 285.343 755.443 284.74 756.119 284.315C756.795 283.891 757.568 283.679 758.436 283.679C759.304 283.679 760.077 283.891 760.753 284.315C761.429 284.74 761.961 285.343 762.349 286.125C762.736 286.907 762.93 287.835 762.93 288.909ZM761.737 288.909C761.737 288.027 761.59 287.283 761.295 286.677C761.003 286.07 760.607 285.611 760.106 285.3C759.609 284.988 759.052 284.832 758.436 284.832C757.819 284.832 757.261 284.988 756.761 285.3C756.263 285.611 755.867 286.07 755.572 286.677C755.281 287.283 755.135 288.027 755.135 288.909C755.135 289.791 755.281 290.535 755.572 291.141C755.867 291.748 756.263 292.207 756.761 292.518C757.261 292.83 757.819 292.986 758.436 292.986C759.052 292.986 759.609 292.83 760.106 292.518C760.607 292.207 761.003 291.748 761.295 291.141C761.59 290.535 761.737 289.791 761.737 288.909Z" fill="white"/>
<path d="M983.391 262.818V273H982.158V263.912H977.028V273H975.795V262.818H983.391ZM985.719 275.864V265.364H986.853V266.577H986.992C987.078 266.444 987.198 266.275 987.35 266.07C987.506 265.861 987.728 265.675 988.016 265.513C988.308 265.347 988.702 265.264 989.199 265.264C989.842 265.264 990.409 265.425 990.9 265.746C991.39 266.068 991.773 266.524 992.048 267.114C992.323 267.704 992.461 268.4 992.461 269.202C992.461 270.01 992.323 270.711 992.048 271.305C991.773 271.895 991.392 272.352 990.905 272.677C990.418 272.998 989.856 273.159 989.219 273.159C988.729 273.159 988.336 273.078 988.041 272.915C987.746 272.75 987.519 272.562 987.36 272.354C987.201 272.142 987.078 271.966 986.992 271.827H986.893V275.864H985.719ZM986.873 269.182C986.873 269.759 986.957 270.267 987.126 270.708C987.295 271.146 987.542 271.489 987.867 271.737C988.192 271.982 988.59 272.105 989.06 272.105C989.551 272.105 989.96 271.976 990.288 271.717C990.62 271.455 990.868 271.104 991.034 270.663C991.203 270.219 991.288 269.725 991.288 269.182C991.288 268.645 991.205 268.161 991.039 267.73C990.877 267.296 990.63 266.953 990.298 266.701C989.97 266.446 989.557 266.318 989.06 266.318C988.583 266.318 988.182 266.439 987.857 266.681C987.532 266.92 987.287 267.254 987.121 267.685C986.956 268.113 986.873 268.612 986.873 269.182ZM997.353 273.159C996.664 273.159 996.059 272.995 995.538 272.667C995.021 272.339 994.617 271.88 994.325 271.29C994.037 270.7 993.893 270.01 993.893 269.222C993.893 268.426 994.037 267.732 994.325 267.138C994.617 266.545 995.021 266.085 995.538 265.756C996.059 265.428 996.664 265.264 997.353 265.264C998.042 265.264 998.646 265.428 999.163 265.756C999.683 266.085 1000.09 266.545 1000.38 267.138C1000.67 267.732 1000.81 268.426 1000.81 269.222C1000.81 270.01 1000.67 270.7 1000.38 271.29C1000.09 271.88 999.683 272.339 999.163 272.667C998.646 272.995 998.042 273.159 997.353 273.159ZM997.353 272.105C997.877 272.105 998.307 271.971 998.646 271.702C998.984 271.434 999.234 271.081 999.396 270.643C999.559 270.206 999.64 269.732 999.64 269.222C999.64 268.711 999.559 268.236 999.396 267.795C999.234 267.354 998.984 266.998 998.646 266.726C998.307 266.454 997.877 266.318 997.353 266.318C996.829 266.318 996.398 266.454 996.06 266.726C995.722 266.998 995.472 267.354 995.31 267.795C995.147 268.236 995.066 268.711 995.066 269.222C995.066 269.732 995.147 270.206 995.31 270.643C995.472 271.081 995.722 271.434 996.06 271.702C996.398 271.971 996.829 272.105 997.353 272.105ZM1001.79 275.188V271.906H1002.43C1002.58 271.744 1002.72 271.568 1002.83 271.379C1002.94 271.19 1003.04 270.967 1003.12 270.708C1003.21 270.446 1003.28 270.128 1003.34 269.754C1003.4 269.376 1003.45 268.92 1003.5 268.386L1003.76 265.364H1008.61V271.906H1009.78V275.188H1008.61V273H1002.96V275.188H1001.79ZM1003.76 271.906H1007.44V266.457H1004.85L1004.65 268.386C1004.57 269.185 1004.47 269.883 1004.34 270.479C1004.22 271.076 1004.03 271.552 1003.76 271.906ZM1014.44 273.159C1013.75 273.159 1013.15 272.995 1012.63 272.667C1012.11 272.339 1011.71 271.88 1011.42 271.29C1011.13 270.7 1010.98 270.01 1010.98 269.222C1010.98 268.426 1011.13 267.732 1011.42 267.138C1011.71 266.545 1012.11 266.085 1012.63 265.756C1013.15 265.428 1013.75 265.264 1014.44 265.264C1015.13 265.264 1015.74 265.428 1016.25 265.756C1016.77 266.085 1017.18 266.545 1017.47 267.138C1017.76 267.732 1017.9 268.426 1017.9 269.222C1017.9 270.01 1017.76 270.7 1017.47 271.29C1017.18 271.88 1016.77 272.339 1016.25 272.667C1015.74 272.995 1015.13 273.159 1014.44 273.159ZM1014.44 272.105C1014.97 272.105 1015.4 271.971 1015.74 271.702C1016.07 271.434 1016.32 271.081 1016.49 270.643C1016.65 270.206 1016.73 269.732 1016.73 269.222C1016.73 268.711 1016.65 268.236 1016.49 267.795C1016.32 267.354 1016.07 266.998 1015.74 266.726C1015.4 266.454 1014.97 266.318 1014.44 266.318C1013.92 266.318 1013.49 266.454 1013.15 266.726C1012.81 266.998 1012.56 267.354 1012.4 267.795C1012.24 268.236 1012.16 268.711 1012.16 269.222C1012.16 269.732 1012.24 270.206 1012.4 270.643C1012.56 271.081 1012.81 271.434 1013.15 271.702C1013.49 271.971 1013.92 272.105 1014.44 272.105ZM1019.69 273V265.364H1022.82C1023.64 265.364 1024.29 265.549 1024.77 265.92C1025.26 266.292 1025.5 266.782 1025.5 267.392C1025.5 267.856 1025.36 268.216 1025.09 268.471C1024.81 268.723 1024.46 268.893 1024.03 268.983C1024.31 269.023 1024.58 269.122 1024.85 269.281C1025.12 269.44 1025.34 269.659 1025.52 269.938C1025.69 270.213 1025.78 270.551 1025.78 270.952C1025.78 271.343 1025.68 271.692 1025.48 272.001C1025.28 272.309 1025 272.553 1024.63 272.732C1024.25 272.911 1023.81 273 1023.29 273H1019.69ZM1020.81 271.926H1023.29C1023.7 271.926 1024.01 271.83 1024.24 271.638C1024.47 271.446 1024.59 271.184 1024.59 270.852C1024.59 270.458 1024.47 270.148 1024.24 269.923C1024.01 269.694 1023.7 269.58 1023.29 269.58H1020.81V271.926ZM1020.81 268.565H1022.82C1023.13 268.565 1023.4 268.522 1023.63 268.436C1023.85 268.347 1024.02 268.221 1024.14 268.058C1024.27 267.893 1024.33 267.697 1024.33 267.472C1024.33 267.15 1024.19 266.898 1023.92 266.716C1023.66 266.53 1023.29 266.438 1022.82 266.438H1020.81V268.565ZM1027.08 273L1030.18 269.122L1027.12 265.364H1028.51L1031.06 268.625H1031.69V265.364H1032.86V268.625H1033.48L1036.03 265.364H1037.42L1034.38 269.122L1037.46 273H1036.05L1033.46 269.719H1032.86V273H1031.69V269.719H1031.1L1028.49 273H1027.08ZM1042.02 273.159C1041.29 273.159 1040.65 272.997 1040.12 272.672C1039.59 272.344 1039.18 271.886 1038.89 271.3C1038.61 270.71 1038.46 270.024 1038.46 269.241C1038.46 268.459 1038.61 267.77 1038.89 267.173C1039.18 266.573 1039.58 266.106 1040.09 265.771C1040.61 265.433 1041.21 265.264 1041.9 265.264C1042.3 265.264 1042.69 265.33 1043.08 265.463C1043.47 265.596 1043.82 265.811 1044.14 266.109C1044.46 266.404 1044.71 266.795 1044.9 267.283C1045.09 267.77 1045.18 268.37 1045.18 269.082V269.58H1039.3V268.565H1043.99C1043.99 268.134 1043.91 267.75 1043.73 267.412C1043.56 267.074 1043.32 266.807 1043.01 266.612C1042.7 266.416 1042.33 266.318 1041.9 266.318C1041.44 266.318 1041.03 266.434 1040.69 266.666C1040.35 266.895 1040.09 267.193 1039.91 267.561C1039.73 267.929 1039.64 268.323 1039.64 268.744V269.42C1039.64 269.997 1039.74 270.486 1039.93 270.887C1040.14 271.285 1040.42 271.588 1040.77 271.797C1041.13 272.002 1041.55 272.105 1042.02 272.105C1042.33 272.105 1042.61 272.062 1042.86 271.976C1043.11 271.886 1043.33 271.754 1043.51 271.578C1043.69 271.399 1043.83 271.177 1043.93 270.912L1045.07 271.23C1044.95 271.615 1044.75 271.953 1044.46 272.244C1044.18 272.533 1043.83 272.758 1043.42 272.92C1043.01 273.08 1042.54 273.159 1042.02 273.159ZM1052.08 268.645V269.739H1047.86V268.645H1052.08ZM1048.14 265.364V273H1046.97V265.364H1048.14ZM1052.98 265.364V273H1051.8V265.364H1052.98ZM1060.23 268.645V269.739H1056.01V268.645H1060.23ZM1056.29 265.364V273H1055.12V265.364H1056.29ZM1061.12 265.364V273H1059.95V265.364H1061.12ZM1067.86 273V266.438H1065.83C1065.37 266.438 1065.01 266.544 1064.75 266.756C1064.49 266.968 1064.36 267.259 1064.36 267.631C1064.36 267.995 1064.48 268.282 1064.71 268.491C1064.95 268.7 1065.28 268.804 1065.69 268.804H1068.16V269.898H1065.69C1065.18 269.898 1064.73 269.807 1064.36 269.624C1063.98 269.442 1063.69 269.182 1063.49 268.844C1063.29 268.502 1063.19 268.098 1063.19 267.631C1063.19 267.16 1063.29 266.756 1063.5 266.418C1063.72 266.08 1064.02 265.819 1064.41 265.637C1064.81 265.455 1065.28 265.364 1065.83 265.364H1068.97V273H1067.86ZM1062.77 273L1064.94 269.202H1066.21L1064.04 273H1062.77ZM1075.07 275.864V265.364H1076.2V266.577H1076.34C1076.42 266.444 1076.54 266.275 1076.7 266.07C1076.85 265.861 1077.07 265.675 1077.36 265.513C1077.65 265.347 1078.05 265.264 1078.55 265.264C1079.19 265.264 1079.75 265.425 1080.25 265.746C1080.74 266.068 1081.12 266.524 1081.39 267.114C1081.67 267.704 1081.81 268.4 1081.81 269.202C1081.81 270.01 1081.67 270.711 1081.39 271.305C1081.12 271.895 1080.74 272.352 1080.25 272.677C1079.76 272.998 1079.2 273.159 1078.57 273.159C1078.07 273.159 1077.68 273.078 1077.39 272.915C1077.09 272.75 1076.86 272.562 1076.71 272.354C1076.55 272.142 1076.42 271.966 1076.34 271.827H1076.24V275.864H1075.07ZM1076.22 269.182C1076.22 269.759 1076.3 270.267 1076.47 270.708C1076.64 271.146 1076.89 271.489 1077.21 271.737C1077.54 271.982 1077.94 272.105 1078.41 272.105C1078.9 272.105 1079.31 271.976 1079.63 271.717C1079.97 271.455 1080.21 271.104 1080.38 270.663C1080.55 270.219 1080.63 269.725 1080.63 269.182C1080.63 268.645 1080.55 268.161 1080.38 267.73C1080.22 267.296 1079.98 266.953 1079.64 266.701C1079.32 266.446 1078.9 266.318 1078.41 266.318C1077.93 266.318 1077.53 266.439 1077.2 266.681C1076.88 266.92 1076.63 267.254 1076.47 267.685C1076.3 268.113 1076.22 268.612 1076.22 269.182ZM1086.7 273.159C1086.01 273.159 1085.4 272.995 1084.88 272.667C1084.37 272.339 1083.96 271.88 1083.67 271.29C1083.38 270.7 1083.24 270.01 1083.24 269.222C1083.24 268.426 1083.38 267.732 1083.67 267.138C1083.96 266.545 1084.37 266.085 1084.88 265.756C1085.4 265.428 1086.01 265.264 1086.7 265.264C1087.39 265.264 1087.99 265.428 1088.51 265.756C1089.03 266.085 1089.43 266.545 1089.72 267.138C1090.01 267.732 1090.16 268.426 1090.16 269.222C1090.16 270.01 1090.01 270.7 1089.72 271.29C1089.43 271.88 1089.03 272.339 1088.51 272.667C1087.99 272.995 1087.39 273.159 1086.7 273.159ZM1086.7 272.105C1087.22 272.105 1087.65 271.971 1087.99 271.702C1088.33 271.434 1088.58 271.081 1088.74 270.643C1088.9 270.206 1088.99 269.732 1088.99 269.222C1088.99 268.711 1088.9 268.236 1088.74 267.795C1088.58 267.354 1088.33 266.998 1087.99 266.726C1087.65 266.454 1087.22 266.318 1086.7 266.318C1086.17 266.318 1085.74 266.454 1085.41 266.726C1085.07 266.998 1084.82 267.354 1084.66 267.795C1084.49 268.236 1084.41 268.711 1084.41 269.222C1084.41 269.732 1084.49 270.206 1084.66 270.643C1084.82 271.081 1085.07 271.434 1085.41 271.702C1085.74 271.971 1086.17 272.105 1086.7 272.105ZM1091.47 271.051H1092.73C1092.75 271.396 1092.91 271.658 1093.19 271.837C1093.48 272.016 1093.86 272.105 1094.32 272.105C1094.79 272.105 1095.19 272.009 1095.52 271.817C1095.86 271.621 1096.03 271.306 1096.03 270.872C1096.03 270.617 1095.96 270.395 1095.84 270.206C1095.71 270.014 1095.53 269.865 1095.31 269.759C1095.08 269.652 1094.81 269.599 1094.5 269.599H1093.18V268.545H1094.5C1094.96 268.545 1095.31 268.439 1095.53 268.227C1095.75 268.015 1095.87 267.75 1095.87 267.432C1095.87 267.09 1095.75 266.817 1095.5 266.612C1095.26 266.403 1094.92 266.298 1094.48 266.298C1094.03 266.298 1093.66 266.399 1093.36 266.602C1093.06 266.8 1092.9 267.057 1092.88 267.372H1091.65C1091.66 266.961 1091.79 266.598 1092.03 266.283C1092.27 265.965 1092.59 265.717 1093 265.538C1093.41 265.355 1093.89 265.264 1094.42 265.264C1094.95 265.264 1095.42 265.359 1095.81 265.548C1096.21 265.733 1096.52 265.987 1096.73 266.308C1096.95 266.626 1097.06 266.988 1097.06 267.392C1097.06 267.823 1096.94 268.171 1096.7 268.436C1096.46 268.701 1096.15 268.89 1095.79 269.003V269.082C1096.08 269.102 1096.33 269.195 1096.54 269.361C1096.75 269.523 1096.92 269.737 1097.04 270.002C1097.16 270.264 1097.22 270.554 1097.22 270.872C1097.22 271.336 1097.1 271.741 1096.85 272.085C1096.6 272.427 1096.26 272.692 1095.82 272.881C1095.39 273.066 1094.89 273.159 1094.34 273.159C1093.8 273.159 1093.31 273.071 1092.88 272.896C1092.46 272.717 1092.12 272.47 1091.87 272.155C1091.62 271.837 1091.49 271.469 1091.47 271.051ZM1098.87 273V265.364H1101.99C1102.81 265.364 1103.46 265.549 1103.95 265.92C1104.43 266.292 1104.67 266.782 1104.67 267.392C1104.67 267.856 1104.54 268.216 1104.26 268.471C1103.99 268.723 1103.63 268.893 1103.2 268.983C1103.48 269.023 1103.76 269.122 1104.02 269.281C1104.29 269.44 1104.51 269.659 1104.69 269.938C1104.87 270.213 1104.95 270.551 1104.95 270.952C1104.95 271.343 1104.85 271.692 1104.65 272.001C1104.46 272.309 1104.17 272.553 1103.8 272.732C1103.43 272.911 1102.98 273 1102.47 273H1098.87ZM1099.98 271.926H1102.47C1102.87 271.926 1103.19 271.83 1103.42 271.638C1103.65 271.446 1103.76 271.184 1103.76 270.852C1103.76 270.458 1103.65 270.148 1103.42 269.923C1103.19 269.694 1102.87 269.58 1102.47 269.58H1099.98V271.926ZM1099.98 268.565H1101.99C1102.3 268.565 1102.57 268.522 1102.8 268.436C1103.03 268.347 1103.2 268.221 1103.32 268.058C1103.44 267.893 1103.5 267.697 1103.5 267.472C1103.5 267.15 1103.37 266.898 1103.1 266.716C1102.83 266.53 1102.46 266.438 1101.99 266.438H1099.98V268.565ZM1107.9 271.27L1111.58 265.364H1112.93V273H1111.76V267.094L1108.1 273H1106.73V265.364H1107.9V271.27ZM1114.04 266.457V265.364H1120.25V266.457H1117.74V273H1116.57V266.457H1114.04ZM1121.96 273V265.364H1123.13V268.685H1123.91L1126.65 265.364H1128.16L1125.08 269.043L1128.2 273H1126.69L1124.19 269.778H1123.13V273H1121.96ZM1130.23 275.864C1130.04 275.864 1129.86 275.847 1129.7 275.814C1129.55 275.784 1129.44 275.754 1129.38 275.724L1129.68 274.69C1129.96 274.763 1130.21 274.79 1130.43 274.77C1130.65 274.75 1130.85 274.652 1131.02 274.477C1131.19 274.304 1131.35 274.024 1131.49 273.636L1131.71 273.04L1128.88 265.364H1130.16L1132.26 271.449H1132.34L1134.45 265.364H1135.72L1132.48 274.114C1132.34 274.508 1132.16 274.835 1131.94 275.093C1131.72 275.355 1131.47 275.549 1131.19 275.675C1130.91 275.801 1130.59 275.864 1130.23 275.864ZM1141.21 273V265.364H1142.38V273H1141.21ZM1141.81 264.091C1141.58 264.091 1141.38 264.013 1141.21 263.857C1141.05 263.701 1140.97 263.514 1140.97 263.295C1140.97 263.077 1141.05 262.889 1141.21 262.734C1141.38 262.578 1141.58 262.5 1141.81 262.5C1142.03 262.5 1142.23 262.578 1142.39 262.734C1142.56 262.889 1142.64 263.077 1142.64 263.295C1142.64 263.514 1142.56 263.701 1142.39 263.857C1142.23 264.013 1142.03 264.091 1141.81 264.091ZM977.687 294V286.364H983.693V294H982.52V287.457H978.86V294H977.687ZM988.938 294.159C988.248 294.159 987.644 293.995 987.123 293.667C986.606 293.339 986.202 292.88 985.91 292.29C985.622 291.7 985.478 291.01 985.478 290.222C985.478 289.426 985.622 288.732 985.91 288.138C986.202 287.545 986.606 287.085 987.123 286.756C987.644 286.428 988.248 286.264 988.938 286.264C989.627 286.264 990.23 286.428 990.748 286.756C991.268 287.085 991.672 287.545 991.961 288.138C992.252 288.732 992.398 289.426 992.398 290.222C992.398 291.01 992.252 291.7 991.961 292.29C991.672 292.88 991.268 293.339 990.748 293.667C990.23 293.995 989.627 294.159 988.938 294.159ZM988.938 293.105C989.462 293.105 989.892 292.971 990.23 292.702C990.569 292.434 990.819 292.081 990.981 291.643C991.144 291.206 991.225 290.732 991.225 290.222C991.225 289.711 991.144 289.236 990.981 288.795C990.819 288.354 990.569 287.998 990.23 287.726C989.892 287.454 989.462 287.318 988.938 287.318C988.414 287.318 987.983 287.454 987.645 287.726C987.307 287.998 987.057 288.354 986.895 288.795C986.732 289.236 986.651 289.711 986.651 290.222C986.651 290.732 986.732 291.206 986.895 291.643C987.057 292.081 987.307 292.434 987.645 292.702C987.983 292.971 988.414 293.105 988.938 293.105ZM994.189 294V286.364H995.362V289.685H996.138L998.882 286.364H1000.39L997.311 290.043L1000.43 294H998.922L996.416 290.778H995.362V294H994.189ZM1001.71 296.864V286.364H1002.84V287.577H1002.98C1003.07 287.444 1003.19 287.275 1003.34 287.07C1003.5 286.861 1003.72 286.675 1004.01 286.513C1004.3 286.347 1004.69 286.264 1005.19 286.264C1005.83 286.264 1006.4 286.425 1006.89 286.746C1007.38 287.068 1007.76 287.524 1008.04 288.114C1008.31 288.704 1008.45 289.4 1008.45 290.202C1008.45 291.01 1008.31 291.711 1008.04 292.305C1007.76 292.895 1007.38 293.352 1006.89 293.677C1006.41 293.998 1005.84 294.159 1005.21 294.159C1004.72 294.159 1004.33 294.078 1004.03 293.915C1003.74 293.75 1003.51 293.562 1003.35 293.354C1003.19 293.142 1003.07 292.966 1002.98 292.827H1002.88V296.864H1001.71ZM1002.86 290.182C1002.86 290.759 1002.95 291.267 1003.12 291.708C1003.28 292.146 1003.53 292.489 1003.86 292.737C1004.18 292.982 1004.58 293.105 1005.05 293.105C1005.54 293.105 1005.95 292.976 1006.28 292.717C1006.61 292.455 1006.86 292.104 1007.02 291.663C1007.19 291.219 1007.28 290.725 1007.28 290.182C1007.28 289.645 1007.19 289.161 1007.03 288.73C1006.87 288.296 1006.62 287.953 1006.29 287.701C1005.96 287.446 1005.55 287.318 1005.05 287.318C1004.57 287.318 1004.17 287.439 1003.85 287.681C1003.52 287.92 1003.28 288.254 1003.11 288.685C1002.94 289.113 1002.86 289.612 1002.86 290.182ZM1012.49 294.179C1012 294.179 1011.56 294.088 1011.17 293.906C1010.78 293.72 1010.46 293.453 1010.23 293.105C1010 292.754 1009.88 292.33 1009.88 291.832C1009.88 291.395 1009.97 291.04 1010.14 290.768C1010.31 290.493 1010.54 290.278 1010.83 290.122C1011.12 289.966 1011.44 289.85 1011.79 289.774C1012.14 289.695 1012.49 289.632 1012.84 289.585C1013.31 289.526 1013.69 289.481 1013.97 289.451C1014.27 289.418 1014.48 289.363 1014.61 289.287C1014.75 289.211 1014.81 289.078 1014.81 288.889V288.849C1014.81 288.359 1014.68 287.978 1014.41 287.706C1014.15 287.434 1013.74 287.298 1013.2 287.298C1012.64 287.298 1012.2 287.421 1011.89 287.666C1011.57 287.911 1011.34 288.173 1011.21 288.452L1010.1 288.054C1010.3 287.59 1010.56 287.229 1010.9 286.97C1011.23 286.708 1011.6 286.526 1011.99 286.423C1012.39 286.317 1012.78 286.264 1013.16 286.264C1013.41 286.264 1013.69 286.294 1014.01 286.354C1014.33 286.41 1014.64 286.528 1014.94 286.707C1015.24 286.886 1015.49 287.156 1015.69 287.517C1015.89 287.878 1015.99 288.362 1015.99 288.969V294H1014.81V292.966H1014.75C1014.67 293.132 1014.54 293.309 1014.36 293.498C1014.17 293.687 1013.92 293.848 1013.62 293.98C1013.31 294.113 1012.93 294.179 1012.49 294.179ZM1012.67 293.125C1013.13 293.125 1013.52 293.034 1013.84 292.852C1014.16 292.669 1014.4 292.434 1014.57 292.146C1014.73 291.857 1014.81 291.554 1014.81 291.236V290.162C1014.76 290.222 1014.65 290.276 1014.49 290.326C1014.32 290.372 1014.13 290.414 1013.91 290.45C1013.69 290.483 1013.48 290.513 1013.28 290.54C1013.08 290.563 1012.91 290.583 1012.79 290.599C1012.48 290.639 1012.2 290.704 1011.93 290.793C1011.67 290.879 1011.46 291.01 1011.29 291.186C1011.13 291.358 1011.06 291.594 1011.06 291.892C1011.06 292.3 1011.21 292.608 1011.51 292.817C1011.81 293.022 1012.2 293.125 1012.67 293.125ZM1028.55 292.906L1028.41 296.188H1027.2V294H1026.2V292.906H1028.55ZM1018.13 286.364H1019.3V292.906H1022.19V286.364H1023.36V292.906H1026.24V286.364H1027.42V294H1018.13V286.364ZM1033.38 294.159C1032.64 294.159 1032 293.997 1031.47 293.672C1030.94 293.344 1030.53 292.886 1030.24 292.3C1029.96 291.71 1029.82 291.024 1029.82 290.241C1029.82 289.459 1029.96 288.77 1030.24 288.173C1030.53 287.573 1030.93 287.106 1031.45 286.771C1031.96 286.433 1032.57 286.264 1033.26 286.264C1033.65 286.264 1034.05 286.33 1034.43 286.463C1034.82 286.596 1035.17 286.811 1035.49 287.109C1035.81 287.404 1036.06 287.795 1036.25 288.283C1036.44 288.77 1036.54 289.37 1036.54 290.082V290.58H1030.65V289.565H1035.34C1035.34 289.134 1035.26 288.75 1035.09 288.412C1034.92 288.074 1034.67 287.807 1034.36 287.612C1034.05 287.416 1033.68 287.318 1033.26 287.318C1032.79 287.318 1032.38 287.434 1032.04 287.666C1031.7 287.895 1031.44 288.193 1031.26 288.561C1031.08 288.929 1030.99 289.323 1030.99 289.744V290.42C1030.99 290.997 1031.09 291.486 1031.29 291.887C1031.49 292.285 1031.77 292.588 1032.13 292.797C1032.49 293.002 1032.9 293.105 1033.38 293.105C1033.68 293.105 1033.96 293.062 1034.21 292.976C1034.46 292.886 1034.68 292.754 1034.86 292.578C1035.04 292.399 1035.18 292.177 1035.28 291.912L1036.42 292.23C1036.3 292.615 1036.1 292.953 1035.82 293.244C1035.53 293.533 1035.19 293.758 1034.77 293.92C1034.36 294.08 1033.89 294.159 1033.38 294.159ZM1043.43 289.645V290.739H1039.22V289.645H1043.43ZM1039.5 286.364V294H1038.32V286.364H1039.5ZM1044.33 286.364V294H1043.15V286.364H1044.33ZM1051.58 289.645V290.739H1047.37V289.645H1051.58ZM1047.64 286.364V294H1046.47V286.364H1047.64ZM1052.48 286.364V294H1051.3V286.364H1052.48ZM1059.21 294V287.438H1057.18C1056.73 287.438 1056.37 287.544 1056.11 287.756C1055.84 287.968 1055.71 288.259 1055.71 288.631C1055.71 288.995 1055.83 289.282 1056.07 289.491C1056.3 289.7 1056.63 289.804 1057.04 289.804H1059.51V290.898H1057.04C1056.53 290.898 1056.08 290.807 1055.71 290.624C1055.33 290.442 1055.04 290.182 1054.84 289.844C1054.64 289.502 1054.54 289.098 1054.54 288.631C1054.54 288.16 1054.65 287.756 1054.86 287.418C1055.07 287.08 1055.37 286.819 1055.77 286.637C1056.16 286.455 1056.64 286.364 1057.18 286.364H1060.33V294H1059.21ZM1054.12 294L1056.29 290.202H1057.56L1055.39 294H1054.12ZM1066.42 294V286.364H1072.42V294H1071.25V287.457H1067.59V294H1066.42ZM1073.89 294V292.906H1074.17C1074.4 292.906 1074.59 292.862 1074.74 292.772C1074.89 292.679 1075.02 292.518 1075.11 292.29C1075.2 292.058 1075.28 291.736 1075.33 291.325C1075.38 290.911 1075.42 290.384 1075.44 289.744L1075.58 286.364H1080.67V294H1079.5V287.457H1076.69L1076.57 290.182C1076.55 290.808 1076.49 291.36 1076.41 291.837C1076.32 292.311 1076.2 292.709 1076.02 293.031C1075.85 293.352 1075.63 293.594 1075.35 293.756C1075.06 293.919 1074.71 294 1074.29 294H1073.89ZM1085.07 294.179C1084.59 294.179 1084.15 294.088 1083.75 293.906C1083.36 293.72 1083.05 293.453 1082.81 293.105C1082.58 292.754 1082.47 292.33 1082.47 291.832C1082.47 291.395 1082.55 291.04 1082.72 290.768C1082.9 290.493 1083.13 290.278 1083.42 290.122C1083.7 289.966 1084.02 289.85 1084.37 289.774C1084.72 289.695 1085.07 289.632 1085.43 289.585C1085.89 289.526 1086.27 289.481 1086.56 289.451C1086.85 289.418 1087.06 289.363 1087.19 289.287C1087.33 289.211 1087.4 289.078 1087.4 288.889V288.849C1087.4 288.359 1087.26 287.978 1087 287.706C1086.73 287.434 1086.33 287.298 1085.79 287.298C1085.23 287.298 1084.79 287.421 1084.47 287.666C1084.15 287.911 1083.93 288.173 1083.8 288.452L1082.68 288.054C1082.88 287.59 1083.15 287.229 1083.48 286.97C1083.81 286.708 1084.18 286.526 1084.57 286.423C1084.97 286.317 1085.36 286.264 1085.75 286.264C1085.99 286.264 1086.27 286.294 1086.59 286.354C1086.91 286.41 1087.22 286.528 1087.52 286.707C1087.82 286.886 1088.07 287.156 1088.27 287.517C1088.47 287.878 1088.57 288.362 1088.57 288.969V294H1087.4V292.966H1087.34C1087.26 293.132 1087.13 293.309 1086.94 293.498C1086.75 293.687 1086.51 293.848 1086.2 293.98C1085.89 294.113 1085.52 294.179 1085.07 294.179ZM1085.25 293.125C1085.71 293.125 1086.11 293.034 1086.42 292.852C1086.74 292.669 1086.99 292.434 1087.15 292.146C1087.31 291.857 1087.4 291.554 1087.4 291.236V290.162C1087.35 290.222 1087.24 290.276 1087.07 290.326C1086.9 290.372 1086.71 290.414 1086.49 290.45C1086.28 290.483 1086.07 290.513 1085.86 290.54C1085.66 290.563 1085.5 290.583 1085.37 290.599C1085.06 290.639 1084.78 290.704 1084.51 290.793C1084.25 290.879 1084.04 291.01 1083.88 291.186C1083.72 291.358 1083.64 291.594 1083.64 291.892C1083.64 292.3 1083.79 292.608 1084.09 292.817C1084.4 293.022 1084.78 293.125 1085.25 293.125ZM1089.67 287.457V286.364H1095.88V287.457H1093.37V294H1092.2V287.457H1089.67ZM1100.3 296.605V283.818H1101.47V296.605H1100.3ZM1100.3 294.159C1099.78 294.159 1099.31 294.066 1098.88 293.881C1098.46 293.692 1098.09 293.425 1097.79 293.08C1097.48 292.732 1097.25 292.316 1097.08 291.832C1096.92 291.348 1096.84 290.812 1096.84 290.222C1096.84 289.625 1096.92 289.085 1097.08 288.601C1097.25 288.114 1097.48 287.696 1097.79 287.348C1098.09 287 1098.46 286.733 1098.88 286.548C1099.31 286.359 1099.78 286.264 1100.3 286.264H1100.65V294.159H1100.3ZM1100.3 293.105H1100.49V287.318H1100.3C1099.9 287.318 1099.56 287.398 1099.28 287.557C1098.99 287.713 1098.75 287.926 1098.56 288.198C1098.37 288.467 1098.24 288.775 1098.14 289.123C1098.05 289.471 1098.01 289.837 1098.01 290.222C1098.01 290.732 1098.09 291.206 1098.25 291.643C1098.41 292.081 1098.66 292.434 1099 292.702C1099.34 292.971 1099.77 293.105 1100.3 293.105ZM1101.47 294.159H1101.11V286.264H1101.47C1101.99 286.264 1102.46 286.359 1102.88 286.548C1103.3 286.733 1103.67 287 1103.97 287.348C1104.28 287.696 1104.51 288.114 1104.68 288.601C1104.85 289.085 1104.93 289.625 1104.93 290.222C1104.93 290.812 1104.85 291.348 1104.68 291.832C1104.51 292.316 1104.28 292.732 1103.97 293.08C1103.67 293.425 1103.3 293.692 1102.88 293.881C1102.46 294.066 1101.99 294.159 1101.47 294.159ZM1101.47 293.105C1101.86 293.105 1102.2 293.029 1102.49 292.876C1102.78 292.721 1103.01 292.509 1103.2 292.24C1103.39 291.968 1103.53 291.66 1103.62 291.315C1103.71 290.967 1103.76 290.603 1103.76 290.222C1103.76 289.711 1103.67 289.236 1103.51 288.795C1103.35 288.354 1103.1 287.998 1102.76 287.726C1102.42 287.454 1101.99 287.318 1101.47 287.318H1101.27V293.105H1101.47ZM1109.82 294.159C1109.14 294.159 1108.53 293.995 1108.01 293.667C1107.49 293.339 1107.09 292.88 1106.8 292.29C1106.51 291.7 1106.36 291.01 1106.36 290.222C1106.36 289.426 1106.51 288.732 1106.8 288.138C1107.09 287.545 1107.49 287.085 1108.01 286.756C1108.53 286.428 1109.14 286.264 1109.82 286.264C1110.51 286.264 1111.12 286.428 1111.63 286.756C1112.15 287.085 1112.56 287.545 1112.85 288.138C1113.14 288.732 1113.28 289.426 1113.28 290.222C1113.28 291.01 1113.14 291.7 1112.85 292.29C1112.56 292.88 1112.15 293.339 1111.63 293.667C1111.12 293.995 1110.51 294.159 1109.82 294.159ZM1109.82 293.105C1110.35 293.105 1110.78 292.971 1111.12 292.702C1111.46 292.434 1111.71 292.081 1111.87 291.643C1112.03 291.206 1112.11 290.732 1112.11 290.222C1112.11 289.711 1112.03 289.236 1111.87 288.795C1111.71 288.354 1111.46 287.998 1111.12 287.726C1110.78 287.454 1110.35 287.318 1109.82 287.318C1109.3 287.318 1108.87 287.454 1108.53 287.726C1108.19 287.998 1107.94 288.354 1107.78 288.795C1107.62 289.236 1107.54 289.711 1107.54 290.222C1107.54 290.732 1107.62 291.206 1107.78 291.643C1107.94 292.081 1108.19 292.434 1108.53 292.702C1108.87 292.971 1109.3 293.105 1109.82 293.105ZM1115.08 296.864V286.364H1116.21V287.577H1116.35C1116.43 287.444 1116.55 287.275 1116.71 287.07C1116.86 286.861 1117.08 286.675 1117.37 286.513C1117.66 286.347 1118.06 286.264 1118.56 286.264C1119.2 286.264 1119.77 286.425 1120.26 286.746C1120.75 287.068 1121.13 287.524 1121.4 288.114C1121.68 288.704 1121.82 289.4 1121.82 290.202C1121.82 291.01 1121.68 291.711 1121.4 292.305C1121.13 292.895 1120.75 293.352 1120.26 293.677C1119.77 293.998 1119.21 294.159 1118.58 294.159C1118.09 294.159 1117.69 294.078 1117.4 293.915C1117.1 293.75 1116.88 293.562 1116.72 293.354C1116.56 293.142 1116.43 292.966 1116.35 292.827H1116.25V296.864H1115.08ZM1116.23 290.182C1116.23 290.759 1116.31 291.267 1116.48 291.708C1116.65 292.146 1116.9 292.489 1117.22 292.737C1117.55 292.982 1117.95 293.105 1118.42 293.105C1118.91 293.105 1119.32 292.976 1119.64 292.717C1119.98 292.455 1120.22 292.104 1120.39 291.663C1120.56 291.219 1120.64 290.725 1120.64 290.182C1120.64 289.645 1120.56 289.161 1120.4 288.73C1120.23 288.296 1119.99 287.953 1119.65 287.701C1119.33 287.446 1118.91 287.318 1118.42 287.318C1117.94 287.318 1117.54 287.439 1117.21 287.681C1116.89 287.92 1116.64 288.254 1116.48 288.685C1116.31 289.113 1116.23 289.612 1116.23 290.182ZM1127.78 292.409L1130.45 286.364H1131.56L1128.26 294H1127.31L1124.06 286.364H1125.16L1127.78 292.409ZM1124.78 286.364V294H1123.61V286.364H1124.78ZM1130.79 294V286.364H1131.96V294H1130.79ZM1135.28 292.27L1138.96 286.364H1140.31V294H1139.14V288.094L1135.48 294H1134.11V286.364H1135.28V292.27Z" fill="white"/>
<path d="M138.143 39L138.143 237" stroke="#F6601F"/>
<path d="M445.143 39L445.143 237" stroke="#F6601F"/>
<path d="M752.143 39L752.143 237" stroke="#F6601F"/>
<path d="M1058.14 39L1058.14 237" stroke="#F6601F"/>
<g filter="url(#filter0_d_19_14676)">
<circle cx="138.143" cy="122" r="6" fill="#F6601F"/>
</g>
<circle cx="138.143" cy="122" r="3" fill="white"/>
<g filter="url(#filter1_d_19_14676)">
<circle cx="445.143" cy="151" r="6" fill="#F6601F"/>
</g>
<circle cx="445.143" cy="151" r="3" fill="white"/>
<g filter="url(#filter2_d_19_14676)">
<circle cx="752.143" cy="151" r="6" fill="#F6601F"/>
</g>
<circle cx="752.143" cy="151" r="3" fill="white"/>
<g filter="url(#filter3_d_19_14676)">
<circle cx="1058.14" cy="145" r="6" fill="#F6601F"/>
</g>
<circle cx="1058.14" cy="145" r="3" fill="white"/>
<defs>
<filter id="filter0_d_19_14676" x="117.143" y="101" width="42" height="42" filterUnits="userSpaceOnUse" color-interpolation-filters="sRGB">
<feFlood flood-opacity="0" result="BackgroundImageFix"/>
<feColorMatrix in="SourceAlpha" type="matrix" values="0 0 0 0 0 0 0 0 0 0 0 0 0 0 0 0 0 0 127 0" result="hardAlpha"/>
<feOffset/>
<feGaussianBlur stdDeviation="7.5"/>
<feComposite in2="hardAlpha" operator="out"/>
<feColorMatrix type="matrix" values="0 0 0 0 0.996078 0 0 0 0 0.235294 0 0 0 0 0.0235294 0 0 0 0.5 0"/>
<feBlend mode="normal" in2="BackgroundImageFix" result="effect1_dropShadow_19_14676"/>
<feBlend mode="normal" in="SourceGraphic" in2="effect1_dropShadow_19_14676" result="shape"/>
</filter>
<filter id="filter1_d_19_14676" x="424.143" y="130" width="42" height="42" filterUnits="userSpaceOnUse" color-interpolation-filters="sRGB">
<feFlood flood-opacity="0" result="BackgroundImageFix"/>
<feColorMatrix in="SourceAlpha" type="matrix" values="0 0 0 0 0 0 0 0 0 0 0 0 0 0 0 0 0 0 127 0" result="hardAlpha"/>
<feOffset/>
<feGaussianBlur stdDeviation="7.5"/>
<feComposite in2="hardAlpha" operator="out"/>
<feColorMatrix type="matrix" values="0 0 0 0 0.996078 0 0 0 0 0.235294 0 0 0 0 0.0235294 0 0 0 0.5 0"/>
<feBlend mode="normal" in2="BackgroundImageFix" result="effect1_dropShadow_19_14676"/>
<feBlend mode="normal" in="SourceGraphic" in2="effect1_dropShadow_19_14676" result="shape"/>
</filter>
<filter id="filter2_d_19_14676" x="731.143" y="130" width="42" height="42" filterUnits="userSpaceOnUse" color-interpolation-filters="sRGB">
<feFlood flood-opacity="0" result="BackgroundImageFix"/>
<feColorMatrix in="SourceAlpha" type="matrix" values="0 0 0 0 0 0 0 0 0 0 0 0 0 0 0 0 0 0 127 0" result="hardAlpha"/>
<feOffset/>
<feGaussianBlur stdDeviation="7.5"/>
<feComposite in2="hardAlpha" operator="out"/>
<feColorMatrix type="matrix" values="0 0 0 0 0.996078 0 0 0 0 0.235294 0 0 0 0 0.0235294 0 0 0 0.5 0"/>
<feBlend mode="normal" in2="BackgroundImageFix" result="effect1_dropShadow_19_14676"/>
<feBlend mode="normal" in="SourceGraphic" in2="effect1_dropShadow_19_14676" result="shape"/>
</filter>
<filter id="filter3_d_19_14676" x="1037.14" y="124" width="42" height="42" filterUnits="userSpaceOnUse" color-interpolation-filters="sRGB">
<feFlood flood-opacity="0" result="BackgroundImageFix"/>
<feColorMatrix in="SourceAlpha" type="matrix" values="0 0 0 0 0 0 0 0 0 0 0 0 0 0 0 0 0 0 127 0" result="hardAlpha"/>
<feOffset/>
<feGaussianBlur stdDeviation="7.5"/>
<feComposite in2="hardAlpha" operator="out"/>
<feColorMatrix type="matrix" values="0 0 0 0 0.996078 0 0 0 0 0.235294 0 0 0 0 0.0235294 0 0 0 0.5 0"/>
<feBlend mode="normal" in2="BackgroundImageFix" result="effect1_dropShadow_19_14676"/>
<feBlend mode="normal" in="SourceGraphic" in2="effect1_dropShadow_19_14676" result="shape"/>
</filter>
<linearGradient id="paint0_linear_19_14676" x1="600.517" y1="112" x2="600.517" y2="215" gradientUnits="userSpaceOnUse">
<stop stop-color="#F6601F"/>
<stop offset="1" stop-color="#F6601F" stop-opacity="0"/>
</linearGradient>
<linearGradient id="paint1_linear_19_14676" x1="-8.64978" y1="140" x2="1200.64" y2="140" gradientUnits="userSpaceOnUse">
<stop stop-color="#F6601F" stop-opacity="0"/>
<stop offset="0.121059" stop-color="#F6601F"/>
<stop offset="0.885864" stop-color="#F6601F"/>
<stop offset="1" stop-color="#F6601F" stop-opacity="0"/>
</linearGradient>
</defs>
</svg>
