<svg xmlns="http://www.w3.org/2000/svg" viewBox="0 0 10.6836 6.01953" height="6.019531" width="10.683594"><g xmlns="http://www.w3.org/2000/svg" transform="matrix(-1 0 0 -1 10.6836 6.01953)"><desc>			Created with Pixso.	</desc><defs /><path id="Vector" d="M5.33 0C5.21 0 5.1 0.01 5 0.05C4.89 0.09 4.8 0.16 4.7 0.25L0.21 4.75C0.07 4.88 0 5.06 0 5.26C-0.01 5.48 0.06 5.65 0.21 5.8C0.35 5.94 0.53 6.01 0.73 6.01C0.94 6.01 1.12 5.94 1.26 5.8L5.33 1.73L9.41 5.8C9.55 5.94 9.72 6.01 9.93 6.01C10.14 6.01 10.32 5.94 10.46 5.8C10.61 5.65 10.68 5.48 10.68 5.27C10.68 5.07 10.61 4.89 10.46 4.75L5.97 0.25C5.87 0.16 5.78 0.09 5.67 0.05C5.57 0.01 5.45 0 5.33 0Z" fill="#FFFFFF" fill-opacity="1.000000" fill-rule="nonzero" /></g></svg>