<svg width="28" height="24" viewBox="0 0 28 24" fill="none" xmlns="http://www.w3.org/2000/svg">
<path d="M1 20C8.28959 20 15.3515 20.975 22.0623 22.8016C23.0317 23.0655 24 22.3448 24 21.3402V20M3 1V2C3 2.55228 2.55228 3 2 3H1M1 3V2.5C1 1.67157 1.67157 1 2.5 1H25M1 3V15M25 1V2C25 2.55228 25.4477 3 26 3H27M25 1H25.5C26.3284 1 27 1.67157 27 2.5V15.5C27 16.3284 26.3284 17 25.5 17H25M27 15H26C25.4477 15 25 15.4477 25 16V17M25 17H3M3 17H2.5C1.67157 17 1 16.3284 1 15.5V15M3 17V16C3 15.4477 2.55228 15 2 15H1M18 9C18 11.2091 16.2091 13 14 13C11.7909 13 10 11.2091 10 9C10 6.79086 11.7909 5 14 5C16.2091 5 18 6.79086 18 9ZM22 9H22.01V9.01H22V9ZM6 9H6.01V9.01H6V9Z" stroke="white" stroke-opacity="0.4" stroke-width="1.2" stroke-linecap="round" stroke-linejoin="round"/>
</svg>
