<svg width="18.000000" height="12.000000" viewBox="0 0 18 12" fill="none" xmlns="http://www.w3.org/2000/svg" xmlns:xlink="http://www.w3.org/1999/xlink">
	<desc>
			Created with Pixso.
	</desc>
	<defs/>
	<path id="Vector (Stroke)" d="M0 0.75C0 0.33 0.33 0 0.75 0L17.25 0C17.66 0 18 0.33 18 0.75C18 1.16 17.66 1.5 17.25 1.5L0.75 1.5C0.33 1.5 0 1.16 0 0.75ZM0 6C0 5.58 0.33 5.25 0.75 5.25L17.25 5.25C17.66 5.25 18 5.58 18 6C18 6.41 17.66 6.75 17.25 6.75L0.75 6.75C0.33 6.75 0 6.41 0 6ZM8.25 11.25C8.25 10.83 8.58 10.5 9 10.5L17.25 10.5C17.66 10.5 18 10.83 18 11.25C18 11.66 17.66 12 17.25 12L9 12C8.58 12 8.25 11.66 8.25 11.25Z" fill="#FFFFFF" fill-opacity="1.000000" fill-rule="evenodd"/>
</svg>
