<svg width="23" height="27" viewBox="0 0 23 27" fill="none" xmlns="http://www.w3.org/2000/svg">
<path d="M22.3333 6.33333C22.3333 9.27885 17.5577 11.6667 11.6667 11.6667C5.77563 11.6667 1 9.27885 1 6.33333M22.3333 6.33333C22.3333 3.38781 17.5577 1 11.6667 1C5.77563 1 1 3.38781 1 6.33333M22.3333 6.33333V20.8788C22.3333 23.8243 17.5577 26.2121 11.6667 26.2121C5.77563 26.2121 1 23.8243 1 20.8788V6.33333M22.3333 6.33333V11.1818M1 6.33333V11.1818M22.3333 11.1818V16.0303C22.3333 18.9758 17.5577 21.3636 11.6667 21.3636C5.77563 21.3636 1 18.9758 1 16.0303V11.1818M22.3333 11.1818C22.3333 14.1273 17.5577 16.5152 11.6667 16.5152C5.77563 16.5152 1 14.1273 1 11.1818" stroke="white" stroke-opacity="0.4" stroke-width="1.2" stroke-linecap="round" stroke-linejoin="round"/>
</svg>
