<svg width="94" height="94" viewBox="0 0 94 94" fill="none" xmlns="http://www.w3.org/2000/svg">
<circle cx="47.3613" cy="47.3613" r="46.375" fill="url(#paint0_linear_60_12774)"/>
<path d="M68.3797 66.4444C67.5874 67.7016 65.8972 68.0536 64.5767 67.2993C54.1711 61.2649 41.1246 59.9071 25.7011 63.2261C24.2222 63.5278 22.7432 62.6729 22.4263 61.2649C22.1094 59.8569 23.0073 58.4488 24.4863 58.1471C41.3359 54.4762 55.8086 56.0351 67.429 62.8238C68.7495 63.5781 69.172 65.1872 68.3797 66.4444ZM73.7674 54.9791C72.7638 56.538 70.651 56.9905 69.0136 56.0854C57.1291 49.0955 39.0118 47.0841 24.9616 51.1573C23.1129 51.6602 21.2114 50.7047 20.6832 48.995C20.155 47.2349 21.1586 45.4246 23.0073 44.9218C39.0646 40.2954 59.0306 42.508 72.711 50.5036C74.2428 51.4087 74.771 53.4202 73.7674 54.9791ZM74.2428 43.0109C59.9813 34.965 36.4764 34.2107 22.8488 38.1331C20.6832 38.7868 18.3591 37.6302 17.6725 35.5182C16.9858 33.4564 18.2535 31.2438 20.4191 30.5901C36.0539 26.0643 62.0413 26.9695 78.4156 36.2222C80.3699 37.3285 81.0037 39.7422 79.8417 41.6028C78.7325 43.5137 76.1971 44.1675 74.2428 43.0109Z" fill="white" fill-opacity="0.5"/>
<defs>
<linearGradient id="paint0_linear_60_12774" x1="42.2444" y1="-29.7079" x2="42.2445" y2="120.761" gradientUnits="userSpaceOnUse">
<stop offset="0.00804812" stop-color="#F6601F"/>
<stop offset="0.932292" stop-color="#151617" stop-opacity="0"/>
</linearGradient>
</defs>
</svg>
