<svg width="170" height="48" viewBox="0 0 170 48" fill="none" xmlns="http://www.w3.org/2000/svg">
<g filter="url(#filter0_bdi_58_12410)">
<g clip-path="url(#clip0_58_12410)">
<rect width="170" height="48" rx="8" fill="url(#paint0_linear_58_12410)" fill-opacity="0.04" shape-rendering="crispEdges"/>
<g style="mix-blend-mode:plus-lighter" opacity="0.5" filter="url(#filter1_f_58_12410)">
<path d="M10.2445 17.9411C10.373 15.9623 11.9639 14.4116 13.9445 14.3134C16.8124 14.1714 20.9115 14 24 14C27.0885 14 31.1876 14.1714 34.0555 14.3134C36.0361 14.4116 37.627 15.9623 37.7555 17.9411C37.8786 19.8369 38 22.1697 38 24C38 25.8303 37.8786 28.1631 37.7555 30.0589C37.627 32.0377 36.0361 33.5884 34.0555 33.6866C31.1876 33.8286 27.0885 34 24 34C20.9115 34 16.8124 33.8286 13.9445 33.6866C11.9639 33.5884 10.373 32.0377 10.2445 30.0589C10.1214 28.1631 10 25.8303 10 24C10 22.1697 10.1214 19.8369 10.2445 17.9411Z" fill="#FC0D1B"/>
<path d="M21 20V28L29 24L21 20Z" fill="white"/>
</g>
<path d="M52.6152 18.5V12.1587H53.4062V17.7881H56.4648V18.5H52.6152ZM58.007 13.1562C57.7433 13.1562 57.528 12.9409 57.528 12.6772C57.528 12.4092 57.7433 12.1982 58.007 12.1982C58.275 12.1982 58.486 12.4092 58.486 12.6772C58.486 12.9409 58.275 13.1562 58.007 13.1562ZM57.6246 18.5V13.9297H58.3893V18.5H57.6246ZM61.4124 18.5879C60.3357 18.5879 59.6853 18.0386 59.593 17.2212L59.5887 17.1816H60.3533L60.3621 17.2256C60.4544 17.6826 60.7928 17.9507 61.4168 17.9507C62.0364 17.9507 62.4055 17.6914 62.4055 17.2783V17.2739C62.4055 16.9443 62.2342 16.7598 61.7156 16.6323L60.9905 16.4565C60.1292 16.25 59.7117 15.8501 59.7117 15.1909V15.1865C59.7117 14.3999 60.4016 13.8418 61.3904 13.8418C62.3924 13.8418 63.0296 14.4263 63.0867 15.1909L63.0911 15.248H62.3616L62.3572 15.2173C62.2957 14.7734 61.9573 14.479 61.3904 14.479C60.8367 14.479 60.4939 14.7471 60.4939 15.1514V15.1558C60.4939 15.4678 60.7005 15.6831 61.2058 15.8062L61.9309 15.9819C62.8538 16.2061 63.1878 16.5708 63.1878 17.2212V17.2256C63.1878 18.0254 62.4319 18.5879 61.4124 18.5879ZM65.8285 18.5879C64.9892 18.5879 64.5761 18.21 64.5761 17.3354V14.5625H63.9081V13.9297H64.5761V12.6948H65.3671V13.9297H66.2372V14.5625H65.3671V17.3311C65.3671 17.8188 65.5824 17.9551 65.9911 17.9551C66.0834 17.9551 66.1713 17.9419 66.2372 17.9375V18.5571C66.1405 18.5703 65.9779 18.5879 65.8285 18.5879ZM69.168 18.5879C67.8541 18.5879 67.063 17.6694 67.063 16.2324V16.228C67.063 14.813 67.8716 13.8418 69.1197 13.8418C70.3677 13.8418 71.128 14.769 71.128 16.1401V16.4214H67.8365C67.8541 17.3618 68.3726 17.9111 69.1856 17.9111C69.7657 17.9111 70.1744 17.6211 70.3062 17.23L70.3194 17.1904H71.0709L71.0621 17.2344C70.9127 17.9902 70.1656 18.5879 69.168 18.5879ZM69.1153 14.5186C68.4517 14.5186 67.9332 14.9712 67.8497 15.8237H70.3502C70.2754 14.936 69.7833 14.5186 69.1153 14.5186ZM72.2614 18.5V13.9297H73.0261V14.5801H73.0437C73.2897 14.1538 73.7556 13.8418 74.4499 13.8418C75.4519 13.8418 76.0319 14.4922 76.0319 15.5337V18.5H75.2673V15.6699C75.2673 14.9272 74.9201 14.5186 74.217 14.5186C73.4963 14.5186 73.0261 15.0327 73.0261 15.8105V18.5H72.2614ZM81.4673 18.5879C80.1972 18.5879 79.3491 17.6694 79.3491 16.2148V16.2061C79.3491 14.7515 80.2016 13.8418 81.4629 13.8418C82.7241 13.8418 83.581 14.7471 83.581 16.2061V16.2148C83.581 17.6738 82.7285 18.5879 81.4673 18.5879ZM81.4717 17.9111C82.2759 17.9111 82.7988 17.2871 82.7988 16.2148V16.2061C82.7988 15.1338 82.2715 14.5186 81.4629 14.5186C80.6675 14.5186 80.1313 15.1382 80.1313 16.2061V16.2148C80.1313 17.2915 80.6631 17.9111 81.4717 17.9111ZM84.7145 18.5V13.9297H85.4791V14.5801H85.4967C85.7428 14.1538 86.2086 13.8418 86.903 13.8418C87.9049 13.8418 88.485 14.4922 88.485 15.5337V18.5H87.7203V15.6699C87.7203 14.9272 87.3732 14.5186 86.67 14.5186C85.9493 14.5186 85.4791 15.0327 85.4791 15.8105V18.5H84.7145Z" fill="white"/>
<path d="M56.1719 35.5V30.8828L52.2031 24.2266H54.1484L57.0234 29.2031H57.0781L59.9531 24.2266H61.8984L57.9219 30.8828V35.5H56.1719ZM64.8984 35.6641C62.5391 35.6641 61 34.0312 61 31.3906V31.375C61 28.75 62.5547 27.125 64.8906 27.125C67.2344 27.125 68.7969 28.7422 68.7969 31.375V31.3906C68.7969 34.0391 67.25 35.6641 64.8984 35.6641ZM64.9062 34.25C66.2266 34.25 67.0703 33.2031 67.0703 31.3906V31.375C67.0703 29.5781 66.2109 28.5391 64.8906 28.5391C63.5938 28.5391 62.7266 29.5781 62.7266 31.375V31.3906C62.7266 33.2109 63.5859 34.25 64.9062 34.25ZM72.8984 35.6641C71.0938 35.6641 70.0625 34.5 70.0625 32.6094V27.2812H71.75V32.2812C71.75 33.5234 72.3281 34.2109 73.5 34.2109C74.6875 34.2109 75.4531 33.3594 75.4531 32.0781V27.2812H77.1484V35.5H75.4531V34.2656H75.4141C74.9844 35.0938 74.1484 35.6641 72.8984 35.6641ZM80.3516 35.5V25.7344H76.8984V24.2266H85.5469V25.7344H82.1016V35.5H80.3516ZM88.0703 35.6641C86.2656 35.6641 85.2344 34.5 85.2344 32.6094V27.2812H86.9219V32.2812C86.9219 33.5234 87.5 34.2109 88.6719 34.2109C89.8594 34.2109 90.625 33.3594 90.625 32.0781V27.2812H92.3203V35.5H90.625V34.2656H90.5859C90.1562 35.0938 89.3203 35.6641 88.0703 35.6641ZM98.3594 35.6641C97.1797 35.6641 96.2656 35.0703 95.7812 34.1094H95.7422V35.5H94.0547V24.2266H95.7422V28.6797H95.7812C96.2734 27.7109 97.2109 27.125 98.375 27.125C100.438 27.125 101.797 28.7656 101.797 31.3828V31.3906C101.797 34.0078 100.445 35.6641 98.3594 35.6641ZM97.9141 34.2109C99.2422 34.2109 100.07 33.1406 100.07 31.3906V31.3828C100.07 29.6484 99.2422 28.5703 97.9141 28.5703C96.6406 28.5703 95.7344 29.6797 95.7344 31.3828V31.3906C95.7344 33.1016 96.6328 34.2109 97.9141 34.2109ZM106.609 35.6641C104.195 35.6641 102.734 34.0156 102.734 31.4219V31.4141C102.734 28.8438 104.219 27.125 106.523 27.125C108.828 27.125 110.242 28.7812 110.242 31.25V31.8203H104.422C104.453 33.375 105.305 34.2812 106.648 34.2812C107.648 34.2812 108.312 33.7656 108.523 33.1484L108.547 33.0859H110.148L110.133 33.1719C109.867 34.4766 108.602 35.6641 106.609 35.6641ZM106.531 28.5078C105.438 28.5078 104.594 29.25 104.445 30.625H108.57C108.43 29.2031 107.633 28.5078 106.531 28.5078Z" fill="white"/>
<path d="M10.2445 17.9411C10.373 15.9623 11.9639 14.4116 13.9445 14.3134C16.8124 14.1714 20.9115 14 24 14C27.0885 14 31.1876 14.1714 34.0555 14.3134C36.0361 14.4116 37.627 15.9623 37.7555 17.9411C37.8786 19.8369 38 22.1697 38 24C38 25.8303 37.8786 28.1631 37.7555 30.0589C37.627 32.0377 36.0361 33.5884 34.0555 33.6866C31.1876 33.8286 27.0885 34 24 34C20.9115 34 16.8124 33.8286 13.9445 33.6866C11.9639 33.5884 10.373 32.0377 10.2445 30.0589C10.1214 28.1631 10 25.8303 10 24C10 22.1697 10.1214 19.8369 10.2445 17.9411Z" fill="#FC0D1B"/>
<path d="M21 20V28L29 24L21 20Z" fill="white"/>
<g filter="url(#filter2_f_58_12410)">
<ellipse cx="24.5" cy="47.5" rx="11.5" ry="6.5" fill="#FC0D1B"/>
</g>
</g>
<rect width="170" height="48" rx="8" stroke="url(#paint1_linear_58_12410)" stroke-opacity="0.5" stroke-width="0.8" shape-rendering="crispEdges"/>
</g>
<g style="mix-blend-mode:screen" filter="url(#filter3_f_58_12410)">
<circle cx="17" cy="17" r="9" fill="white" fill-opacity="0.18"/>
</g>
<defs>
<filter id="filter0_bdi_58_12410" x="-20.3999" y="-20.4004" width="214.8" height="88.8008" filterUnits="userSpaceOnUse" color-interpolation-filters="sRGB">
<feFlood flood-opacity="0" result="BackgroundImageFix"/>
<feGaussianBlur in="BackgroundImageFix" stdDeviation="10"/>
<feComposite in2="SourceAlpha" operator="in" result="effect1_backgroundBlur_58_12410"/>
<feColorMatrix in="SourceAlpha" type="matrix" values="0 0 0 0 0 0 0 0 0 0 0 0 0 0 0 0 0 0 127 0" result="hardAlpha"/>
<feOffset dx="8" dy="4"/>
<feGaussianBlur stdDeviation="8"/>
<feComposite in2="hardAlpha" operator="out"/>
<feColorMatrix type="matrix" values="0 0 0 0 0 0 0 0 0 0 0 0 0 0 0 0 0 0 0.08 0"/>
<feBlend mode="normal" in2="effect1_backgroundBlur_58_12410" result="effect2_dropShadow_58_12410"/>
<feBlend mode="normal" in="SourceGraphic" in2="effect2_dropShadow_58_12410" result="shape"/>
<feColorMatrix in="SourceAlpha" type="matrix" values="0 0 0 0 0 0 0 0 0 0 0 0 0 0 0 0 0 0 127 0" result="hardAlpha"/>
<feOffset/>
<feGaussianBlur stdDeviation="4"/>
<feComposite in2="hardAlpha" operator="arithmetic" k2="-1" k3="1"/>
<feColorMatrix type="matrix" values="0 0 0 0 0.988235 0 0 0 0 0.0509804 0 0 0 0 0.105882 0 0 0 0.32 0"/>
<feBlend mode="normal" in2="shape" result="effect3_innerShadow_58_12410"/>
</filter>
<filter id="filter1_f_58_12410" x="-4" y="-4" width="56" height="56" filterUnits="userSpaceOnUse" color-interpolation-filters="sRGB">
<feFlood flood-opacity="0" result="BackgroundImageFix"/>
<feBlend mode="normal" in="SourceGraphic" in2="BackgroundImageFix" result="shape"/>
<feGaussianBlur stdDeviation="6" result="effect1_foregroundBlur_58_12410"/>
</filter>
<filter id="filter2_f_58_12410" x="-5" y="23" width="59" height="49" filterUnits="userSpaceOnUse" color-interpolation-filters="sRGB">
<feFlood flood-opacity="0" result="BackgroundImageFix"/>
<feBlend mode="normal" in="SourceGraphic" in2="BackgroundImageFix" result="shape"/>
<feGaussianBlur stdDeviation="9" result="effect1_foregroundBlur_58_12410"/>
</filter>
<filter id="filter3_f_58_12410" x="-12" y="-12" width="58" height="58" filterUnits="userSpaceOnUse" color-interpolation-filters="sRGB">
<feFlood flood-opacity="0" result="BackgroundImageFix"/>
<feBlend mode="normal" in="SourceGraphic" in2="BackgroundImageFix" result="shape"/>
<feGaussianBlur stdDeviation="10" result="effect1_foregroundBlur_58_12410"/>
</filter>
<linearGradient id="paint0_linear_58_12410" x1="0" y1="0" x2="25.1045" y2="88.9117" gradientUnits="userSpaceOnUse">
<stop stop-color="#F8FBFF"/>
<stop offset="1" stop-color="white" stop-opacity="0"/>
</linearGradient>
<linearGradient id="paint1_linear_58_12410" x1="3.54167" y1="-1" x2="25.9272" y2="84.3808" gradientUnits="userSpaceOnUse">
<stop stop-color="#D8D8D8" stop-opacity="0.05"/>
<stop offset="1" stop-color="white" stop-opacity="0.4"/>
</linearGradient>
<clipPath id="clip0_58_12410">
<rect width="170" height="48" rx="8" fill="white"/>
</clipPath>
</defs>
</svg>
